<svg width="1000" height="1098" viewBox="0 0 1000 1098" xmlns="http://www.w3.org/2000/svg" xmlns:xlink="http://www.w3.org/1999/xlink" style="width:100%;height:auto;"><style>path{transition:.2s;transform-box:fill-box;transform-origin:center}a path{fill:#c8d54f;stroke:#FFFFFF;stroke-width:2}a path:hover{fill:#b0bd45;stroke:#fff;stroke-width:2;opacity:.95;transform:scale(1.01)}</style><a xlink:href="/immobilienmarkt/sachsen/leipzig/" target="_blank"><path d="M 0.0,671.8 L 4.3,685.8 L 20.9,681.7 L 10.5,691.1 L 24.2,705.6 L 36.4,748.5 L 40.8,746.4 L 49.0,779.4 L 44.7,786.8 L 80.1,782.7 L 83.6,830.2 L 119.1,845.7 L 146.0,875.4 L 87.3,872.6 L 84.9,849.5 L 43.7,847.8 L 43.4,863.9 L 51.0,867.2 L 53.7,880.2 L 39.3,884.4 L 36.5,889.2 L 50.0,946.4 L 35.4,953.4 L 44.9,955.6 L 50.9,985.4 L 54.5,983.2 L 60.5,1007.6 L 72.7,1029.7 L 68.7,1031.6 L 70.8,1035.2 L 55.8,1042.4 L 63.6,1063.9 L 48.5,1070.8 L 55.4,1092.7 L 47.8,1095.1 L 49.0,1098.0 L 68.2,1091.6 L 69.8,1097.4 L 80.4,1095.1 L 112.3,1079.5 L 151.5,1073.6 L 149.8,1066.0 L 190.1,1082.0 L 215.7,1072.1 L 232.1,1071.7 L 232.0,1076.9 L 250.4,1073.9 L 257.8,1065.9 L 258.6,1056.3 L 253.1,1042.3 L 243.7,1038.8 L 256.5,1033.6 L 249.3,1027.9 L 255.6,1022.4 L 252.7,1015.9 L 258.2,1013.6 L 255.9,1007.8 L 266.0,998.4 L 282.0,999.3 L 279.7,958.6 L 283.4,934.1 L 290.7,935.8 L 296.5,925.3 L 311.3,926.6 L 312.2,940.1 L 325.2,938.7 L 325.0,947.0 L 340.9,945.0 L 342.8,936.8 L 350.1,941.1 L 355.3,938.4 L 350.2,930.3 L 340.1,927.5 L 352.1,919.5 L 355.4,923.8 L 358.5,920.0 L 352.3,915.4 L 355.3,909.4 L 364.7,912.6 L 359.5,901.6 L 365.3,896.0 L 365.5,885.2 L 373.8,874.3 L 379.0,874.3 L 382.2,862.9 L 376.3,861.2 L 377.4,847.7 L 370.1,828.1 L 379.8,828.8 L 381.9,823.8 L 374.5,824.8 L 375.3,799.9 L 368.6,796.5 L 374.4,793.7 L 379.2,797.4 L 387.3,794.4 L 391.4,806.7 L 409.2,814.4 L 417.6,823.1 L 413.7,835.4 L 425.6,844.5 L 441.7,808.3 L 448.2,808.4 L 453.5,821.8 L 457.1,819.9 L 459.1,836.9 L 472.4,862.3 L 485.6,869.4 L 484.5,875.4 L 500.9,875.3 L 506.0,870.9 L 506.3,882.0 L 511.5,881.3 L 514.5,867.0 L 537.9,864.4 L 550.4,871.8 L 565.1,867.5 L 566.3,877.6 L 574.2,877.4 L 577.3,884.7 L 582.8,879.0 L 581.0,859.9 L 588.8,861.5 L 588.4,854.6 L 631.3,847.9 L 648.5,857.5 L 687.9,864.7 L 695.2,909.7 L 691.0,940.8 L 756.1,974.3 L 770.5,975.4 L 789.1,967.7 L 785.6,990.1 L 788.6,995.0 L 822.0,996.5 L 839.7,982.8 L 831.7,968.9 L 813.5,974.7 L 809.3,960.6 L 834.3,893.8 L 840.2,893.3 L 842.2,871.6 L 862.3,861.7 L 849.9,831.7 L 862.3,831.3 L 878.1,776.7 L 878.4,757.9 L 987.9,744.1 L 991.1,734.7 L 963.4,685.0 L 972.5,688.3 L 1000.0,648.9 L 948.1,611.7 L 983.8,591.9 L 988.1,581.3 L 981.8,580.3 L 983.9,576.1 L 978.8,569.4 L 986.5,561.5 L 980.3,556.4 L 967.2,561.0 L 946.5,541.9 L 950.1,523.9 L 945.2,519.5 L 890.7,527.8 L 857.3,458.5 L 807.8,456.2 L 765.9,419.6 L 753.4,414.1 L 768.3,404.3 L 765.3,395.4 L 784.5,344.1 L 752.1,340.3 L 746.4,299.9 L 741.1,297.4 L 748.0,292.4 L 749.4,289.6 L 744.9,289.6 L 747.8,285.4 L 750.1,288.6 L 762.7,282.7 L 756.4,247.9 L 766.9,240.9 L 766.2,234.4 L 750.6,234.2 L 735.5,212.0 L 719.6,200.8 L 719.6,176.6 L 725.7,153.7 L 733.7,154.3 L 735.5,145.0 L 780.5,148.3 L 780.2,161.7 L 824.3,159.7 L 825.4,145.3 L 837.3,141.4 L 836.2,134.8 L 841.7,134.8 L 835.4,117.6 L 834.9,105.3 L 839.4,104.9 L 837.4,87.0 L 770.6,82.7 L 768.3,55.3 L 761.1,54.5 L 765.9,27.8 L 699.7,20.9 L 681.0,4.3 L 668.7,0.0 L 666.1,25.9 L 672.0,91.8 L 645.6,97.0 L 612.2,112.0 L 601.6,105.5 L 590.9,106.3 L 586.9,100.1 L 553.2,100.9 L 535.1,138.9 L 530.1,164.2 L 522.4,169.9 L 511.1,155.7 L 458.4,134.4 L 447.5,121.7 L 447.2,128.2 L 417.0,136.9 L 404.1,153.0 L 403.4,171.7 L 403.1,159.4 L 316.2,157.1 L 315.0,149.2 L 251.8,156.0 L 246.2,158.8 L 248.2,172.7 L 164.0,168.3 L 112.4,158.5 L 121.6,163.1 L 122.9,169.4 L 114.4,167.8 L 117.3,181.7 L 87.5,191.8 L 91.2,240.5 L 79.8,239.7 L 82.8,245.9 L 51.2,233.0 L 62.4,252.9 L 87.2,250.3 L 92.8,260.5 L 102.0,265.7 L 91.8,287.7 L 73.1,303.3 L 65.3,316.2 L 67.2,330.9 L 62.0,336.8 L 66.8,336.0 L 74.1,347.4 L 72.2,353.5 L 51.5,357.9 L 28.5,383.3 L 3.3,395.0 L 4.2,398.7 L 22.0,403.0 L 14.4,460.7 L 19.3,498.9 L 17.4,518.6 L 36.4,538.2 L 43.6,558.1 L 43.4,575.4 L 74.1,589.5 L 75.4,593.9 L 69.3,605.5 L 34.5,614.1 L 36.1,619.3 L 27.3,620.8 L 26.7,609.0 L 23.2,610.7 L 24.0,632.3 L 1.1,637.0 L 9.3,668.9 Z" fill="#c8d54f" fill-rule="nonzero" stroke="#FFFFFF" stroke-width="2" data-name="Leipzig" data-value="I: n.v. | G: n.v. | M: n.v." data-immobilienpreis="n.v." data-grundstueckspreis="n.v." data-mietpreis="n.v."></path></a></svg>