<svg width="1000" height="802" viewBox="0 0 1000 802" xmlns="http://www.w3.org/2000/svg" xmlns:xlink="http://www.w3.org/1999/xlink" style="width:100%;height:auto;"><style>path{transition:.2s;transform-box:fill-box;transform-origin:center}a path{fill:#c8d54f;stroke:#FFFFFF;stroke-width:2}a path:hover{fill:#b0bd45;stroke:#fff;stroke-width:2;opacity:.95;transform:scale(1.01)}</style><a xlink:href="https://www.praxiswissen-immobilien.de/immobilienmarkt/sachsen/landkreis-bautzen/" target="_blank"><path d="M 631.4,295.0 L 633.5,297.1 L 639.1,298.5 L 638.9,300.2 L 637.9,301.7 L 642.2,304.1 L 643.2,303.3 L 645.4,306.4 L 644.8,306.1 L 644.3,306.8 L 643.9,309.3 L 642.9,309.9 L 639.7,310.1 L 638.0,310.9 L 634.9,313.8 L 633.4,317.6 L 633.4,320.4 L 635.9,320.8 L 639.4,325.1 L 639.0,325.9 L 642.2,326.1 L 646.4,324.3 L 646.5,323.6 L 647.7,324.4 L 648.8,327.0 L 649.2,330.0 L 650.1,330.0 L 650.9,332.7 L 652.5,332.6 L 654.3,333.5 L 658.2,336.8 L 659.2,338.8 L 660.9,337.6 L 662.2,338.2 L 662.3,336.8 L 663.8,334.6 L 664.2,334.9 L 666.6,333.9 L 670.5,330.9 L 673.0,332.6 L 675.8,331.5 L 676.5,332.9 L 678.2,333.3 L 677.6,334.4 L 678.4,334.6 L 678.5,335.8 L 679.6,335.8 L 680.0,336.4 L 679.7,338.1 L 681.4,338.5 L 681.1,339.6 L 681.9,340.4 L 681.4,341.9 L 676.3,343.4 L 674.1,344.8 L 674.9,348.5 L 676.0,350.9 L 677.3,351.3 L 678.4,352.5 L 681.2,358.9 L 683.3,358.9 L 683.2,360.1 L 685.7,361.9 L 684.3,364.7 L 686.0,365.6 L 687.3,368.0 L 688.8,367.9 L 690.1,369.0 L 689.5,369.4 L 690.4,370.8 L 689.8,373.4 L 688.6,373.6 L 688.0,374.6 L 687.8,375.9 L 688.6,376.6 L 687.0,377.8 L 685.0,376.3 L 685.1,375.6 L 686.4,375.5 L 686.6,374.5 L 685.8,374.4 L 684.6,374.9 L 684.6,376.1 L 682.6,377.7 L 684.2,377.8 L 684.8,378.3 L 684.5,380.0 L 682.3,381.1 L 680.7,383.5 L 679.6,383.7 L 680.5,385.0 L 690.2,386.7 L 693.9,389.2 L 693.1,389.9 L 694.0,391.0 L 695.6,390.4 L 694.8,391.4 L 696.3,390.8 L 699.4,390.7 L 699.3,389.9 L 702.7,389.6 L 703.1,389.0 L 701.8,388.0 L 701.3,388.7 L 700.9,388.3 L 701.2,387.8 L 700.4,387.4 L 702.4,383.9 L 703.2,384.5 L 707.0,383.4 L 707.2,384.9 L 706.6,384.4 L 706.9,386.4 L 707.4,386.1 L 710.3,389.3 L 709.7,389.3 L 708.4,387.8 L 709.4,389.3 L 708.9,389.2 L 708.9,389.3 L 710.4,389.4 L 712.6,391.5 L 716.6,390.3 L 718.3,388.7 L 718.2,386.7 L 719.2,386.8 L 719.7,385.9 L 722.4,386.3 L 722.0,387.2 L 724.1,388.3 L 726.3,388.4 L 726.9,385.8 L 728.7,385.3 L 730.0,385.5 L 732.2,387.1 L 734.7,385.9 L 736.8,387.4 L 738.0,386.9 L 739.7,387.8 L 742.7,385.7 L 741.0,384.2 L 743.7,378.3 L 743.8,376.8 L 745.6,376.2 L 750.3,383.8 L 752.5,382.9 L 752.7,383.3 L 755.4,383.1 L 756.9,384.1 L 757.3,383.5 L 758.0,383.8 L 758.2,382.7 L 759.2,382.7 L 759.2,381.9 L 762.6,384.1 L 765.4,384.1 L 768.8,379.9 L 770.1,380.6 L 772.2,378.3 L 774.9,376.9 L 774.5,375.9 L 775.0,375.0 L 777.1,373.4 L 778.4,374.3 L 779.5,376.7 L 780.3,376.3 L 779.3,377.7 L 781.4,380.2 L 781.3,383.0 L 786.6,386.1 L 788.7,387.9 L 790.0,388.1 L 792.4,387.2 L 790.2,386.7 L 790.4,385.1 L 791.7,385.6 L 792.8,384.9 L 795.3,385.0 L 795.3,384.5 L 794.2,384.3 L 794.7,384.0 L 793.9,383.8 L 793.9,383.3 L 792.3,382.7 L 793.6,381.8 L 795.5,382.3 L 796.1,378.8 L 798.3,374.7 L 804.7,376.4 L 805.2,375.7 L 808.6,377.5 L 810.4,377.5 L 814.0,379.1 L 814.7,380.0 L 816.3,380.3 L 818.2,381.3 L 817.4,382.5 L 819.5,383.3 L 821.9,383.5 L 823.6,386.5 L 823.4,387.8 L 825.1,389.1 L 825.0,390.1 L 824.3,390.6 L 824.5,391.9 L 828.9,390.5 L 832.5,387.0 L 834.3,383.4 L 838.5,383.9 L 841.5,386.2 L 843.3,386.8 L 850.7,387.3 L 849.2,391.6 L 848.6,390.9 L 846.1,391.0 L 847.0,392.2 L 849.2,391.7 L 850.2,394.1 L 849.9,395.9 L 853.2,398.7 L 853.3,400.1 L 856.4,404.7 L 858.4,405.4 L 860.3,405.1 L 861.1,403.6 L 862.7,402.7 L 864.9,402.5 L 867.0,401.2 L 870.1,403.3 L 871.7,405.3 L 872.6,404.9 L 875.1,405.4 L 875.3,411.7 L 875.9,412.6 L 878.1,414.5 L 883.9,416.4 L 885.2,417.7 L 889.7,417.5 L 892.5,415.4 L 894.4,414.8 L 894.3,414.0 L 895.7,412.6 L 901.3,407.8 L 903.0,407.0 L 905.3,407.6 L 907.6,407.4 L 909.5,410.1 L 911.4,411.0 L 911.0,413.5 L 915.5,414.7 L 918.2,414.8 L 918.8,407.1 L 917.4,402.3 L 917.6,399.4 L 915.4,398.7 L 915.0,399.0 L 915.4,396.4 L 917.2,391.3 L 914.9,389.4 L 912.9,388.6 L 913.3,388.1 L 910.7,385.8 L 911.4,383.3 L 914.5,382.4 L 915.5,381.5 L 925.2,380.0 L 929.9,378.4 L 938.4,377.9 L 941.3,380.1 L 943.6,379.4 L 943.7,379.8 L 943.8,379.7 L 943.6,379.2 L 945.4,376.9 L 946.9,376.3 L 949.7,371.4 L 949.4,369.3 L 948.2,369.5 L 946.8,368.3 L 947.5,366.8 L 954.0,363.9 L 954.0,363.1 L 952.9,362.9 L 952.2,361.5 L 952.2,359.6 L 949.5,358.2 L 950.6,354.5 L 952.3,355.3 L 953.5,355.3 L 953.7,354.4 L 957.3,354.7 L 962.0,356.6 L 964.8,356.1 L 967.1,356.3 L 967.4,355.2 L 964.9,354.5 L 964.6,353.0 L 962.6,352.4 L 962.7,352.8 L 962.1,352.7 L 962.0,351.6 L 962.4,351.6 L 963.0,349.8 L 964.5,348.1 L 965.2,349.1 L 968.3,349.6 L 971.0,348.0 L 971.4,348.7 L 972.7,348.3 L 974.7,346.3 L 976.2,346.9 L 977.1,345.5 L 974.8,346.1 L 973.5,345.2 L 973.0,344.2 L 973.3,342.8 L 975.6,342.5 L 975.7,342.0 L 975.2,341.8 L 975.7,339.1 L 976.9,339.1 L 977.1,337.7 L 978.6,337.7 L 979.0,335.6 L 979.6,334.9 L 978.9,334.7 L 979.0,334.1 L 979.7,334.3 L 982.0,331.5 L 983.4,332.4 L 983.4,331.4 L 984.0,331.5 L 984.6,332.7 L 985.9,333.5 L 986.4,332.9 L 986.6,334.9 L 987.5,334.5 L 987.6,335.6 L 988.7,335.5 L 988.3,336.8 L 989.6,336.9 L 989.8,335.3 L 990.6,335.2 L 990.0,336.8 L 992.7,336.7 L 992.8,334.9 L 992.1,334.5 L 992.4,334.0 L 991.7,334.3 L 992.2,333.7 L 991.9,331.6 L 992.6,330.8 L 990.7,329.8 L 990.6,328.6 L 991.8,327.8 L 991.3,327.6 L 991.8,326.0 L 993.4,325.5 L 992.9,324.9 L 992.7,324.6 L 993.8,324.9 L 993.9,325.7 L 995.4,325.7 L 995.1,323.7 L 996.0,323.5 L 996.0,323.0 L 994.8,321.3 L 995.7,321.0 L 996.1,319.9 L 997.6,318.9 L 997.7,317.9 L 999.8,317.2 L 1000.0,316.5 L 998.8,316.2 L 997.5,314.2 L 998.9,313.8 L 998.7,313.3 L 996.7,313.8 L 996.2,313.3 L 992.4,312.9 L 991.5,312.1 L 993.2,311.8 L 991.1,310.6 L 991.5,310.1 L 990.9,310.2 L 990.5,310.9 L 990.1,310.0 L 988.8,310.3 L 988.7,309.7 L 987.4,309.4 L 991.0,307.9 L 990.0,305.6 L 991.3,305.2 L 991.5,304.2 L 992.5,304.1 L 992.3,300.2 L 993.5,297.7 L 989.5,297.8 L 989.7,297.0 L 988.7,296.7 L 988.4,297.9 L 985.5,298.0 L 982.9,296.5 L 983.2,295.7 L 981.2,295.0 L 980.7,293.6 L 979.1,293.6 L 979.7,289.9 L 981.0,288.6 L 979.4,285.6 L 978.0,285.8 L 975.8,288.4 L 975.2,291.0 L 974.0,291.0 L 973.9,291.7 L 973.3,289.8 L 971.3,287.2 L 968.2,286.7 L 970.3,281.8 L 971.4,280.2 L 974.0,278.5 L 974.3,274.6 L 970.4,268.0 L 965.4,267.2 L 967.7,262.8 L 967.8,260.6 L 969.3,255.2 L 966.3,254.5 L 965.2,255.0 L 964.4,253.7 L 964.3,251.9 L 960.2,249.4 L 959.5,245.3 L 962.3,240.1 L 962.6,237.5 L 960.8,237.2 L 957.9,237.8 L 959.6,234.8 L 955.0,234.3 L 955.5,231.9 L 958.1,229.9 L 955.3,229.6 L 955.9,228.2 L 955.1,228.0 L 954.8,228.5 L 953.0,227.9 L 951.4,226.7 L 950.6,228.3 L 948.9,229.7 L 948.6,231.4 L 946.7,231.2 L 945.9,229.0 L 945.7,229.5 L 943.6,226.2 L 942.1,225.2 L 942.5,224.6 L 940.6,223.7 L 940.3,220.0 L 937.0,218.6 L 935.5,216.5 L 934.7,217.4 L 934.0,216.9 L 937.2,211.1 L 937.6,207.5 L 938.6,206.3 L 937.6,206.4 L 936.9,207.2 L 935.3,211.7 L 930.7,212.4 L 930.3,214.2 L 929.5,214.5 L 929.8,217.8 L 929.3,218.8 L 930.1,219.4 L 930.0,220.4 L 928.6,220.7 L 929.5,223.8 L 925.2,223.9 L 923.9,224.8 L 924.6,229.4 L 922.2,227.8 L 922.4,224.9 L 919.3,225.6 L 919.3,226.2 L 917.0,226.7 L 915.3,228.2 L 912.2,229.2 L 910.4,227.4 L 910.8,226.2 L 911.6,226.3 L 911.1,223.9 L 910.0,222.5 L 909.7,214.7 L 908.5,213.4 L 904.5,213.5 L 904.9,211.7 L 906.0,210.0 L 906.4,207.3 L 907.3,205.5 L 912.2,198.0 L 914.8,195.0 L 914.7,192.0 L 913.0,188.5 L 913.7,186.0 L 915.3,184.0 L 915.8,181.7 L 917.8,179.3 L 917.8,177.8 L 920.3,176.4 L 921.3,174.4 L 916.3,173.0 L 923.5,172.0 L 923.5,170.4 L 926.2,170.4 L 925.2,167.5 L 928.9,160.5 L 929.8,160.6 L 930.0,158.4 L 930.5,158.1 L 929.9,156.5 L 924.4,155.9 L 924.9,151.9 L 923.4,149.1 L 917.3,149.1 L 914.5,147.7 L 915.9,143.7 L 919.1,141.0 L 917.3,140.9 L 917.6,140.4 L 915.0,138.1 L 916.1,136.6 L 914.4,136.4 L 911.9,135.0 L 909.5,131.3 L 910.2,131.9 L 911.6,129.7 L 911.8,127.5 L 910.0,126.3 L 911.1,123.0 L 910.7,122.8 L 911.2,120.3 L 913.4,120.9 L 915.2,119.3 L 911.0,117.6 L 911.3,115.0 L 910.8,111.0 L 905.1,109.5 L 897.5,109.4 L 901.6,98.1 L 902.3,97.7 L 901.4,90.8 L 898.1,88.6 L 887.2,92.0 L 885.6,93.3 L 881.4,90.4 L 876.6,90.4 L 876.9,93.3 L 876.3,95.3 L 874.3,95.1 L 872.4,95.7 L 868.5,99.2 L 867.3,101.3 L 865.5,101.8 L 865.1,102.8 L 858.5,103.5 L 858.2,105.4 L 859.5,105.5 L 858.8,108.7 L 859.2,110.0 L 857.7,112.8 L 856.4,112.8 L 855.4,113.6 L 854.4,112.1 L 853.4,112.0 L 851.8,104.6 L 845.0,101.5 L 842.7,100.8 L 840.2,100.9 L 837.6,98.7 L 832.4,96.3 L 824.5,96.6 L 824.4,98.3 L 823.8,98.0 L 822.0,99.1 L 820.2,98.5 L 820.2,97.6 L 821.2,97.2 L 820.1,95.8 L 819.5,96.6 L 817.0,95.9 L 814.8,96.0 L 813.7,94.9 L 814.0,94.6 L 811.8,92.7 L 808.8,91.7 L 806.3,91.4 L 803.2,92.4 L 801.0,92.3 L 798.7,91.4 L 793.9,92.1 L 790.3,90.7 L 787.1,91.3 L 783.1,90.5 L 781.7,89.3 L 778.9,89.6 L 776.6,92.8 L 776.1,95.6 L 777.1,98.4 L 781.0,102.4 L 779.3,101.9 L 778.1,103.6 L 771.4,102.1 L 767.9,102.7 L 764.8,107.6 L 764.2,112.5 L 762.6,115.1 L 763.0,117.9 L 761.6,118.1 L 759.0,120.8 L 756.6,120.7 L 756.4,121.4 L 754.1,121.5 L 754.9,123.4 L 757.4,125.7 L 757.9,127.2 L 760.2,129.6 L 759.6,130.8 L 757.9,131.1 L 754.5,134.0 L 751.2,133.5 L 740.4,129.0 L 738.6,131.7 L 738.3,132.8 L 739.1,134.6 L 742.9,137.1 L 747.0,141.5 L 745.8,147.0 L 746.7,148.7 L 749.8,151.0 L 742.4,154.6 L 739.7,157.5 L 742.4,158.6 L 743.3,161.0 L 743.5,162.0 L 740.2,161.9 L 741.4,163.8 L 742.5,164.3 L 742.8,167.7 L 739.6,168.9 L 738.9,170.5 L 735.5,174.2 L 733.2,174.6 L 731.5,176.1 L 731.9,178.3 L 735.5,178.3 L 736.3,181.8 L 733.1,180.8 L 730.6,180.6 L 728.8,180.9 L 726.7,182.2 L 726.8,183.8 L 728.5,184.4 L 728.4,184.8 L 727.6,186.9 L 724.4,188.5 L 723.8,189.9 L 724.9,192.2 L 725.2,196.6 L 713.7,194.7 L 714.4,183.6 L 711.5,182.6 L 710.0,181.2 L 707.3,181.3 L 704.5,183.3 L 703.9,185.0 L 702.9,184.9 L 701.5,186.3 L 699.9,186.0 L 697.6,187.9 L 694.7,188.6 L 694.0,189.3 L 691.7,189.2 L 689.4,190.1 L 689.9,193.0 L 688.0,193.0 L 685.9,194.3 L 684.8,193.2 L 683.0,194.1 L 682.5,193.5 L 681.8,193.8 L 681.6,194.5 L 678.3,195.6 L 677.3,194.7 L 676.9,195.2 L 676.8,194.7 L 673.9,194.2 L 673.7,193.3 L 672.9,193.4 L 672.8,192.8 L 672.4,193.2 L 672.6,192.4 L 672.2,192.5 L 672.2,192.0 L 671.9,192.5 L 671.6,191.8 L 671.7,190.9 L 663.7,190.7 L 660.5,189.9 L 660.0,190.3 L 661.0,190.8 L 661.2,193.4 L 660.6,194.2 L 660.8,196.2 L 660.3,197.2 L 662.2,199.6 L 663.8,200.5 L 665.1,202.8 L 666.2,203.5 L 665.5,204.2 L 666.3,208.4 L 666.1,210.9 L 667.4,212.3 L 668.9,217.6 L 668.7,218.9 L 657.3,216.1 L 656.6,223.0 L 655.4,226.4 L 654.1,228.9 L 650.1,233.8 L 647.2,239.5 L 645.9,241.0 L 647.6,241.5 L 647.9,244.1 L 653.7,253.5 L 649.5,254.4 L 652.8,256.3 L 648.4,259.6 L 651.2,262.0 L 653.1,262.3 L 655.6,263.7 L 657.2,263.0 L 657.4,263.5 L 656.7,266.2 L 654.1,265.5 L 652.8,266.4 L 653.0,267.1 L 652.6,266.6 L 650.4,268.0 L 652.6,274.9 L 650.3,275.3 L 649.8,276.1 L 650.1,275.2 L 648.1,274.1 L 647.9,274.7 L 647.9,274.0 L 646.4,273.3 L 646.4,274.9 L 646.2,273.3 L 646.0,274.8 L 645.4,274.3 L 645.6,276.1 L 647.4,276.7 L 647.4,277.5 L 646.2,278.2 L 646.2,279.9 L 647.5,280.9 L 647.0,281.6 L 647.8,282.0 L 649.1,281.3 L 649.5,281.7 L 650.5,281.2 L 651.8,282.5 L 651.1,285.0 L 651.8,286.0 L 647.3,286.0 L 647.5,288.7 L 647.4,288.3 L 646.8,289.5 L 645.1,289.7 L 641.5,287.2 L 640.8,287.3 L 640.5,286.0 L 640.2,291.7 L 639.3,293.5 Z" fill="#c8d54f" fill-rule="nonzero" stroke="#FFFFFF" stroke-width="2" data-name="Landkreis Bautzen" data-value="I: n.v. | G: n.v. | M: n.v." data-immobilienpreis="n.v." data-grundstueckspreis="n.v." data-mietpreis="n.v."></path></a><a xlink:href="https://www.praxiswissen-immobilien.de/immobilienmarkt/sachsen/landkreis-nordsachsen/" target="_blank"><path d="M 0.3,142.3 L 2.0,143.3 L 2.1,146.6 L 4.1,146.7 L 4.3,147.3 L 4.2,151.0 L 2.6,150.9 L 2.5,152.1 L 4.0,152.5 L 3.7,157.7 L 14.4,160.4 L 14.9,166.4 L 18.1,166.1 L 16.4,170.9 L 13.8,170.6 L 13.9,172.8 L 10.2,173.1 L 11.8,177.3 L 11.8,179.0 L 10.5,178.7 L 11.6,185.4 L 13.5,185.5 L 13.7,186.3 L 12.9,188.0 L 11.3,188.1 L 9.7,189.5 L 10.1,190.4 L 10.9,189.7 L 11.3,190.9 L 12.1,191.4 L 10.6,192.4 L 11.4,193.8 L 11.8,193.6 L 10.7,194.5 L 11.0,194.9 L 12.8,194.9 L 13.7,192.9 L 15.2,193.5 L 16.0,192.6 L 16.7,193.6 L 16.3,195.2 L 16.0,194.6 L 15.4,195.2 L 15.2,194.8 L 15.5,195.8 L 14.8,196.3 L 14.4,195.5 L 14.0,195.7 L 14.3,195.9 L 14.6,196.7 L 15.0,196.3 L 15.7,196.5 L 15.9,196.8 L 16.2,196.6 L 16.8,196.5 L 17.4,196.6 L 17.4,196.9 L 17.6,196.8 L 17.6,196.9 L 17.3,197.4 L 17.6,196.9 L 17.4,196.9 L 17.3,196.7 L 16.8,196.5 L 15.9,196.9 L 15.0,196.3 L 14.5,196.7 L 14.0,195.8 L 13.8,197.2 L 14.4,197.4 L 13.4,199.2 L 14.5,200.1 L 15.2,199.4 L 16.4,198.4 L 17.8,198.1 L 16.4,198.5 L 14.8,200.0 L 15.7,201.7 L 17.2,201.8 L 16.7,204.0 L 18.9,204.3 L 18.7,208.1 L 16.7,208.2 L 16.6,211.6 L 16.1,212.6 L 17.1,212.6 L 17.5,215.2 L 17.8,215.2 L 17.9,221.8 L 20.3,221.1 L 24.2,218.4 L 25.3,218.2 L 25.2,219.9 L 28.7,218.4 L 29.7,216.9 L 29.5,215.6 L 34.8,213.9 L 36.9,214.1 L 38.4,212.7 L 36.8,211.1 L 37.1,209.8 L 36.5,204.5 L 37.4,197.6 L 35.3,197.0 L 35.2,196.6 L 38.2,195.2 L 41.0,192.2 L 43.4,191.6 L 43.7,190.9 L 42.8,189.5 L 42.2,189.6 L 42.8,188.9 L 42.6,187.2 L 43.6,185.6 L 45.8,183.7 L 47.0,181.1 L 45.9,180.5 L 45.2,179.3 L 42.3,179.6 L 40.9,177.2 L 44.7,178.7 L 44.3,178.0 L 45.7,178.1 L 45.3,172.2 L 48.8,171.0 L 48.5,169.4 L 49.5,169.6 L 49.4,168.8 L 48.3,168.3 L 54.4,169.4 L 64.5,170.0 L 64.3,168.3 L 65.0,168.0 L 72.5,167.2 L 72.7,168.1 L 83.1,168.4 L 83.1,169.8 L 83.2,167.6 L 84.7,165.7 L 88.4,164.6 L 88.4,163.9 L 89.7,165.4 L 96.0,167.9 L 97.3,169.7 L 98.3,168.9 L 98.9,165.9 L 101.1,161.4 L 105.1,161.3 L 105.6,162.0 L 106.9,161.9 L 108.1,162.7 L 112.1,160.9 L 115.3,160.3 L 114.6,152.4 L 114.9,149.3 L 116.4,149.8 L 118.6,151.8 L 126.5,152.6 L 126.0,155.8 L 126.8,155.9 L 127.1,159.2 L 135.1,159.7 L 135.3,161.8 L 134.8,161.9 L 134.9,163.4 L 135.6,165.4 L 134.9,165.4 L 135.1,166.2 L 133.7,166.7 L 133.5,168.4 L 132.7,168.3 L 132.6,168.7 L 128.2,168.6 L 128.3,167.0 L 127.7,166.9 L 122.9,166.6 L 122.7,167.8 L 121.7,167.7 L 121.0,170.4 L 121.0,173.3 L 122.9,174.7 L 124.7,177.3 L 126.3,177.1 L 126.6,177.8 L 125.4,179.0 L 126.1,183.1 L 124.6,183.9 L 124.4,183.5 L 124.0,184.0 L 124.6,184.0 L 124.4,184.3 L 123.6,184.9 L 124.2,185.2 L 124.9,190.1 L 128.8,190.5 L 126.5,196.6 L 126.8,197.7 L 125.0,198.9 L 126.5,199.6 L 131.5,203.9 L 137.5,204.2 L 140.6,203.4 L 140.6,202.5 L 151.4,196.1 L 152.1,197.1 L 153.7,197.0 L 156.3,198.5 L 157.2,197.7 L 160.3,197.0 L 160.2,196.5 L 161.1,196.1 L 164.9,195.0 L 165.3,194.5 L 164.9,193.6 L 167.6,192.0 L 168.2,193.1 L 168.8,192.9 L 169.5,196.2 L 171.0,195.7 L 171.0,194.3 L 172.3,194.1 L 173.3,191.1 L 173.0,190.1 L 177.4,189.1 L 181.9,190.2 L 181.9,184.5 L 185.1,184.1 L 185.0,183.7 L 183.7,183.5 L 183.7,181.8 L 185.3,181.7 L 185.4,175.6 L 186.7,175.4 L 186.6,174.1 L 187.1,174.0 L 187.2,175.1 L 189.7,174.8 L 189.1,173.7 L 190.0,174.5 L 191.8,173.9 L 192.2,174.5 L 192.9,174.0 L 192.3,173.4 L 192.6,172.7 L 193.9,173.7 L 194.3,172.9 L 194.7,173.1 L 194.1,174.9 L 196.0,176.7 L 195.9,173.3 L 197.5,172.0 L 196.3,170.8 L 195.0,171.0 L 194.7,170.4 L 195.8,169.8 L 194.7,169.6 L 195.0,168.7 L 196.5,168.8 L 197.6,167.4 L 196.6,166.8 L 197.3,166.8 L 196.7,164.8 L 197.1,163.8 L 199.9,163.9 L 200.5,163.1 L 197.9,161.9 L 197.0,162.6 L 195.6,161.8 L 194.9,159.4 L 194.4,159.4 L 195.0,156.4 L 196.3,153.6 L 197.9,154.0 L 198.3,153.5 L 197.8,151.4 L 200.0,151.0 L 202.0,148.8 L 202.6,148.6 L 204.6,150.9 L 205.1,149.7 L 208.9,149.4 L 209.3,146.6 L 213.7,148.3 L 213.7,150.4 L 219.0,150.3 L 219.1,149.9 L 221.9,150.8 L 222.5,146.6 L 224.1,145.2 L 237.8,145.6 L 243.7,142.4 L 246.5,139.0 L 250.9,136.3 L 253.8,136.4 L 254.4,137.0 L 254.5,139.6 L 260.9,141.9 L 261.2,144.4 L 262.7,146.8 L 267.4,148.4 L 272.8,149.1 L 277.9,150.8 L 282.7,150.8 L 284.9,150.1 L 286.4,150.5 L 288.4,153.3 L 288.5,155.1 L 289.0,155.9 L 290.9,155.9 L 293.0,157.2 L 296.0,158.0 L 297.8,159.3 L 300.1,162.7 L 303.0,164.8 L 303.9,169.5 L 305.1,170.9 L 305.9,170.5 L 306.3,169.2 L 307.5,169.1 L 308.4,169.3 L 308.4,170.4 L 309.7,171.1 L 310.2,170.6 L 311.1,171.5 L 309.7,172.9 L 311.4,173.6 L 310.4,174.8 L 306.7,175.8 L 307.0,177.3 L 308.7,177.0 L 309.5,179.8 L 309.5,182.8 L 304.5,181.9 L 303.9,183.3 L 302.6,183.8 L 301.2,179.5 L 296.1,179.9 L 295.7,182.9 L 296.7,183.1 L 297.4,185.8 L 296.1,186.1 L 295.4,188.2 L 297.2,189.0 L 297.8,192.6 L 299.2,193.2 L 298.7,193.5 L 298.0,192.8 L 298.1,194.9 L 298.9,194.8 L 299.8,197.5 L 302.0,197.5 L 302.9,195.7 L 305.5,196.0 L 306.1,200.0 L 308.2,199.8 L 309.6,200.3 L 310.0,204.0 L 308.3,204.2 L 307.3,208.5 L 305.7,209.9 L 301.7,207.7 L 298.1,207.9 L 298.2,210.1 L 297.0,212.1 L 293.9,213.1 L 294.2,214.7 L 293.6,215.4 L 294.7,216.4 L 293.8,221.9 L 293.9,226.1 L 297.0,228.0 L 291.3,228.5 L 285.3,231.4 L 286.4,233.2 L 283.1,238.0 L 282.3,238.4 L 283.1,241.5 L 289.8,246.4 L 291.2,246.2 L 291.5,247.7 L 293.9,249.3 L 293.1,251.3 L 293.0,253.9 L 294.0,254.5 L 294.2,253.6 L 294.7,253.7 L 294.4,255.6 L 299.4,256.3 L 298.7,258.4 L 296.7,257.7 L 295.1,258.5 L 300.2,260.5 L 300.0,262.5 L 300.4,262.8 L 301.4,262.5 L 301.7,261.6 L 302.7,261.6 L 302.6,262.1 L 303.7,262.5 L 304.9,260.8 L 306.3,262.8 L 305.2,262.6 L 305.2,263.7 L 306.3,263.6 L 306.0,264.6 L 306.9,266.4 L 306.3,266.5 L 306.6,267.8 L 305.1,268.6 L 304.0,268.3 L 303.9,269.4 L 304.8,272.2 L 304.6,274.0 L 306.3,274.5 L 306.5,275.0 L 304.5,275.2 L 303.9,276.3 L 301.9,277.1 L 301.9,277.8 L 300.7,277.9 L 298.8,281.4 L 300.0,283.9 L 302.7,283.8 L 302.9,284.7 L 303.4,284.6 L 303.8,285.4 L 296.7,286.2 L 296.9,287.7 L 298.4,288.6 L 299.7,291.7 L 301.6,291.5 L 303.9,292.5 L 309.9,292.5 L 310.6,290.9 L 318.3,289.0 L 322.8,290.1 L 330.4,290.9 L 331.4,292.6 L 331.9,292.1 L 332.8,293.3 L 331.8,296.0 L 335.2,295.6 L 335.5,299.3 L 338.8,299.1 L 338.8,299.7 L 340.8,301.0 L 339.9,302.7 L 340.9,304.6 L 345.8,304.9 L 351.7,303.3 L 352.6,300.7 L 351.9,298.4 L 352.6,298.2 L 352.0,295.9 L 353.5,294.5 L 358.8,296.5 L 360.9,295.7 L 362.6,293.4 L 362.9,294.5 L 364.4,293.3 L 368.5,297.7 L 373.5,296.3 L 376.5,296.8 L 376.9,295.9 L 375.7,295.2 L 374.7,293.6 L 374.4,290.0 L 375.4,291.4 L 376.4,290.6 L 380.0,290.7 L 380.0,291.4 L 381.4,291.7 L 382.7,291.8 L 383.3,290.8 L 386.4,291.8 L 387.4,291.6 L 386.5,292.1 L 386.7,292.6 L 389.4,291.5 L 389.6,289.5 L 391.8,291.0 L 391.7,287.0 L 397.3,287.4 L 397.3,287.0 L 401.1,286.8 L 401.3,287.2 L 401.6,286.7 L 400.8,285.3 L 404.9,283.9 L 406.1,282.2 L 406.1,282.9 L 407.3,283.2 L 408.5,284.6 L 409.7,283.9 L 410.9,285.5 L 412.2,283.7 L 410.7,281.6 L 412.6,280.2 L 413.7,281.7 L 414.9,280.4 L 414.6,278.6 L 412.3,276.3 L 412.5,275.0 L 410.2,274.6 L 410.8,273.1 L 412.3,272.5 L 411.6,271.8 L 411.8,271.2 L 410.0,269.7 L 409.7,266.8 L 410.2,266.6 L 410.6,268.2 L 411.3,268.3 L 412.9,267.8 L 413.2,266.4 L 413.6,267.7 L 415.4,267.4 L 415.3,264.5 L 417.4,263.3 L 417.0,262.0 L 418.8,261.6 L 416.6,258.0 L 414.4,256.3 L 415.7,255.8 L 415.1,254.6 L 415.0,249.1 L 417.3,249.4 L 417.8,246.0 L 414.3,234.9 L 415.4,234.6 L 415.3,233.9 L 414.3,233.7 L 413.2,224.7 L 417.3,215.0 L 416.1,214.9 L 414.2,212.3 L 412.5,212.0 L 411.9,211.2 L 411.6,210.3 L 412.8,210.2 L 412.9,208.0 L 413.8,208.0 L 413.8,207.2 L 412.7,207.2 L 411.9,206.2 L 408.4,205.5 L 411.3,203.3 L 413.4,202.6 L 413.8,200.9 L 415.3,200.3 L 414.6,198.8 L 413.2,199.5 L 410.9,196.4 L 405.2,194.8 L 404.9,194.1 L 405.6,191.5 L 407.3,190.7 L 406.8,188.1 L 407.6,188.0 L 407.3,187.2 L 407.7,186.8 L 408.3,187.7 L 409.0,187.2 L 408.3,182.9 L 411.0,181.6 L 412.6,182.4 L 412.6,181.1 L 411.6,179.8 L 413.1,179.1 L 413.3,177.2 L 414.0,176.5 L 412.7,175.3 L 412.0,172.4 L 412.7,172.4 L 413.7,173.6 L 415.0,176.8 L 416.0,176.7 L 412.6,168.0 L 413.5,162.5 L 413.2,160.4 L 412.2,158.9 L 409.0,156.8 L 407.0,159.4 L 406.8,160.6 L 407.7,162.1 L 407.7,163.1 L 406.0,164.6 L 405.4,163.7 L 402.3,162.6 L 401.8,161.5 L 402.2,158.9 L 406.1,155.6 L 407.5,155.0 L 409.0,156.2 L 409.1,153.4 L 412.4,149.3 L 413.4,146.8 L 413.6,144.1 L 413.1,142.4 L 407.9,138.7 L 405.2,134.6 L 405.2,131.4 L 407.0,125.4 L 406.4,123.3 L 405.1,121.7 L 407.4,121.9 L 408.9,124.2 L 410.7,124.0 L 412.6,121.8 L 410.7,120.5 L 413.0,118.9 L 412.6,117.9 L 413.6,117.5 L 412.8,114.1 L 414.8,113.6 L 415.3,110.0 L 414.5,105.4 L 415.2,101.4 L 412.3,100.5 L 410.8,96.4 L 408.4,92.2 L 406.4,80.1 L 402.7,80.6 L 396.6,79.7 L 395.7,76.2 L 391.1,76.6 L 391.1,75.5 L 389.4,73.5 L 388.9,71.8 L 393.6,65.1 L 394.3,60.5 L 397.0,58.7 L 394.3,53.5 L 390.1,55.0 L 390.0,53.4 L 386.2,49.8 L 382.5,44.9 L 380.9,40.9 L 380.2,41.2 L 380.4,42.0 L 378.6,42.6 L 378.7,43.8 L 377.0,44.4 L 377.5,45.7 L 375.5,46.4 L 374.5,43.3 L 373.6,43.7 L 373.3,42.9 L 371.8,43.5 L 372.6,44.8 L 372.6,46.7 L 374.3,46.1 L 374.9,47.6 L 374.2,48.0 L 373.6,47.0 L 371.6,47.8 L 372.3,48.8 L 370.6,50.1 L 367.5,48.6 L 365.6,42.9 L 363.5,41.3 L 364.0,40.5 L 353.6,23.7 L 343.0,30.1 L 342.1,27.6 L 340.0,25.4 L 341.8,20.2 L 340.7,16.3 L 338.3,12.9 L 335.8,14.7 L 334.1,11.0 L 333.2,11.1 L 332.2,10.1 L 329.4,10.5 L 327.5,10.1 L 327.0,10.8 L 324.7,10.9 L 324.8,12.0 L 326.6,13.1 L 325.5,13.9 L 323.2,12.6 L 320.8,12.5 L 322.9,21.4 L 320.3,20.6 L 319.3,22.5 L 317.3,21.4 L 313.9,22.6 L 314.9,26.2 L 314.4,26.8 L 314.2,26.1 L 312.3,28.9 L 311.1,29.6 L 308.9,25.1 L 305.6,22.5 L 303.1,22.3 L 300.4,23.0 L 300.6,24.8 L 299.8,25.9 L 297.8,24.3 L 295.7,24.6 L 293.9,23.8 L 291.2,20.6 L 291.3,19.0 L 291.9,19.5 L 292.8,16.4 L 292.9,14.0 L 292.1,12.5 L 290.2,11.3 L 286.8,16.4 L 283.8,16.9 L 282.4,18.6 L 281.3,19.0 L 280.8,18.6 L 281.9,18.1 L 280.8,17.1 L 280.3,15.0 L 281.5,13.2 L 279.7,12.8 L 279.1,11.2 L 279.7,7.4 L 279.1,6.6 L 278.5,8.2 L 277.7,7.9 L 278.6,5.7 L 277.9,4.8 L 277.3,3.7 L 276.6,4.2 L 275.1,2.4 L 274.5,2.7 L 273.5,0.6 L 272.7,0.0 L 271.2,2.0 L 269.8,1.6 L 268.3,2.5 L 266.3,1.8 L 266.4,3.1 L 267.9,5.6 L 265.6,6.2 L 263.2,7.8 L 262.5,9.1 L 260.5,10.4 L 258.2,11.4 L 252.4,12.4 L 251.3,13.5 L 248.4,19.9 L 244.7,23.8 L 241.4,24.3 L 241.6,23.3 L 240.9,22.8 L 235.5,22.0 L 232.0,18.6 L 228.6,18.1 L 222.9,15.1 L 218.8,14.2 L 215.8,15.6 L 213.2,14.1 L 210.7,15.1 L 208.0,18.7 L 207.2,22.9 L 205.6,24.8 L 205.1,23.7 L 204.2,24.4 L 205.3,25.2 L 203.3,27.3 L 203.6,30.1 L 202.9,33.9 L 202.1,33.7 L 201.9,34.7 L 199.4,34.6 L 197.9,37.2 L 196.3,37.9 L 196.3,40.5 L 192.5,41.2 L 192.7,41.7 L 191.3,41.9 L 191.1,42.9 L 186.2,43.8 L 182.7,45.7 L 181.4,45.8 L 180.5,46.7 L 180.1,46.6 L 181.8,44.6 L 185.9,43.3 L 186.2,40.5 L 188.5,37.7 L 186.6,36.1 L 184.3,36.7 L 179.9,36.7 L 178.7,37.3 L 176.8,39.0 L 176.5,40.7 L 175.4,42.2 L 172.9,42.3 L 173.3,41.1 L 173.0,40.3 L 172.8,41.1 L 172.5,38.9 L 172.0,38.6 L 172.6,37.6 L 172.0,37.3 L 171.3,38.2 L 169.4,37.3 L 167.7,41.3 L 167.1,44.2 L 165.4,43.1 L 162.3,45.2 L 161.4,48.0 L 162.0,48.1 L 162.0,48.6 L 158.8,48.4 L 157.7,47.9 L 154.1,49.1 L 155.7,51.5 L 154.4,52.6 L 152.4,52.3 L 151.4,49.9 L 148.9,50.5 L 146.9,49.3 L 144.2,50.1 L 140.6,48.4 L 139.0,50.9 L 136.5,50.6 L 137.0,51.9 L 136.9,55.8 L 134.1,54.8 L 131.2,58.3 L 129.1,56.1 L 130.3,54.8 L 133.0,53.2 L 133.1,52.3 L 132.1,50.9 L 126.4,50.5 L 125.0,51.2 L 122.3,51.6 L 118.8,49.7 L 117.8,47.5 L 116.1,47.2 L 114.0,50.5 L 111.5,49.6 L 111.8,51.1 L 113.6,52.2 L 113.1,54.0 L 112.1,54.1 L 111.9,55.3 L 109.4,54.2 L 108.1,61.3 L 108.9,61.2 L 108.7,65.0 L 105.3,64.3 L 105.2,65.0 L 104.0,64.7 L 103.3,65.2 L 99.5,63.4 L 97.6,63.1 L 97.3,61.8 L 95.9,61.7 L 95.6,61.2 L 95.4,61.5 L 96.3,62.2 L 95.0,62.9 L 92.8,62.2 L 91.4,62.8 L 88.4,62.7 L 88.1,61.6 L 86.0,61.5 L 85.7,62.1 L 88.9,63.4 L 87.1,63.2 L 86.9,64.7 L 78.5,61.9 L 78.3,63.6 L 75.6,63.1 L 74.1,61.9 L 73.9,63.2 L 76.6,64.7 L 76.5,65.4 L 75.1,66.7 L 74.4,66.0 L 67.4,67.6 L 67.7,69.7 L 66.3,70.6 L 64.8,73.6 L 60.2,75.5 L 58.5,74.6 L 58.4,75.7 L 57.0,75.8 L 57.3,77.5 L 56.8,78.6 L 53.8,78.0 L 47.9,78.9 L 41.9,78.5 L 40.2,79.7 L 39.6,77.1 L 39.9,76.9 L 38.4,74.7 L 37.3,74.7 L 34.9,77.8 L 33.4,78.2 L 34.0,81.3 L 34.5,81.2 L 34.5,83.3 L 32.8,83.4 L 32.8,86.9 L 27.8,87.3 L 29.4,88.7 L 24.3,90.3 L 24.4,91.7 L 23.1,91.8 L 23.3,94.5 L 21.0,94.9 L 21.1,96.9 L 18.0,96.9 L 18.4,100.8 L 17.0,101.1 L 17.0,104.2 L 18.7,105.7 L 18.1,111.3 L 16.9,111.7 L 17.1,113.1 L 19.7,113.0 L 19.8,115.6 L 23.5,115.1 L 23.4,118.2 L 22.2,118.2 L 22.5,122.4 L 20.9,122.8 L 21.7,126.0 L 11.0,127.9 L 11.3,132.7 L 11.0,135.6 L 10.1,135.7 L 10.1,136.7 L 6.1,137.2 L 6.0,138.3 L 3.0,138.7 L 2.1,140.0 L 0.4,139.9 Z" fill="#c8d54f" fill-rule="nonzero" stroke="#FFFFFF" stroke-width="2" data-name="Landkreis Nordsachsen" data-value="I: n.v. | G: n.v. | M: n.v." data-immobilienpreis="n.v." data-grundstueckspreis="n.v." data-mietpreis="n.v."></path></a><a xlink:href="https://www.praxiswissen-immobilien.de/immobilienmarkt/sachsen/landkreis-erzgebirgskreis/" target="_blank"><path d="M 120.6,736.9 L 125.3,738.6 L 125.5,739.3 L 124.4,739.6 L 123.0,739.0 L 122.4,740.4 L 124.2,741.6 L 124.0,742.2 L 125.1,743.6 L 125.8,743.5 L 128.6,746.2 L 129.8,746.4 L 130.7,747.7 L 133.0,746.5 L 133.8,745.1 L 135.6,743.6 L 135.4,744.7 L 136.1,746.2 L 135.5,747.4 L 136.1,748.6 L 134.8,751.4 L 136.0,752.2 L 135.3,757.7 L 136.5,758.4 L 138.4,757.4 L 136.3,759.2 L 136.7,758.9 L 138.1,760.5 L 137.9,761.0 L 152.2,773.4 L 170.8,785.6 L 170.6,796.0 L 174.3,795.7 L 175.7,796.8 L 178.4,796.2 L 179.9,795.1 L 180.5,793.4 L 183.4,791.5 L 183.8,790.6 L 185.8,790.8 L 187.8,790.3 L 189.1,791.3 L 195.4,793.8 L 201.5,792.7 L 205.8,789.9 L 206.8,790.7 L 209.1,794.3 L 213.6,797.1 L 214.4,798.0 L 214.6,799.4 L 219.0,802.0 L 219.8,799.0 L 218.9,797.7 L 219.3,795.1 L 224.3,789.4 L 227.9,786.9 L 229.7,780.4 L 245.9,773.6 L 253.4,769.9 L 259.5,781.2 L 259.7,777.8 L 258.6,776.3 L 258.0,773.6 L 258.2,772.8 L 261.9,769.7 L 262.7,767.4 L 262.8,763.2 L 270.1,767.0 L 274.6,771.0 L 292.4,782.0 L 295.7,786.3 L 296.9,786.6 L 299.3,785.6 L 304.3,790.3 L 308.7,793.0 L 309.1,794.6 L 308.7,795.9 L 309.2,796.4 L 311.5,797.6 L 313.1,797.7 L 313.2,795.8 L 311.7,796.6 L 310.6,795.8 L 310.3,795.1 L 311.1,793.0 L 313.1,791.9 L 319.5,791.3 L 327.9,787.7 L 329.0,786.3 L 330.1,782.7 L 331.1,781.7 L 331.9,779.6 L 334.8,777.2 L 337.0,776.1 L 338.2,774.4 L 340.0,773.4 L 341.5,771.6 L 343.1,767.1 L 341.5,764.0 L 341.5,760.4 L 340.9,759.1 L 341.9,755.5 L 341.9,751.8 L 342.7,750.0 L 342.5,748.4 L 343.0,748.1 L 342.6,746.7 L 346.4,738.4 L 345.7,733.8 L 346.1,732.8 L 349.1,732.8 L 350.3,731.6 L 353.5,734.2 L 355.7,738.0 L 367.1,738.6 L 368.7,737.7 L 374.2,736.5 L 378.8,732.7 L 380.7,730.1 L 383.7,727.9 L 385.6,727.3 L 386.3,730.0 L 387.7,730.9 L 388.0,731.8 L 387.2,734.8 L 389.5,735.3 L 391.3,734.1 L 392.9,734.2 L 393.7,733.5 L 398.5,735.1 L 400.7,735.1 L 403.4,737.0 L 407.4,736.3 L 410.2,736.8 L 411.0,735.1 L 410.2,733.4 L 410.6,732.1 L 409.9,730.0 L 410.1,728.8 L 415.0,725.4 L 415.8,720.0 L 418.0,717.8 L 419.7,713.8 L 420.7,712.9 L 420.2,711.5 L 420.5,710.4 L 423.1,708.9 L 423.5,707.9 L 423.2,704.8 L 422.7,703.9 L 421.3,703.5 L 421.1,702.8 L 421.5,701.0 L 421.0,699.7 L 422.2,697.9 L 426.1,695.5 L 425.0,690.0 L 426.7,689.5 L 427.5,686.6 L 430.6,685.2 L 430.9,682.0 L 432.3,680.4 L 433.9,680.0 L 435.6,682.0 L 442.8,681.5 L 444.9,684.1 L 444.8,686.2 L 445.6,688.7 L 447.4,691.0 L 447.7,692.6 L 451.3,690.2 L 453.2,689.8 L 454.9,690.2 L 460.2,688.8 L 461.0,687.7 L 460.7,684.8 L 459.5,683.6 L 460.1,678.8 L 458.7,676.0 L 461.3,674.3 L 460.9,671.9 L 463.6,672.3 L 464.7,673.0 L 465.1,670.9 L 466.3,670.4 L 465.9,669.3 L 468.3,669.3 L 470.3,668.2 L 471.4,668.6 L 472.2,667.5 L 474.2,667.1 L 474.7,665.2 L 476.8,666.1 L 478.1,664.5 L 478.6,661.8 L 481.4,660.3 L 481.6,659.5 L 480.2,657.0 L 480.7,654.6 L 479.9,654.0 L 480.4,653.3 L 479.9,651.9 L 480.3,651.7 L 479.0,645.8 L 480.8,646.1 L 482.0,648.2 L 483.6,649.5 L 484.8,648.3 L 487.1,648.4 L 487.3,651.4 L 488.3,651.4 L 489.1,653.2 L 490.7,654.3 L 491.2,655.5 L 492.5,655.8 L 493.1,659.7 L 493.6,660.0 L 494.1,662.0 L 495.6,663.6 L 495.1,665.7 L 496.1,666.2 L 496.2,666.9 L 497.6,667.7 L 500.3,667.0 L 500.9,667.6 L 500.1,669.2 L 501.7,670.5 L 504.3,670.8 L 506.5,670.2 L 509.6,672.4 L 510.3,673.5 L 513.9,674.6 L 514.7,676.1 L 516.0,675.7 L 516.3,673.5 L 518.0,672.4 L 518.0,671.5 L 519.0,671.0 L 519.7,669.9 L 520.7,669.5 L 520.6,667.7 L 521.8,666.8 L 522.6,665.2 L 523.3,665.3 L 524.3,663.8 L 527.0,662.3 L 527.9,660.0 L 528.0,658.2 L 530.3,656.5 L 529.1,655.3 L 528.5,656.1 L 527.9,655.9 L 526.8,654.1 L 525.1,652.7 L 524.1,652.7 L 522.6,649.2 L 523.8,649.1 L 525.2,648.0 L 526.6,646.1 L 527.2,644.0 L 524.8,643.4 L 524.0,642.7 L 523.6,646.3 L 521.0,646.2 L 520.4,645.6 L 520.8,644.1 L 520.0,644.5 L 517.8,642.9 L 516.3,643.1 L 515.3,642.0 L 514.9,640.6 L 513.8,640.9 L 514.0,640.4 L 513.0,640.0 L 512.5,641.3 L 511.2,640.4 L 511.2,639.3 L 510.2,639.6 L 509.1,637.3 L 508.7,637.9 L 504.6,638.7 L 502.3,637.2 L 502.0,635.9 L 503.1,632.7 L 502.7,632.4 L 503.8,631.9 L 503.5,630.3 L 502.3,631.2 L 501.7,630.5 L 502.0,629.8 L 500.8,628.8 L 497.3,628.6 L 496.0,627.6 L 496.7,627.5 L 498.8,625.4 L 498.1,624.4 L 497.2,623.9 L 496.9,624.4 L 496.1,622.2 L 495.6,623.2 L 492.9,625.2 L 491.7,623.9 L 489.0,616.5 L 485.9,612.6 L 484.3,611.5 L 482.5,609.1 L 479.6,607.1 L 478.9,606.0 L 479.4,605.7 L 478.6,604.0 L 478.6,602.2 L 479.8,602.0 L 479.0,598.5 L 479.3,596.9 L 478.3,593.5 L 479.6,593.6 L 481.3,594.8 L 481.7,594.0 L 481.1,591.8 L 478.6,589.2 L 476.3,582.6 L 472.3,582.8 L 468.1,583.9 L 462.9,587.5 L 458.3,588.2 L 458.8,590.5 L 458.1,590.8 L 456.5,588.9 L 455.8,588.5 L 453.7,589.1 L 453.0,587.2 L 451.9,587.7 L 451.6,587.1 L 450.7,587.7 L 451.0,588.2 L 449.2,588.9 L 448.9,587.9 L 447.1,588.3 L 443.3,591.2 L 440.6,589.9 L 440.7,588.6 L 440.1,588.2 L 439.4,588.4 L 439.0,585.3 L 439.5,583.7 L 440.7,582.8 L 441.4,578.6 L 442.5,576.3 L 440.0,575.0 L 432.6,568.9 L 431.0,568.2 L 429.6,569.2 L 427.9,571.5 L 426.2,570.2 L 427.4,569.7 L 425.7,568.6 L 425.1,567.4 L 423.0,567.8 L 421.7,566.8 L 421.7,566.1 L 417.4,566.6 L 416.7,567.1 L 415.4,565.0 L 413.6,565.3 L 413.3,564.7 L 412.5,565.4 L 411.1,565.4 L 410.5,563.3 L 406.9,564.2 L 400.3,563.3 L 398.3,564.0 L 398.7,565.7 L 398.2,567.5 L 395.2,565.7 L 393.3,567.8 L 392.9,567.6 L 392.4,569.6 L 390.0,570.5 L 388.5,572.4 L 386.9,572.3 L 384.7,567.9 L 382.3,567.0 L 382.7,568.4 L 380.8,568.1 L 379.8,567.2 L 380.9,563.8 L 380.4,562.3 L 377.2,559.4 L 378.0,559.2 L 377.6,558.3 L 376.9,558.9 L 377.0,559.6 L 376.5,559.1 L 371.6,560.0 L 371.0,560.8 L 371.0,562.7 L 367.3,565.4 L 366.4,565.3 L 366.4,564.5 L 365.3,564.0 L 361.4,560.0 L 360.4,558.4 L 360.5,557.6 L 359.3,556.8 L 358.4,553.8 L 352.6,549.4 L 351.4,549.6 L 351.2,550.7 L 350.3,551.3 L 350.1,552.6 L 350.6,552.9 L 349.5,553.6 L 349.7,554.6 L 348.7,556.9 L 347.4,558.4 L 345.8,559.2 L 346.2,561.7 L 342.2,567.9 L 342.6,570.2 L 341.4,571.5 L 341.8,572.0 L 340.6,572.8 L 338.3,571.1 L 337.4,571.2 L 335.6,569.0 L 330.4,566.1 L 329.0,567.7 L 329.7,567.8 L 329.7,568.7 L 330.4,569.2 L 329.6,569.0 L 330.0,570.3 L 329.6,571.3 L 330.3,571.8 L 329.7,573.8 L 328.3,574.4 L 328.0,574.9 L 328.7,575.2 L 328.2,576.1 L 325.7,576.8 L 325.4,579.9 L 324.9,579.7 L 325.1,577.8 L 323.9,579.3 L 323.0,579.0 L 322.5,580.7 L 321.3,581.3 L 321.4,581.9 L 320.5,582.5 L 320.2,581.9 L 319.5,582.9 L 319.9,584.1 L 319.5,584.3 L 317.1,580.6 L 315.0,579.1 L 311.9,580.3 L 310.5,581.7 L 308.8,582.4 L 309.6,584.0 L 309.3,586.3 L 309.7,586.5 L 308.9,588.5 L 304.0,589.8 L 303.8,589.1 L 302.2,588.4 L 300.7,588.5 L 300.3,588.1 L 300.3,588.6 L 299.0,588.1 L 295.9,584.4 L 293.0,582.8 L 291.2,576.3 L 287.2,577.2 L 286.8,574.5 L 287.7,573.2 L 289.2,572.1 L 290.4,571.8 L 290.4,572.3 L 290.4,572.3 L 290.7,571.8 L 291.6,571.6 L 292.3,572.3 L 293.5,570.1 L 291.5,568.9 L 292.5,566.6 L 292.3,564.2 L 289.8,562.7 L 288.1,564.4 L 288.2,565.1 L 286.0,565.0 L 285.8,566.1 L 285.4,565.6 L 284.5,566.3 L 282.5,565.7 L 282.3,564.6 L 284.0,563.2 L 283.6,562.9 L 285.1,560.6 L 283.8,559.4 L 281.1,559.1 L 273.3,554.9 L 271.3,552.3 L 267.2,556.2 L 265.4,557.0 L 264.1,556.8 L 264.3,557.9 L 262.0,560.8 L 257.6,560.9 L 252.7,563.2 L 246.6,561.7 L 247.1,559.7 L 242.1,563.2 L 241.7,563.7 L 242.7,566.3 L 238.1,571.4 L 232.0,565.9 L 226.6,569.1 L 225.8,570.8 L 224.5,571.9 L 222.8,570.5 L 221.8,571.2 L 220.6,573.1 L 222.5,575.6 L 224.3,582.2 L 225.0,583.2 L 226.6,584.0 L 224.6,586.2 L 224.2,588.2 L 221.4,591.7 L 216.9,590.1 L 212.9,591.4 L 212.6,588.5 L 211.8,588.5 L 210.7,587.3 L 211.1,584.5 L 210.7,584.5 L 210.7,582.0 L 208.5,582.7 L 205.9,582.3 L 205.5,583.2 L 204.1,582.0 L 204.0,583.2 L 200.9,583.6 L 201.2,582.6 L 200.1,582.2 L 199.6,583.5 L 198.9,583.7 L 199.0,581.0 L 196.3,581.9 L 196.5,583.0 L 197.4,583.7 L 197.4,584.8 L 199.3,586.7 L 199.3,587.3 L 197.2,587.6 L 198.9,587.5 L 200.2,588.1 L 202.8,595.5 L 203.1,595.2 L 203.7,595.7 L 203.6,600.1 L 202.6,600.8 L 200.0,598.6 L 199.3,598.9 L 199.9,598.5 L 199.4,598.2 L 198.7,598.8 L 196.9,598.8 L 196.1,597.8 L 194.5,599.3 L 194.9,600.5 L 194.5,601.3 L 193.5,600.3 L 193.8,601.7 L 192.1,604.6 L 192.5,606.9 L 193.8,607.5 L 194.0,606.7 L 195.7,605.7 L 196.8,607.9 L 198.1,607.4 L 198.7,608.4 L 197.8,609.4 L 202.1,611.6 L 203.1,611.3 L 204.4,611.9 L 207.8,614.0 L 209.1,615.6 L 209.7,614.9 L 213.5,615.7 L 217.2,615.3 L 219.6,615.7 L 217.7,618.9 L 220.1,620.4 L 218.5,621.3 L 219.5,621.5 L 219.3,622.6 L 223.5,622.5 L 222.1,626.9 L 222.3,627.9 L 219.7,632.6 L 219.6,635.7 L 219.9,635.9 L 214.6,637.1 L 215.2,640.4 L 213.9,642.3 L 215.2,645.1 L 216.8,644.5 L 217.0,643.8 L 218.0,644.8 L 220.5,645.8 L 220.6,651.0 L 219.4,650.0 L 217.6,650.3 L 218.0,653.1 L 216.7,655.0 L 215.6,655.3 L 214.2,654.0 L 210.7,656.4 L 211.2,657.9 L 210.8,658.2 L 211.7,659.4 L 211.3,659.7 L 208.0,657.5 L 208.1,655.1 L 206.0,655.6 L 205.0,655.2 L 202.8,651.9 L 202.0,652.8 L 202.2,653.4 L 201.5,652.9 L 200.7,653.9 L 198.4,653.8 L 197.4,652.8 L 196.3,653.1 L 195.5,652.2 L 193.7,655.3 L 192.3,655.2 L 191.2,656.1 L 191.6,656.8 L 190.4,657.3 L 190.3,658.7 L 190.9,659.0 L 188.7,661.2 L 188.5,663.2 L 189.3,664.9 L 188.4,666.1 L 185.4,666.8 L 180.4,666.3 L 178.8,666.7 L 177.6,666.2 L 177.2,667.6 L 176.0,668.9 L 172.8,671.4 L 176.2,678.8 L 173.5,680.7 L 170.5,681.3 L 170.4,683.7 L 169.0,687.7 L 167.5,689.2 L 168.1,690.1 L 169.3,690.2 L 170.8,692.3 L 172.0,691.9 L 173.7,692.6 L 175.3,692.0 L 179.7,693.1 L 179.1,693.7 L 180.0,695.2 L 181.8,693.5 L 182.3,693.7 L 182.3,694.5 L 183.2,694.5 L 181.3,697.3 L 183.0,699.4 L 180.3,701.4 L 179.8,703.2 L 175.9,705.1 L 172.6,704.9 L 170.6,706.9 L 169.3,706.3 L 168.6,704.8 L 167.9,705.2 L 165.4,703.2 L 160.9,701.9 L 159.8,702.8 L 156.5,700.8 L 156.4,702.6 L 152.8,704.2 L 152.6,706.2 L 151.5,706.2 L 150.2,707.1 L 148.2,711.3 L 148.0,713.5 L 144.8,715.1 L 144.6,716.3 L 142.8,717.4 L 142.3,719.9 L 138.2,721.0 L 134.5,721.1 L 132.4,723.2 L 129.5,724.0 L 124.5,730.1 L 126.8,730.6 L 126.9,734.8 L 126.2,734.8 L 125.2,736.1 L 124.4,735.9 L 123.7,736.3 L 122.0,735.3 Z" fill="#c8d54f" fill-rule="nonzero" stroke="#FFFFFF" stroke-width="2" data-name="Landkreis Erzgebirgskreis" data-value="I: n.v. | G: n.v. | M: n.v." data-immobilienpreis="n.v." data-grundstueckspreis="n.v." data-mietpreis="n.v."></path></a><a xlink:href="https://www.praxiswissen-immobilien.de/immobilienmarkt/sachsen/landkreis-leipzig/" target="_blank"><path d="M 0.0,229.7 L 2.8,236.1 L 4.1,241.2 L 3.1,241.6 L 3.7,247.0 L 8.2,246.1 L 8.6,251.1 L 9.5,251.1 L 9.4,257.0 L 8.3,259.1 L 8.1,261.2 L 6.9,262.2 L 7.1,263.4 L 9.9,263.3 L 10.1,268.5 L 13.4,268.2 L 14.6,268.9 L 16.2,268.6 L 18.0,279.3 L 18.6,280.7 L 20.1,280.1 L 20.2,280.6 L 19.3,281.0 L 19.6,282.0 L 17.4,282.3 L 18.4,285.8 L 19.3,293.3 L 19.6,294.2 L 21.8,294.3 L 22.3,295.9 L 20.9,296.3 L 16.3,302.3 L 17.3,307.4 L 14.7,308.2 L 15.4,310.1 L 12.9,310.9 L 10.2,311.0 L 10.6,316.4 L 16.6,314.1 L 25.6,315.0 L 25.3,317.6 L 23.8,319.6 L 25.1,320.1 L 24.9,322.1 L 22.9,322.8 L 21.4,325.8 L 21.3,328.5 L 19.5,329.6 L 19.7,336.8 L 18.7,341.3 L 32.3,344.3 L 32.3,345.1 L 33.1,345.0 L 34.1,346.5 L 35.7,346.8 L 35.7,347.5 L 36.6,348.0 L 35.0,349.8 L 35.6,350.7 L 34.8,352.2 L 33.6,352.7 L 32.7,352.1 L 31.5,354.6 L 30.2,354.2 L 30.7,353.3 L 29.3,352.6 L 28.5,352.9 L 28.4,354.1 L 29.5,354.1 L 29.1,355.2 L 30.0,355.0 L 29.6,357.3 L 30.2,358.0 L 29.2,359.8 L 29.8,360.3 L 28.8,361.0 L 30.9,362.2 L 31.4,363.7 L 33.4,364.7 L 32.9,365.3 L 35.5,365.8 L 35.5,365.2 L 36.6,365.3 L 36.5,366.0 L 37.6,366.0 L 37.7,367.0 L 40.9,367.5 L 41.2,368.9 L 44.7,368.4 L 44.8,367.1 L 51.1,367.5 L 51.2,370.2 L 51.9,369.7 L 53.0,371.8 L 53.7,371.6 L 54.8,372.9 L 56.0,373.1 L 57.2,371.4 L 58.3,371.2 L 61.4,368.7 L 62.5,370.8 L 66.0,371.1 L 67.8,370.6 L 68.9,369.8 L 68.3,369.2 L 70.3,367.8 L 70.0,367.6 L 71.2,366.6 L 72.0,364.9 L 73.1,365.0 L 75.0,366.6 L 75.7,366.6 L 77.4,368.8 L 78.2,368.6 L 79.0,369.3 L 80.0,369.4 L 81.7,370.7 L 81.0,375.9 L 80.2,375.9 L 83.4,379.6 L 89.1,381.4 L 91.5,379.8 L 93.5,379.2 L 93.1,377.8 L 93.5,377.2 L 96.4,377.2 L 97.9,380.3 L 102.9,384.0 L 103.8,382.2 L 108.3,380.5 L 111.6,381.5 L 112.6,381.0 L 114.5,381.3 L 115.2,380.7 L 116.2,381.4 L 118.5,381.3 L 118.0,380.5 L 119.4,378.8 L 119.5,377.4 L 122.0,376.7 L 122.4,384.4 L 123.5,386.7 L 123.4,387.7 L 125.4,387.2 L 125.9,389.4 L 131.0,388.2 L 132.3,388.8 L 136.4,388.1 L 137.5,389.6 L 138.4,389.4 L 139.7,391.8 L 140.5,395.4 L 141.4,396.3 L 138.6,397.3 L 139.8,400.9 L 139.4,403.1 L 140.0,404.8 L 139.0,407.8 L 140.3,410.5 L 142.8,412.9 L 141.5,413.5 L 141.7,414.6 L 141.2,414.8 L 140.8,418.5 L 142.8,419.1 L 144.3,418.3 L 143.6,412.6 L 145.1,412.4 L 145.4,415.2 L 150.1,413.6 L 153.2,414.4 L 152.8,415.8 L 153.4,416.1 L 153.3,416.6 L 152.2,416.9 L 151.6,419.6 L 153.1,422.7 L 153.6,425.8 L 151.0,426.5 L 148.1,428.5 L 148.9,430.4 L 153.0,431.7 L 155.0,430.8 L 156.3,431.1 L 157.9,430.5 L 159.7,430.9 L 159.9,431.9 L 163.1,432.5 L 164.0,433.2 L 163.3,434.6 L 164.2,434.1 L 166.4,435.5 L 167.4,436.9 L 167.7,438.7 L 169.5,440.5 L 171.0,440.7 L 168.9,438.4 L 169.8,436.0 L 173.8,434.6 L 173.7,433.7 L 174.4,433.7 L 174.1,434.7 L 175.6,433.7 L 177.5,433.8 L 177.6,432.4 L 179.3,431.3 L 180.0,431.3 L 179.9,435.6 L 180.3,435.6 L 180.5,437.3 L 181.8,437.2 L 183.3,438.3 L 184.1,439.6 L 183.8,441.3 L 187.7,441.8 L 188.3,442.5 L 190.2,442.5 L 193.0,441.1 L 192.6,439.7 L 193.7,439.4 L 196.7,440.6 L 200.8,440.1 L 201.9,439.4 L 203.5,437.1 L 210.9,438.7 L 212.7,434.4 L 218.6,425.0 L 223.3,428.3 L 225.9,428.4 L 227.9,429.2 L 228.7,430.5 L 232.7,428.8 L 233.3,427.8 L 231.2,427.7 L 230.5,425.1 L 229.4,424.5 L 229.3,423.2 L 227.7,421.1 L 227.3,419.9 L 228.4,418.9 L 228.5,417.3 L 225.3,416.2 L 223.9,416.7 L 222.2,415.1 L 220.2,415.2 L 220.0,414.0 L 221.1,412.7 L 221.2,411.4 L 224.7,410.1 L 224.5,409.4 L 225.3,409.1 L 225.0,408.0 L 225.7,407.8 L 225.2,406.7 L 228.3,405.8 L 226.6,400.5 L 227.7,397.8 L 229.2,397.4 L 227.9,395.8 L 226.0,395.3 L 225.8,394.4 L 223.2,392.2 L 222.5,390.6 L 223.4,390.5 L 223.9,389.8 L 223.2,386.0 L 225.1,382.3 L 226.4,381.5 L 226.9,380.2 L 227.2,378.0 L 226.5,377.2 L 230.3,375.4 L 231.2,374.5 L 230.4,373.0 L 232.0,372.7 L 232.7,371.5 L 234.5,370.5 L 231.1,369.8 L 231.6,364.3 L 232.5,364.1 L 233.7,362.2 L 234.2,362.3 L 234.1,363.2 L 237.4,363.5 L 239.9,365.0 L 241.9,365.4 L 243.8,364.7 L 244.9,363.6 L 246.1,363.4 L 248.3,365.1 L 249.6,365.4 L 250.9,366.7 L 253.4,363.5 L 256.3,363.4 L 255.4,364.5 L 256.1,365.2 L 257.4,364.7 L 257.8,365.0 L 256.6,366.9 L 256.6,369.0 L 260.5,372.4 L 262.0,372.0 L 265.3,372.2 L 265.6,370.4 L 266.8,371.3 L 272.0,371.1 L 273.4,368.7 L 275.2,368.4 L 276.0,369.8 L 277.3,369.7 L 277.9,370.3 L 278.7,369.7 L 280.7,370.6 L 283.3,370.2 L 284.1,371.0 L 284.5,372.6 L 284.4,370.9 L 286.3,371.0 L 291.4,368.4 L 291.8,367.7 L 292.5,367.8 L 290.2,366.1 L 290.3,364.9 L 291.1,363.2 L 293.9,360.9 L 293.2,360.4 L 291.2,356.4 L 289.7,356.7 L 288.9,352.9 L 290.4,352.5 L 290.8,350.8 L 291.4,350.4 L 292.4,347.9 L 292.4,347.4 L 290.0,346.7 L 291.3,344.8 L 291.4,343.8 L 291.0,343.4 L 288.1,344.5 L 287.3,341.5 L 285.6,341.6 L 285.1,339.6 L 283.8,339.5 L 284.0,338.6 L 281.8,337.5 L 279.1,337.4 L 277.8,338.1 L 277.2,336.2 L 276.2,336.1 L 274.7,333.1 L 276.2,332.4 L 277.6,329.8 L 279.5,328.6 L 279.0,327.7 L 280.0,326.8 L 279.5,324.3 L 279.8,324.6 L 281.6,323.2 L 281.3,321.9 L 283.4,321.5 L 283.3,320.6 L 284.6,320.3 L 284.0,319.3 L 284.5,318.6 L 286.0,318.4 L 285.6,317.9 L 286.9,317.3 L 285.2,316.6 L 287.2,314.9 L 286.7,313.9 L 286.9,312.8 L 287.8,310.9 L 289.0,310.6 L 288.2,307.9 L 291.5,306.8 L 291.1,304.3 L 291.6,299.4 L 293.7,300.1 L 294.4,298.1 L 295.1,298.4 L 295.2,296.6 L 303.8,298.3 L 303.1,295.5 L 303.7,295.0 L 305.7,295.1 L 305.0,292.5 L 301.6,291.5 L 299.7,291.7 L 298.4,288.6 L 296.9,287.7 L 296.7,286.2 L 303.8,285.4 L 303.4,284.6 L 302.9,284.7 L 302.7,283.8 L 300.0,283.9 L 298.8,281.4 L 300.7,277.9 L 301.9,277.8 L 301.9,277.1 L 303.9,276.3 L 304.5,275.2 L 306.5,275.0 L 306.3,274.5 L 304.6,274.0 L 304.8,272.2 L 303.9,269.4 L 304.0,268.3 L 305.1,268.6 L 306.6,267.8 L 306.3,266.5 L 306.9,266.4 L 306.0,264.6 L 306.2,263.3 L 305.2,263.7 L 305.2,262.6 L 306.3,262.8 L 304.9,260.8 L 303.7,262.5 L 302.6,262.1 L 302.7,261.6 L 301.7,261.6 L 301.4,262.5 L 300.4,262.8 L 300.0,262.5 L 300.2,260.5 L 295.1,258.5 L 296.7,257.7 L 298.7,258.4 L 299.4,256.3 L 294.4,255.6 L 294.7,253.7 L 294.2,253.6 L 294.0,254.5 L 293.0,253.9 L 293.1,251.3 L 293.9,249.3 L 291.5,247.7 L 291.2,246.2 L 289.8,246.4 L 283.1,241.5 L 282.3,238.4 L 283.1,238.0 L 286.4,233.2 L 285.3,231.4 L 291.3,228.5 L 297.0,228.0 L 293.9,226.1 L 293.8,221.9 L 294.7,216.4 L 293.6,215.4 L 294.2,214.7 L 293.9,213.1 L 297.0,212.1 L 298.2,210.1 L 298.1,207.9 L 301.7,207.7 L 305.7,209.9 L 307.3,208.5 L 308.3,204.2 L 310.0,204.0 L 309.6,200.3 L 308.2,199.8 L 306.1,200.0 L 305.5,196.0 L 302.9,195.7 L 302.0,197.5 L 299.8,197.5 L 298.9,194.8 L 298.1,194.9 L 298.0,192.8 L 298.7,193.5 L 299.2,193.2 L 297.8,192.6 L 297.2,189.0 L 295.4,188.2 L 296.1,186.1 L 297.4,185.8 L 296.7,183.1 L 295.7,182.9 L 296.1,179.9 L 301.2,179.5 L 302.6,183.8 L 303.9,183.3 L 304.5,181.9 L 309.5,182.8 L 309.5,179.8 L 308.7,177.0 L 307.0,177.3 L 306.7,175.8 L 310.4,174.8 L 311.4,173.6 L 309.7,172.9 L 311.1,171.5 L 310.2,170.6 L 309.7,171.1 L 308.4,170.4 L 308.4,169.3 L 306.3,169.2 L 305.9,170.5 L 305.1,170.9 L 303.9,169.5 L 303.0,164.8 L 300.1,162.7 L 297.8,159.3 L 296.0,158.0 L 293.0,157.2 L 290.9,155.9 L 289.0,155.9 L 288.5,155.1 L 288.4,153.3 L 286.4,150.5 L 284.9,150.1 L 282.7,150.8 L 277.9,150.8 L 272.8,149.1 L 267.4,148.4 L 262.7,146.8 L 261.2,144.4 L 260.9,141.9 L 254.5,139.6 L 254.4,137.0 L 253.8,136.4 L 250.9,136.3 L 246.5,139.0 L 243.7,142.4 L 237.8,145.6 L 224.1,145.2 L 222.5,146.6 L 221.9,150.8 L 219.1,149.9 L 219.0,150.3 L 213.7,150.4 L 213.7,148.3 L 209.3,146.6 L 208.9,149.4 L 205.1,149.7 L 204.6,150.9 L 202.6,148.6 L 200.0,151.0 L 197.8,151.4 L 198.3,153.5 L 197.9,154.0 L 196.3,153.6 L 195.0,156.4 L 194.4,159.4 L 194.9,159.4 L 195.8,162.0 L 197.0,162.6 L 198.3,162.0 L 200.5,163.3 L 199.9,163.9 L 197.1,163.8 L 196.7,164.8 L 197.3,166.8 L 196.6,166.8 L 197.6,167.4 L 196.5,168.8 L 195.0,168.7 L 194.7,169.6 L 195.8,169.8 L 194.7,170.4 L 195.0,171.0 L 196.3,170.8 L 197.5,172.0 L 195.9,173.3 L 196.0,176.7 L 194.1,174.9 L 194.7,173.1 L 194.3,172.9 L 193.9,173.7 L 192.6,172.7 L 192.3,173.4 L 192.9,174.0 L 192.2,174.5 L 191.8,173.9 L 190.0,174.5 L 189.1,173.7 L 189.7,174.8 L 187.2,175.1 L 187.1,174.0 L 186.6,174.1 L 186.7,175.4 L 185.4,175.6 L 185.3,181.7 L 183.7,181.8 L 183.7,183.5 L 185.0,183.7 L 185.1,184.1 L 181.9,184.5 L 181.9,190.2 L 177.4,189.1 L 173.0,190.1 L 173.3,191.1 L 172.3,194.1 L 171.0,194.3 L 171.0,195.7 L 169.5,196.2 L 168.8,192.9 L 168.2,193.1 L 167.6,192.0 L 164.9,193.6 L 165.3,194.5 L 164.9,195.0 L 161.1,196.1 L 160.2,196.5 L 160.3,197.0 L 157.2,197.7 L 156.3,198.5 L 153.7,197.0 L 152.1,197.1 L 151.4,196.1 L 140.6,202.5 L 140.6,203.4 L 137.5,204.2 L 141.5,212.5 L 148.0,211.5 L 148.6,212.1 L 148.2,214.2 L 149.0,215.3 L 150.6,216.5 L 152.2,215.9 L 153.0,216.6 L 152.0,217.5 L 152.6,218.3 L 152.4,218.8 L 153.1,218.9 L 152.6,220.2 L 148.4,222.6 L 154.6,227.0 L 151.3,231.7 L 150.2,231.3 L 153.5,237.3 L 153.1,238.4 L 140.0,240.1 L 140.0,242.3 L 138.1,248.9 L 136.6,248.9 L 138.1,252.5 L 135.7,253.7 L 135.4,256.3 L 134.7,256.4 L 131.7,264.4 L 132.2,266.1 L 134.4,265.4 L 135.4,267.0 L 133.2,268.7 L 129.2,268.5 L 128.9,267.9 L 129.3,265.2 L 127.1,266.1 L 125.4,266.0 L 117.6,262.0 L 118.1,258.3 L 117.2,252.9 L 112.5,252.0 L 110.4,250.9 L 105.3,251.7 L 105.3,252.5 L 104.4,252.3 L 104.6,254.6 L 103.9,255.3 L 103.6,254.4 L 102.6,254.4 L 102.5,253.2 L 100.7,253.7 L 99.2,252.9 L 96.4,253.2 L 96.1,254.9 L 95.4,255.0 L 95.4,253.6 L 94.8,254.2 L 92.8,254.2 L 93.0,253.5 L 91.4,252.6 L 89.8,249.6 L 89.5,247.5 L 89.1,247.7 L 88.5,246.1 L 87.7,246.1 L 85.8,250.5 L 84.3,249.4 L 84.8,247.9 L 83.8,246.9 L 81.7,245.9 L 81.2,244.5 L 80.2,244.8 L 79.6,244.4 L 78.9,244.7 L 79.7,245.1 L 79.6,248.1 L 80.5,248.0 L 80.3,248.6 L 79.1,248.5 L 80.0,250.8 L 79.9,252.5 L 80.6,252.7 L 80.2,254.0 L 79.6,254.0 L 78.6,255.3 L 78.6,256.6 L 77.9,257.3 L 78.5,258.6 L 77.4,258.2 L 77.0,259.0 L 77.7,259.5 L 77.4,260.0 L 77.0,259.4 L 75.5,260.4 L 76.7,260.7 L 77.3,261.7 L 76.7,262.0 L 75.9,261.5 L 75.6,262.5 L 73.7,262.7 L 73.8,261.8 L 72.2,261.9 L 72.1,260.3 L 70.3,260.2 L 69.6,261.4 L 68.7,261.2 L 68.3,264.1 L 68.6,269.0 L 66.7,268.9 L 65.4,270.0 L 65.7,270.7 L 65.1,271.0 L 65.4,271.8 L 64.7,272.4 L 65.5,273.1 L 64.0,273.7 L 65.1,274.2 L 65.8,275.8 L 65.7,277.0 L 64.8,278.0 L 62.6,278.3 L 62.6,277.7 L 60.6,277.7 L 57.6,278.9 L 52.7,277.0 L 52.9,277.9 L 48.2,278.6 L 44.4,280.5 L 43.2,280.8 L 43.0,280.1 L 40.7,280.8 L 40.5,280.5 L 41.4,280.2 L 40.6,277.6 L 42.4,276.8 L 41.5,274.2 L 43.3,273.3 L 43.0,272.9 L 43.5,272.7 L 42.0,270.0 L 41.3,267.1 L 40.9,267.3 L 40.2,263.8 L 39.0,263.5 L 40.8,262.7 L 39.2,255.8 L 39.5,255.3 L 41.2,254.7 L 40.9,253.2 L 40.0,252.8 L 40.0,250.9 L 45.0,251.1 L 45.2,253.8 L 52.3,254.2 L 49.1,250.6 L 44.8,248.8 L 44.4,243.1 L 40.1,243.6 L 40.7,242.7 L 39.7,238.7 L 39.2,239.0 L 37.7,233.8 L 36.1,232.1 L 37.3,231.0 L 35.3,231.4 L 34.8,229.8 L 35.9,229.4 L 34.9,225.6 L 37.7,225.0 L 37.6,222.4 L 38.0,222.2 L 38.1,223.7 L 39.1,223.5 L 38.9,222.9 L 43.1,221.8 L 43.8,220.4 L 43.7,219.9 L 40.0,218.2 L 39.9,215.8 L 38.4,212.7 L 36.9,214.1 L 34.8,213.9 L 29.5,215.6 L 29.7,216.9 L 29.1,218.3 L 25.2,219.9 L 25.3,218.2 L 24.2,218.4 L 20.3,221.1 L 17.9,221.8 L 18.3,223.2 L 7.5,225.4 L 7.7,225.8 L 6.8,226.2 L 7.4,229.1 L 2.8,229.1 Z" fill="#c8d54f" fill-rule="nonzero" stroke="#FFFFFF" stroke-width="2" data-name="Landkreis Leipzig" data-value="I: n.v. | G: n.v. | M: n.v." data-immobilienpreis="n.v." data-grundstueckspreis="n.v." data-mietpreis="n.v."></path></a><a xlink:href="https://www.praxiswissen-immobilien.de/immobilienmarkt/sachsen/landkreis-saechsische-schweiz-osterzgebirge/" target="_blank"><path d="M 498.7,405.9 L 500.1,407.1 L 499.4,407.3 L 498.7,408.9 L 499.7,409.4 L 500.4,408.2 L 501.9,409.9 L 502.3,409.6 L 503.9,410.7 L 503.8,409.7 L 504.3,409.8 L 506.6,411.7 L 507.1,413.5 L 508.6,415.0 L 508.7,415.7 L 509.7,415.5 L 507.9,418.8 L 503.2,424.2 L 503.5,424.4 L 501.3,429.4 L 500.8,432.6 L 502.5,437.2 L 503.9,439.5 L 505.8,441.0 L 507.1,440.6 L 511.5,441.0 L 516.6,439.6 L 518.2,439.9 L 519.2,438.5 L 518.7,440.6 L 519.9,440.9 L 518.9,444.0 L 515.6,446.6 L 515.8,447.5 L 514.8,449.2 L 513.1,448.3 L 511.1,449.4 L 508.0,449.1 L 508.1,450.5 L 509.9,451.2 L 508.3,451.8 L 507.3,452.9 L 506.0,454.6 L 505.2,457.0 L 503.9,456.3 L 502.7,459.6 L 503.8,459.9 L 501.8,461.3 L 502.2,462.8 L 501.4,464.5 L 505.7,465.8 L 507.0,465.3 L 511.9,466.0 L 509.1,467.1 L 509.1,467.8 L 509.6,467.8 L 508.9,468.0 L 509.6,469.7 L 507.4,471.3 L 508.3,472.4 L 508.9,472.5 L 508.4,473.2 L 509.9,472.9 L 508.1,473.7 L 509.2,474.9 L 513.1,476.9 L 512.6,479.1 L 513.0,479.7 L 512.1,482.3 L 513.1,483.8 L 512.6,487.3 L 513.8,488.7 L 513.9,490.4 L 515.3,491.4 L 517.3,491.4 L 520.4,494.1 L 524.7,496.1 L 527.3,501.1 L 528.0,506.3 L 528.8,508.6 L 530.3,510.7 L 530.1,511.8 L 535.4,518.9 L 534.8,519.3 L 535.3,521.0 L 533.1,523.2 L 530.6,522.7 L 528.8,523.3 L 531.0,525.8 L 532.2,526.3 L 531.5,528.5 L 533.0,529.5 L 536.0,530.2 L 535.6,532.7 L 538.3,535.5 L 537.5,536.9 L 540.0,536.3 L 540.9,535.0 L 541.4,535.3 L 541.7,534.7 L 542.9,535.5 L 545.7,534.3 L 546.8,536.1 L 546.0,537.5 L 547.5,538.2 L 549.4,542.5 L 551.6,543.4 L 552.4,545.3 L 553.4,544.9 L 556.3,546.3 L 558.5,545.9 L 558.9,546.5 L 554.0,547.4 L 551.8,549.2 L 551.6,550.0 L 553.6,550.4 L 553.1,551.3 L 554.2,551.8 L 552.6,553.6 L 549.4,560.7 L 549.5,564.0 L 550.3,564.4 L 549.8,564.7 L 551.7,566.2 L 554.2,566.9 L 555.5,569.1 L 557.6,570.7 L 561.5,570.1 L 564.0,568.7 L 566.4,568.0 L 568.4,569.6 L 568.7,571.0 L 570.3,572.1 L 571.8,575.8 L 572.5,579.6 L 574.5,582.4 L 575.1,585.2 L 575.9,585.9 L 580.3,588.2 L 585.8,593.4 L 586.9,592.2 L 586.0,593.5 L 588.2,594.4 L 588.9,596.6 L 594.7,595.7 L 597.8,598.5 L 600.5,599.9 L 601.6,602.1 L 603.1,603.4 L 605.1,604.1 L 608.8,604.2 L 610.4,605.1 L 612.6,603.3 L 612.2,600.9 L 611.0,599.7 L 611.8,599.3 L 613.1,599.9 L 618.8,594.6 L 619.8,594.8 L 620.6,596.5 L 623.7,598.5 L 627.7,597.1 L 630.6,593.2 L 631.6,594.2 L 632.6,593.6 L 634.1,594.1 L 634.7,595.1 L 635.7,595.0 L 638.0,592.9 L 641.0,594.6 L 643.0,593.7 L 643.3,595.2 L 645.7,594.1 L 647.2,595.0 L 649.8,594.8 L 650.8,595.4 L 651.1,596.7 L 653.1,598.3 L 654.7,598.4 L 657.3,600.5 L 660.7,598.7 L 662.1,599.6 L 663.9,599.8 L 667.2,598.5 L 668.8,598.6 L 669.7,597.5 L 671.1,593.4 L 671.2,588.9 L 672.3,589.4 L 673.7,589.0 L 677.4,591.9 L 678.4,592.1 L 679.6,591.6 L 680.7,590.4 L 684.8,588.7 L 685.6,587.5 L 686.4,583.3 L 687.2,582.6 L 685.4,581.1 L 682.9,577.1 L 682.1,576.7 L 681.1,572.1 L 681.8,570.5 L 683.2,569.6 L 684.1,565.8 L 686.2,562.9 L 684.7,560.7 L 685.2,558.4 L 686.4,557.6 L 687.6,557.1 L 688.8,558.1 L 691.9,559.0 L 693.2,560.3 L 694.0,559.9 L 697.4,560.6 L 699.0,559.7 L 701.4,559.8 L 703.7,558.2 L 705.1,555.4 L 708.1,553.2 L 707.4,548.8 L 709.2,547.4 L 711.2,546.7 L 713.8,546.6 L 715.8,545.0 L 719.8,543.4 L 721.6,541.1 L 722.6,542.4 L 724.7,543.1 L 726.5,544.5 L 726.6,547.2 L 730.1,546.3 L 732.1,546.8 L 734.3,547.9 L 737.0,550.9 L 739.0,550.3 L 741.1,546.9 L 744.0,547.3 L 748.0,546.1 L 749.7,547.4 L 752.8,546.5 L 753.6,546.8 L 756.0,545.8 L 755.7,543.8 L 756.2,541.8 L 758.4,540.1 L 759.0,538.5 L 760.3,537.4 L 764.0,537.2 L 767.2,534.8 L 768.7,535.3 L 770.1,534.6 L 770.9,533.5 L 775.0,532.3 L 777.3,532.5 L 781.7,528.4 L 783.3,527.3 L 785.5,526.9 L 788.5,524.0 L 791.2,524.3 L 797.4,522.8 L 800.1,522.8 L 801.8,521.4 L 803.9,521.8 L 805.7,520.8 L 810.3,516.2 L 811.0,516.0 L 812.8,516.9 L 816.3,510.6 L 817.6,506.4 L 817.9,502.5 L 816.6,499.2 L 817.9,499.0 L 820.9,500.0 L 823.8,499.1 L 826.0,497.9 L 830.0,494.4 L 831.7,494.5 L 836.1,496.4 L 838.5,500.2 L 844.6,501.5 L 850.3,498.4 L 856.3,497.3 L 857.2,497.6 L 860.0,496.0 L 862.0,496.1 L 862.5,494.4 L 861.7,492.9 L 861.9,491.1 L 863.1,491.2 L 863.2,492.0 L 864.0,492.6 L 865.0,492.7 L 865.7,491.8 L 867.3,493.1 L 871.1,493.8 L 872.0,493.7 L 872.2,492.8 L 872.9,493.2 L 873.6,492.6 L 874.3,493.0 L 875.4,492.0 L 876.9,492.1 L 877.3,491.3 L 876.3,489.9 L 877.0,489.6 L 877.5,486.3 L 876.8,485.1 L 877.1,484.4 L 876.3,483.6 L 876.7,482.8 L 876.3,481.2 L 877.9,481.2 L 877.4,479.8 L 878.6,480.4 L 879.6,480.3 L 879.8,479.7 L 878.5,478.7 L 879.5,478.8 L 882.7,476.7 L 882.0,474.9 L 882.4,474.1 L 881.6,472.8 L 882.1,470.7 L 881.2,470.2 L 880.6,468.8 L 878.6,467.7 L 877.0,465.6 L 876.6,466.2 L 871.6,467.9 L 869.9,467.1 L 869.9,465.3 L 866.5,465.8 L 866.7,465.0 L 865.2,464.0 L 861.8,463.4 L 861.0,462.5 L 861.3,461.7 L 860.7,461.4 L 858.2,460.6 L 856.2,461.2 L 853.1,460.8 L 849.1,459.3 L 847.2,458.0 L 847.0,457.0 L 849.6,455.4 L 849.4,453.9 L 845.2,452.4 L 843.7,451.0 L 844.8,449.7 L 846.3,449.1 L 847.7,446.8 L 848.8,446.1 L 850.9,446.7 L 853.8,446.1 L 854.1,445.1 L 852.9,443.4 L 852.9,442.4 L 853.1,441.4 L 854.4,440.5 L 851.9,438.5 L 847.2,438.9 L 842.2,442.4 L 837.9,442.9 L 837.1,443.7 L 835.7,443.1 L 833.7,440.4 L 828.3,438.6 L 828.3,437.8 L 826.5,437.1 L 826.5,434.3 L 830.5,429.4 L 828.0,426.9 L 827.3,423.9 L 829.2,424.3 L 834.9,420.6 L 835.7,419.7 L 834.0,417.6 L 837.4,412.3 L 837.0,409.3 L 835.1,407.7 L 834.8,406.7 L 832.4,405.8 L 832.5,404.6 L 837.4,405.4 L 838.4,404.8 L 839.6,402.2 L 839.7,400.4 L 840.8,399.6 L 841.4,397.6 L 843.4,395.1 L 848.8,394.7 L 849.8,395.3 L 850.2,394.1 L 849.2,391.7 L 847.0,392.2 L 846.1,391.0 L 848.6,390.9 L 849.2,391.6 L 850.7,387.3 L 843.3,386.8 L 841.5,386.2 L 838.5,383.9 L 834.3,383.4 L 832.5,387.0 L 828.9,390.5 L 824.5,391.9 L 824.3,390.6 L 825.0,390.1 L 825.1,389.1 L 823.4,387.8 L 823.6,386.5 L 821.9,383.5 L 819.5,383.3 L 817.4,382.5 L 818.2,381.3 L 816.3,380.3 L 814.7,380.0 L 814.0,379.1 L 810.4,377.5 L 808.6,377.5 L 805.2,375.7 L 804.7,376.4 L 798.3,374.7 L 796.1,378.8 L 795.5,382.3 L 793.6,381.8 L 792.3,382.7 L 793.9,383.3 L 793.9,383.8 L 794.7,384.0 L 794.2,384.3 L 795.3,384.5 L 795.3,385.0 L 792.8,384.9 L 791.7,385.6 L 790.4,385.1 L 790.2,386.7 L 792.4,387.2 L 790.0,388.1 L 788.7,387.9 L 786.6,386.1 L 781.3,383.0 L 781.4,380.2 L 779.3,377.7 L 780.3,376.3 L 779.5,376.7 L 778.4,374.3 L 777.1,373.4 L 775.0,375.0 L 774.5,375.9 L 774.9,376.9 L 772.2,378.3 L 770.1,380.6 L 768.8,379.9 L 765.4,384.1 L 762.6,384.1 L 759.2,381.9 L 759.2,382.7 L 758.2,382.7 L 758.0,383.8 L 757.3,383.5 L 756.9,384.1 L 755.4,383.1 L 752.7,383.3 L 752.5,382.9 L 750.3,383.8 L 745.6,376.2 L 743.8,376.8 L 743.7,378.3 L 741.0,384.2 L 742.7,385.7 L 739.7,387.8 L 738.0,386.9 L 736.8,387.4 L 734.7,385.9 L 732.2,387.1 L 730.0,385.5 L 728.7,385.3 L 726.9,385.8 L 726.3,388.4 L 724.1,388.3 L 722.0,387.2 L 722.4,386.3 L 719.7,385.9 L 719.2,386.8 L 718.2,386.7 L 718.3,388.7 L 716.2,390.6 L 712.6,391.5 L 711.7,391.0 L 710.1,391.4 L 712.0,395.3 L 709.6,397.0 L 709.8,398.5 L 711.7,399.9 L 710.5,401.9 L 710.3,403.8 L 710.7,409.9 L 709.5,410.1 L 708.5,411.7 L 708.7,412.5 L 708.1,413.0 L 705.1,413.0 L 703.4,413.8 L 701.3,417.0 L 701.5,419.2 L 701.0,419.9 L 700.0,418.6 L 698.5,418.7 L 698.3,418.2 L 696.5,420.7 L 695.0,421.2 L 694.6,420.5 L 693.5,421.2 L 692.6,419.5 L 690.8,418.9 L 690.1,420.7 L 690.5,421.2 L 689.2,421.3 L 688.7,423.2 L 689.8,426.5 L 689.3,427.9 L 690.4,428.1 L 690.3,429.2 L 688.5,429.8 L 688.6,430.6 L 687.3,431.7 L 684.1,432.5 L 684.8,433.5 L 683.8,433.8 L 684.1,435.4 L 682.5,436.3 L 681.7,436.5 L 681.2,436.0 L 680.9,436.3 L 681.3,436.7 L 680.7,437.3 L 679.4,437.5 L 680.1,440.5 L 678.6,440.4 L 678.2,438.4 L 677.7,438.6 L 677.9,439.4 L 675.2,439.6 L 669.9,433.8 L 667.4,437.9 L 664.5,435.9 L 662.5,437.2 L 662.2,439.0 L 660.2,442.0 L 659.1,442.2 L 659.2,442.8 L 656.8,442.2 L 655.2,443.4 L 655.3,444.7 L 654.1,445.0 L 652.7,444.4 L 652.0,444.7 L 652.0,444.0 L 651.3,443.6 L 649.9,443.7 L 650.0,442.1 L 648.9,441.7 L 648.7,442.5 L 647.5,442.3 L 646.6,442.9 L 646.6,444.0 L 645.7,444.0 L 645.1,443.0 L 643.7,443.5 L 643.5,440.0 L 642.7,439.4 L 643.0,436.8 L 641.7,438.2 L 639.5,436.5 L 639.0,436.9 L 639.2,438.1 L 637.4,436.8 L 635.6,437.0 L 633.4,432.5 L 634.0,431.6 L 633.2,431.4 L 633.4,428.8 L 632.7,428.9 L 632.7,429.4 L 630.6,429.3 L 630.1,428.8 L 629.0,429.6 L 628.1,429.1 L 627.8,429.6 L 626.7,427.6 L 624.2,426.9 L 622.8,424.4 L 620.4,424.0 L 620.5,423.3 L 619.9,423.1 L 617.9,423.3 L 615.9,425.0 L 613.2,424.4 L 612.8,425.1 L 610.6,426.4 L 607.8,426.1 L 605.8,427.8 L 602.7,427.9 L 602.3,427.2 L 602.9,425.5 L 601.3,422.8 L 600.4,419.9 L 599.0,419.5 L 598.4,418.4 L 596.4,420.1 L 595.4,419.0 L 594.2,419.0 L 594.6,417.8 L 594.3,416.5 L 593.9,416.5 L 593.6,411.1 L 593.0,410.3 L 594.3,409.4 L 595.6,407.5 L 594.3,407.1 L 594.1,407.5 L 589.9,407.7 L 589.7,408.7 L 588.5,409.3 L 588.7,410.2 L 587.9,411.0 L 585.4,411.3 L 582.9,409.4 L 581.5,408.9 L 581.0,409.4 L 579.6,408.2 L 579.0,408.6 L 578.7,409.9 L 577.1,408.6 L 574.7,407.8 L 572.5,409.0 L 570.1,409.3 L 570.0,407.7 L 568.5,405.9 L 570.2,404.0 L 570.7,402.7 L 566.6,403.1 L 565.4,402.0 L 565.4,402.5 L 562.7,401.9 L 563.3,399.0 L 560.5,397.9 L 562.8,394.1 L 560.9,390.8 L 561.0,389.2 L 558.9,388.5 L 557.4,389.7 L 557.4,390.8 L 556.1,390.8 L 554.2,392.8 L 551.3,391.3 L 542.1,391.7 L 541.8,392.2 L 533.2,391.5 L 530.7,391.8 L 527.5,390.2 L 527.7,389.7 L 526.5,388.8 L 523.9,387.9 L 520.3,390.7 L 518.0,390.4 L 515.2,392.0 L 511.0,395.6 L 510.2,394.7 L 508.3,394.4 L 505.3,394.3 L 502.9,395.1 L 502.1,395.9 L 501.9,398.1 L 500.9,398.0 L 501.4,398.8 L 501.4,400.1 L 500.8,401.0 L 501.2,404.3 L 499.7,405.9 Z" fill="#c8d54f" fill-rule="nonzero" stroke="#FFFFFF" stroke-width="2" data-name="Landkreis Schsische Schweiz Osterzgebirge" data-value="I: n.v. | G: n.v. | M: n.v." data-immobilienpreis="n.v." data-grundstueckspreis="n.v." data-mietpreis="n.v."></path></a><a xlink:href="https://www.praxiswissen-immobilien.de/immobilienmarkt/sachsen/landkreis-meissen/" target="_blank"><path d="M 404.9,194.1 L 405.2,194.8 L 410.9,196.4 L 413.2,199.5 L 414.6,198.8 L 415.3,200.3 L 413.8,200.9 L 413.4,202.6 L 411.3,203.3 L 408.4,205.5 L 411.9,206.2 L 412.7,207.2 L 413.8,207.2 L 413.8,208.0 L 412.9,208.0 L 412.8,210.2 L 411.6,210.3 L 411.9,211.2 L 412.5,212.0 L 414.2,212.3 L 416.1,214.9 L 417.3,215.0 L 413.2,224.7 L 414.3,233.7 L 415.3,233.9 L 415.4,234.6 L 414.3,234.9 L 417.8,246.0 L 417.3,249.4 L 415.0,249.1 L 415.1,254.6 L 415.7,255.8 L 414.4,256.3 L 416.6,258.0 L 418.8,261.6 L 417.0,262.0 L 417.4,263.3 L 415.3,264.5 L 415.4,267.4 L 413.6,267.7 L 413.2,266.4 L 412.9,267.8 L 411.3,268.3 L 410.6,268.2 L 410.2,266.6 L 409.7,266.8 L 410.0,269.7 L 411.8,271.2 L 411.6,271.8 L 412.3,272.5 L 410.8,273.1 L 410.2,274.6 L 412.5,275.0 L 412.3,276.3 L 412.8,277.3 L 413.7,277.4 L 414.8,279.0 L 414.9,280.4 L 413.7,281.7 L 412.6,280.2 L 410.7,281.6 L 412.2,283.7 L 411.2,285.2 L 412.6,286.4 L 412.7,287.0 L 412.3,287.2 L 412.9,291.0 L 413.4,291.9 L 414.2,291.6 L 415.1,293.9 L 413.8,294.2 L 414.0,296.4 L 411.7,297.1 L 411.4,296.5 L 409.1,297.5 L 412.0,301.1 L 411.7,301.6 L 412.3,302.4 L 411.7,302.7 L 415.3,303.2 L 416.0,308.7 L 417.7,315.7 L 416.5,316.0 L 416.3,319.8 L 421.8,319.9 L 422.6,322.3 L 424.1,322.5 L 423.9,323.3 L 426.2,324.0 L 426.5,325.9 L 428.0,326.8 L 428.9,329.1 L 429.7,328.3 L 429.6,327.7 L 431.4,327.9 L 431.4,327.5 L 433.0,328.2 L 432.3,330.1 L 432.3,330.6 L 433.2,331.0 L 432.6,333.0 L 434.3,333.1 L 434.0,333.9 L 434.6,335.6 L 432.4,337.0 L 432.9,338.3 L 432.2,338.4 L 431.7,339.7 L 431.8,341.4 L 435.1,341.4 L 431.4,343.8 L 431.6,347.1 L 431.0,347.6 L 432.2,350.8 L 431.1,351.0 L 431.8,355.8 L 430.1,356.3 L 430.3,358.0 L 429.5,358.6 L 426.8,359.3 L 426.6,357.8 L 426.1,357.8 L 424.9,358.5 L 423.2,358.5 L 422.6,365.6 L 423.2,365.8 L 424.3,363.1 L 428.5,362.9 L 428.2,360.2 L 430.1,359.7 L 432.2,360.4 L 432.0,361.5 L 431.4,361.5 L 431.8,364.2 L 433.0,364.3 L 433.4,365.3 L 433.0,367.1 L 433.8,368.0 L 433.6,369.9 L 435.0,371.4 L 434.8,373.9 L 433.8,373.9 L 433.3,381.0 L 435.7,386.7 L 433.6,389.6 L 429.8,388.8 L 428.3,389.9 L 428.8,392.4 L 430.3,393.5 L 430.3,396.2 L 431.8,396.6 L 433.8,396.0 L 434.3,396.8 L 437.7,397.2 L 438.1,398.7 L 435.9,399.1 L 434.1,401.1 L 435.0,402.1 L 434.4,403.4 L 435.7,404.9 L 432.3,407.3 L 428.5,412.2 L 427.5,411.3 L 428.7,412.6 L 427.5,415.7 L 427.6,418.5 L 423.3,421.7 L 425.8,424.3 L 437.1,413.9 L 441.0,409.6 L 451.3,407.2 L 452.1,408.0 L 452.5,407.1 L 461.0,405.6 L 463.4,404.2 L 467.5,399.9 L 474.5,397.9 L 476.0,397.0 L 484.9,396.6 L 485.8,397.5 L 486.0,398.8 L 486.8,398.8 L 488.6,401.2 L 490.3,402.0 L 490.7,403.8 L 492.9,405.2 L 495.8,405.4 L 494.7,406.8 L 497.3,406.3 L 498.9,408.4 L 500.1,407.1 L 499.1,406.7 L 498.8,405.7 L 499.7,405.9 L 501.2,404.3 L 500.8,401.0 L 501.4,400.1 L 501.4,398.8 L 500.9,398.0 L 501.9,398.1 L 502.1,395.9 L 502.9,395.1 L 505.3,394.3 L 508.3,394.4 L 510.2,394.7 L 511.0,395.6 L 515.2,392.0 L 518.0,390.4 L 520.3,390.7 L 523.9,387.9 L 526.5,388.8 L 527.7,389.7 L 527.5,390.2 L 530.7,391.8 L 533.2,391.5 L 541.8,392.2 L 542.1,391.7 L 551.3,391.3 L 554.2,392.8 L 556.1,390.8 L 557.4,390.8 L 557.4,389.7 L 558.9,388.5 L 560.9,389.2 L 560.6,388.8 L 561.8,387.8 L 563.2,388.1 L 564.0,387.4 L 564.9,383.6 L 564.4,383.3 L 563.9,381.5 L 564.6,379.9 L 565.5,380.3 L 566.0,379.9 L 566.7,377.7 L 568.3,376.2 L 567.9,375.8 L 568.4,374.4 L 567.7,373.8 L 568.0,372.5 L 566.7,372.5 L 565.6,370.6 L 567.1,370.2 L 568.1,368.1 L 569.4,369.1 L 571.1,369.1 L 573.8,366.5 L 575.6,365.6 L 578.3,365.6 L 583.1,368.4 L 586.6,369.4 L 593.6,373.7 L 591.6,371.6 L 593.0,371.0 L 595.2,371.0 L 594.8,370.8 L 595.4,370.2 L 596.8,369.8 L 597.5,369.9 L 601.9,373.8 L 602.5,373.2 L 603.5,374.3 L 603.9,372.8 L 603.5,372.5 L 603.8,371.9 L 604.3,372.1 L 604.3,371.0 L 607.8,372.9 L 608.2,372.4 L 607.0,370.9 L 607.4,370.6 L 605.0,368.0 L 604.6,368.5 L 603.2,367.4 L 604.3,367.1 L 606.1,364.1 L 605.5,361.9 L 604.8,361.9 L 604.6,360.2 L 606.5,358.6 L 607.2,359.0 L 608.0,358.1 L 608.4,360.2 L 608.8,360.9 L 609.8,361.8 L 608.9,360.8 L 610.9,359.7 L 610.5,356.8 L 611.9,352.9 L 611.2,352.7 L 612.3,351.1 L 612.8,349.1 L 612.4,348.9 L 613.1,347.9 L 612.8,345.8 L 614.7,344.8 L 615.9,342.2 L 621.9,344.4 L 622.1,345.5 L 624.3,346.3 L 626.7,343.6 L 629.8,345.4 L 629.3,343.4 L 629.7,342.9 L 630.1,343.3 L 634.1,338.7 L 631.0,337.6 L 631.1,337.0 L 631.7,337.0 L 632.2,336.3 L 631.8,332.2 L 628.0,330.4 L 628.2,328.6 L 627.1,326.9 L 627.6,324.9 L 625.3,319.0 L 628.9,318.9 L 631.1,320.9 L 632.4,321.0 L 633.3,320.4 L 633.4,317.6 L 634.9,313.8 L 639.2,310.2 L 641.1,309.8 L 641.7,310.2 L 643.9,309.3 L 644.3,306.8 L 644.8,306.1 L 645.4,306.4 L 643.2,303.3 L 642.2,304.1 L 637.9,301.7 L 638.9,300.2 L 639.1,298.5 L 633.5,297.1 L 631.4,295.0 L 639.3,293.5 L 640.2,291.7 L 640.5,286.0 L 640.8,287.3 L 641.5,287.2 L 645.1,289.7 L 646.8,289.5 L 647.4,288.3 L 647.5,288.7 L 647.3,286.0 L 651.8,286.0 L 651.1,285.0 L 651.8,282.5 L 650.5,281.2 L 649.5,281.7 L 649.1,281.3 L 647.8,282.0 L 647.0,281.6 L 647.5,280.9 L 646.2,279.9 L 646.2,278.2 L 647.4,277.5 L 647.4,276.7 L 645.6,276.1 L 645.4,274.3 L 646.0,274.8 L 646.2,273.3 L 646.4,274.9 L 646.4,273.3 L 647.9,274.0 L 647.9,274.7 L 648.1,274.1 L 650.1,275.2 L 649.8,276.1 L 650.3,275.3 L 652.6,274.9 L 650.4,268.0 L 652.6,266.6 L 653.0,267.1 L 652.8,266.4 L 654.1,265.5 L 656.7,266.2 L 657.3,264.2 L 657.2,263.0 L 655.6,263.7 L 653.1,262.3 L 651.2,262.0 L 648.4,259.6 L 652.8,256.3 L 649.5,254.4 L 653.7,253.5 L 647.9,244.1 L 647.6,241.5 L 645.9,241.0 L 647.2,239.5 L 650.1,233.8 L 654.1,228.9 L 655.4,226.4 L 656.6,223.0 L 657.3,216.1 L 668.7,218.9 L 668.8,215.9 L 667.8,215.0 L 668.0,213.7 L 667.4,212.3 L 666.1,210.9 L 666.3,208.4 L 665.5,204.2 L 666.2,203.5 L 665.1,202.8 L 663.8,200.5 L 662.2,199.6 L 660.3,197.2 L 660.8,196.2 L 660.6,194.2 L 658.5,194.7 L 654.7,198.6 L 650.4,196.5 L 641.4,198.0 L 639.2,198.9 L 637.8,202.1 L 637.7,204.0 L 633.6,202.9 L 632.6,205.2 L 632.8,203.2 L 632.6,202.6 L 632.0,202.7 L 632.1,201.4 L 633.2,201.1 L 633.4,199.6 L 634.3,199.7 L 634.9,198.5 L 634.3,197.2 L 633.4,198.1 L 629.6,197.2 L 628.6,198.5 L 627.8,201.2 L 625.7,202.4 L 625.3,203.2 L 623.1,203.8 L 618.5,201.7 L 614.7,202.4 L 610.9,201.4 L 606.4,198.0 L 604.3,195.7 L 601.1,199.7 L 595.8,194.7 L 592.9,198.9 L 587.6,198.3 L 585.5,199.1 L 581.9,199.2 L 575.4,197.7 L 575.2,198.3 L 568.3,199.1 L 566.4,198.6 L 566.9,195.6 L 565.2,195.2 L 565.5,193.6 L 564.0,190.9 L 564.7,189.3 L 557.0,188.4 L 554.7,190.8 L 551.5,192.6 L 549.4,192.5 L 547.5,198.8 L 546.1,198.7 L 544.3,193.9 L 544.4,191.5 L 538.6,191.4 L 539.1,188.6 L 537.6,177.2 L 535.3,177.7 L 535.1,177.0 L 530.0,176.9 L 527.9,177.6 L 526.4,174.7 L 520.8,173.1 L 518.2,173.2 L 515.1,171.9 L 515.0,170.1 L 515.9,168.7 L 516.0,165.9 L 520.1,167.9 L 515.7,162.4 L 515.2,162.7 L 515.1,165.5 L 510.1,165.4 L 509.9,162.8 L 508.2,160.1 L 507.4,161.4 L 508.2,163.2 L 506.0,162.1 L 505.0,162.7 L 503.7,162.6 L 503.9,162.1 L 503.5,162.1 L 501.5,165.9 L 498.9,165.9 L 499.3,163.9 L 501.6,162.6 L 502.1,161.7 L 501.5,161.6 L 501.8,160.9 L 501.0,160.5 L 501.6,159.6 L 500.6,157.9 L 499.2,158.3 L 498.2,155.2 L 495.1,154.7 L 494.7,152.5 L 492.5,150.5 L 494.0,148.2 L 490.8,145.4 L 490.3,146.5 L 485.7,149.4 L 485.9,152.1 L 483.2,156.6 L 481.1,156.1 L 480.6,155.1 L 480.1,155.5 L 480.9,157.4 L 481.9,157.5 L 481.5,158.5 L 483.6,162.4 L 482.0,163.6 L 481.0,163.9 L 477.7,160.4 L 473.8,158.2 L 473.7,159.1 L 470.3,158.7 L 466.1,161.2 L 464.7,159.1 L 464.2,156.1 L 459.3,156.0 L 461.3,158.6 L 462.4,162.9 L 455.6,165.5 L 455.6,167.1 L 454.8,168.5 L 445.5,172.7 L 445.9,179.9 L 440.4,179.7 L 435.6,178.6 L 435.9,179.9 L 435.2,179.7 L 435.1,182.5 L 437.0,182.9 L 437.0,185.2 L 439.5,185.4 L 438.9,189.2 L 437.0,189.0 L 436.7,187.1 L 435.6,185.7 L 433.8,184.4 L 432.0,184.3 L 431.9,183.4 L 430.8,183.1 L 428.9,183.7 L 425.7,182.4 L 418.4,182.4 L 417.2,180.9 L 416.0,176.7 L 415.0,176.8 L 413.7,173.6 L 412.7,172.4 L 412.0,172.4 L 412.7,175.3 L 414.0,176.5 L 413.3,177.2 L 413.1,179.1 L 411.6,179.8 L 412.6,181.1 L 412.6,182.4 L 411.0,181.6 L 408.3,182.9 L 409.0,187.2 L 408.3,187.7 L 407.7,186.8 L 407.3,187.2 L 407.6,188.0 L 406.8,188.1 L 407.3,190.7 L 405.6,191.5 Z" fill="#c8d54f" fill-rule="nonzero" stroke="#FFFFFF" stroke-width="2" data-name="Landkreis Meien" data-value="I: n.v. | G: n.v. | M: n.v." data-immobilienpreis="n.v." data-grundstueckspreis="n.v." data-mietpreis="n.v."></path></a><a xlink:href="https://www.praxiswissen-immobilien.de/immobilienmarkt/sachsen/dresden/" target="_blank"><path d="M 560.5,397.9 L 563.3,399.0 L 562.7,401.9 L 565.4,402.5 L 565.4,402.0 L 566.6,403.1 L 570.7,402.7 L 570.2,404.0 L 568.5,405.9 L 570.0,407.7 L 570.1,409.3 L 572.5,409.0 L 574.7,407.8 L 577.1,408.6 L 578.7,409.9 L 579.0,408.6 L 579.6,408.2 L 581.0,409.4 L 581.5,408.9 L 582.9,409.4 L 585.4,411.3 L 587.9,411.0 L 588.7,410.2 L 588.5,409.3 L 589.7,408.7 L 589.9,407.7 L 594.1,407.5 L 594.3,407.1 L 595.7,407.5 L 593.0,410.3 L 593.6,411.1 L 593.9,416.5 L 594.3,416.5 L 594.6,417.8 L 594.2,419.0 L 595.4,419.0 L 596.4,420.1 L 598.4,418.4 L 599.0,419.5 L 600.4,419.9 L 601.3,422.8 L 602.9,425.5 L 602.3,427.2 L 602.7,427.9 L 605.8,427.8 L 607.8,426.1 L 610.6,426.4 L 612.8,425.1 L 613.2,424.4 L 615.9,425.0 L 617.9,423.3 L 619.9,423.1 L 620.5,423.3 L 620.4,424.0 L 622.8,424.4 L 624.2,426.9 L 626.7,427.6 L 627.8,429.6 L 628.1,429.1 L 629.0,429.6 L 630.1,428.8 L 630.6,429.3 L 632.7,429.4 L 632.7,428.9 L 633.4,428.8 L 633.2,431.4 L 634.0,431.6 L 633.4,432.5 L 635.6,437.0 L 637.4,436.8 L 639.2,438.1 L 639.0,436.9 L 639.5,436.5 L 641.7,438.2 L 643.0,436.8 L 642.7,439.4 L 643.5,440.0 L 643.7,443.5 L 645.1,443.0 L 645.7,444.0 L 646.6,444.0 L 646.6,442.9 L 647.5,442.3 L 648.7,442.5 L 648.9,441.7 L 650.0,442.1 L 649.9,443.7 L 651.3,443.6 L 652.0,444.0 L 652.0,444.7 L 652.7,444.4 L 654.1,445.0 L 655.3,444.7 L 655.2,443.4 L 656.8,442.2 L 659.2,442.8 L 659.1,442.2 L 660.2,442.0 L 662.2,439.0 L 662.5,437.2 L 664.5,435.9 L 667.4,437.9 L 669.9,433.8 L 675.2,439.6 L 677.9,439.4 L 677.7,438.6 L 678.2,438.4 L 678.6,440.4 L 680.1,440.5 L 679.4,437.5 L 680.7,437.3 L 681.3,436.7 L 680.9,436.3 L 681.2,436.0 L 681.7,436.5 L 682.5,436.3 L 684.1,435.4 L 683.8,433.8 L 684.8,433.5 L 684.1,432.5 L 687.3,431.7 L 688.6,430.6 L 688.5,429.8 L 690.3,429.2 L 690.4,428.1 L 689.3,427.9 L 689.8,426.5 L 688.7,423.2 L 689.2,421.3 L 690.5,421.2 L 690.1,420.7 L 690.8,418.9 L 692.6,419.5 L 693.5,421.2 L 694.6,420.5 L 695.0,421.2 L 696.5,420.7 L 698.3,418.2 L 698.5,418.7 L 700.0,418.6 L 701.0,419.9 L 701.5,419.2 L 701.3,417.0 L 703.4,413.8 L 705.1,413.0 L 708.1,413.0 L 708.7,412.5 L 708.5,411.7 L 709.5,410.1 L 710.7,409.9 L 710.3,403.8 L 710.5,401.9 L 711.7,399.9 L 709.8,398.5 L 709.6,397.0 L 712.0,395.3 L 710.1,391.4 L 711.8,391.0 L 710.4,389.4 L 708.9,389.3 L 709.4,389.3 L 708.4,387.8 L 709.7,389.3 L 710.3,389.3 L 707.4,386.1 L 706.9,386.4 L 706.6,384.4 L 707.2,384.9 L 707.0,383.4 L 703.2,384.5 L 702.4,383.9 L 700.4,387.4 L 701.2,387.8 L 700.9,388.3 L 701.3,388.7 L 701.8,388.0 L 703.1,389.0 L 702.7,389.6 L 699.3,389.9 L 699.4,390.7 L 696.3,390.8 L 694.8,391.4 L 695.6,390.4 L 694.0,391.0 L 693.1,389.9 L 693.9,389.2 L 690.2,386.7 L 688.2,386.7 L 685.8,385.7 L 683.4,385.8 L 680.5,385.0 L 679.6,384.2 L 679.7,383.6 L 680.9,383.3 L 682.3,381.1 L 684.5,380.0 L 684.8,378.3 L 684.2,377.8 L 682.6,377.7 L 684.6,376.1 L 684.6,374.9 L 686.6,374.5 L 686.3,375.7 L 684.9,375.8 L 687.0,377.8 L 688.6,376.6 L 687.8,375.9 L 688.0,374.6 L 688.6,373.6 L 689.8,373.4 L 690.4,370.8 L 689.5,369.4 L 690.1,369.0 L 688.8,367.9 L 687.3,368.0 L 686.0,365.6 L 684.3,364.7 L 685.7,361.9 L 683.2,360.1 L 683.3,358.9 L 681.2,358.9 L 678.4,352.5 L 675.4,350.0 L 674.1,344.8 L 676.3,343.4 L 681.4,341.9 L 681.9,340.4 L 681.1,339.6 L 681.3,338.4 L 679.7,338.1 L 680.1,336.5 L 679.6,335.8 L 678.5,335.8 L 678.4,334.6 L 677.6,334.4 L 678.1,333.2 L 676.5,332.9 L 675.8,331.5 L 673.6,332.7 L 672.5,332.5 L 670.5,330.9 L 666.6,333.9 L 664.2,334.9 L 663.8,334.6 L 662.3,336.8 L 662.2,338.2 L 660.9,337.6 L 659.2,338.8 L 658.2,336.8 L 654.3,333.5 L 652.5,332.6 L 650.9,332.7 L 650.1,330.0 L 649.2,330.0 L 648.8,327.0 L 647.7,324.4 L 646.5,323.6 L 646.4,324.3 L 642.2,326.1 L 639.0,325.9 L 639.4,325.1 L 635.3,320.5 L 631.1,320.9 L 628.9,318.9 L 625.9,318.6 L 625.3,319.0 L 625.3,320.0 L 627.6,324.9 L 627.1,326.9 L 628.2,328.6 L 628.0,330.4 L 629.6,331.5 L 631.7,331.8 L 632.2,336.3 L 631.7,337.0 L 631.1,337.0 L 631.0,337.6 L 634.1,338.7 L 630.1,343.3 L 629.7,342.9 L 629.3,343.4 L 629.7,343.7 L 629.6,345.7 L 628.9,344.7 L 628.3,344.9 L 626.7,343.6 L 624.3,346.3 L 622.1,345.5 L 621.9,344.4 L 615.9,342.2 L 614.7,344.8 L 612.8,345.8 L 613.1,347.9 L 612.4,348.9 L 612.8,349.1 L 612.3,351.1 L 611.2,352.7 L 611.9,352.9 L 610.5,356.8 L 610.9,359.7 L 608.9,360.8 L 609.8,361.8 L 608.8,360.9 L 608.4,360.2 L 608.0,358.1 L 607.2,359.0 L 606.5,358.6 L 604.6,360.2 L 604.8,361.9 L 605.5,361.9 L 606.1,364.1 L 604.3,367.1 L 603.2,367.4 L 604.6,368.5 L 605.0,368.0 L 605.7,368.5 L 608.2,372.5 L 607.8,372.9 L 607.0,372.6 L 604.3,371.0 L 604.3,372.1 L 603.8,371.9 L 603.5,372.5 L 603.9,372.8 L 603.5,374.3 L 602.5,373.2 L 601.9,373.8 L 597.5,369.9 L 596.7,369.8 L 595.4,370.2 L 594.8,370.8 L 595.2,371.0 L 593.0,371.0 L 591.6,371.6 L 591.8,371.7 L 591.7,371.8 L 592.5,372.4 L 593.2,373.2 L 593.7,373.7 L 593.6,373.7 L 586.3,369.3 L 583.1,368.4 L 577.9,365.5 L 574.4,366.1 L 570.8,369.3 L 569.4,369.1 L 568.1,368.1 L 567.1,370.2 L 565.5,370.8 L 566.7,372.5 L 568.0,372.5 L 567.7,373.8 L 568.4,374.4 L 567.9,375.8 L 568.3,376.2 L 566.7,377.7 L 566.0,379.9 L 565.5,380.3 L 564.6,379.9 L 563.9,381.5 L 564.4,383.3 L 564.9,383.6 L 564.0,387.4 L 563.2,388.1 L 561.8,387.8 L 560.6,388.8 L 561.2,389.9 L 560.9,390.8 L 562.8,394.1 Z" fill="#c8d54f" fill-rule="nonzero" stroke="#FFFFFF" stroke-width="2" data-name="Dresden" data-value="I: n.v. | G: n.v. | M: n.v." data-immobilienpreis="n.v." data-grundstueckspreis="n.v." data-mietpreis="n.v."></path></a><a xlink:href="https://www.praxiswissen-immobilien.de/immobilienmarkt/sachsen/leipzig/" target="_blank"><path d="M 34.8,229.8 L 35.3,231.4 L 37.3,231.0 L 36.1,232.1 L 37.7,233.8 L 39.2,239.0 L 39.7,238.7 L 40.7,242.7 L 40.1,243.6 L 44.4,243.1 L 44.8,248.8 L 49.1,250.6 L 52.3,254.2 L 45.2,253.8 L 45.0,251.1 L 40.0,250.9 L 40.0,252.8 L 40.9,253.2 L 41.2,254.7 L 39.5,255.3 L 39.2,255.8 L 40.8,262.7 L 39.0,263.5 L 40.2,263.8 L 40.9,267.3 L 41.3,267.1 L 42.0,270.0 L 43.5,272.7 L 43.0,272.9 L 43.3,273.3 L 41.5,274.2 L 42.4,276.8 L 40.6,277.6 L 41.4,280.2 L 40.5,280.5 L 40.7,280.8 L 43.0,280.1 L 43.2,280.8 L 44.4,280.5 L 48.2,278.6 L 52.9,277.9 L 52.7,277.0 L 57.6,278.9 L 60.6,277.7 L 62.6,277.7 L 62.6,278.3 L 64.8,278.0 L 65.7,277.0 L 65.8,275.8 L 65.1,274.2 L 64.0,273.7 L 65.5,273.1 L 64.7,272.4 L 65.4,271.8 L 65.1,271.0 L 65.7,270.7 L 65.4,270.0 L 66.7,268.9 L 68.6,269.0 L 68.3,264.1 L 68.7,261.2 L 69.6,261.4 L 70.3,260.2 L 72.1,260.3 L 72.2,261.9 L 73.8,261.8 L 73.7,262.7 L 75.6,262.5 L 75.9,261.5 L 76.7,262.0 L 77.3,261.7 L 76.7,260.7 L 75.5,260.4 L 77.0,259.4 L 77.4,260.0 L 77.7,259.5 L 77.0,259.0 L 77.4,258.2 L 78.5,258.6 L 77.9,257.3 L 78.6,256.6 L 78.6,255.3 L 79.6,254.0 L 80.2,254.0 L 80.6,252.7 L 79.9,252.5 L 80.0,250.8 L 79.1,248.5 L 80.3,248.6 L 80.5,248.0 L 79.6,248.1 L 79.7,245.1 L 78.9,244.7 L 79.6,244.4 L 80.2,244.8 L 81.2,244.5 L 81.7,245.9 L 83.8,246.9 L 84.8,247.9 L 84.3,249.4 L 85.8,250.5 L 87.7,246.1 L 88.5,246.1 L 89.1,247.7 L 89.5,247.5 L 89.8,249.6 L 91.4,252.6 L 93.0,253.5 L 92.8,254.2 L 94.8,254.2 L 95.4,253.6 L 95.4,255.0 L 96.1,254.9 L 96.4,253.2 L 99.2,252.9 L 100.7,253.7 L 102.5,253.2 L 102.6,254.4 L 103.6,254.4 L 103.9,255.3 L 104.6,254.6 L 104.4,252.3 L 105.3,252.5 L 105.3,251.7 L 110.4,250.9 L 112.5,252.0 L 117.2,252.9 L 118.1,258.3 L 117.6,262.0 L 125.4,266.0 L 127.1,266.1 L 129.3,265.2 L 128.9,267.9 L 129.2,268.5 L 133.2,268.7 L 135.4,267.0 L 134.4,265.4 L 132.2,266.1 L 131.7,264.4 L 134.7,256.4 L 135.4,256.3 L 135.7,253.7 L 138.1,252.5 L 136.6,248.9 L 138.1,248.9 L 140.0,242.3 L 140.0,240.1 L 153.1,238.4 L 153.5,237.3 L 150.2,231.3 L 151.3,231.7 L 154.6,227.0 L 148.4,222.6 L 152.6,220.2 L 153.1,218.9 L 152.4,218.8 L 152.6,218.3 L 152.0,217.5 L 153.0,216.6 L 152.2,215.9 L 150.6,216.5 L 148.2,214.2 L 148.6,212.1 L 148.0,211.5 L 141.5,212.5 L 137.5,204.2 L 131.5,203.9 L 126.5,199.6 L 125.0,198.9 L 126.8,197.7 L 126.5,196.6 L 128.8,190.5 L 124.9,190.1 L 124.2,185.2 L 123.6,184.9 L 124.4,184.3 L 124.6,184.0 L 124.0,184.0 L 124.4,183.5 L 124.6,183.9 L 126.1,183.1 L 125.4,179.0 L 126.6,178.1 L 126.6,177.4 L 124.7,177.3 L 122.9,174.7 L 121.0,173.3 L 121.0,170.4 L 121.7,167.7 L 122.7,167.8 L 122.9,166.6 L 128.3,167.0 L 128.2,168.6 L 133.5,168.4 L 133.7,166.7 L 135.1,166.2 L 134.9,165.4 L 135.6,165.4 L 134.9,163.4 L 134.8,161.9 L 135.3,161.8 L 135.1,159.7 L 127.1,159.2 L 126.8,155.9 L 126.0,155.8 L 126.5,152.6 L 118.6,151.8 L 116.4,149.8 L 114.9,149.3 L 114.6,152.4 L 115.3,160.3 L 112.1,160.9 L 108.1,162.7 L 106.9,161.9 L 105.6,162.0 L 105.1,161.3 L 101.1,161.4 L 98.9,165.9 L 98.3,168.9 L 97.4,169.6 L 96.0,167.9 L 89.7,165.4 L 88.4,163.9 L 88.4,164.6 L 84.7,165.7 L 83.2,167.6 L 83.1,169.8 L 83.1,168.4 L 72.7,168.1 L 72.5,167.2 L 65.0,168.0 L 64.3,168.3 L 64.5,170.0 L 54.4,169.4 L 48.3,168.3 L 49.4,168.8 L 49.5,169.6 L 48.5,169.4 L 48.8,171.0 L 45.3,172.2 L 45.7,178.1 L 44.3,178.0 L 44.7,178.7 L 40.9,177.2 L 42.3,179.6 L 45.2,179.3 L 45.9,180.5 L 47.0,181.1 L 45.8,183.7 L 43.6,185.6 L 42.6,187.2 L 42.8,188.9 L 42.2,189.6 L 42.8,189.5 L 43.7,190.9 L 43.4,191.6 L 41.0,192.2 L 38.2,195.2 L 35.2,196.6 L 35.3,197.0 L 37.4,197.6 L 36.5,204.5 L 37.1,209.1 L 36.9,211.4 L 39.2,213.8 L 40.0,216.1 L 40.0,218.2 L 43.7,219.9 L 43.8,220.4 L 43.1,221.8 L 38.9,222.9 L 39.1,223.5 L 38.1,223.7 L 38.0,222.2 L 37.6,222.4 L 37.7,225.0 L 34.9,225.6 L 35.9,229.4 Z" fill="#c8d54f" fill-rule="nonzero" stroke="#FFFFFF" stroke-width="2" data-name="Leipzig" data-value="I: n.v. | G: n.v. | M: n.v." data-immobilienpreis="n.v." data-grundstueckspreis="n.v." data-mietpreis="n.v."></path></a></svg>