<svg width="1000" height="802" viewBox="0 0 1000 802" xmlns="http://www.w3.org/2000/svg" xmlns:xlink="http://www.w3.org/1999/xlink" style="width:100%;height:auto;"><style>path{transition:.2s;transform-box:fill-box;transform-origin:center}a path{fill:#c8d54f;stroke:#FFFFFF;stroke-width:2}a path:hover{fill:#b0bd45;stroke:#fff;stroke-width:2;opacity:.95;transform:scale(1.01)}</style><a xlink:href="/immobilienmarkt/sachsen/landkreis-bautzen/" target="_blank"><path d="M 631.4,295.0 L 645.4,306.4 L 633.4,317.6 L 639.0,325.9 L 646.5,323.6 L 659.2,338.8 L 670.5,330.9 L 681.4,338.5 L 674.9,348.5 L 690.4,370.8 L 680.5,385.0 L 694.8,391.4 L 707.0,383.4 L 712.6,391.5 L 719.7,385.9 L 739.7,387.8 L 745.6,376.2 L 750.3,383.8 L 765.4,384.1 L 777.1,373.4 L 790.0,388.1 L 798.3,374.7 L 805.2,375.7 L 821.9,383.5 L 824.5,391.9 L 834.3,383.4 L 850.7,387.3 L 846.1,391.0 L 856.4,404.7 L 867.0,401.2 L 885.2,417.7 L 903.0,407.0 L 918.2,414.8 L 917.2,391.3 L 911.4,383.3 L 943.8,379.7 L 947.5,366.8 L 954.0,363.9 L 950.6,354.5 L 967.1,356.3 L 963.0,349.8 L 976.2,346.9 L 973.3,342.8 L 982.0,331.5 L 992.7,336.7 L 990.6,328.6 L 1000.0,316.5 L 987.4,309.4 L 993.5,297.7 L 979.1,293.6 L 979.4,285.6 L 973.9,291.7 L 968.2,286.7 L 974.3,274.6 L 965.4,267.2 L 969.3,255.2 L 960.2,249.4 L 962.6,237.5 L 955.0,234.3 L 958.1,229.9 L 951.4,226.7 L 946.7,231.2 L 934.0,216.9 L 938.6,206.3 L 930.7,212.4 L 924.6,229.4 L 922.4,224.9 L 910.4,227.4 L 904.9,211.7 L 921.3,174.4 L 916.3,173.0 L 926.2,170.4 L 930.5,158.1 L 923.4,149.1 L 914.5,147.7 L 919.1,141.0 L 909.5,131.3 L 915.2,119.3 L 910.8,111.0 L 897.5,109.4 L 902.3,97.7 L 898.1,88.6 L 885.6,93.3 L 876.6,90.4 L 876.3,95.3 L 858.5,103.5 L 855.4,113.6 L 851.8,104.6 L 832.4,96.3 L 822.0,99.1 L 808.8,91.7 L 778.9,89.6 L 776.1,95.6 L 781.0,102.4 L 767.9,102.7 L 763.0,117.9 L 754.1,121.5 L 759.6,130.8 L 738.6,131.7 L 749.8,151.0 L 739.7,157.5 L 742.8,167.7 L 731.5,176.1 L 736.3,181.8 L 726.7,182.2 L 725.2,196.6 L 713.7,194.7 L 714.4,183.6 L 710.0,181.2 L 685.9,194.3 L 678.3,195.6 L 671.7,190.9 L 660.5,189.9 L 660.0,190.3 L 668.9,217.6 L 657.3,216.1 L 645.9,241.0 L 653.7,253.5 L 648.4,259.6 L 657.4,263.5 L 650.4,268.0 L 652.6,274.9 L 645.4,274.3 L 651.8,286.0 L 645.1,289.7 L 640.5,286.0 L 639.3,293.5 Z" fill="#c8d54f" fill-rule="nonzero" stroke="#FFFFFF" stroke-width="2" data-name="Landkreis Bautzen" data-value="I: 1797 | G: 97 | M: 6.3" data-immobilienpreis="1797" data-grundstueckspreis="97" data-mietpreis="6.3"></path></a><a xlink:href="/immobilienmarkt/sachsen/landkreis-nordsachsen/" target="_blank"><path d="M 0.3,142.3 L 3.7,157.7 L 18.1,166.1 L 10.2,173.1 L 13.7,186.3 L 9.7,189.5 L 11.0,194.9 L 16.0,192.6 L 17.6,196.9 L 13.4,199.2 L 17.8,198.1 L 17.9,221.8 L 38.4,212.7 L 35.2,196.6 L 43.4,191.6 L 47.0,181.1 L 40.9,177.2 L 45.7,178.1 L 48.3,168.3 L 83.1,169.8 L 88.4,163.9 L 97.3,169.7 L 101.1,161.4 L 115.3,160.3 L 114.9,149.3 L 126.5,152.6 L 135.6,165.4 L 121.7,167.7 L 124.9,190.1 L 128.8,190.5 L 125.0,198.9 L 137.5,204.2 L 151.4,196.1 L 167.6,192.0 L 169.5,196.2 L 173.0,190.1 L 181.9,190.2 L 186.6,174.1 L 196.0,176.7 L 200.5,163.1 L 195.0,156.4 L 202.0,148.8 L 221.9,150.8 L 224.1,145.2 L 237.8,145.6 L 253.8,136.4 L 262.7,146.8 L 286.4,150.5 L 311.1,171.5 L 306.7,175.8 L 309.5,182.8 L 296.1,179.9 L 295.4,188.2 L 310.0,204.0 L 305.7,209.9 L 298.1,207.9 L 293.6,215.4 L 297.0,228.0 L 285.3,231.4 L 282.3,238.4 L 299.4,256.3 L 295.1,258.5 L 306.3,262.8 L 306.5,275.0 L 298.8,281.4 L 303.8,285.4 L 296.7,286.2 L 299.7,291.7 L 330.4,290.9 L 345.8,304.9 L 351.7,303.3 L 353.5,294.5 L 376.5,296.8 L 374.4,290.0 L 386.7,292.6 L 414.9,280.4 L 409.7,266.8 L 418.8,261.6 L 414.4,256.3 L 417.8,246.0 L 413.2,224.7 L 417.3,215.0 L 408.4,205.5 L 414.6,198.8 L 404.9,194.1 L 412.6,182.4 L 412.0,172.4 L 416.0,176.7 L 412.2,158.9 L 409.0,156.8 L 406.0,164.6 L 401.8,161.5 L 413.4,146.8 L 405.2,134.6 L 405.1,121.7 L 412.6,121.8 L 415.2,101.4 L 406.4,80.1 L 389.4,73.5 L 397.0,58.7 L 394.3,53.5 L 390.1,55.0 L 380.9,40.9 L 367.5,48.6 L 353.6,23.7 L 343.0,30.1 L 340.7,16.3 L 332.2,10.1 L 320.8,12.5 L 322.9,21.4 L 313.9,22.6 L 311.1,29.6 L 305.6,22.5 L 293.9,23.8 L 290.2,11.3 L 281.3,19.0 L 272.7,0.0 L 252.4,12.4 L 244.7,23.8 L 210.7,15.1 L 202.9,33.9 L 180.5,46.7 L 186.6,36.1 L 175.4,42.2 L 169.4,37.3 L 154.4,52.6 L 140.6,48.4 L 131.2,58.3 L 132.1,50.9 L 116.1,47.2 L 108.7,65.0 L 74.1,61.9 L 76.5,65.4 L 56.8,78.6 L 40.2,79.7 L 37.3,74.7 L 32.8,86.9 L 18.0,96.9 L 21.7,126.0 L 11.0,127.9 L 11.0,135.6 Z" fill="#c8d54f" fill-rule="nonzero" stroke="#FFFFFF" stroke-width="2" data-name="Landkreis Nordsachsen" data-value="I: 1932 | G: 134 | M: 7.7" data-immobilienpreis="1932" data-grundstueckspreis="134" data-mietpreis="7.7"></path></a><a xlink:href="/immobilienmarkt/sachsen/landkreis-erzgebirgskreis/" target="_blank"><path d="M 120.6,736.9 L 130.7,747.7 L 135.6,743.6 L 135.3,757.7 L 170.8,785.6 L 170.6,796.0 L 205.8,789.9 L 219.0,802.0 L 229.7,780.4 L 253.4,769.9 L 259.5,781.2 L 262.8,763.2 L 313.1,797.7 L 311.1,793.0 L 327.9,787.7 L 341.5,771.6 L 346.1,732.8 L 367.1,738.6 L 385.6,727.3 L 387.2,734.8 L 410.2,736.8 L 430.9,682.0 L 442.8,681.5 L 447.7,692.6 L 460.2,688.8 L 460.9,671.9 L 481.4,660.3 L 479.0,645.8 L 487.1,648.4 L 496.2,666.9 L 514.7,676.1 L 530.3,656.5 L 522.6,649.2 L 527.2,644.0 L 521.0,646.2 L 504.6,638.7 L 503.5,630.3 L 496.0,627.6 L 496.1,622.2 L 491.7,623.9 L 478.9,606.0 L 481.7,594.0 L 476.3,582.6 L 443.3,591.2 L 439.0,585.3 L 442.5,576.3 L 432.6,568.9 L 400.3,563.3 L 386.9,572.3 L 377.6,558.3 L 366.4,565.3 L 352.6,549.4 L 341.8,572.0 L 330.4,566.1 L 325.4,579.9 L 319.5,584.3 L 311.9,580.3 L 304.0,589.8 L 287.2,577.2 L 292.3,564.2 L 282.5,565.7 L 285.1,560.6 L 271.3,552.3 L 262.0,560.8 L 247.1,559.7 L 238.1,571.4 L 232.0,565.9 L 221.8,571.2 L 226.6,584.0 L 221.4,591.7 L 212.9,591.4 L 210.7,582.0 L 196.3,581.9 L 203.6,600.1 L 196.1,597.8 L 192.5,606.9 L 219.6,615.7 L 219.3,622.6 L 223.5,622.5 L 213.9,642.3 L 220.6,651.0 L 211.3,659.7 L 195.5,652.2 L 188.4,666.1 L 177.6,666.2 L 172.8,671.4 L 176.2,678.8 L 167.5,689.2 L 182.3,693.7 L 183.0,699.4 L 170.6,706.9 L 156.5,700.8 Z" fill="#c8d54f" fill-rule="nonzero" stroke="#FFFFFF" stroke-width="2" data-name="Landkreis Erzgebirgskreis" data-value="I: 1598 | G: 74 | M: 5.9" data-immobilienpreis="1598" data-grundstueckspreis="74" data-mietpreis="5.9"></path></a><a xlink:href="/immobilienmarkt/sachsen/landkreis-leipzig/" target="_blank"><path d="M 0.0,229.7 L 3.7,247.0 L 9.5,251.1 L 7.1,263.4 L 16.2,268.6 L 22.3,295.9 L 10.6,316.4 L 25.6,315.0 L 18.7,341.3 L 36.6,348.0 L 28.5,352.9 L 28.8,361.0 L 56.0,373.1 L 73.1,365.0 L 81.7,370.7 L 83.4,379.6 L 96.4,377.2 L 102.9,384.0 L 122.0,376.7 L 123.4,387.7 L 139.7,391.8 L 140.8,418.5 L 143.6,412.6 L 153.2,414.4 L 148.9,430.4 L 163.1,432.5 L 169.5,440.5 L 179.3,431.3 L 183.8,441.3 L 190.2,442.5 L 210.9,438.7 L 218.6,425.0 L 232.7,428.8 L 228.5,417.3 L 220.0,414.0 L 228.3,405.8 L 229.2,397.4 L 222.5,390.6 L 234.5,370.5 L 233.7,362.2 L 250.9,366.7 L 256.3,363.4 L 260.5,372.4 L 275.2,368.4 L 284.5,372.6 L 292.5,367.8 L 291.4,343.8 L 274.7,333.1 L 286.9,317.3 L 291.6,299.4 L 305.7,295.1 L 296.7,286.2 L 303.8,285.4 L 298.8,281.4 L 306.5,275.0 L 306.9,266.4 L 295.1,258.5 L 299.4,256.3 L 282.3,238.4 L 285.3,231.4 L 297.0,228.0 L 293.6,215.4 L 298.1,207.9 L 305.7,209.9 L 310.0,204.0 L 305.5,196.0 L 298.1,194.9 L 296.1,179.9 L 309.5,182.8 L 306.7,175.8 L 311.4,173.6 L 286.4,150.5 L 262.7,146.8 L 250.9,136.3 L 237.8,145.6 L 224.1,145.2 L 221.9,150.8 L 209.3,146.6 L 197.8,151.4 L 196.0,176.7 L 186.6,174.1 L 181.9,190.2 L 173.0,190.1 L 169.5,196.2 L 167.6,192.0 L 151.4,196.1 L 137.5,204.2 L 141.5,212.5 L 153.0,216.6 L 148.4,222.6 L 154.6,227.0 L 150.2,231.3 L 153.1,238.4 L 140.0,240.1 L 133.2,268.7 L 117.6,262.0 L 117.2,252.9 L 95.4,255.0 L 79.6,244.4 L 77.3,261.7 L 68.7,261.2 L 64.8,278.0 L 40.7,280.8 L 40.0,250.9 L 52.3,254.2 L 35.3,231.4 L 34.9,225.6 L 43.8,220.4 L 38.4,212.7 Z" fill="#c8d54f" fill-rule="nonzero" stroke="#FFFFFF" stroke-width="2" data-name="Landkreis Leipzig" data-value="I: 2213 | G: 204 | M: 7.8" data-immobilienpreis="2213" data-grundstueckspreis="204" data-mietpreis="7.8"></path></a><a xlink:href="/immobilienmarkt/sachsen/landkreis-saechsische-schweiz-osterzgebirge/" target="_blank"><path d="M 498.7,405.9 L 509.7,415.5 L 501.3,429.4 L 502.5,437.2 L 519.9,440.9 L 514.8,449.2 L 508.0,449.1 L 501.4,464.5 L 511.9,466.0 L 507.4,471.3 L 513.1,476.9 L 513.9,490.4 L 524.7,496.1 L 535.4,518.9 L 528.8,523.3 L 531.5,528.5 L 537.5,536.9 L 545.7,534.3 L 558.9,546.5 L 551.8,549.2 L 549.8,564.7 L 557.6,570.7 L 566.4,568.0 L 575.9,585.9 L 610.4,605.1 L 618.8,594.6 L 623.7,598.5 L 630.6,593.2 L 668.8,598.6 L 671.2,588.9 L 678.4,592.1 L 685.6,587.5 L 681.1,572.1 L 686.4,557.6 L 701.4,559.8 L 707.4,548.8 L 721.6,541.1 L 737.0,550.9 L 753.6,546.8 L 760.3,537.4 L 812.8,516.9 L 816.6,499.2 L 831.7,494.5 L 844.6,501.5 L 862.0,496.1 L 861.9,491.1 L 876.9,492.1 L 876.3,481.2 L 882.7,476.7 L 877.0,465.6 L 871.6,467.9 L 847.2,458.0 L 849.4,453.9 L 843.7,451.0 L 853.8,446.1 L 851.9,438.5 L 837.1,443.7 L 826.5,437.1 L 827.3,423.9 L 834.9,420.6 L 837.4,412.3 L 832.5,404.6 L 849.8,395.3 L 846.1,391.0 L 850.7,387.3 L 834.3,383.4 L 824.5,391.9 L 821.9,383.5 L 805.2,375.7 L 798.3,374.7 L 790.0,388.1 L 777.1,373.4 L 765.4,384.1 L 750.3,383.8 L 745.6,376.2 L 739.7,387.8 L 719.7,385.9 L 710.1,391.4 L 710.7,409.9 L 701.0,419.9 L 690.8,418.9 L 690.3,429.2 L 680.1,440.5 L 669.9,433.8 L 654.1,445.0 L 643.7,443.5 L 643.0,436.8 L 635.6,437.0 L 633.4,428.8 L 619.9,423.1 L 602.7,427.9 L 600.4,419.9 L 594.2,419.0 L 595.6,407.5 L 570.1,409.3 L 570.7,402.7 L 562.7,401.9 L 558.9,388.5 L 554.2,392.8 L 523.9,387.9 L 502.9,395.1 Z" fill="#c8d54f" fill-rule="nonzero" stroke="#FFFFFF" stroke-width="2" data-name="Landkreis Sächsische Schweiz Osterzgebirge" data-value="I: 2020 | G: 156 | M: 6.6" data-immobilienpreis="2020" data-grundstueckspreis="156" data-mietpreis="6.6"></path></a><a xlink:href="/immobilienmarkt/sachsen/landkreis-meissen/" target="_blank"><path d="M 404.9,194.1 L 414.6,198.8 L 408.4,205.5 L 417.3,215.0 L 413.2,224.7 L 417.8,246.0 L 414.4,256.3 L 418.8,261.6 L 409.7,266.8 L 415.1,293.9 L 409.1,297.5 L 415.3,303.2 L 416.3,319.8 L 433.0,328.2 L 434.6,335.6 L 431.8,355.8 L 423.2,358.5 L 422.6,365.6 L 432.2,360.4 L 435.7,386.7 L 428.3,389.9 L 438.1,398.7 L 427.5,411.3 L 425.8,424.3 L 441.0,409.6 L 476.0,397.0 L 484.9,396.6 L 498.9,408.4 L 502.9,395.1 L 523.9,387.9 L 554.2,392.8 L 564.0,387.4 L 565.6,370.6 L 575.6,365.6 L 593.6,373.7 L 596.8,369.8 L 607.8,372.9 L 603.2,367.4 L 604.6,360.2 L 610.9,359.7 L 612.8,345.8 L 615.9,342.2 L 629.8,345.4 L 634.1,338.7 L 625.3,319.0 L 633.3,320.4 L 645.4,306.4 L 631.4,295.0 L 639.3,293.5 L 640.5,286.0 L 645.1,289.7 L 651.8,286.0 L 647.0,281.6 L 645.4,274.3 L 652.6,274.9 L 650.4,268.0 L 657.3,264.2 L 648.4,259.6 L 653.7,253.5 L 645.9,241.0 L 657.3,216.1 L 668.7,218.9 L 660.6,194.2 L 632.6,205.2 L 634.3,197.2 L 623.1,203.8 L 595.8,194.7 L 592.9,198.9 L 568.3,199.1 L 564.7,189.3 L 557.0,188.4 L 546.1,198.7 L 544.4,191.5 L 538.6,191.4 L 537.6,177.2 L 515.1,171.9 L 516.0,165.9 L 520.1,167.9 L 508.2,160.1 L 498.9,165.9 L 501.6,159.6 L 490.8,145.4 L 480.1,155.5 L 482.0,163.6 L 459.3,156.0 L 462.4,162.9 L 445.5,172.7 L 445.9,179.9 L 435.6,178.6 L 438.9,189.2 L 418.4,182.4 L 412.0,172.4 L 412.6,182.4 Z" fill="#c8d54f" fill-rule="nonzero" stroke="#FFFFFF" stroke-width="2" data-name="Landkreis Meißen" data-value="I: 2011 | G: 168 | M: 7.3" data-immobilienpreis="2011" data-grundstueckspreis="168" data-mietpreis="7.3"></path></a><a xlink:href="/immobilienmarkt/sachsen/dresden/" target="_blank"><path d="M 560.5,397.9 L 570.7,402.7 L 570.1,409.3 L 595.7,407.5 L 594.2,419.0 L 600.4,419.9 L 602.7,427.9 L 619.9,423.1 L 633.4,428.8 L 635.6,437.0 L 643.0,436.8 L 643.7,443.5 L 654.1,445.0 L 669.9,433.8 L 675.2,439.6 L 680.1,440.5 L 690.3,429.2 L 690.8,418.9 L 701.0,419.9 L 710.7,409.9 L 711.8,391.0 L 707.0,383.4 L 694.8,391.4 L 679.6,384.2 L 690.4,370.8 L 675.4,350.0 L 674.1,344.8 L 681.9,340.4 L 678.1,333.2 L 670.5,330.9 L 659.2,338.8 L 646.5,323.6 L 639.0,325.9 L 625.9,318.6 L 634.1,338.7 L 629.6,345.7 L 615.9,342.2 L 612.8,345.8 L 610.9,359.7 L 604.6,360.2 L 603.2,367.4 L 608.2,372.5 L 596.7,369.8 L 593.6,373.7 L 577.9,365.5 L 568.1,368.1 Z" fill="#c8d54f" fill-rule="nonzero" stroke="#FFFFFF" stroke-width="2" data-name="Dresden" data-value="I: 3307 | G: 456 | M: 11.9" data-immobilienpreis="3307" data-grundstueckspreis="456" data-mietpreis="11.9"></path></a><a xlink:href="/immobilienmarkt/sachsen/leipzig/" target="_blank"><path d="M 34.8,229.8 L 40.1,243.6 L 52.3,254.2 L 40.0,250.9 L 40.7,280.8 L 64.8,278.0 L 68.7,261.2 L 77.3,261.7 L 79.6,244.4 L 95.4,255.0 L 117.2,252.9 L 117.6,262.0 L 133.2,268.7 L 140.0,240.1 L 153.1,238.4 L 150.2,231.3 L 154.6,227.0 L 148.4,222.6 L 153.1,218.9 L 148.6,212.1 L 141.5,212.5 L 137.5,204.2 L 125.0,198.9 L 128.8,190.5 L 121.0,170.4 L 133.5,168.4 L 135.1,159.7 L 114.9,149.3 L 115.3,160.3 L 101.1,161.4 L 97.4,169.6 L 88.4,163.9 L 83.1,169.8 L 48.3,168.3 L 45.7,178.1 L 40.9,177.2 L 47.0,181.1 L 43.4,191.6 L 35.2,196.6 L 43.8,220.4 Z" fill="#c8d54f" fill-rule="nonzero" stroke="#FFFFFF" stroke-width="2" data-name="Leipzig" data-value="I: 3189 | G: 528 | M: 11.1" data-immobilienpreis="3189" data-grundstueckspreis="528" data-mietpreis="11.1"></path></a></svg>