<?xml version="1.0" encoding="UTF-8"?><svg id="uuid-3aeeca83-e7b8-4435-a15d-6af7359d57ec" xmlns="http://www.w3.org/2000/svg" viewBox="0 0 245.06 202.76"><defs><style>.uuid-09fa553b-0f5a-4ae3-afbc-bce7a54cd5f3{fill:#fff;}.uuid-09fa553b-0f5a-4ae3-afbc-bce7a54cd5f3,.uuid-bc2af77b-3226-4d64-b88b-7005ca735c9d,.uuid-cad39c53-5b61-4b85-8051-f2a4d02c4f34,.uuid-7142a1ee-4fec-470c-98cf-b06a5cded438{stroke:#1d1d1b;stroke-miterlimit:10;}.uuid-09fa553b-0f5a-4ae3-afbc-bce7a54cd5f3,.uuid-bc2af77b-3226-4d64-b88b-7005ca735c9d,.uuid-7142a1ee-4fec-470c-98cf-b06a5cded438{stroke-width:4px;}.uuid-bc2af77b-3226-4d64-b88b-7005ca735c9d,.uuid-cad39c53-5b61-4b85-8051-f2a4d02c4f34,.uuid-484e4268-3595-4c5b-85e3-54920437fc4b{fill:#1d1d1b;}.uuid-7142a1ee-4fec-470c-98cf-b06a5cded438{fill:none;}.uuid-484e4268-3595-4c5b-85e3-54920437fc4b{stroke-width:0px;}</style></defs><polygon class="uuid-7142a1ee-4fec-470c-98cf-b06a5cded438" points="241.48 200.76 3.75 200.76 51.94 128.8 197.1 128.8 241.48 200.76"/><polygon class="uuid-cad39c53-5b61-4b85-8051-f2a4d02c4f34" points="63.32 74.97 117.3 74.97 90.31 12.79 63.32 74.97"/><polygon class="uuid-cad39c53-5b61-4b85-8051-f2a4d02c4f34" points="57.93 112.28 122.7 112.28 90.31 37.66 57.93 112.28"/><polygon class="uuid-cad39c53-5b61-4b85-8051-f2a4d02c4f34" points="52.53 149.59 128.1 149.59 90.31 62.53 52.53 149.59"/><line class="uuid-7142a1ee-4fec-470c-98cf-b06a5cded438" x1="90.31" y1="122.62" x2="90.31" y2="176.56"/><line class="uuid-7142a1ee-4fec-470c-98cf-b06a5cded438" x1="166.73" y1="144.19" x2="166.73" y2="185.42"/><polygon class="uuid-bc2af77b-3226-4d64-b88b-7005ca735c9d" points="166.25 106.44 187.25 121.31 187.72 152.09 167.2 168.01 146.2 153.14 145.73 122.36 166.25 106.44"/><circle class="uuid-09fa553b-0f5a-4ae3-afbc-bce7a54cd5f3" cx="189.13" cy="51.05" r="49.05"/><path class="uuid-484e4268-3595-4c5b-85e3-54920437fc4b" d="m197.97,51.85l-1.67,7.04h-11.73c1.52,4.83,4.83,7.24,9.91,7.24,5.57,0,10.79-1.81,15.64-5.42v14.44c-4.03,2.76-8.89,4.14-14.59,4.14-9.21,0-16.03-2.1-20.44-6.31-4.41-4.21-7.11-8.9-8.09-14.09h-7.02l1.87-7.04h4.26c-.05-.39-.08-1.07-.08-2.05,0-1.03.03-1.78.08-2.25h-5.16l1.83-7.05h4.22c3.35-13.26,12.57-19.9,27.64-19.9,4.93,0,9.92,1.32,14.98,3.95l-3.48,14.05c-3.51-3.23-7.18-4.84-10.99-4.84-5.01,0-8.39,2.25-10.14,6.74h13.95l-1.67,7.05h-13.63c-.05.52-.08,1.26-.08,2.25v2.05h14.41Z"/></svg>