<?xml version="1.0" encoding="UTF-8"?><svg id="uuid-164aa508-ffad-4368-9007-4f86e170b5d5" xmlns="http://www.w3.org/2000/svg" viewBox="0 0 195.88 213.81"><defs><style>.uuid-19a8789d-8ae7-444b-8ba6-54070f4b4167{fill:#1d1d1b;}.uuid-19a8789d-8ae7-444b-8ba6-54070f4b4167,.uuid-4035ead0-b5e5-415c-a509-292c97b6e8fd,.uuid-b961e5e4-f82f-4b01-8aca-b7e5c43dd2d9{stroke:#1d1d1b;stroke-miterlimit:10;}.uuid-4035ead0-b5e5-415c-a509-292c97b6e8fd{stroke-width:2px;}.uuid-4035ead0-b5e5-415c-a509-292c97b6e8fd,.uuid-b961e5e4-f82f-4b01-8aca-b7e5c43dd2d9{fill:none;}.uuid-b961e5e4-f82f-4b01-8aca-b7e5c43dd2d9{stroke-width:4px;}</style></defs><path class="uuid-19a8789d-8ae7-444b-8ba6-54070f4b4167" d="m132.06,82.33c0,17.22-32.7,87.09-32.04,87.09s-32.04-69.88-32.04-87.09,17.49-33.36,32.04-33.36,32.04,16.15,32.04,33.36Z"/><polygon class="uuid-b961e5e4-f82f-4b01-8aca-b7e5c43dd2d9" points="107.75 28.34 107.75 15.17 86.83 9.53 74.72 2 58.21 2 58.21 15.17 58.21 28.34 40.59 34.93 18.57 47.09 25.18 74.45 8.66 90.44 2.06 119.23 9.77 148.77 19.67 168.53 42.79 172.29 36.19 191.36 43.9 211.81 60.41 211.81 91.69 208.05 133.07 207.11 150.69 207.11 150.69 185.47 150.69 177 138.58 145.95 144.08 132.78 170.5 123.37 183.72 113.02 193.62 97.63 179.31 64.1 179.31 47.09 171.61 33.05 160.6 19.07 153.99 9.53 142.98 13.29 107.75 28.34"/><ellipse class="uuid-4035ead0-b5e5-415c-a509-292c97b6e8fd" cx="100.02" cy="169.42" rx="28.38" ry="5.8"/></svg>