<?xml version="1.0" encoding="UTF-8"?><svg id="uuid-f3e73a10-fd16-47f2-b30f-a48fa2a0e1e0" xmlns="http://www.w3.org/2000/svg" viewBox="0 0 238.89 243.94"><defs><style>.uuid-0b7accb2-90cd-4959-aacf-a11519538bb5{stroke-width:12px;}.uuid-0b7accb2-90cd-4959-aacf-a11519538bb5,.uuid-5dd46b76-05af-4932-acbe-e89a2f048b69,.uuid-c9c867bb-ebc7-4830-9ba9-df21f50757ba,.uuid-8c8add9d-480d-48b9-abcf-27f0a24402ca,.uuid-98ff6309-6399-4033-b229-8c2b9d70efc5,.uuid-e7ff9e98-ca4c-4290-9ff3-7054ca607a0c{stroke:#1d1d1b;stroke-miterlimit:10;}.uuid-0b7accb2-90cd-4959-aacf-a11519538bb5,.uuid-5dd46b76-05af-4932-acbe-e89a2f048b69,.uuid-c9c867bb-ebc7-4830-9ba9-df21f50757ba,.uuid-98ff6309-6399-4033-b229-8c2b9d70efc5,.uuid-e7ff9e98-ca4c-4290-9ff3-7054ca607a0c{fill:none;}.uuid-5dd46b76-05af-4932-acbe-e89a2f048b69{stroke-width:6px;}.uuid-c9c867bb-ebc7-4830-9ba9-df21f50757ba{stroke-width:20px;}.uuid-8c8add9d-480d-48b9-abcf-27f0a24402ca{fill:#1d1d1b;}.uuid-98ff6309-6399-4033-b229-8c2b9d70efc5{stroke-width:2px;}.uuid-e7ff9e98-ca4c-4290-9ff3-7054ca607a0c{stroke-width:4px;}</style></defs><path class="uuid-e7ff9e98-ca4c-4290-9ff3-7054ca607a0c" d="M224.93,167.25l-54.87,37.77c-10.64,12.69-12.33,28.14-28.21,23.47l-60.59-17.79c-17.32-5.09-31.86-20.66-37.88-40.56l-33.01,1.9c-24.8,11.29,12.3-102.9,23.9-116.73L74.84,6.92c10.64-12.69,28.33,2.61,44.21,7.28l58.88-2.34c17.32,5.09,48.42,6.49,54.44,26.39l1.61,74.24c6.02,19.9,2.54,40.93-9.06,54.76Z"/><circle class="uuid-0b7accb2-90cd-4959-aacf-a11519538bb5" cx="138.11" cy="111.93" r="76.25"/><line class="uuid-0b7accb2-90cd-4959-aacf-a11519538bb5" x1="83.19" y1="168.85" x2="21.44" y2="230.6"/><polygon class="uuid-8c8add9d-480d-48b9-abcf-27f0a24402ca" points="180.35 68.13 172.32 88.8 166.87 82.62 162.19 77.32 180.35 68.13"/><polyline class="uuid-5dd46b76-05af-4932-acbe-e89a2f048b69" points="78.86 117.58 118.26 104.25 142.57 109.25 171.27 77.76"/><rect class="uuid-98ff6309-6399-4033-b229-8c2b9d70efc5" x="99.01" y="121.51" width="11.43" height="29.32"/><rect class="uuid-98ff6309-6399-4033-b229-8c2b9d70efc5" x="151.48" y="110.65" width="11.43" height="40.19"/><rect class="uuid-98ff6309-6399-4033-b229-8c2b9d70efc5" x="133.96" y="121.51" width="11.43" height="29.32"/><rect class="uuid-98ff6309-6399-4033-b229-8c2b9d70efc5" x="116.35" y="113.9" width="11.43" height="36.93"/><line class="uuid-c9c867bb-ebc7-4830-9ba9-df21f50757ba" x1="39.05" y1="212" x2="14.18" y2="236.86"/><rect class="uuid-98ff6309-6399-4033-b229-8c2b9d70efc5" x="169.14" y="97.67" width="11.43" height="53.45"/></svg>