<?xml version="1.0" encoding="UTF-8"?><svg id="uuid-611a5b0b-aadb-4b11-b4ac-634351abeb47" xmlns="http://www.w3.org/2000/svg" viewBox="0 0 234.43 221.32"><defs><style>.uuid-cee0ba97-4ea4-42e5-9d67-386802b033b4{fill:#fff;}.uuid-cee0ba97-4ea4-42e5-9d67-386802b033b4,.uuid-eaf620ac-86c9-4c24-a3c8-21bb67e7132f,.uuid-806b877b-7970-4cf1-99f1-76e664177759{stroke:#1d1d1b;stroke-miterlimit:10;stroke-width:4px;}.uuid-eaf620ac-86c9-4c24-a3c8-21bb67e7132f,.uuid-d193afc2-631e-462d-bd76-6a9cb8f093d2{fill:#1d1d1b;}.uuid-806b877b-7970-4cf1-99f1-76e664177759{fill:none;}.uuid-d193afc2-631e-462d-bd76-6a9cb8f093d2{stroke-width:0px;}</style></defs><rect class="uuid-806b877b-7970-4cf1-99f1-76e664177759" x="61.09" y="66.62" width="33.45" height="31.83"/><rect class="uuid-806b877b-7970-4cf1-99f1-76e664177759" x="47.03" y="39.94" width="151.04" height="179.38"/><polygon class="uuid-eaf620ac-86c9-4c24-a3c8-21bb67e7132f" points="209.67 40.11 37.71 40.11 45.38 28.34 202 28.34 209.67 40.11"/><line class="uuid-806b877b-7970-4cf1-99f1-76e664177759" x1="34.17" y1="219.32" x2="209.88" y2="219.32"/><rect class="uuid-806b877b-7970-4cf1-99f1-76e664177759" x="105.82" y="66.53" width="33.45" height="31.83"/><rect class="uuid-eaf620ac-86c9-4c24-a3c8-21bb67e7132f" x="150.69" y="66.44" width="33.45" height="31.83"/><rect class="uuid-eaf620ac-86c9-4c24-a3c8-21bb67e7132f" x="60.3" y="115.08" width="33.45" height="31.83"/><rect class="uuid-eaf620ac-86c9-4c24-a3c8-21bb67e7132f" x="105.03" y="114.99" width="33.45" height="31.83"/><rect class="uuid-806b877b-7970-4cf1-99f1-76e664177759" x="149.9" y="114.9" width="33.45" height="31.83"/><rect class="uuid-eaf620ac-86c9-4c24-a3c8-21bb67e7132f" x="60.23" y="163.71" width="33.45" height="31.83"/><rect class="uuid-806b877b-7970-4cf1-99f1-76e664177759" x="104.97" y="163.62" width="33.45" height="31.83"/><rect class="uuid-eaf620ac-86c9-4c24-a3c8-21bb67e7132f" x="149.83" y="163.54" width="33.45" height="31.83"/><circle class="uuid-cee0ba97-4ea4-42e5-9d67-386802b033b4" cx="51.05" cy="51.05" r="49.05"/><path class="uuid-d193afc2-631e-462d-bd76-6a9cb8f093d2" d="m59.89,51.85l-1.67,7.04h-11.73c1.52,4.83,4.83,7.24,9.91,7.24,5.57,0,10.79-1.81,15.64-5.42v14.44c-4.03,2.76-8.89,4.14-14.59,4.14-9.21,0-16.03-2.1-20.44-6.31-4.41-4.21-7.11-8.9-8.09-14.09h-7.02l1.87-7.04h4.26c-.05-.39-.08-1.07-.08-2.05,0-1.03.03-1.78.08-2.25h-5.16l1.83-7.05h4.22c3.35-13.26,12.57-19.9,27.64-19.9,4.93,0,9.92,1.32,14.98,3.95l-3.48,14.05c-3.51-3.23-7.18-4.84-10.99-4.84-5.01,0-8.39,2.25-10.14,6.74h13.95l-1.67,7.05h-13.63c-.05.52-.08,1.26-.08,2.25v2.05h14.41Z"/></svg>