<?xml version="1.0" encoding="UTF-8"?><svg id="uuid-af43a1c6-19b7-4ef7-bfc6-1ddbf9219e1c" xmlns="http://www.w3.org/2000/svg" viewBox="0 0 230.89 234.49"><defs><style>.uuid-42f45b36-8211-4c22-a13d-14c4af929123{fill:#fff;}.uuid-42f45b36-8211-4c22-a13d-14c4af929123,.uuid-5967e667-c79e-48ac-a31f-dc461ec9a319,.uuid-c172ab75-d6c0-4b23-a673-9d7137cf4472,.uuid-d63363c4-7a6b-4b22-a895-2353cb9803f3,.uuid-b85a602f-ed4e-4b78-8c0b-899762773dfc,.uuid-48221af3-645f-4728-821f-d021ac58cfb6{stroke:#1d1d1b;stroke-miterlimit:10;}.uuid-42f45b36-8211-4c22-a13d-14c4af929123,.uuid-5967e667-c79e-48ac-a31f-dc461ec9a319,.uuid-48221af3-645f-4728-821f-d021ac58cfb6{stroke-width:4px;}.uuid-5967e667-c79e-48ac-a31f-dc461ec9a319,.uuid-d63363c4-7a6b-4b22-a895-2353cb9803f3,.uuid-e46963dd-d4cd-4ccc-898a-8cd1a844b4c6{fill:#1d1d1b;}.uuid-c172ab75-d6c0-4b23-a673-9d7137cf4472{stroke-width:10px;}.uuid-c172ab75-d6c0-4b23-a673-9d7137cf4472,.uuid-b85a602f-ed4e-4b78-8c0b-899762773dfc,.uuid-48221af3-645f-4728-821f-d021ac58cfb6{fill:none;}.uuid-b85a602f-ed4e-4b78-8c0b-899762773dfc{stroke-width:2px;}.uuid-e46963dd-d4cd-4ccc-898a-8cd1a844b4c6{stroke-width:0px;}</style></defs><rect class="uuid-48221af3-645f-4728-821f-d021ac58cfb6" x="22.61" y="38.53" width="25.47" height="25.84"/><rect class="uuid-48221af3-645f-4728-821f-d021ac58cfb6" x="11.9" y="16.89" width="115.02" height="145.58"/><polygon class="uuid-5967e667-c79e-48ac-a31f-dc461ec9a319" points="135.76 17.03 4.81 17.03 10.65 7.47 129.92 7.47 135.76 17.03"/><line class="uuid-48221af3-645f-4728-821f-d021ac58cfb6" x1="2.12" y1="162.47" x2="135.91" y2="162.47"/><rect class="uuid-48221af3-645f-4728-821f-d021ac58cfb6" x="56.68" y="38.46" width="25.47" height="25.84"/><rect class="uuid-5967e667-c79e-48ac-a31f-dc461ec9a319" x="90.84" y="38.39" width="25.47" height="25.84"/><rect class="uuid-5967e667-c79e-48ac-a31f-dc461ec9a319" x="22.01" y="77.86" width="25.47" height="25.84"/><rect class="uuid-5967e667-c79e-48ac-a31f-dc461ec9a319" x="56.07" y="77.79" width="25.47" height="25.84"/><rect class="uuid-48221af3-645f-4728-821f-d021ac58cfb6" x="90.24" y="77.72" width="25.47" height="25.84"/><rect class="uuid-5967e667-c79e-48ac-a31f-dc461ec9a319" x="21.96" y="117.33" width="25.47" height="25.84"/><rect class="uuid-48221af3-645f-4728-821f-d021ac58cfb6" x="56.02" y="117.26" width="25.47" height="25.84"/><rect class="uuid-5967e667-c79e-48ac-a31f-dc461ec9a319" x="90.19" y="117.19" width="25.47" height="25.84"/><ellipse class="uuid-42f45b36-8211-4c22-a13d-14c4af929123" cx="170.62" cy="100.65" rx="26.27" ry="28"/><path class="uuid-e46963dd-d4cd-4ccc-898a-8cd1a844b4c6" d="m178.47,113.37c-1.32.95-3.52,1.9-6.33,1.9-3.44,0-6.5-1.4-8.62-4.03-1.61-1.9-2.68-4.53-3.06-7.78h-2.63v-2.22h2.42v-.68c0-.72.04-1.4.08-2.04h-2.5v-2.26h2.8c.51-3.17,1.78-5.79,3.48-7.65,2.17-2.4,4.93-3.76,8.41-3.76,2.51,0,4.46.77,5.65,1.45l-.85,2.99c-1.06-.68-2.84-1.27-4.76-1.27-2.29,0-4.16.86-5.61,2.49-1.27,1.31-2.12,3.35-2.55,5.75h11.85v2.26h-12.23c-.04.59-.08,1.27-.08,1.9v.81h12.31v2.22h-12.02c.34,2.62,1.19,4.57,2.34,5.93,1.57,1.77,3.69,2.62,5.99,2.62s4.2-.91,5.18-1.49l.72,2.85Z"/><line class="uuid-b85a602f-ed4e-4b78-8c0b-899762773dfc" x1="162.27" x2="162.27" y2="65.68"/><line class="uuid-b85a602f-ed4e-4b78-8c0b-899762773dfc" x1="171.3" y1="24.17" x2="171.3" y2="65.68"/><line class="uuid-b85a602f-ed4e-4b78-8c0b-899762773dfc" x1="180.97" y1="47.77" x2="180.97" y2="65.11"/><polygon class="uuid-d63363c4-7a6b-4b22-a895-2353cb9803f3" points="229.95 125.33 218.92 153.72 211.43 145.23 205.01 137.95 229.95 125.33"/><polyline class="uuid-c172ab75-d6c0-4b23-a673-9d7137cf4472" points="1.6 229.76 95.59 197.95 153.58 209.87 222.05 134.76"/></svg>