<?xml version="1.0" encoding="UTF-8"?><svg id="uuid-544b866c-1d50-478b-b808-04fc7f8ad46f" xmlns="http://www.w3.org/2000/svg" viewBox="0 0 232.16 208.39"><defs><style>.uuid-5da13cf5-8933-424d-adb4-7a1eae06afd5,.uuid-fd08305a-ae0b-4fff-85f3-cbfa04b75c27,.uuid-4cd83c3b-a18e-463c-b9a4-fdc8d1aecf04,.uuid-3eeeef5a-3946-4416-b240-76a22a3f0619,.uuid-ebf7ff2f-527c-4255-8a31-dc714275d8c4,.uuid-959c9ab5-0852-443d-a822-a2bd21603cc9{stroke:#1d1d1b;stroke-miterlimit:10;}.uuid-5da13cf5-8933-424d-adb4-7a1eae06afd5,.uuid-4cd83c3b-a18e-463c-b9a4-fdc8d1aecf04{fill:#1d1d1b;}.uuid-5da13cf5-8933-424d-adb4-7a1eae06afd5,.uuid-ebf7ff2f-527c-4255-8a31-dc714275d8c4{stroke-width:4px;}.uuid-fd08305a-ae0b-4fff-85f3-cbfa04b75c27{fill:#fff;}.uuid-3eeeef5a-3946-4416-b240-76a22a3f0619{stroke-width:2px;}.uuid-3eeeef5a-3946-4416-b240-76a22a3f0619,.uuid-ebf7ff2f-527c-4255-8a31-dc714275d8c4,.uuid-959c9ab5-0852-443d-a822-a2bd21603cc9{fill:none;}</style></defs><rect class="uuid-959c9ab5-0852-443d-a822-a2bd21603cc9" x="143.16" y="49.74" width="39.04" height="18.52"/><line class="uuid-ebf7ff2f-527c-4255-8a31-dc714275d8c4" x1="139.26" y1="68.37" x2="186.03" y2="68.37"/><rect class="uuid-5da13cf5-8933-424d-adb4-7a1eae06afd5" x="160.56" y="55.66" width="4.51" height="12.6"/><polygon class="uuid-5da13cf5-8933-424d-adb4-7a1eae06afd5" points="186.19 49.74 139.43 49.74 143.9 29.33 181.83 29.33 186.19 49.74"/><rect class="uuid-fd08305a-ae0b-4fff-85f3-cbfa04b75c27" x="145.88" y="55.55" width="9.89" height="7.07"/><rect class="uuid-fd08305a-ae0b-4fff-85f3-cbfa04b75c27" x="169.91" y="55.77" width="9.89" height="7.07"/><polygon class="uuid-3eeeef5a-3946-4416-b240-76a22a3f0619" points="81.56 183.7 19.93 183.7 32.42 165.05 70.05 165.05 81.56 183.7"/><polygon class="uuid-4cd83c3b-a18e-463c-b9a4-fdc8d1aecf04" points="35.37 151.09 49.37 151.09 42.37 134.97 35.37 151.09"/><polygon class="uuid-4cd83c3b-a18e-463c-b9a4-fdc8d1aecf04" points="33.97 160.76 50.77 160.76 42.37 141.42 33.97 160.76"/><polygon class="uuid-4cd83c3b-a18e-463c-b9a4-fdc8d1aecf04" points="32.57 170.44 52.17 170.44 42.37 147.87 32.57 170.44"/><line class="uuid-ebf7ff2f-527c-4255-8a31-dc714275d8c4" x1="42.37" y1="163.44" x2="42.37" y2="177.43"/><path class="uuid-4cd83c3b-a18e-463c-b9a4-fdc8d1aecf04" d="m62.71,36.38c0,6.43-12.22,32.54-11.97,32.54s-11.97-26.11-11.97-32.54,6.54-12.46,11.97-12.46,11.97,6.03,11.97,12.46Z"/><ellipse class="uuid-3eeeef5a-3946-4416-b240-76a22a3f0619" cx="50.74" cy="68.92" rx="10.6" ry="2.17"/><rect class="uuid-959c9ab5-0852-443d-a822-a2bd21603cc9" x="146.35" y="145.52" width="32.27" height="38.32"/><polygon class="uuid-5da13cf5-8933-424d-adb4-7a1eae06afd5" points="181.1 145.56 144.36 145.56 146 143.04 179.46 143.04 181.1 145.56"/><line class="uuid-ebf7ff2f-527c-4255-8a31-dc714275d8c4" x1="143.6" y1="183.84" x2="181.14" y2="183.84"/><rect class="uuid-4cd83c3b-a18e-463c-b9a4-fdc8d1aecf04" x="151.4" y="153.03" width="9.7" height="9.23"/><rect class="uuid-4cd83c3b-a18e-463c-b9a4-fdc8d1aecf04" x="164.37" y="153" width="9.7" height="9.23"/><rect class="uuid-4cd83c3b-a18e-463c-b9a4-fdc8d1aecf04" x="151.38" y="167.13" width="9.7" height="9.23"/><rect class="uuid-4cd83c3b-a18e-463c-b9a4-fdc8d1aecf04" x="164.35" y="167.11" width="9.7" height="9.23"/><rect class="uuid-ebf7ff2f-527c-4255-8a31-dc714275d8c4" x="2" y="2" width="93.71" height="93.71"/><rect class="uuid-ebf7ff2f-527c-4255-8a31-dc714275d8c4" x="113.76" y="2" width="93.71" height="93.71"/><rect class="uuid-ebf7ff2f-527c-4255-8a31-dc714275d8c4" x="2" y="112.68" width="93.71" height="93.71"/><rect class="uuid-ebf7ff2f-527c-4255-8a31-dc714275d8c4" x="113.76" y="112.68" width="93.71" height="93.71"/></svg>