<?xml version="1.0" encoding="UTF-8"?><svg id="uuid-8edf3da8-adf2-46b2-bc77-31d1b22d5382" xmlns="http://www.w3.org/2000/svg" viewBox="0 0 237.16 197.1"><defs><style>.uuid-893b6b03-e73c-4b27-84e1-1767483567f2,.uuid-744f0f76-ed1c-4ed8-bf4f-50dca5cf6579{stroke-width:4px;}.uuid-893b6b03-e73c-4b27-84e1-1767483567f2,.uuid-744f0f76-ed1c-4ed8-bf4f-50dca5cf6579,.uuid-a7609582-192c-4d5d-9970-31a582a72b8f,.uuid-21348de1-a0f8-47be-bc31-019692f2fdf8{stroke-miterlimit:10;}.uuid-893b6b03-e73c-4b27-84e1-1767483567f2,.uuid-a7609582-192c-4d5d-9970-31a582a72b8f,.uuid-21348de1-a0f8-47be-bc31-019692f2fdf8{stroke:#fff;}.uuid-893b6b03-e73c-4b27-84e1-1767483567f2,.uuid-370b7f81-a6d1-4ef8-b9c1-8b7d76a7de1a,.uuid-21348de1-a0f8-47be-bc31-019692f2fdf8{fill:#fff;}.uuid-b2ab258b-beba-4359-854f-d3b5ec9e7976,.uuid-744f0f76-ed1c-4ed8-bf4f-50dca5cf6579,.uuid-a7609582-192c-4d5d-9970-31a582a72b8f{fill:#1d1d1b;}.uuid-744f0f76-ed1c-4ed8-bf4f-50dca5cf6579{stroke:#1d1d1b;}</style></defs><rect class="uuid-744f0f76-ed1c-4ed8-bf4f-50dca5cf6579" x="18.96" y="2" width="11.42" height="79.88"/><path class="uuid-744f0f76-ed1c-4ed8-bf4f-50dca5cf6579" d="M11.74,64.1h172.61c5.38,0,9.74,4.36,9.74,9.74v89.77H2v-89.77c0-5.38,4.36-9.74,9.74-9.74Z"/><rect class="uuid-370b7f81-a6d1-4ef8-b9c1-8b7d76a7de1a" x="13.96" y="97.69" width="32.55" height="15.6"/><rect class="uuid-370b7f81-a6d1-4ef8-b9c1-8b7d76a7de1a" x="59.37" y="97.69" width="32.55" height="15.6"/><polygon class="uuid-744f0f76-ed1c-4ed8-bf4f-50dca5cf6579" points="176.26 62.37 141.67 62.37 141.67 62.37 176.26 46.43 176.26 62.37"/><polygon class="uuid-744f0f76-ed1c-4ed8-bf4f-50dca5cf6579" points="134.91 62.37 100.32 62.37 100.32 62.37 134.91 46.43 134.91 62.37"/><polygon class="uuid-744f0f76-ed1c-4ed8-bf4f-50dca5cf6579" points="91.08 62.37 56.5 62.37 56.5 62.37 91.08 46.43 91.08 62.37"/><rect class="uuid-370b7f81-a6d1-4ef8-b9c1-8b7d76a7de1a" x="104.85" y="97.69" width="32.55" height="15.6"/><rect class="uuid-370b7f81-a6d1-4ef8-b9c1-8b7d76a7de1a" x="150.26" y="97.69" width="32.55" height="15.6"/><path class="uuid-893b6b03-e73c-4b27-84e1-1767483567f2" d="M109.43,134.78h101.62v42.02h-106.45v-37.19c0-2.67,2.16-4.83,4.83-4.83Z"/><rect class="uuid-370b7f81-a6d1-4ef8-b9c1-8b7d76a7de1a" x="14.05" y="133.99" width="59.62" height="30.94"/><path class="uuid-744f0f76-ed1c-4ed8-bf4f-50dca5cf6579" d="M111.65,137h87.04v46.57h-91.76v-41.85c0-2.61,2.12-4.72,4.72-4.72Z"/><path class="uuid-b2ab258b-beba-4359-854f-d3b5ec9e7976" d="M199.73,144.3h29.8c2.55,0,4.61,2.07,4.61,4.61v34.66h-34.41v-39.28h0Z"/><circle class="uuid-a7609582-192c-4d5d-9970-31a582a72b8f" cx="216.49" cy="186.21" r="10.38"/><circle class="uuid-a7609582-192c-4d5d-9970-31a582a72b8f" cx="123.76" cy="186.21" r="10.38"/><circle class="uuid-a7609582-192c-4d5d-9970-31a582a72b8f" cx="148.01" cy="186.21" r="10.38"/><rect class="uuid-21348de1-a0f8-47be-bc31-019692f2fdf8" x="210.56" y="150.21" width="18.75" height="11.04"/><path class="uuid-b2ab258b-beba-4359-854f-d3b5ec9e7976" d="M233.79,165.15h0c1.86,0,3.37,1.51,3.37,3.37v15.05h-3.37v-18.42h0Z"/></svg>