<?xml version="1.0" encoding="UTF-8"?><svg id="uuid-364c3f40-e63f-40f5-a59c-70680afc3710" xmlns="http://www.w3.org/2000/svg" viewBox="0 0 224.2 216.57"><defs><style>.uuid-0bf08020-3ae2-495f-98b4-b1448ac29102{fill:#fff;}.uuid-0bf08020-3ae2-495f-98b4-b1448ac29102,.uuid-cc6e418a-ea21-432c-8137-3812cdad44bd,.uuid-d4f544d5-35d4-4ce4-abc5-6e8e9c7ac1f4{stroke:#1d1d1b;stroke-miterlimit:10;stroke-width:4px;}.uuid-cc6e418a-ea21-432c-8137-3812cdad44bd,.uuid-f1bb397c-3b34-4f9d-9f04-6ac0d2ecec44{fill:#1d1d1b;}.uuid-d4f544d5-35d4-4ce4-abc5-6e8e9c7ac1f4{fill:none;}.uuid-f1bb397c-3b34-4f9d-9f04-6ac0d2ecec44{stroke-width:0px;}</style></defs><rect class="uuid-d4f544d5-35d4-4ce4-abc5-6e8e9c7ac1f4" x="31.93" y="132.4" width="172.15" height="81.67"/><line class="uuid-d4f544d5-35d4-4ce4-abc5-6e8e9c7ac1f4" x1="14.77" y1="214.57" x2="221" y2="214.57"/><rect class="uuid-cc6e418a-ea21-432c-8137-3812cdad44bd" x="108.67" y="158.49" width="19.89" height="55.58"/><polygon class="uuid-cc6e418a-ea21-432c-8137-3812cdad44bd" points="221.72 132.4 15.5 132.4 35.21 42.39 202.47 42.39 221.72 132.4"/><polygon class="uuid-d4f544d5-35d4-4ce4-abc5-6e8e9c7ac1f4" points="168.12 105.96 67.65 105.96 100.59 62.88 134.68 62.88 168.12 105.96"/><rect class="uuid-cc6e418a-ea21-432c-8137-3812cdad44bd" x="105.73" y="80.12" width="26.02" height="13.99"/><rect class="uuid-0bf08020-3ae2-495f-98b4-b1448ac29102" x="43.95" y="158" width="43.61" height="31.19"/><rect class="uuid-0bf08020-3ae2-495f-98b4-b1448ac29102" x="149.9" y="158.99" width="43.61" height="31.19"/><circle class="uuid-0bf08020-3ae2-495f-98b4-b1448ac29102" cx="51.05" cy="51.05" r="49.05"/><path class="uuid-f1bb397c-3b34-4f9d-9f04-6ac0d2ecec44" d="m59.89,51.85l-1.67,7.04h-11.73c1.52,4.83,4.83,7.24,9.91,7.24,5.57,0,10.79-1.81,15.64-5.42v14.44c-4.03,2.76-8.89,4.14-14.59,4.14-9.21,0-16.03-2.1-20.44-6.31-4.41-4.21-7.11-8.9-8.09-14.09h-7.02l1.87-7.04h4.26c-.05-.39-.08-1.07-.08-2.05,0-1.03.03-1.78.08-2.25h-5.16l1.83-7.05h4.22c3.35-13.26,12.57-19.9,27.64-19.9,4.93,0,9.92,1.32,14.98,3.95l-3.48,14.05c-3.51-3.23-7.18-4.84-10.99-4.84-5.01,0-8.39,2.25-10.14,6.74h13.95l-1.67,7.05h-13.63c-.05.52-.08,1.26-.08,2.25v2.05h14.41Z"/></svg>