<svg width="1000" height="983" viewBox="0 0 1000 983" xmlns="http://www.w3.org/2000/svg" xmlns:xlink="http://www.w3.org/1999/xlink" style="width: 100%; height: auto;">
        <style>
          path {
            transition: all 0.2s ease;
            transform-box: fill-box;
            transform-origin: center;
          }
          path:hover {
            stroke: #fff;
            stroke-width: 3;
            opacity: 0.85 !important;
            transform: scale(1.01);
          }
        </style>
        <a xlink:href="/immobilienmarkt/sachsen/landkreis-leipzig/grimma/wohnmarktsituation" target="_blank"><path d="M 618.6,570.8 L 629.4,602.6 L 651.4,592.4 L 653.9,580.9 L 688.5,601.8 L 687.0,608.0 L 692.3,597.6 L 713.7,593.2 L 707.5,590.0 L 724.4,597.8 L 728.1,589.7 L 744.8,593.4 L 736.4,604.9 L 738.4,615.3 L 751.1,596.4 L 774.5,595.4 L 788.2,577.6 L 794.7,587.3 L 811.5,587.9 L 820.1,603.0 L 816.5,619.2 L 829.6,608.8 L 837.0,627.3 L 883.2,610.2 L 892.2,616.7 L 921.3,581.1 L 915.6,578.6 L 925.5,551.0 L 936.1,547.3 L 936.2,523.5 L 943.1,525.9 L 948.0,514.6 L 975.6,520.1 L 973.4,510.9 L 981.5,509.6 L 952.6,482.7 L 975.4,478.6 L 959.4,465.8 L 984.3,445.3 L 975.9,427.1 L 984.5,422.1 L 983.7,406.1 L 979.0,399.5 L 964.7,406.1 L 947.7,392.2 L 961.3,385.2 L 945.3,382.8 L 943.7,362.8 L 906.4,327.5 L 871.3,318.1 L 835.2,314.6 L 821.4,323.4 L 825.9,338.7 L 805.5,354.3 L 815.5,372.9 L 807.0,370.5 L 784.5,391.5 L 796.1,400.5 L 799.8,424.4 L 760.5,404.5 L 749.6,411.2 L 739.3,399.4 L 732.9,413.1 L 720.2,405.8 L 702.2,413.6 L 676.4,391.7 L 656.1,404.2 L 664.3,370.2 L 641.1,368.0 L 652.8,391.8 L 653.0,433.5 L 665.5,452.2 L 661.6,482.1 L 669.5,497.1 L 659.0,488.2 L 637.4,509.9 L 649.3,529.5 L 637.5,560.1 L 618.6,570.8 Z " fill="#d3be59" fill-rule="evenodd" stroke="#fff" stroke-width="3" data-name="Grimma" data-value="13"></path></a><a xlink:href="/immobilienmarkt/sachsen/landkreis-leipzig/frohburg/wohnmarktsituation" target="_blank"><path d="M 444.3,812.3 L 454.0,834.6 L 445.1,837.7 L 446.4,871.5 L 458.6,887.9 L 451.9,906.0 L 463.3,905.3 L 461.1,887.1 L 466.9,895.1 L 492.0,892.6 L 486.8,909.4 L 493.3,929.4 L 475.5,937.9 L 478.0,944.0 L 512.8,945.5 L 547.6,977.9 L 545.1,962.0 L 578.0,946.8 L 590.3,979.2 L 610.7,982.8 L 653.6,965.7 L 622.5,921.3 L 624.4,880.7 L 601.5,872.4 L 596.6,859.6 L 614.5,847.8 L 603.3,814.6 L 616.2,813.7 L 629.2,793.3 L 648.4,801.7 L 668.5,792.9 L 703.0,805.7 L 706.4,791.2 L 710.8,797.2 L 722.5,787.8 L 685.6,743.8 L 666.6,753.6 L 662.9,752.2 L 663.1,718.9 L 638.5,709.5 L 614.9,680.4 L 598.1,688.2 L 592.8,678.8 L 587.1,682.8 L 569.5,654.5 L 511.4,670.4 L 523.2,681.7 L 518.6,696.4 L 526.2,710.0 L 505.7,716.8 L 499.1,744.7 L 513.5,759.9 L 494.5,775.8 L 469.7,778.0 L 474.8,785.7 L 444.3,812.3 Z " fill="#d3be59" fill-rule="evenodd" stroke="#fff" stroke-width="3" data-name="Frohburg" data-value="-7"></path></a><a xlink:href="/immobilienmarkt/sachsen/landkreis-leipzig/lossatal/wohnmarktsituation" target="_blank"><path d="M 725.4,119.1 L 744.8,153.5 L 759.7,154.1 L 781.4,180.6 L 792.6,178.0 L 792.7,190.1 L 803.4,188.5 L 809.3,232.7 L 829.1,235.2 L 837.8,216.5 L 841.8,221.1 L 842.1,213.1 L 856.8,207.3 L 874.4,210.6 L 893.8,230.8 L 912.0,227.8 L 915.0,250.8 L 901.4,257.5 L 908.4,274.5 L 944.5,271.1 L 943.7,246.5 L 957.1,229.7 L 981.5,236.0 L 995.6,217.3 L 981.1,191.6 L 962.6,196.5 L 948.6,166.6 L 950.8,139.9 L 967.1,138.5 L 971.5,152.2 L 993.7,149.3 L 984.9,126.8 L 996.7,123.4 L 999.1,112.9 L 987.3,105.2 L 979.8,110.9 L 972.9,91.2 L 950.4,69.5 L 928.1,62.8 L 919.5,45.6 L 892.2,46.5 L 831.4,28.6 L 827.7,43.8 L 835.9,55.2 L 858.7,59.5 L 848.6,69.4 L 831.6,68.0 L 815.8,78.8 L 808.4,71.5 L 808.5,79.2 L 794.0,81.0 L 759.4,77.3 L 734.9,90.8 L 730.9,101.7 L 747.5,110.1 L 745.8,117.3 L 725.4,119.1 Z " fill="#c8d54f" fill-rule="evenodd" stroke="#fff" stroke-width="3" data-name="Loßatal" data-value="-20"></path></a><a xlink:href="/immobilienmarkt/sachsen/landkreis-leipzig/colditz/wohnmarktsituation" target="_blank"><path d="M 662.5,697.6 L 691.1,721.9 L 731.1,713.6 L 752.9,717.6 L 770.9,734.4 L 790.4,729.1 L 805.8,739.4 L 822.9,729.0 L 824.0,747.0 L 836.5,757.8 L 873.2,753.7 L 883.8,744.9 L 913.4,758.4 L 939.3,743.2 L 932.3,733.8 L 943.7,720.9 L 927.6,696.4 L 938.9,679.1 L 931.0,675.5 L 935.7,665.9 L 925.2,668.4 L 911.8,649.5 L 891.9,647.9 L 884.0,637.1 L 896.1,613.3 L 887.9,618.3 L 883.2,610.2 L 837.0,627.3 L 829.6,608.8 L 816.5,619.2 L 820.1,603.0 L 811.5,587.9 L 794.7,587.3 L 788.2,577.6 L 774.5,595.4 L 740.9,605.0 L 732.9,627.5 L 746.1,641.4 L 737.6,648.1 L 739.3,665.0 L 706.1,674.0 L 707.6,684.9 L 673.2,682.0 L 662.5,697.6 Z " fill="#f47979" fill-rule="evenodd" stroke="#fff" stroke-width="3" data-name="Colditz" data-value="84"></path></a><a xlink:href="/immobilienmarkt/sachsen/landkreis-leipzig/groitzsch/wohnmarktsituation" target="_blank"><path d="M 91.0,696.9 L 92.5,721.4 L 132.2,746.5 L 164.1,742.1 L 164.3,750.9 L 180.8,760.3 L 197.2,745.9 L 217.8,752.1 L 231.5,733.9 L 256.9,748.2 L 262.9,735.0 L 279.6,736.0 L 283.2,671.0 L 304.5,664.3 L 303.2,650.4 L 279.1,635.4 L 276.1,621.2 L 226.0,612.9 L 222.5,588.0 L 180.3,574.6 L 165.1,585.7 L 169.8,614.8 L 157.4,619.2 L 147.0,656.8 L 137.4,657.0 L 139.5,673.6 L 114.6,675.7 L 111.6,693.0 L 100.7,700.8 L 91.0,696.9 Z " fill="#f47979" fill-rule="evenodd" stroke="#fff" stroke-width="3" data-name="Groitzsch" data-value="75"></path></a><a xlink:href="/immobilienmarkt/sachsen/landkreis-leipzig/bad-lausick/wohnmarktsituation" target="_blank"><path d="M 526.5,637.6 L 550.1,665.2 L 569.5,654.5 L 587.1,682.8 L 592.8,678.8 L 598.1,688.2 L 614.9,680.4 L 638.5,709.5 L 663.1,718.9 L 658.9,737.1 L 666.6,753.6 L 685.6,743.8 L 699.9,761.0 L 720.1,735.1 L 741.7,749.4 L 744.1,731.0 L 762.1,729.3 L 752.9,717.6 L 731.1,713.6 L 691.1,721.9 L 662.5,697.6 L 673.2,682.0 L 707.6,684.9 L 706.1,674.0 L 739.3,665.0 L 737.6,648.1 L 746.1,641.4 L 732.9,627.5 L 744.8,593.4 L 728.1,589.7 L 724.4,597.8 L 722.4,591.0 L 707.5,590.0 L 713.7,593.2 L 692.3,597.6 L 687.0,608.0 L 688.5,601.8 L 653.9,580.9 L 651.4,592.4 L 629.4,602.6 L 618.6,570.8 L 571.4,583.8 L 578.1,559.9 L 559.1,565.6 L 550.8,554.5 L 540.7,555.6 L 531.2,570.9 L 549.5,575.4 L 549.5,589.4 L 539.6,585.6 L 535.5,593.6 L 526.5,637.6 Z " fill="#dea764" fill-rule="evenodd" stroke="#fff" stroke-width="3" data-name="Bad Lausick" data-value="33"></path></a><a xlink:href="/immobilienmarkt/sachsen/landkreis-leipzig/wurzen/wohnmarktsituation" target="_blank"><path d="M 708.2,171.0 L 729.3,190.6 L 712.9,208.7 L 766.2,288.1 L 752.2,302.5 L 753.3,318.2 L 766.7,324.9 L 764.9,338.0 L 793.2,334.7 L 835.2,314.6 L 899.6,329.4 L 909.9,325.1 L 916.0,305.2 L 953.8,294.2 L 943.7,288.1 L 944.5,271.1 L 908.4,274.5 L 901.4,257.5 L 915.0,250.8 L 912.0,227.8 L 893.8,230.8 L 874.4,210.6 L 856.8,207.3 L 842.1,213.1 L 841.8,221.1 L 837.8,216.5 L 829.1,235.2 L 809.3,232.7 L 803.4,188.5 L 792.7,190.1 L 792.6,178.0 L 781.4,180.6 L 759.7,154.1 L 708.2,171.0 Z " fill="#e9906e" fill-rule="evenodd" stroke="#fff" stroke-width="3" data-name="Wurzen" data-value="66"></path></a><a xlink:href="/immobilienmarkt/sachsen/landkreis-leipzig/borna/wohnmarktsituation" target="_blank"><path d="M 375.1,714.4 L 378.0,732.1 L 397.0,750.1 L 392.9,796.4 L 404.3,812.3 L 443.6,812.8 L 474.8,785.7 L 469.7,778.0 L 494.5,775.8 L 513.5,759.9 L 499.1,744.7 L 505.7,716.8 L 526.2,710.0 L 518.6,696.4 L 523.2,681.7 L 509.4,683.8 L 503.8,673.9 L 510.5,674.6 L 493.6,663.0 L 477.7,663.3 L 474.0,628.4 L 481.8,612.2 L 457.3,611.6 L 456.4,586.0 L 436.8,583.9 L 429.5,591.3 L 422.5,578.9 L 417.8,582.8 L 430.0,615.7 L 408.9,627.8 L 411.7,637.4 L 405.3,633.5 L 411.3,682.4 L 400.5,684.2 L 403.1,693.6 L 375.7,696.7 L 375.1,714.4 Z " fill="#e9906e" fill-rule="evenodd" stroke="#fff" stroke-width="3" data-name="Borna" data-value="46"></path></a><a xlink:href="/immobilienmarkt/sachsen/landkreis-leipzig/markranstaedt/wohnmarktsituation" target="_blank"><path d="M 0.0,299.7 L 12.0,355.2 L 26.4,352.4 L 30.6,368.5 L 22.7,408.1 L 31.6,407.7 L 32.3,424.1 L 51.9,424.5 L 59.7,463.4 L 91.7,459.7 L 94.8,440.3 L 119.7,434.7 L 131.3,420.6 L 128.5,367.7 L 167.9,378.3 L 143.9,360.9 L 142.5,342.6 L 128.9,344.2 L 119.8,303.8 L 113.4,305.3 L 112.2,286.6 L 140.7,270.0 L 128.4,262.9 L 123.1,245.1 L 58.7,278.8 L 24.1,285.9 L 23.6,297.9 L 0.0,299.7 Z " fill="#c8d54f" fill-rule="evenodd" stroke="#fff" stroke-width="3" data-name="Markranstädt" data-value="-33"></path></a><a xlink:href="/immobilienmarkt/sachsen/landkreis-leipzig/neukieritzsch/wohnmarktsituation" target="_blank"><path d="M 221.1,591.9 L 226.0,612.9 L 276.1,621.2 L 279.1,635.4 L 303.2,650.4 L 304.5,664.3 L 283.2,671.0 L 285.9,690.1 L 307.8,684.2 L 312.5,704.0 L 336.7,690.8 L 331.7,744.0 L 378.0,732.1 L 375.7,696.7 L 403.1,693.6 L 400.5,684.2 L 411.3,682.4 L 405.3,633.5 L 413.9,635.7 L 408.9,627.8 L 421.0,616.9 L 428.3,620.9 L 429.7,608.3 L 422.3,583.6 L 408.9,583.0 L 404.5,568.7 L 388.0,568.3 L 385.0,585.8 L 359.0,591.7 L 341.2,608.1 L 318.1,610.4 L 287.3,554.5 L 256.3,546.1 L 248.5,548.5 L 247.3,564.8 L 222.2,574.2 L 221.1,591.9 Z " fill="#f47979" fill-rule="evenodd" stroke="#fff" stroke-width="3" data-name="Neukieritzsch" data-value="89"></path></a><a xlink:href="/immobilienmarkt/sachsen/landkreis-leipzig/thallwitz/wohnmarktsituation" target="_blank"><path d="M 624.3,73.9 L 643.7,85.8 L 633.0,88.0 L 633.0,97.5 L 643.8,97.6 L 644.0,107.4 L 674.4,130.8 L 675.0,164.4 L 700.3,164.8 L 701.7,176.3 L 712.7,163.9 L 718.2,170.2 L 746.5,162.0 L 725.4,119.1 L 745.8,117.3 L 747.5,110.1 L 730.9,101.7 L 734.9,90.8 L 762.3,76.6 L 794.0,81.0 L 808.5,79.2 L 808.4,71.5 L 815.8,78.8 L 858.7,59.5 L 835.9,55.2 L 827.7,43.8 L 837.7,18.0 L 805.7,0.0 L 763.5,29.8 L 719.5,28.5 L 712.4,46.5 L 686.1,45.1 L 672.1,32.9 L 656.8,46.8 L 648.7,39.9 L 635.2,48.4 L 624.3,73.9 Z " fill="#d3be59" fill-rule="evenodd" stroke="#fff" stroke-width="3" data-name="Thallwitz" data-value="8"></path></a><a xlink:href="/immobilienmarkt/sachsen/landkreis-leipzig/pegau/wohnmarktsituation" target="_blank"><path d="M 32.7,560.7 L 34.1,578.0 L 82.1,573.5 L 68.9,614.8 L 103.1,608.7 L 122.8,615.8 L 119.6,627.5 L 128.7,624.2 L 142.3,637.5 L 124.3,675.5 L 139.5,673.6 L 137.4,657.0 L 147.0,656.8 L 157.4,619.2 L 169.8,614.8 L 165.1,585.7 L 190.2,563.3 L 192.0,528.1 L 148.8,556.1 L 113.3,547.5 L 126.3,539.7 L 127.0,523.0 L 138.4,521.9 L 120.9,488.1 L 140.9,468.4 L 130.1,462.8 L 139.7,437.7 L 132.7,419.8 L 119.7,434.7 L 94.8,440.3 L 91.7,459.7 L 55.8,468.7 L 62.9,506.9 L 71.7,512.2 L 52.3,532.8 L 49.5,557.8 L 32.7,560.7 Z " fill="#dea764" fill-rule="evenodd" stroke="#fff" stroke-width="3" data-name="Pegau" data-value="29"></path></a><a xlink:href="/immobilienmarkt/sachsen/landkreis-leipzig/bennewitz/wohnmarktsituation" target="_blank"><path d="M 618.1,249.6 L 627.4,266.9 L 641.1,259.8 L 661.5,303.5 L 691.1,311.2 L 686.8,317.6 L 715.8,331.5 L 719.2,349.2 L 743.5,348.2 L 767.7,333.7 L 753.3,318.2 L 752.2,302.5 L 766.2,288.1 L 712.9,208.7 L 729.2,190.3 L 708.2,171.0 L 701.7,176.3 L 700.3,164.8 L 675.0,164.4 L 671.5,136.3 L 661.5,137.4 L 666.5,161.3 L 654.5,164.6 L 660.1,176.5 L 648.7,181.4 L 645.3,222.8 L 652.6,226.0 L 630.6,230.2 L 618.1,249.6 Z " fill="#c8d54f" fill-rule="evenodd" stroke="#fff" stroke-width="3" data-name="Bennewitz" data-value="-20"></path></a><a xlink:href="/immobilienmarkt/sachsen/landkreis-leipzig/zwenkau/wohnmarktsituation" target="_blank"><path d="M 111.9,542.4 L 146.9,556.5 L 191.9,527.9 L 190.2,563.3 L 180.5,576.0 L 221.2,587.7 L 222.2,574.2 L 247.3,564.8 L 248.5,548.5 L 256.3,546.1 L 251.9,509.6 L 265.2,505.5 L 258.8,481.2 L 278.2,465.2 L 276.8,452.4 L 267.5,440.9 L 229.3,436.1 L 225.8,420.4 L 225.5,428.0 L 210.1,429.2 L 208.0,454.7 L 169.3,451.6 L 139.6,463.5 L 139.1,477.7 L 120.9,488.1 L 138.4,521.9 L 127.0,523.0 L 126.3,539.7 L 111.9,542.4 Z " fill="#dea764" fill-rule="evenodd" stroke="#fff" stroke-width="3" data-name="Zwenkau" data-value="30"></path></a><a xlink:href="/immobilienmarkt/sachsen/landkreis-leipzig/roetha/wohnmarktsituation" target="_blank"><path d="M 307.7,512.1 L 317.0,524.7 L 317.6,559.6 L 356.7,594.0 L 385.0,585.8 L 388.5,568.1 L 404.5,568.7 L 408.9,583.0 L 422.5,578.9 L 429.5,591.3 L 482.6,575.7 L 459.3,563.3 L 474.1,528.2 L 500.2,533.2 L 521.7,526.6 L 512.2,509.3 L 500.0,509.0 L 509.5,501.3 L 501.1,486.8 L 489.5,486.2 L 462.1,455.8 L 441.1,492.1 L 416.6,514.8 L 409.2,510.4 L 410.7,521.5 L 384.3,516.3 L 384.4,526.2 L 372.2,526.1 L 349.6,484.2 L 327.8,490.0 L 320.3,482.0 L 307.7,512.1 Z " fill="#dea764" fill-rule="evenodd" stroke="#fff" stroke-width="3" data-name="Rötha" data-value="36"></path></a><a xlink:href="/immobilienmarkt/sachsen/landkreis-leipzig/grosspoesna/wohnmarktsituation" target="_blank"><path d="M 319.6,451.2 L 341.2,488.9 L 349.8,484.3 L 370.8,513.6 L 372.2,526.1 L 384.4,526.2 L 384.3,516.3 L 411.1,521.4 L 409.2,510.4 L 416.6,514.8 L 441.1,492.1 L 462.1,455.8 L 461.2,372.4 L 498.3,346.1 L 490.3,344.1 L 491.7,327.8 L 449.5,333.1 L 438.6,361.5 L 443.3,373.0 L 423.0,411.1 L 434.7,419.6 L 427.9,424.9 L 377.5,403.4 L 359.3,419.1 L 358.2,434.9 L 319.6,451.2 Z " fill="#d3be59" fill-rule="evenodd" stroke="#fff" stroke-width="3" data-name="Großpösna" data-value="-48"></path></a><a xlink:href="/immobilienmarkt/sachsen/landkreis-leipzig/naunhof/wohnmarktsituation" target="_blank"><path d="M 460.5,399.7 L 467.7,425.9 L 471.5,405.1 L 506.9,405.4 L 526.0,394.3 L 531.2,408.6 L 554.5,414.5 L 538.1,438.1 L 558.7,435.4 L 569.1,443.4 L 581.1,420.6 L 576.9,404.5 L 594.9,388.5 L 598.2,371.0 L 614.9,367.8 L 610.1,361.7 L 641.8,374.7 L 648.7,358.0 L 640.6,351.7 L 663.5,324.6 L 650.1,322.1 L 636.3,332.4 L 632.2,324.6 L 612.0,325.3 L 608.0,336.2 L 604.6,322.8 L 585.5,324.2 L 581.2,339.6 L 558.1,326.7 L 535.4,325.9 L 528.3,309.1 L 491.7,329.0 L 490.3,344.1 L 498.3,346.1 L 461.2,372.4 L 460.5,399.7 Z " fill="#c8d54f" fill-rule="evenodd" stroke="#fff" stroke-width="3" data-name="Naunhof" data-value="-14"></path></a><a xlink:href="/immobilienmarkt/sachsen/landkreis-leipzig/machern/wohnmarktsituation" target="_blank"><path d="M 517.2,228.9 L 538.3,256.9 L 567.1,250.9 L 574.7,235.2 L 582.2,235.3 L 583.2,247.8 L 621.1,246.5 L 630.6,230.2 L 652.6,226.0 L 645.3,222.8 L 648.7,181.4 L 660.1,176.5 L 654.5,164.6 L 666.5,161.3 L 661.5,137.4 L 673.9,129.9 L 644.0,107.4 L 643.3,97.2 L 631.4,97.7 L 629.5,129.6 L 623.8,117.3 L 595.2,126.0 L 584.0,172.9 L 555.5,172.6 L 544.3,192.1 L 538.3,178.6 L 529.5,183.8 L 535.0,206.0 L 526.2,206.7 L 517.2,228.9 Z " fill="#c8d54f" fill-rule="evenodd" stroke="#fff" stroke-width="3" data-name="Machern" data-value="-22"></path></a><a xlink:href="/immobilienmarkt/sachsen/landkreis-leipzig/trebsen-mulde/wohnmarktsituation" target="_blank"><path d="M 640.2,357.0 L 665.5,373.6 L 656.1,404.2 L 676.4,391.7 L 702.2,413.6 L 720.2,405.8 L 732.9,413.1 L 739.3,399.4 L 749.6,411.2 L 760.5,404.5 L 799.8,424.4 L 796.1,400.5 L 784.5,391.5 L 807.0,370.5 L 814.3,375.1 L 806.4,349.0 L 825.9,338.7 L 821.4,323.4 L 812.2,321.4 L 793.2,334.7 L 764.9,338.0 L 767.4,335.2 L 768.2,332.6 L 743.5,348.2 L 719.2,349.2 L 715.8,331.5 L 683.4,310.3 L 675.1,326.8 L 660.0,320.5 L 640.2,357.0 Z " fill="#dea764" fill-rule="evenodd" stroke="#fff" stroke-width="3" data-name="Trebsen Mulde" data-value="16"></path></a><a xlink:href="/immobilienmarkt/sachsen/landkreis-leipzig/parthenstein/wohnmarktsituation" target="_blank"><path d="M 526.7,478.7 L 574.6,494.8 L 622.1,495.1 L 637.4,509.9 L 659.0,488.2 L 669.5,497.1 L 646.8,374.4 L 610.1,361.7 L 614.9,367.8 L 598.2,371.0 L 594.9,388.5 L 576.9,404.5 L 581.1,420.6 L 569.1,443.4 L 548.3,437.8 L 552.1,462.6 L 526.7,478.7 Z " fill="#c8d54f" fill-rule="evenodd" stroke="#fff" stroke-width="3" data-name="Parthenstein" data-value="-23"></path></a><a xlink:href="/immobilienmarkt/sachsen/landkreis-leipzig/brandis/wohnmarktsituation" target="_blank"><path d="M 482.3,305.0 L 491.7,329.0 L 528.3,309.1 L 535.4,325.9 L 558.1,326.7 L 581.2,339.6 L 585.5,324.2 L 604.6,322.8 L 608.0,336.2 L 612.0,325.3 L 632.2,324.6 L 636.3,332.4 L 660.0,320.5 L 675.1,326.8 L 686.1,314.5 L 658.5,300.9 L 641.1,259.8 L 627.4,266.9 L 618.2,245.2 L 583.2,247.8 L 582.2,235.3 L 567.1,250.9 L 557.3,248.3 L 515.4,268.6 L 482.3,305.0 Z " fill="#c8d54f" fill-rule="evenodd" stroke="#fff" stroke-width="3" data-name="Brandis" data-value="-38"></path></a><a xlink:href="/immobilienmarkt/sachsen/landkreis-leipzig/markkleeberg/wohnmarktsituation" target="_blank"><path d="M 219.3,410.3 L 229.3,436.1 L 267.5,440.9 L 278.0,459.4 L 306.9,445.1 L 309.4,451.8 L 335.0,449.9 L 358.2,434.9 L 359.3,419.1 L 376.9,407.1 L 376.3,374.2 L 354.5,367.7 L 338.0,370.3 L 333.8,381.9 L 318.6,374.1 L 306.5,380.8 L 284.1,352.5 L 275.4,366.4 L 255.7,346.8 L 258.7,373.5 L 242.5,398.3 L 248.1,403.0 L 225.8,397.5 L 219.3,410.3 Z " fill="#c8d54f" fill-rule="evenodd" stroke="#fff" stroke-width="3" data-name="Markkleeberg" data-value="-34"></path></a><a xlink:href="/immobilienmarkt/sachsen/landkreis-leipzig/geithain/wohnmarktsituation" target="_blank"><path d="M 596.2,858.2 L 601.5,872.4 L 624.8,880.8 L 647.0,868.9 L 651.3,853.6 L 708.9,888.2 L 732.9,865.2 L 727.6,848.2 L 736.1,838.3 L 716.2,820.6 L 716.7,801.7 L 727.2,786.9 L 727.3,773.2 L 752.9,751.9 L 719.6,735.4 L 702.3,758.6 L 722.6,789.6 L 710.8,797.2 L 706.4,791.2 L 703.0,805.7 L 668.5,792.9 L 648.4,801.7 L 627.9,793.8 L 616.2,813.7 L 603.2,814.9 L 614.5,847.8 L 610.2,857.1 L 596.2,858.2 Z " fill="#f47979" fill-rule="evenodd" stroke="#fff" stroke-width="3" data-name="Geithain" data-value="79"></path></a><a xlink:href="/immobilienmarkt/sachsen/landkreis-leipzig/kitzscher/wohnmarktsituation" target="_blank"><path d="M 452.6,596.9 L 457.3,611.6 L 481.8,612.2 L 474.0,628.4 L 477.7,663.3 L 493.6,663.0 L 510.5,674.6 L 503.8,673.9 L 509.4,683.8 L 511.4,670.4 L 524.9,661.4 L 539.2,667.9 L 549.6,662.6 L 526.5,637.6 L 535.5,593.6 L 539.6,585.6 L 549.5,589.4 L 549.5,575.4 L 531.2,570.9 L 542.6,561.7 L 540.2,551.2 L 521.0,528.8 L 474.1,528.2 L 459.3,563.3 L 483.6,573.7 L 456.8,585.5 L 452.6,596.9 Z " fill="#ff6384" fill-rule="evenodd" stroke="#fff" stroke-width="3" data-name="Kitzscher" data-value="132"></path></a><a xlink:href="/immobilienmarkt/sachsen/landkreis-leipzig/regis-breitingen/wohnmarktsituation" target="_blank"><path d="M 256.9,748.2 L 257.5,769.2 L 267.7,781.1 L 286.1,786.8 L 309.6,773.2 L 330.4,795.3 L 347.7,784.0 L 381.0,786.3 L 397.0,750.1 L 374.4,730.2 L 331.7,744.0 L 336.7,690.8 L 312.5,704.0 L 307.8,684.2 L 277.8,699.6 L 279.6,736.0 L 262.9,735.0 L 256.9,748.2 Z " fill="#f47979" fill-rule="evenodd" stroke="#fff" stroke-width="3" data-name="Regis Breitingen" data-value="70"></path></a><a xlink:href="/immobilienmarkt/sachsen/landkreis-leipzig/boehlen/wohnmarktsituation" target="_blank"><path d="M 251.5,520.8 L 256.3,546.1 L 287.3,554.5 L 318.1,610.4 L 341.2,608.1 L 358.9,595.1 L 339.3,583.6 L 313.8,550.0 L 310.6,499.5 L 320.0,497.2 L 320.3,482.0 L 327.8,490.0 L 339.6,484.1 L 319.6,451.2 L 306.9,445.1 L 279.7,453.1 L 277.0,466.8 L 258.8,481.2 L 265.4,505.0 L 251.9,509.6 L 251.5,520.8 Z " fill="#e9906e" fill-rule="evenodd" stroke="#fff" stroke-width="3" data-name="Böhlen" data-value="40"></path></a><a xlink:href="/immobilienmarkt/sachsen/landkreis-leipzig/belgershain/wohnmarktsituation" target="_blank"><path d="M 462.1,455.8 L 489.5,486.2 L 501.1,486.8 L 509.5,501.3 L 500.0,509.0 L 512.2,509.3 L 521.7,526.6 L 551.1,515.2 L 559.0,502.3 L 555.1,487.7 L 527.0,480.1 L 552.1,462.6 L 548.3,437.8 L 538.1,438.1 L 554.5,414.5 L 531.2,408.6 L 526.0,394.3 L 506.9,405.4 L 471.5,405.1 L 462.1,455.8 Z " fill="#d3be59" fill-rule="evenodd" stroke="#fff" stroke-width="3" data-name="Belgershain" data-value="-53"></path></a><a xlink:href="/immobilienmarkt/sachsen/landkreis-leipzig/otterwisch/wohnmarktsituation" target="_blank"><path d="M 520.7,532.2 L 559.1,565.6 L 578.1,559.9 L 571.4,583.8 L 637.5,560.1 L 649.3,529.5 L 622.1,495.1 L 555.1,487.7 L 559.0,502.3 L 551.1,515.2 L 520.7,532.2 Z " fill="#d3be59" fill-rule="evenodd" stroke="#fff" stroke-width="3" data-name="Otterwisch" data-value="-41"></path></a><a xlink:href="/immobilienmarkt/sachsen/landkreis-leipzig/borsdorf/wohnmarktsituation" target="_blank"><path d="M 441.4,217.9 L 454.3,244.6 L 475.2,241.4 L 478.3,253.4 L 491.1,257.5 L 490.1,269.2 L 476.4,276.9 L 496.3,291.2 L 538.3,256.9 L 517.2,228.9 L 526.2,206.7 L 535.0,206.0 L 529.6,188.5 L 500.8,199.6 L 486.3,191.7 L 441.4,217.9 Z " fill="#c8d54f" fill-rule="evenodd" stroke="#fff" stroke-width="3" data-name="Borsdorf" data-value="-24"></path></a><a xlink:href="/immobilienmarkt/sachsen/landkreis-leipzig/elstertrebnitz/wohnmarktsituation" target="_blank"><path d="M 60.1,657.9 L 123.1,676.3 L 142.3,637.5 L 128.7,624.2 L 119.6,627.5 L 122.8,615.8 L 81.5,611.2 L 62.6,620.3 L 60.1,657.9 Z " fill="#d3be59" fill-rule="evenodd" stroke="#fff" stroke-width="3" data-name="Elstertrebnitz" data-value="-11"></path></a></svg>