<?xml version="1.0" standalone="no"?>
<!DOCTYPE svg PUBLIC "-//W3C//DTD SVG 20010904//EN"
 "http://www.w3.org/TR/2001/REC-SVG-20010904/DTD/svg10.dtd">
<svg version="1.0" xmlns="http://www.w3.org/2000/svg"
 width="933.000000pt" height="1280.000000pt" viewBox="0 0 933.000000 1280.000000"
 preserveAspectRatio="xMidYMid meet">
<metadata>
Created by potrace 1.15, written by Peter Selinger 2001-2017
</metadata>
<g transform="translate(0.000000,1280.000000) scale(0.100000,-0.100000)"
fill="#000000" stroke="none">
<path d="M2610 12573 c-87 -196 -99 -237 -102 -368 -3 -111 -2 -120 16 -123
18 -4 19 1 13 81 -6 76 -5 87 14 111 23 29 50 34 69 11 18 -21 45 -19 88 8 20
13 56 27 79 31 l43 6 32 -67 c18 -38 33 -72 34 -78 1 -5 9 -32 18 -60 22 -71
20 -110 -7 -137 -24 -24 -86 -55 -122 -60 -11 -2 -21 -11 -23 -21 -4 -22 28
-23 91 -1 34 12 49 22 53 40 3 13 15 26 25 29 13 5 19 16 19 38 l0 32 18 -28
c10 -15 34 -38 52 -52 18 -13 51 -50 72 -81 21 -30 53 -71 71 -91 44 -48 41
-59 -12 -55 -58 5 -100 -14 -107 -47 -3 -14 -8 -34 -11 -44 -4 -16 2 -18 54
-15 57 3 58 3 78 45 11 23 26 45 34 48 17 7 18 6 26 -26 5 -21 -2 -36 -40 -82
-25 -31 -56 -59 -68 -61 -12 -2 -49 -9 -83 -15 -33 -6 -83 -11 -110 -11 -45 0
-52 -3 -62 -25 -16 -35 -17 -35 25 -35 35 0 36 -1 17 -15 -10 -8 -28 -15 -39
-15 -18 0 -20 -6 -19 -46 1 -38 7 -51 30 -70 37 -30 52 -30 76 1 15 20 28 25
63 25 32 0 47 -5 54 -18 11 -22 0 -128 -18 -160 -10 -20 -10 -28 5 -50 38 -58
50 -65 85 -53 36 12 49 8 49 -18 0 -10 7 -32 16 -50 10 -19 13 -42 9 -58 -6
-25 -7 -25 -75 -19 l-69 7 34 -88 c19 -48 48 -106 63 -128 l28 -40 144 -6 c80
-4 153 -10 163 -14 35 -15 15 -23 -45 -18 -50 4 -80 0 -146 -22 -74 -24 -95
-26 -197 -23 l-114 3 -44 48 -43 48 -41 -16 c-35 -14 -44 -25 -71 -83 -16 -37
-33 -76 -37 -87 -11 -30 -55 -208 -55 -222 0 -12 45 -114 76 -175 23 -44 -2
-36 -112 37 -54 36 -104 65 -112 65 -39 0 -68 -29 -80 -80 -18 -78 -17 -80 28
-80 l40 0 0 -58 c0 -58 -1 -60 -48 -99 l-48 -40 -29 44 c-26 38 -34 43 -57 39
-23 -4 -28 0 -41 32 -8 20 -14 38 -13 38 0 1 20 4 44 7 23 2 44 6 45 8 2 2 8
17 15 33 12 26 9 34 -33 105 -25 43 -45 82 -45 88 0 5 -14 35 -31 66 l-31 57
-92 0 c-51 0 -118 -5 -147 -10 -30 -6 -70 -13 -89 -16 -19 -2 -51 -9 -70 -16
-19 -6 -115 -13 -212 -17 l-178 -6 -75 -75 -75 -74 0 -62 c0 -59 -2 -63 -32
-83 -32 -19 -33 -23 -44 -118 -7 -65 -7 -109 -1 -130 l10 -33 81 -1 c137 -2
156 -17 120 -102 -14 -35 -18 -79 -19 -267 -2 -253 -3 -255 -92 -385 -40 -59
-41 -64 -47 -165 -8 -142 -18 -230 -24 -230 -3 0 -44 7 -91 16 -82 15 -224 13
-235 -4 -2 -4 6 -33 19 -65 l24 -57 -34 0 c-19 0 -37 -5 -41 -11 -10 -17 18
-132 37 -149 9 -9 63 -26 120 -39 82 -19 109 -22 132 -13 27 10 29 9 43 -25 9
-20 25 -49 37 -65 l21 -28 -23 -68 c-23 -65 -23 -69 -7 -100 17 -32 16 -32 -9
-42 -15 -6 -31 -10 -36 -10 -6 0 -19 -19 -29 -42 -24 -54 -101 -115 -157 -124
-37 -6 -47 -14 -83 -66 -23 -32 -41 -60 -39 -62 2 -1 29 -20 59 -41 30 -21 59
-42 64 -46 11 -10 -41 -113 -66 -128 -16 -10 -23 -9 -39 5 -17 15 -24 16 -62
5 -23 -7 -64 -27 -92 -43 -52 -32 -77 -37 -132 -23 -31 7 -33 6 -33 -19 0 -14
-2 -26 -5 -26 -3 0 -55 23 -117 50 -61 28 -112 49 -114 47 -2 -2 2 -17 8 -35
7 -17 10 -34 7 -37 -3 -3 -27 3 -53 12 -44 17 -49 17 -60 2 -6 -9 -37 -22 -69
-29 -31 -7 -57 -15 -57 -18 0 -3 14 -27 31 -54 29 -45 30 -50 15 -67 -22 -25
-21 -29 17 -39 28 -7 32 -13 35 -44 3 -29 10 -41 42 -62 35 -23 39 -29 34 -56
-5 -25 0 -38 32 -77 22 -26 45 -59 53 -73 45 -81 45 -81 35 -151 -5 -37 -6
-80 -2 -96 9 -31 -17 -75 -99 -167 -42 -47 -43 -50 -43 -117 0 -75 6 -81 63
-60 14 6 27 7 30 4 13 -12 -9 -35 -72 -74 -45 -27 -77 -56 -95 -85 -32 -50
-38 -52 -57 -23 -13 18 -17 19 -42 8 -28 -13 -28 -9 -11 -106 l6 -33 64 0 64
0 0 -39 c0 -34 4 -40 31 -51 27 -12 30 -17 25 -43 -3 -16 -6 -38 -6 -48 0 -14
-7 -19 -25 -19 -22 0 -25 -4 -25 -35 0 -28 -4 -35 -20 -35 -11 0 -20 -6 -20
-13 0 -8 9 -22 20 -32 11 -10 20 -31 20 -46 0 -33 32 -59 71 -59 29 0 60 -41
83 -110 8 -26 17 -36 36 -38 52 -6 53 -10 10 -62 l-42 -51 23 -49 c23 -49 24
-50 71 -50 41 0 49 -4 69 -32 18 -25 23 -44 21 -86 -1 -29 -4 -58 -7 -63 -4
-5 3 -22 14 -38 26 -36 27 -51 3 -51 -10 0 -29 -12 -43 -26 -13 -15 -46 -41
-74 -59 -76 -50 -91 -69 -76 -102 11 -25 10 -29 -12 -45 -17 -12 -23 -25 -20
-38 3 -11 -2 -31 -10 -44 -10 -15 -17 -49 -18 -88 -2 -73 24 -144 72 -194 17
-17 29 -35 27 -40 -9 -32 108 -152 142 -146 9 1 27 -9 40 -23 16 -18 34 -25
59 -25 57 0 63 -9 56 -76 -5 -48 -12 -65 -38 -92 -21 -21 -32 -44 -33 -64 -1
-21 -11 -40 -27 -54 -27 -23 -30 -41 -28 -161 l1 -61 53 -7 c51 -7 107 -43
107 -70 0 -6 11 -22 25 -35 16 -15 25 -34 25 -53 0 -17 14 -49 33 -76 18 -25
40 -63 50 -83 9 -21 21 -38 27 -38 5 0 10 -15 10 -32 0 -47 8 -54 71 -61 66
-8 86 5 75 49 -7 25 -5 26 19 20 15 -4 33 -2 39 3 9 8 25 5 54 -9 23 -11 46
-20 52 -20 5 0 9 -3 8 -7 -1 -5 2 -29 6 -55 7 -38 12 -48 27 -48 12 0 19 7 19
19 0 32 19 34 54 7 25 -18 51 -27 100 -32 46 -5 66 -3 66 4 0 7 16 18 35 26
25 11 35 21 35 37 0 20 3 21 48 14 56 -8 62 -11 62 -32 0 -9 15 -35 33 -59 23
-31 39 -43 58 -44 14 0 39 -11 55 -25 23 -19 40 -25 79 -25 28 0 56 5 63 12
10 10 19 8 43 -6 23 -14 41 -16 78 -11 43 6 53 3 102 -28 30 -19 69 -45 87
-56 21 -13 50 -21 78 -21 24 0 44 -3 44 -6 0 -3 -12 -20 -26 -37 -14 -17 -39
-60 -55 -96 -17 -36 -35 -77 -42 -91 -7 -14 -38 -42 -70 -63 -42 -29 -57 -45
-57 -62 0 -16 -19 -39 -60 -75 -75 -65 -103 -121 -101 -205 2 -49 -3 -71 -27
-115 -24 -45 -29 -69 -31 -130 -2 -60 -6 -78 -21 -90 -10 -8 -22 -27 -26 -43
-3 -15 -10 -30 -15 -33 -5 -3 -9 -14 -9 -24 0 -11 -22 -62 -50 -113 -43 -81
-50 -102 -50 -150 0 -38 7 -71 22 -102 21 -43 21 -46 5 -80 -9 -20 -17 -43
-17 -53 0 -9 -7 -26 -15 -36 -8 -11 -15 -38 -15 -60 -1 -23 -7 -52 -14 -65
-10 -18 -11 -32 -3 -54 7 -22 6 -37 -7 -63 -22 -47 -20 -70 8 -107 14 -18 30
-51 38 -75 13 -43 17 -45 61 -27 22 9 23 -12 0 -37 -15 -17 -15 -19 3 -33 13
-11 30 -13 54 -9 19 3 48 7 63 9 16 2 40 13 53 26 27 25 70 31 86 12 6 -7 7
-13 3 -13 -4 0 -2 -6 4 -13 6 -8 21 -13 33 -11 13 1 54 3 91 3 60 1 70 4 74
21 3 11 13 20 23 20 10 0 28 11 41 25 34 35 68 32 108 -9 39 -40 85 -51 161
-41 33 5 50 12 50 21 0 8 -4 14 -10 14 -22 0 -8 17 26 32 35 16 35 16 44 -8 5
-13 13 -24 18 -24 15 0 32 24 32 47 0 14 6 23 15 23 20 0 19 10 -4 39 -16 20
-23 23 -55 17 -20 -4 -40 -14 -43 -22 -8 -21 -49 -17 -79 9 -24 21 -25 26 -14
48 25 48 93 109 122 109 18 0 28 5 28 15 0 8 7 15 15 15 8 0 15 -9 15 -20 0
-11 7 -20 15 -20 8 0 15 7 15 15 0 25 33 16 58 -16 18 -22 21 -33 13 -43 -6
-7 -8 -16 -4 -19 3 -4 -1 -7 -9 -7 -9 0 -23 -11 -32 -25 l-16 -24 47 3 c25 2
57 -1 70 -7 30 -13 39 -3 25 28 -13 29 5 48 20 21 5 -9 16 -16 25 -16 11 0 14
-7 10 -25 -6 -32 24 -55 71 -55 54 0 109 70 67 86 -26 10 -16 21 14 16 23 -3
31 -10 33 -31 2 -19 9 -27 28 -29 23 -3 51 -12 90 -32 8 -4 24 -2 35 4 11 6
21 11 23 12 1 1 -4 14 -13 30 -8 16 -15 34 -15 41 0 7 -16 24 -35 39 -20 15
-33 29 -30 32 11 12 74 -34 89 -64 8 -18 28 -41 43 -51 15 -10 36 -26 45 -35
12 -12 34 -18 66 -18 68 -1 126 -30 147 -75 13 -26 26 -38 46 -42 16 -3 29 -9
29 -14 0 -5 6 -9 14 -9 7 0 19 -7 26 -15 8 -10 30 -15 61 -15 43 0 51 3 61 25
17 37 48 33 48 -5 0 -24 6 -33 27 -41 15 -6 35 -8 45 -6 10 3 21 1 24 -4 3 -5
18 -9 34 -9 20 0 31 -6 35 -20 3 -10 24 -33 46 -51 31 -24 40 -38 38 -58 -2
-14 5 -47 15 -73 21 -53 39 -60 90 -33 39 21 60 20 51 -2 -4 -10 -9 -34 -12
-53 -3 -19 -12 -44 -19 -55 -21 -30 -17 -35 28 -35 50 0 125 34 133 61 4 11
22 39 40 64 19 24 44 63 55 85 20 40 20 44 6 87 -14 40 -14 49 -1 80 12 28 19
34 32 27 10 -4 35 -9 56 -12 29 -3 41 0 55 18 16 20 20 21 67 9 28 -7 64 -23
81 -36 36 -27 52 -28 101 -8 33 14 38 14 52 0 15 -15 14 -17 -1 -29 -26 -19
-22 -34 12 -41 17 -4 30 -11 30 -17 0 -5 9 -23 20 -38 13 -19 18 -38 15 -56
-3 -17 1 -37 9 -48 14 -17 19 -18 77 -5 34 8 64 20 66 27 7 18 57 42 88 42 23
0 24 -2 15 -20 -15 -28 1 -26 58 10 36 22 62 30 95 30 51 0 61 13 55 73 -3 35
-7 33 112 54 42 7 46 12 70 61 l25 53 88 -7 c79 -6 91 -4 110 13 33 30 127 45
262 41 l120 -3 -3 24 c-2 13 -12 42 -22 65 l-18 42 39 21 39 21 0 -35 0 -36
43 7 c23 3 64 10 90 14 54 10 74 -2 97 -59 11 -26 17 -29 56 -29 40 0 46 3 60
34 13 27 24 35 53 40 54 9 56 9 95 -29 20 -19 44 -38 53 -43 14 -8 14 -12 -2
-35 -13 -21 -14 -30 -4 -49 19 -38 39 -56 85 -79 24 -11 44 -27 44 -34 0 -21
67 -30 97 -14 34 18 74 107 80 181 5 52 3 60 -27 102 -28 39 -40 47 -86 57
-47 11 -54 15 -54 36 0 25 37 89 64 112 9 7 16 24 16 37 0 33 -68 154 -101
182 -16 13 -33 41 -39 62 -7 26 -25 52 -54 77 l-44 38 51 55 c28 30 65 78 83
107 66 102 139 135 371 169 23 3 46 21 84 62 73 79 89 121 88 220 -2 71 1 84
22 111 26 33 59 40 79 16 7 -8 28 -15 47 -15 22 0 50 -11 78 -30 52 -36 62
-37 70 -7 4 12 17 36 30 52 31 42 46 112 44 205 -1 48 3 86 10 94 9 11 7 19
-12 38 -13 13 -41 54 -61 91 -34 61 -41 67 -69 67 -28 0 -38 9 -79 65 -41 56
-52 65 -79 65 -20 0 -37 -8 -48 -22 l-18 -21 -37 22 c-24 15 -36 30 -36 46 0
33 -48 115 -89 152 -24 22 -46 32 -68 33 -18 0 -33 5 -33 11 0 6 -28 39 -62
74 -35 34 -85 95 -113 134 -27 39 -58 74 -70 77 -11 4 -32 15 -47 25 -19 14
-44 19 -91 19 -63 0 -66 1 -85 34 -11 19 -38 45 -59 57 -42 24 -63 68 -63 132
0 25 -6 37 -24 46 -16 9 -28 30 -40 72 -10 38 -21 59 -31 59 -11 0 -15 11 -15
43 0 39 -4 45 -60 90 -33 27 -60 51 -60 55 0 3 20 35 44 71 72 110 106 164
106 172 0 4 -15 17 -34 29 -30 18 -34 25 -30 53 4 31 2 34 -105 102 -142 91
-182 141 -196 250 -3 22 -19 76 -36 120 -46 121 -46 115 -11 115 25 0 32 -6
46 -40 11 -27 23 -41 41 -46 18 -4 24 -11 21 -23 -3 -9 7 -38 22 -66 21 -39
32 -50 52 -50 24 0 25 4 31 65 6 73 15 100 34 100 7 0 18 13 25 30 7 16 26 38
43 49 17 10 35 34 41 52 7 20 19 34 31 36 80 13 107 14 135 4 30 -10 34 -8 61
20 24 26 35 30 58 26 18 -4 31 -2 33 5 3 8 21 1 49 -18 68 -46 73 -46 119 -7
31 26 41 42 40 62 -1 14 -2 31 -1 37 1 7 32 14 72 18 82 8 101 23 128 97 16
41 19 44 49 41 18 -2 32 0 32 5 1 4 16 26 34 47 l33 39 35 -27 c19 -14 39 -26
45 -26 12 0 54 73 73 129 13 38 21 45 65 62 45 17 51 17 73 3 20 -13 32 -14
67 -5 24 6 56 8 72 5 15 -3 40 -1 56 5 22 8 27 17 27 43 1 29 6 36 45 56 25
12 61 22 81 22 24 0 80 22 169 65 79 39 145 65 164 65 27 0 34 5 47 35 7 19
14 36 14 39 0 2 -34 23 -75 45 -41 23 -75 46 -75 52 0 5 9 28 20 49 l20 40 38
-17 c21 -10 64 -18 102 -19 36 -1 82 -9 104 -18 37 -15 38 -18 33 -54 -3 -20
-8 -44 -11 -52 -3 -8 -2 -21 3 -29 7 -11 14 -10 40 8 34 24 35 22 22 -46 -10
-50 0 -63 46 -63 22 0 36 -6 43 -20 8 -15 21 -20 49 -20 38 0 38 1 65 68 15
37 37 86 47 109 11 23 22 50 24 60 2 10 18 57 34 105 17 47 34 115 37 150 4
39 18 85 35 120 40 79 39 94 -13 333 -16 73 -27 92 -62 105 -17 7 -54 23 -83
36 -28 13 -57 24 -62 24 -14 0 -14 54 0 140 l12 69 -42 66 c-22 36 -59 94 -82
129 -46 74 -47 68 30 165 l51 64 0 76 c0 46 7 94 17 124 l17 47 -31 28 c-31
26 -32 31 -36 117 -7 144 -12 156 -74 157 -39 0 -41 2 -67 60 -48 110 -46 139
20 220 25 31 50 108 59 183 l6 50 -68 45 c-37 25 -109 85 -159 133 -51 48
-138 121 -193 162 l-101 75 0 74 0 74 43 34 c23 18 51 41 61 50 11 10 24 18
28 18 5 0 26 28 48 62 38 58 40 65 40 142 0 74 3 86 40 158 l41 78 -21 67
c-11 37 -27 77 -34 88 -13 19 -25 74 -31 134 -1 14 -12 80 -23 146 -12 66 -31
190 -43 275 -11 85 -24 159 -28 163 -4 4 -32 -2 -61 -13 -77 -30 -128 -17
-236 61 -47 34 -87 65 -89 70 -3 4 16 11 42 14 27 3 60 13 75 21 17 9 57 14
122 14 l96 0 0 56 0 57 -107 114 c-66 71 -122 122 -148 134 -67 32 -115 78
-140 136 -22 49 -27 54 -52 51 -22 -2 -29 -9 -31 -31 -2 -16 -8 -26 -15 -24
-7 2 -11 14 -10 25 2 13 -5 26 -16 31 -15 8 -27 4 -57 -17 -22 -15 -74 -38
-116 -52 -43 -13 -78 -27 -78 -32 0 -16 -15 -7 -38 23 -20 24 -22 32 -11 45
10 12 9 18 -4 32 -13 12 -20 13 -28 5 -9 -9 -34 8 -101 65 -88 76 -97 95 -35
72 64 -23 178 -50 188 -45 5 4 9 28 9 55 l0 49 75 35 c113 52 104 53 155 -14
24 -33 48 -60 51 -60 4 0 20 26 37 57 l30 58 -44 55 c-24 30 -62 66 -84 80
-38 23 -41 28 -38 65 3 33 10 44 48 73 25 19 46 38 48 42 1 4 -6 28 -17 53
l-20 47 -118 0 -118 0 -22 32 -22 31 25 19 c16 13 24 30 24 49 0 34 0 34 -88
13 -79 -20 -122 -54 -122 -97 0 -15 -11 -43 -25 -61 -26 -34 -32 -56 -16 -56
18 0 71 78 71 104 0 16 6 26 14 26 12 0 11 -10 -2 -62 -19 -72 -24 -78 -69
-78 -18 0 -33 -4 -33 -9 0 -5 25 -29 56 -54 l55 -46 -55 -37 c-31 -20 -56 -40
-56 -43 0 -4 18 -18 40 -31 27 -17 40 -32 40 -47 0 -21 -5 -23 -53 -23 l-53 0
-11 -40 c-9 -36 -8 -42 9 -54 23 -16 21 -59 -2 -64 -19 -3 -40 52 -49 133 -7
59 -33 125 -50 125 -5 0 -39 -25 -77 -56 -96 -79 -154 -101 -154 -59 0 38
-130 66 -182 39 -16 -8 -28 -10 -28 -5 0 6 13 17 30 26 22 11 63 15 173 15
127 0 146 2 160 18 10 10 17 21 17 24 0 3 -72 9 -160 13 -158 7 -160 8 -216
41 -31 19 -62 34 -68 34 -11 0 -27 -24 -69 -101 -7 -13 -41 -62 -76 -109 -44
-59 -78 -93 -112 -112 -46 -27 -159 -131 -159 -148 0 -11 -50 -29 -95 -33 -22
-2 -53 -10 -70 -17 -93 -38 -110 -41 -190 -35 l-80 6 -92 -73 c-76 -60 -93
-78 -93 -100 0 -38 12 -35 54 14 30 35 36 38 36 21 0 -27 -31 -83 -47 -83 -6
0 -21 -12 -32 -27 -19 -27 -20 -27 -21 -6 0 34 -35 39 -76 11 -33 -21 -35 -26
-31 -65 4 -41 4 -41 -20 -30 -22 10 -27 8 -43 -13 -18 -24 -19 -24 -40 -5 -15
14 -19 26 -15 47 6 25 4 28 -19 28 -19 0 -27 6 -32 25 -6 24 -10 25 -73 25
-63 0 -71 -3 -146 -50 -78 -49 -80 -50 -85 -28 -5 19 -13 23 -52 26 -44 3 -47
5 -62 43 -16 39 -16 42 5 77 13 21 24 39 25 41 2 2 17 -2 34 -9 30 -13 33 -11
78 32 26 24 70 59 98 76 74 46 78 60 71 202 l-7 121 30 26 c29 24 30 26 14 44
-22 24 -41 24 -49 0 -7 -24 -49 -32 -72 -15 -39 30 -76 17 -160 -57 -27 -23
-57 -39 -83 -43 -37 -6 -45 -2 -122 55 -45 33 -109 75 -143 91 -33 17 -74 41
-91 54 -50 38 -120 27 -181 -29 -20 -18 -23 -18 -29 -3 -3 9 -3 32 1 52 5 30
2 41 -16 60 -18 19 -33 24 -75 24 -51 0 -128 -16 -187 -39 -29 -11 -47 -8 -47
10 0 5 6 9 13 9 26 0 126 75 140 105 9 20 15 65 16 128 1 92 -1 98 -22 107
l-22 9 24 0 c15 1 21 6 18 14 -10 27 -119 187 -126 187 -5 0 -14 -15 -22 -32
-7 -18 -14 -35 -16 -37 -1 -2 -33 16 -70 41 -38 24 -88 50 -113 57 -71 20 -75
24 -72 65 5 48 -8 46 -67 -9 -26 -25 -53 -45 -59 -45 -6 0 -17 -7 -26 -15 -13
-14 -16 -13 -26 5 -15 28 -46 25 -66 -5 -15 -23 -23 -26 -63 -23 -40 3 -46 6
-47 26 -1 12 -3 24 -5 26 -2 2 -51 21 -109 42 -103 38 -107 38 -265 40 -88 2
-177 6 -197 10 -31 5 -38 4 -38 -9 0 -16 -11 -19 -112 -32 -65 -8 -122 8 -136
40 -24 53 -7 114 44 154 18 14 25 27 21 41 -4 15 0 20 14 20 10 0 19 7 19 15
0 11 -11 15 -40 15 -37 0 -40 -2 -60 -47z"/>
<path d="M2740 12123 c-14 -2 -41 -8 -61 -13 -32 -9 -38 -15 -44 -46 -3 -20
-5 -37 -3 -38 41 -30 59 -36 115 -36 70 0 83 11 83 72 0 29 -5 37 -32 49 -18
8 -44 13 -58 12z"/>
<path d="M2552 12001 c-18 -22 -32 -43 -32 -46 0 -4 14 -26 32 -49 17 -22 33
-43 35 -45 4 -7 53 29 53 39 0 6 -12 29 -26 51 -17 28 -24 49 -20 65 9 35 -6
29 -42 -15z"/>
<path d="M2930 11933 c1 -19 19 -35 34 -30 26 10 19 37 -9 37 -14 0 -25 -3
-25 -7z"/>
<path d="M7301 11808 c-7 -40 -16 -94 -20 -120 -6 -36 -5 -48 4 -48 15 0 45
102 45 152 0 22 7 41 20 53 23 21 18 35 -14 35 -21 0 -24 -7 -35 -72z"/>
<path d="M2750 11824 c0 -20 24 -44 45 -44 28 0 29 3 15 31 -10 17 -60 28 -60
13z"/>
<path d="M2860 11762 c-19 -9 -37 -17 -38 -19 -2 -1 -1 -20 3 -42 7 -40 8 -41
45 -41 39 0 40 1 55 52 8 28 15 55 15 60 0 13 -42 8 -80 -10z"/>
<path d="M5236 11714 c-25 -32 -36 -57 -36 -80 0 -33 2 -34 38 -34 45 0 58 -8
71 -41 9 -26 13 -27 108 -31 54 -3 99 -4 101 -3 2 2 -16 46 -40 98 l-43 95
-60 16 c-33 8 -70 18 -81 22 -18 5 -29 -4 -58 -42z"/>
<path d="M8085 11300 c-3 -5 1 -10 9 -10 9 0 16 5 16 10 0 6 -4 10 -9 10 -6 0
-13 -4 -16 -10z"/>
<path d="M7940 11220 c0 -11 4 -20 9 -20 11 0 22 26 14 34 -12 12 -23 5 -23
-14z"/>
<path d="M2102 11158 c3 -7 17 -14 32 -16 19 -2 27 0 24 9 -2 7 -17 14 -32 16
-20 3 -27 0 -24 -9z"/>
<path d="M2659 10773 c-12 -15 -12 -16 4 -10 10 4 25 7 33 7 8 0 14 5 14 10 0
16 -36 11 -51 -7z"/>
<path d="M2720 10720 c0 -16 5 -21 23 -18 12 2 22 10 22 18 0 8 -10 16 -22 18
-18 3 -23 -2 -23 -18z"/>
<path d="M2093 10503 c-7 -2 -13 -11 -13 -19 0 -11 16 -14 65 -14 70 0 84 12
34 29 -33 11 -65 13 -86 4z"/>
<path d="M1934 10483 c-6 -5 -14 -18 -18 -30 -6 -20 -4 -23 19 -23 40 0 126
31 122 44 -4 13 -106 20 -123 9z"/>
<path d="M1714 10415 c-7 -19 -14 -37 -14 -40 0 -13 39 -3 55 15 14 15 31 20
73 20 45 0 53 3 48 16 -3 9 -6 18 -6 20 0 2 -32 4 -71 4 l-70 0 -15 -35z"/>
<path d="M1623 10400 c-36 -15 -27 -30 17 -30 33 0 40 3 40 20 0 22 -19 25
-57 10z"/>
<path d="M1403 10383 c-15 -3 -23 -12 -23 -24 0 -15 7 -19 35 -19 59 0 176 23
172 35 -4 10 -142 17 -184 8z"/>
<path d="M1193 10316 c-142 -22 -97 -44 52 -26 80 10 102 16 98 26 -6 16 -47
16 -150 0z"/>
<path d="M953 10204 c-33 -14 -58 -46 -45 -59 12 -12 73 -35 93 -35 13 0 18 6
16 22 -1 17 5 24 31 31 38 12 42 34 6 47 -33 13 -62 11 -101 -6z"/>
</g>
</svg>
