<?xml version="1.0" encoding="UTF-8"?>
<svg id="Ebene_1" xmlns="http://www.w3.org/2000/svg" version="1.1" viewBox="0 0 801.1 1017.8">
  <!-- Generator: Adobe Illustrator 29.8.3, SVG Export Plug-In . SVG Version: 2.1.1 Build 3)  -->
  <defs>
    <style>
      .st0 {
        fill: #ffe000;
      }

      .st1 {
        fill: #fff;
      }

      .st2 {
        fill: #486b7a;
      }
    </style>
  </defs>
  <path class="st2" d="M350.6,981.4c-72.4-88.5-143.5-181.2-213.3-273.5C69,617.4,8,547.4.8,426.2-23.8,14,515.1-162,738.4,184.7c69.8,108.4,83.2,247.6,30.8,366.3-21.5,48.6-55.2,90.2-87,132.3-83,109.7-169.6,217.4-255.1,325-26.2,17.1-48.2,10.2-67.4-12.2-3.9-4.6-6.4-11.5-9-14.6h-.1ZM426.3,178.1c-12.7-10.4-23.3-18.9-40.5-10.4-68.2,63.8-141.8,121.9-209.2,186.4l-1.6,221.9c1.8,11.9,9.1,20.9,21.6,21.6,27.6,1.5,41.1-49.6,81.4-44.7,27.9,3.4,75.1,63.5,98.9,81.5,3.3,2,9.8,4.2,13.5,3.2s38.3-34.6,44-40.1c65-61.9,126-128.3,190.5-190.7.6-14.9,5.3-48.8-3-60.4-57.5-49.9-116.4-98.1-174.3-147.5-7.4-6.3-13.7-14.5-21.3-20.7h0ZM598.5,617.1c26.2-28.1,51.5-57.1,78.7-84.3,19.4-32.9-20-79.3-54.4-50.3-12.7,10.7-29.2,29.4-42,42-58.8,57.3-115.3,117.3-174.1,174.4-3.5,3.4-7.5,6.3-11.7,8.9-1.6.2-12.8-9-15-11-26.3-22.9-53.2-54.9-79.9-75.9-38.8-30.6-78,21.6-56.5,52.4l132.3,128c10.2,9.6,24.5,12.2,37.4,6.6,64-60.6,124.9-126.1,185.2-190.9h0Z"/>
  <path class="st1" d="M426.3,178.1c7.6,6.2,13.9,14.4,21.3,20.7,57.9,49.4,116.8,97.6,174.3,147.5,8.3,11.7,3.6,45.5,3,60.4-64.5,62.4-125.5,128.8-190.5,190.7-5.7,5.4-41.2,39.3-44,40.1s-10.2-1.2-13.5-3.2c-23.8-18-71-78.1-98.9-81.5-40.3-4.9-53.8,46.2-81.4,44.7-12.6-.7-19.8-9.6-21.6-21.6l1.6-221.9c67.4-64.5,141.1-122.5,209.2-186.4,17.2-8.5,27.7,0,40.5,10.4h0ZM467.5,518.9c2.3-2.3,4.4-9.3,4.7-12.7,1.8-16,2.3-92.7-1-105.7-2.1-8.1-8-13.4-16.4-14.3-25.2-2.9-85.1-2.4-110.8,0-25.2,2.3-16.9,28.4-17.2,46.2-.3,17.4-1.7,36.1-1.2,53.4.4,14.1-3.1,35.6,16.4,37.9,25.2,2.9,85.1,2.4,110.8,0s11.7-1.8,14.7-4.8Z"/>
  <path class="st0" d="M598.5,617.1c-60.3,64.7-121.3,130.2-185.2,190.9-12.9,5.6-27.2,2.9-37.4-6.6l-132.3-128c-21.6-30.8,17.6-83,56.5-52.4,26.7,21,53.6,53,79.9,75.9,2.3,2,13.5,11.2,15,11,4.2-2.6,8.2-5.4,11.7-8.9,58.8-57.1,115.3-117.1,174.1-174.4,12.9-12.5,29.4-31.3,42-42,34.4-29,73.8,17.4,54.4,50.3-27.2,27.2-52.5,56.2-78.7,84.3h0Z"/>
  <path class="st2" d="M467.5,518.9c-3,3-10.4,4.4-14.7,4.8-25.8,2.3-85.6,2.8-110.8,0-19.5-2.3-16-23.8-16.4-37.9-.5-17.3.9-36,1.2-53.4.3-17.8-7.9-43.9,17.2-46.2,25.7-2.3,85.7-2.9,110.8,0,8.4,1,14.3,6.2,16.4,14.3,3.4,13,2.8,89.7,1,105.7s-2.5,10.4-4.7,12.7h0Z"/>
</svg>