<svg width="1000" height="728" viewBox="0 0 1000 728" xmlns="http://www.w3.org/2000/svg" xmlns:xlink="http://www.w3.org/1999/xlink" style="width: 100%; height: auto;">
        <style>
          path {
            transition: all 0.2s ease;
            transform-box: fill-box;
            transform-origin: center;
          }
          path:hover {
            stroke: #fff;
            stroke-width: 3;
            opacity: 0.85 !important;
            transform: scale(1.01);
          }
        </style>
        <a xlink:href="/immobilienmarkt/sachsen/landkreis-nordsachsen/belgern-schildau/grundstueckspreise" target="_blank"><path d="M 641.7,341.0 L 642.1,354.7 L 651.1,355.9 L 663.3,360.1 L 674.8,360.1 L 680.2,358.5 L 683.6,359.5 L 688.5,366.1 L 688.6,370.4 L 690.0,372.3 L 694.4,372.3 L 699.4,375.3 L 706.6,377.3 L 710.8,380.3 L 719.2,390.9 L 728.2,395.0 L 732.5,395.3 L 733.3,391.8 L 731.6,390.2 L 724.1,388.8 L 727.6,384.6 L 733.7,387.9 L 748.7,388.1 L 748.8,390.3 L 751.0,392.2 L 771.7,389.0 L 777.4,392.1 L 787.9,392.8 L 792.1,392.1 L 791.4,387.2 L 805.7,387.6 L 814.4,385.7 L 816.9,382.4 L 819.7,381.1 L 834.2,380.3 L 838.6,378.9 L 843.1,379.5 L 845.6,378.2 L 846.7,383.6 L 851.6,389.9 L 859.7,385.3 L 863.2,384.7 L 862.5,390.5 L 860.1,391.7 L 861.1,395.5 L 863.7,394.7 L 864.6,397.8 L 867.3,398.0 L 873.9,405.7 L 875.4,410.6 L 884.1,406.5 L 897.5,406.1 L 917.8,401.5 L 923.9,401.7 L 923.8,403.2 L 925.9,404.2 L 941.2,404.3 L 946.0,406.5 L 944.5,412.6 L 946.4,413.7 L 946.0,416.8 L 948.1,417.2 L 947.5,419.6 L 957.2,417.8 L 956.2,415.9 L 967.1,411.1 L 966.1,407.5 L 967.0,402.0 L 969.2,398.3 L 971.3,398.5 L 972.4,390.7 L 969.5,393.0 L 968.0,390.8 L 960.6,388.4 L 959.5,385.6 L 960.5,379.5 L 971.5,370.7 L 973.0,370.1 L 976.6,373.0 L 977.0,366.3 L 984.9,356.6 L 987.7,344.6 L 986.0,339.4 L 974.1,331.1 L 968.1,322.6 L 967.7,313.7 L 971.8,299.6 L 971.1,296.1 L 967.4,290.4 L 960.4,287.3 L 955.0,287.5 L 944.4,291.3 L 936.2,297.0 L 933.3,309.6 L 929.7,312.0 L 926.3,312.0 L 922.5,309.6 L 919.4,299.0 L 921.0,299.0 L 922.3,295.2 L 919.3,290.2 L 912.2,289.7 L 901.4,282.3 L 888.9,280.2 L 885.3,274.2 L 884.8,268.3 L 892.1,257.7 L 900.1,251.8 L 900.0,249.5 L 891.6,244.2 L 886.9,243.1 L 884.4,243.4 L 877.6,254.5 L 870.6,262.2 L 863.9,266.5 L 859.6,284.1 L 860.3,288.6 L 862.8,292.1 L 858.1,293.8 L 850.4,292.1 L 853.3,300.1 L 848.6,302.6 L 841.5,304.5 L 838.3,295.7 L 816.4,303.4 L 792.5,300.8 L 774.6,307.7 L 773.7,304.9 L 756.3,306.6 L 756.2,309.1 L 745.6,311.6 L 744.9,314.8 L 738.5,311.9 L 740.0,308.2 L 737.6,299.3 L 733.2,299.0 L 726.2,306.5 L 728.1,310.9 L 713.2,312.9 L 711.8,314.2 L 718.3,318.1 L 699.2,321.8 L 697.1,319.5 L 696.9,322.2 L 676.4,319.8 L 675.2,329.6 L 661.3,335.2 L 652.9,336.1 L 644.8,334.6 L 642.1,336.5 L 641.7,341.0 Z " fill="#cec854" fill-rule="evenodd" stroke="#fff" stroke-width="3" data-name="Belgern Schildau" data-value="75"></path></a><a xlink:href="/immobilienmarkt/sachsen/landkreis-nordsachsen/beilrode/grundstueckspreise" target="_blank"><path d="M 732.7,90.7 L 734.1,97.0 L 735.7,98.6 L 744.7,101.2 L 760.2,85.8 L 766.1,85.0 L 770.7,87.4 L 773.6,97.0 L 777.0,99.9 L 793.6,102.8 L 797.3,107.6 L 796.6,121.7 L 797.9,128.0 L 802.5,131.8 L 812.0,132.6 L 816.8,134.7 L 822.1,137.7 L 824.9,142.4 L 824.4,148.1 L 819.3,153.0 L 805.0,160.3 L 803.7,165.6 L 804.2,173.5 L 810.8,175.7 L 811.6,182.2 L 817.5,184.1 L 830.3,187.0 L 833.6,185.5 L 838.9,187.3 L 839.6,184.4 L 840.7,184.2 L 842.1,185.4 L 845.0,184.4 L 847.3,185.6 L 847.7,187.4 L 848.7,186.9 L 850.5,186.6 L 851.8,186.7 L 851.6,184.4 L 848.1,185.4 L 849.6,183.8 L 840.9,174.2 L 844.1,171.9 L 854.5,182.8 L 853.3,186.6 L 844.4,188.3 L 842.6,185.5 L 843.1,188.2 L 838.7,187.6 L 837.9,188.8 L 840.2,192.7 L 835.2,201.4 L 837.7,203.9 L 842.4,202.1 L 843.4,196.6 L 857.8,197.0 L 858.1,203.1 L 867.2,202.9 L 866.5,200.6 L 874.1,198.2 L 871.0,192.2 L 876.4,194.9 L 884.3,190.2 L 883.0,186.6 L 895.7,185.5 L 892.2,190.7 L 884.7,194.3 L 884.0,203.9 L 886.7,210.0 L 883.0,211.0 L 876.2,209.2 L 874.6,212.6 L 862.9,218.5 L 855.1,228.8 L 855.6,231.6 L 854.1,232.9 L 856.8,235.7 L 858.2,240.8 L 854.3,251.8 L 853.4,259.9 L 857.7,265.9 L 863.9,266.5 L 870.6,262.2 L 877.6,254.5 L 884.4,243.4 L 891.6,244.2 L 899.5,248.8 L 900.1,251.8 L 892.1,257.7 L 884.8,268.3 L 885.3,274.2 L 889.9,280.8 L 901.4,282.3 L 912.2,289.7 L 919.3,290.2 L 922.3,295.2 L 921.0,299.0 L 919.4,299.0 L 922.5,309.6 L 926.3,312.0 L 929.7,312.0 L 933.3,309.6 L 935.1,299.9 L 938.0,294.9 L 949.7,289.1 L 960.4,287.3 L 967.7,290.6 L 971.3,290.2 L 974.2,292.2 L 976.4,296.5 L 980.7,296.1 L 985.3,290.8 L 980.7,287.6 L 986.3,284.0 L 985.3,281.5 L 987.6,280.5 L 985.7,272.5 L 990.4,271.3 L 991.6,262.7 L 989.8,251.7 L 991.3,242.1 L 984.6,239.9 L 981.0,230.3 L 975.2,220.3 L 970.4,191.3 L 961.6,192.4 L 947.0,190.2 L 945.0,182.0 L 934.0,182.9 L 933.8,180.4 L 930.5,176.9 L 928.7,171.5 L 939.9,155.4 L 941.6,144.4 L 947.9,140.1 L 941.6,127.8 L 931.4,131.4 L 931.3,127.5 L 922.0,118.8 L 913.4,107.1 L 909.5,97.7 L 907.7,98.4 L 908.4,100.4 L 904.1,101.8 L 904.2,104.6 L 900.3,106.0 L 901.3,109.1 L 896.7,110.8 L 894.1,103.5 L 892.0,104.3 L 891.4,102.5 L 887.6,103.9 L 889.6,107.1 L 889.8,111.6 L 893.8,110.1 L 895.1,113.8 L 893.5,114.5 L 892.1,112.2 L 887.2,114.2 L 888.8,116.6 L 885.0,119.6 L 877.6,116.0 L 872.9,102.5 L 868.0,98.5 L 869.2,96.6 L 844.3,56.6 L 818.9,71.9 L 816.8,65.8 L 811.9,60.5 L 816.1,48.2 L 813.5,38.9 L 807.6,30.8 L 801.6,35.0 L 797.7,26.2 L 795.4,26.5 L 793.1,24.1 L 786.3,25.0 L 781.8,24.2 L 780.6,25.9 L 775.3,25.9 L 775.5,28.6 L 779.9,31.3 L 777.0,33.2 L 771.5,30.0 L 765.8,29.7 L 770.8,51.1 L 764.7,49.3 L 762.2,53.7 L 757.5,51.0 L 749.4,53.9 L 751.8,62.5 L 750.6,64.0 L 750.1,62.4 L 745.4,68.9 L 742.7,70.6 L 745.2,76.3 L 734.1,86.2 L 732.7,90.7 Z " fill="#cec854" fill-rule="evenodd" stroke="#fff" stroke-width="3" data-name="Beilrode" data-value="80"></path></a><a xlink:href="/immobilienmarkt/sachsen/landkreis-nordsachsen/dommitzsch/grundstueckspreise" target="_blank"><path d="M 522.1,116.8 L 526.2,130.8 L 524.3,130.7 L 526.6,131.7 L 528.7,137.6 L 533.8,137.0 L 539.7,138.7 L 560.2,122.4 L 576.7,120.7 L 571.4,139.5 L 589.2,167.1 L 586.8,169.2 L 588.7,180.4 L 624.1,178.2 L 618.5,172.9 L 615.3,163.6 L 612.3,159.1 L 622.9,158.2 L 627.3,162.7 L 631.4,162.6 L 642.9,158.1 L 646.3,154.7 L 653.3,154.7 L 666.0,161.2 L 669.1,165.9 L 666.6,167.5 L 666.6,174.8 L 669.5,177.6 L 679.2,178.0 L 687.9,176.7 L 684.5,159.2 L 688.5,155.3 L 693.8,157.9 L 691.9,151.9 L 693.3,149.5 L 696.8,151.0 L 701.0,145.5 L 703.5,145.6 L 705.8,142.4 L 711.3,145.9 L 714.0,145.7 L 712.3,154.1 L 719.1,154.9 L 720.1,157.6 L 730.9,158.1 L 736.5,153.7 L 739.7,152.7 L 739.8,151.4 L 754.6,147.6 L 759.1,148.9 L 763.0,147.2 L 764.4,145.1 L 768.5,144.7 L 767.6,132.4 L 773.0,126.7 L 780.7,125.4 L 784.8,129.9 L 782.7,135.2 L 779.0,139.4 L 782.6,145.0 L 785.7,146.7 L 789.6,145.8 L 790.0,142.0 L 795.9,137.9 L 798.7,140.7 L 804.4,134.8 L 812.4,137.0 L 813.0,135.9 L 808.2,134.1 L 808.0,132.7 L 802.5,131.8 L 797.9,128.0 L 796.6,121.7 L 797.3,107.6 L 793.6,102.8 L 777.0,99.9 L 773.6,97.0 L 770.7,87.4 L 766.1,85.0 L 760.2,85.8 L 744.7,101.2 L 735.7,98.6 L 732.8,93.0 L 734.1,86.2 L 745.2,76.3 L 738.0,60.7 L 732.7,55.4 L 726.7,53.1 L 717.2,54.8 L 717.6,59.3 L 715.8,61.8 L 710.9,58.1 L 705.9,58.7 L 701.6,56.7 L 695.3,49.4 L 695.3,45.3 L 696.7,46.5 L 698.9,39.2 L 699.3,33.5 L 697.7,30.5 L 693.8,27.5 L 692.7,27.1 L 684.7,39.3 L 677.5,40.4 L 674.0,44.4 L 671.4,45.4 L 670.4,44.5 L 672.9,43.2 L 670.3,40.8 L 669.2,35.8 L 672.1,31.6 L 667.6,30.7 L 666.3,26.7 L 667.8,17.6 L 666.3,15.6 L 664.7,19.5 L 662.9,18.8 L 665.0,13.7 L 663.5,11.4 L 661.8,8.8 L 660.2,9.9 L 656.6,5.8 L 655.2,6.4 L 652.9,1.4 L 650.8,0.0 L 647.4,4.8 L 644.0,3.7 L 640.4,6.1 L 635.7,4.4 L 635.8,7.5 L 639.5,13.4 L 634.1,14.8 L 628.1,18.6 L 626.5,21.8 L 621.9,24.9 L 616.3,27.3 L 602.5,29.7 L 599.7,32.2 L 592.8,47.4 L 584.0,56.9 L 576.2,58.1 L 576.7,55.7 L 575.0,54.6 L 562.1,52.5 L 559.0,48.5 L 551.4,43.9 L 548.8,54.8 L 551.4,56.1 L 550.3,64.1 L 544.2,64.8 L 539.6,85.4 L 527.0,81.9 L 523.7,85.2 L 526.7,85.4 L 522.1,116.8 Z " fill="#daaf60" fill-rule="evenodd" stroke="#fff" stroke-width="3" data-name="Dommitzsch" data-value="117"></path></a><a xlink:href="/immobilienmarkt/sachsen/landkreis-nordsachsen/torgau/grundstueckspreise" target="_blank"><path d="M 612.3,159.1 L 615.3,163.6 L 618.5,172.9 L 624.1,178.2 L 625.7,187.4 L 627.5,188.2 L 633.2,185.2 L 631.6,191.8 L 636.0,203.4 L 635.2,209.6 L 640.7,208.7 L 653.6,211.6 L 662.3,210.4 L 673.9,202.4 L 678.2,202.9 L 681.4,212.5 L 679.2,212.4 L 679.7,215.1 L 685.5,217.8 L 709.2,219.8 L 717.8,223.0 L 708.5,230.7 L 709.4,236.6 L 713.8,234.6 L 714.8,236.0 L 720.2,235.1 L 728.8,244.9 L 730.4,252.0 L 720.2,259.3 L 721.7,260.1 L 721.3,263.3 L 722.5,266.1 L 736.4,278.2 L 736.9,286.7 L 732.6,290.7 L 731.6,294.4 L 733.2,299.0 L 737.6,299.3 L 740.0,308.2 L 738.5,311.9 L 744.9,314.8 L 745.6,311.6 L 756.2,309.1 L 756.3,306.6 L 773.7,304.9 L 774.6,307.7 L 792.5,300.8 L 816.4,303.4 L 838.3,295.7 L 841.5,304.5 L 853.3,300.1 L 850.4,292.1 L 858.1,293.8 L 862.8,292.1 L 860.3,288.6 L 859.6,284.1 L 863.9,266.5 L 857.7,265.9 L 853.4,259.9 L 854.3,251.8 L 858.2,240.8 L 856.8,235.7 L 854.1,232.9 L 855.6,231.6 L 855.1,228.8 L 862.9,218.5 L 874.6,212.6 L 876.2,209.2 L 883.0,211.0 L 886.7,210.0 L 884.0,203.9 L 884.7,194.3 L 892.2,190.7 L 895.7,185.5 L 883.0,186.6 L 884.3,190.2 L 876.4,194.9 L 871.0,192.2 L 874.1,198.2 L 866.5,200.6 L 867.2,202.9 L 858.1,203.1 L 857.8,197.0 L 843.4,196.6 L 842.4,202.1 L 837.7,203.9 L 835.2,201.4 L 840.2,192.7 L 837.9,188.8 L 838.7,187.6 L 843.1,188.2 L 842.6,185.5 L 844.4,188.3 L 853.3,186.6 L 854.7,184.1 L 844.1,171.9 L 840.9,174.2 L 849.6,183.8 L 848.1,185.4 L 851.6,184.4 L 851.8,186.7 L 847.7,187.4 L 847.3,185.6 L 845.0,184.4 L 842.1,185.4 L 840.7,184.2 L 839.6,184.4 L 838.9,187.3 L 833.6,185.5 L 830.3,187.0 L 817.5,184.1 L 811.6,182.2 L 810.8,175.7 L 804.2,173.5 L 803.7,165.6 L 805.0,160.3 L 819.3,153.0 L 824.4,148.1 L 824.9,142.4 L 822.1,137.7 L 812.0,132.6 L 808.0,132.7 L 808.2,134.1 L 813.0,135.9 L 812.4,137.0 L 804.4,134.8 L 798.7,140.7 L 795.9,137.9 L 790.0,142.0 L 789.6,145.8 L 785.7,146.7 L 782.6,145.0 L 779.0,139.4 L 782.7,135.2 L 784.8,129.9 L 780.7,125.4 L 773.0,126.7 L 768.8,130.1 L 767.3,139.8 L 768.9,142.0 L 768.5,144.7 L 764.4,145.1 L 763.0,147.2 L 759.1,148.9 L 754.6,147.6 L 739.8,151.4 L 739.7,152.7 L 736.5,153.7 L 730.9,158.1 L 720.1,157.6 L 719.1,154.9 L 712.3,154.1 L 714.0,145.7 L 711.3,145.9 L 705.8,142.4 L 703.5,145.6 L 701.0,145.5 L 696.8,151.0 L 693.3,149.5 L 691.9,151.9 L 693.8,157.9 L 688.5,155.3 L 684.5,159.2 L 687.9,176.7 L 679.2,178.0 L 669.5,177.6 L 666.6,174.8 L 666.2,171.2 L 666.6,167.5 L 669.1,165.9 L 668.6,164.3 L 666.0,161.2 L 653.3,154.7 L 646.3,154.7 L 642.9,158.1 L 631.4,162.6 L 627.3,162.7 L 622.9,158.2 L 612.3,159.1 Z " fill="#d4bb5a" fill-rule="evenodd" stroke="#fff" stroke-width="3" data-name="Torgau" data-value="95"></path></a><a xlink:href="/immobilienmarkt/sachsen/landkreis-nordsachsen/mockrehna/grundstueckspreise" target="_blank"><path d="M 547.3,196.6 L 548.0,198.2 L 556.7,202.2 L 562.9,236.4 L 565.4,240.6 L 565.5,242.5 L 563.3,244.6 L 565.0,246.9 L 564.1,259.9 L 567.7,270.3 L 576.8,271.9 L 584.4,276.3 L 583.1,280.5 L 583.9,284.9 L 586.4,288.1 L 586.4,295.4 L 580.9,296.3 L 580.7,299.3 L 575.4,299.2 L 574.9,302.9 L 570.6,305.2 L 569.9,309.5 L 575.0,321.7 L 577.5,322.9 L 577.5,326.5 L 578.9,327.8 L 581.2,327.5 L 583.0,332.4 L 589.3,331.6 L 598.9,325.6 L 605.7,325.8 L 607.1,327.2 L 607.4,333.2 L 622.7,338.9 L 625.7,349.9 L 637.4,354.2 L 642.1,354.7 L 641.7,341.0 L 642.1,336.5 L 643.7,335.1 L 646.2,334.5 L 652.9,336.1 L 661.3,335.2 L 675.2,329.6 L 676.4,319.8 L 696.9,322.2 L 697.1,319.5 L 699.2,321.8 L 713.0,319.7 L 718.3,318.1 L 711.8,314.8 L 713.2,312.9 L 728.1,310.9 L 726.2,306.5 L 733.2,299.3 L 731.6,294.4 L 732.6,290.7 L 736.9,286.7 L 736.4,278.2 L 722.5,266.1 L 721.3,263.3 L 721.7,260.1 L 720.2,259.3 L 730.4,252.0 L 728.8,244.9 L 720.2,235.1 L 714.8,236.0 L 713.8,234.6 L 709.4,236.6 L 708.5,230.7 L 717.8,223.0 L 709.2,219.8 L 685.5,217.8 L 679.7,215.1 L 679.2,212.4 L 681.4,212.5 L 678.2,202.9 L 673.9,202.4 L 662.3,210.4 L 653.6,211.6 L 640.7,208.7 L 635.2,209.6 L 636.0,203.4 L 631.6,191.8 L 633.2,185.2 L 627.5,188.2 L 625.7,187.4 L 624.1,178.2 L 588.7,180.4 L 565.3,175.1 L 564.0,177.5 L 559.4,178.8 L 549.5,188.3 L 552.3,189.8 L 552.2,190.9 L 547.3,196.6 Z " fill="#daaf60" fill-rule="evenodd" stroke="#fff" stroke-width="3" data-name="Mockrehna" data-value="115"></path></a><a xlink:href="/immobilienmarkt/sachsen/landkreis-nordsachsen/wermsdorf/grundstueckspreise" target="_blank"><path d="M 673.8,569.2 L 675.7,576.6 L 691.7,588.4 L 695.1,587.9 L 695.8,591.5 L 701.6,595.4 L 699.6,600.1 L 699.4,606.3 L 701.8,607.7 L 702.2,605.5 L 703.5,605.9 L 702.8,610.3 L 714.7,612.1 L 713.0,617.1 L 708.2,615.4 L 704.5,617.2 L 716.7,622.0 L 716.1,626.9 L 717.2,627.6 L 719.6,626.8 L 720.3,624.7 L 722.6,624.7 L 722.4,625.9 L 725.0,626.8 L 727.9,622.7 L 731.3,627.6 L 728.5,627.1 L 728.7,629.7 L 731.2,629.3 L 730.5,631.9 L 732.8,636.1 L 731.3,636.4 L 731.9,639.5 L 728.5,641.4 L 725.7,640.7 L 727.6,650.1 L 727.1,654.3 L 731.2,655.4 L 731.8,656.8 L 732.8,655.5 L 733.5,656.8 L 737.9,655.6 L 742.7,655.3 L 743.0,656.2 L 744.0,655.7 L 742.7,654.9 L 743.6,653.8 L 744.2,654.9 L 748.9,654.7 L 753.9,658.6 L 756.6,658.6 L 757.1,661.8 L 760.0,661.9 L 758.4,666.6 L 760.3,666.4 L 762.8,661.2 L 773.5,663.5 L 773.7,659.5 L 779.4,658.6 L 780.7,653.6 L 790.1,653.6 L 790.3,649.8 L 795.8,645.9 L 805.7,645.2 L 806.2,636.5 L 804.6,636.6 L 804.6,632.6 L 806.8,627.2 L 817.4,635.3 L 825.2,636.6 L 831.9,635.8 L 835.0,633.3 L 835.1,628.3 L 838.4,628.2 L 836.3,618.7 L 841.3,616.7 L 842.9,606.9 L 841.5,603.0 L 843.1,598.3 L 845.7,596.0 L 843.5,596.2 L 842.1,593.9 L 836.7,590.6 L 835.8,587.1 L 834.7,587.0 L 834.5,589.2 L 831.0,587.9 L 823.5,584.2 L 823.4,582.3 L 823.9,581.0 L 829.4,579.4 L 830.4,576.1 L 837.5,573.2 L 835.8,562.6 L 832.6,562.2 L 831.1,555.4 L 830.5,538.8 L 827.7,538.8 L 826.6,537.6 L 822.6,523.7 L 802.5,510.5 L 800.0,509.2 L 799.7,510.6 L 785.3,503.4 L 785.4,505.0 L 779.7,504.7 L 779.9,507.8 L 774.1,508.3 L 773.4,497.5 L 756.8,497.8 L 757.6,500.0 L 753.6,502.1 L 743.3,502.1 L 737.3,505.1 L 737.7,506.8 L 730.3,507.1 L 729.7,501.1 L 723.0,496.9 L 711.5,496.4 L 712.0,501.7 L 709.0,506.3 L 701.6,508.9 L 702.3,512.7 L 700.8,514.3 L 703.5,516.9 L 701.3,529.8 L 701.6,539.9 L 709.1,544.4 L 695.3,545.7 L 681.0,552.6 L 683.6,556.8 L 675.8,568.3 L 673.8,569.2 Z " fill="#cec854" fill-rule="evenodd" stroke="#fff" stroke-width="3" data-name="Wermsdorf" data-value="81"></path></a><a xlink:href="/immobilienmarkt/sachsen/landkreis-nordsachsen/laussig/grundstueckspreise" target="_blank"><path d="M 401.2,171.3 L 404.3,179.4 L 409.7,179.4 L 417.0,182.4 L 418.7,184.4 L 418.0,187.3 L 414.8,189.4 L 414.2,193.1 L 421.7,205.4 L 426.4,206.9 L 434.5,200.8 L 436.4,197.3 L 439.5,204.9 L 445.5,211.3 L 445.7,214.0 L 444.4,215.8 L 443.3,215.2 L 442.6,218.3 L 443.7,222.8 L 447.3,226.5 L 444.2,232.3 L 439.4,233.3 L 435.7,228.2 L 432.1,226.0 L 427.5,229.2 L 426.8,233.5 L 431.6,241.3 L 439.3,247.9 L 437.3,254.3 L 442.5,261.3 L 443.4,266.2 L 444.7,266.6 L 449.5,263.7 L 446.4,261.1 L 451.6,254.8 L 456.0,260.8 L 460.8,257.9 L 460.6,256.5 L 465.4,256.9 L 468.3,254.7 L 468.8,252.0 L 473.1,249.2 L 474.6,250.6 L 476.4,249.5 L 484.5,258.4 L 496.8,249.8 L 506.1,233.1 L 511.5,228.2 L 508.6,226.2 L 501.3,225.1 L 496.9,222.7 L 498.4,214.4 L 473.3,200.6 L 472.3,199.2 L 476.1,188.2 L 474.6,187.1 L 475.0,184.0 L 477.1,183.8 L 477.4,187.1 L 479.8,190.3 L 486.8,188.5 L 485.4,185.3 L 490.2,185.8 L 492.0,184.3 L 496.1,187.8 L 495.9,192.8 L 497.2,194.8 L 500.5,192.5 L 500.3,190.1 L 503.7,187.6 L 508.6,188.8 L 513.9,197.4 L 516.0,198.6 L 527.2,195.7 L 532.6,197.6 L 534.5,196.8 L 532.6,190.0 L 541.5,190.3 L 548.8,183.5 L 551.6,186.0 L 559.4,178.8 L 564.0,177.5 L 565.3,175.1 L 588.5,180.4 L 586.8,169.2 L 589.2,167.1 L 571.4,139.5 L 576.7,120.7 L 560.2,122.4 L 539.7,138.7 L 533.8,137.0 L 528.7,137.6 L 526.6,131.7 L 524.3,130.7 L 526.2,130.8 L 522.1,116.8 L 526.7,85.4 L 523.7,85.2 L 527.0,81.9 L 539.6,85.4 L 544.2,64.8 L 550.3,64.1 L 551.4,56.1 L 548.8,54.8 L 551.4,43.9 L 545.6,43.2 L 536.6,37.6 L 522.2,33.9 L 515.0,37.3 L 508.7,33.8 L 502.8,36.1 L 496.4,44.7 L 494.5,54.7 L 490.7,59.1 L 489.4,56.6 L 487.2,58.2 L 489.9,60.1 L 485.0,65.2 L 485.8,71.9 L 484.0,80.9 L 482.2,80.5 L 481.7,82.9 L 475.9,82.6 L 472.3,88.8 L 468.3,90.6 L 468.5,96.8 L 459.3,98.5 L 459.7,99.6 L 456.3,100.2 L 455.9,102.4 L 444.2,104.6 L 435.8,109.1 L 432.7,109.5 L 429.9,111.9 L 433.9,118.7 L 437.2,116.1 L 439.6,120.8 L 436.9,123.2 L 441.2,128.6 L 446.0,125.8 L 453.6,125.4 L 451.8,136.0 L 463.2,138.5 L 457.0,140.6 L 455.5,143.7 L 461.2,140.8 L 461.8,143.4 L 453.5,146.2 L 446.4,146.5 L 440.6,149.8 L 446.4,153.5 L 445.3,155.8 L 446.1,156.3 L 446.9,152.2 L 450.7,152.5 L 448.9,159.4 L 441.2,162.9 L 433.7,158.0 L 433.6,151.0 L 428.5,146.9 L 425.3,154.5 L 421.8,152.4 L 418.9,156.4 L 419.5,160.4 L 414.9,160.6 L 414.9,165.6 L 404.5,164.6 L 404.1,168.9 L 401.2,171.3 Z " fill="#e0a266" fill-rule="evenodd" stroke="#fff" stroke-width="3" data-name="Laußig" data-value="136"></path></a><a xlink:href="/immobilienmarkt/sachsen/landkreis-nordsachsen/wiedemar/grundstueckspreise" target="_blank"><path d="M 0.0,339.7 L 4.1,342.1 L 4.3,350.1 L 9.2,350.4 L 9.5,351.7 L 9.2,360.6 L 5.4,360.4 L 5.4,363.2 L 9.0,364.1 L 8.2,376.6 L 33.8,383.0 L 34.9,397.3 L 36.0,397.4 L 42.5,396.7 L 44.4,390.9 L 45.6,391.4 L 48.8,388.3 L 53.8,388.8 L 55.7,380.8 L 56.0,374.8 L 51.7,373.4 L 53.7,367.8 L 40.3,366.5 L 38.3,359.9 L 38.3,356.1 L 41.8,356.7 L 42.1,355.3 L 43.3,355.5 L 42.9,350.0 L 45.2,350.2 L 46.0,344.4 L 44.8,345.0 L 44.1,340.8 L 45.3,339.1 L 51.6,337.0 L 52.4,343.3 L 55.3,343.0 L 56.0,348.1 L 65.6,348.0 L 65.4,343.2 L 68.0,342.6 L 67.7,341.3 L 79.4,342.8 L 79.3,345.1 L 81.3,344.9 L 81.5,348.0 L 83.3,348.3 L 86.4,353.0 L 94.7,356.6 L 100.5,361.4 L 99.4,364.2 L 107.5,365.9 L 108.4,363.7 L 110.9,364.3 L 112.0,358.4 L 120.2,359.1 L 119.9,357.5 L 132.7,356.0 L 135.7,349.2 L 141.1,350.7 L 143.4,344.5 L 156.6,351.8 L 150.5,305.7 L 139.6,301.1 L 137.5,291.7 L 146.6,279.2 L 137.2,276.2 L 132.1,272.9 L 138.0,269.4 L 141.5,269.1 L 141.7,262.3 L 140.6,262.0 L 138.8,256.0 L 137.9,248.0 L 134.1,248.1 L 134.4,245.5 L 132.0,245.4 L 135.5,230.3 L 131.4,230.0 L 131.3,234.2 L 117.8,233.9 L 117.8,216.3 L 134.1,212.3 L 132.5,198.6 L 137.2,196.7 L 135.6,191.8 L 137.6,190.7 L 135.0,187.7 L 127.8,186.3 L 113.8,188.3 L 99.3,187.4 L 95.5,190.3 L 93.8,184.0 L 94.6,183.6 L 89.8,178.0 L 87.1,179.2 L 82.6,185.9 L 79.1,186.8 L 80.4,194.0 L 81.6,194.0 L 81.8,199.0 L 77.7,199.2 L 77.6,207.5 L 65.8,208.3 L 69.5,211.8 L 57.5,215.5 L 57.7,218.9 L 54.4,219.3 L 55.1,225.6 L 49.4,226.7 L 49.8,231.4 L 42.2,231.4 L 43.2,240.6 L 39.9,241.3 L 39.8,248.7 L 44.0,252.3 L 42.6,265.8 L 39.7,266.7 L 40.1,270.0 L 46.3,269.9 L 46.6,276.0 L 55.5,274.9 L 55.2,282.3 L 52.4,282.2 L 53.0,292.3 L 49.1,293.2 L 51.1,300.8 L 25.5,305.3 L 26.4,316.8 L 25.5,323.9 L 23.3,324.1 L 23.4,326.4 L 13.8,327.6 L 13.6,330.2 L 6.6,331.2 L 4.4,334.3 L 0.2,333.9 L 0.0,339.7 Z " fill="#e6956c" fill-rule="evenodd" stroke="#fff" stroke-width="3" data-name="Wiedemar" data-value="142"></path></a><a xlink:href="/immobilienmarkt/sachsen/landkreis-nordsachsen/krostitz/grundstueckspreise" target="_blank"><path d="M 206.7,347.2 L 219.1,346.2 L 227.5,350.6 L 223.5,364.0 L 235.3,364.8 L 240.6,363.8 L 240.7,365.7 L 232.0,369.7 L 232.3,373.8 L 235.8,373.7 L 232.4,374.6 L 232.6,376.1 L 231.3,376.3 L 236.6,385.0 L 239.0,386.8 L 238.8,390.5 L 240.8,385.3 L 250.4,385.1 L 251.6,386.8 L 254.6,386.6 L 257.7,388.5 L 267.2,384.2 L 274.8,382.7 L 273.1,363.9 L 273.8,356.4 L 277.4,357.7 L 282.7,362.4 L 301.6,364.4 L 300.3,372.0 L 302.3,372.2 L 303.0,380.1 L 322.3,382.0 L 327.8,380.7 L 329.1,374.0 L 333.1,374.2 L 332.8,370.0 L 331.2,369.4 L 331.6,368.3 L 334.4,369.6 L 335.0,366.0 L 337.4,364.6 L 336.9,360.5 L 339.6,361.2 L 339.6,357.7 L 344.9,357.4 L 345.6,343.8 L 346.6,343.5 L 345.7,340.8 L 346.8,340.2 L 345.1,339.2 L 343.6,333.6 L 341.1,332.7 L 340.5,325.9 L 337.0,322.2 L 336.4,319.5 L 338.2,315.3 L 337.3,313.9 L 339.0,313.9 L 339.0,308.3 L 342.8,308.3 L 343.3,306.4 L 340.2,306.0 L 341.1,301.6 L 345.0,300.2 L 347.6,291.6 L 339.4,291.7 L 336.4,289.9 L 338.1,282.4 L 334.9,278.2 L 344.3,274.5 L 345.4,271.2 L 341.9,269.6 L 341.5,267.9 L 344.6,257.2 L 355.3,259.2 L 354.6,252.5 L 345.6,253.2 L 335.5,248.5 L 331.3,248.0 L 331.1,246.1 L 329.0,246.1 L 329.2,239.9 L 324.1,241.4 L 323.8,235.8 L 316.8,235.3 L 314.7,233.5 L 314.0,230.2 L 315.5,223.9 L 318.8,228.8 L 322.9,229.5 L 331.6,228.0 L 339.9,230.2 L 342.5,214.3 L 337.2,213.9 L 333.9,209.1 L 328.2,198.0 L 326.7,187.5 L 317.4,186.1 L 319.5,174.6 L 315.1,172.9 L 312.9,200.9 L 310.6,208.2 L 307.0,207.4 L 302.6,203.0 L 300.8,202.8 L 300.1,204.6 L 294.6,201.3 L 294.1,202.5 L 291.4,201.0 L 284.1,202.1 L 280.0,211.1 L 280.8,222.7 L 274.1,223.3 L 275.2,226.8 L 273.9,226.9 L 275.5,231.7 L 282.0,234.0 L 282.4,236.9 L 278.3,235.2 L 277.0,236.1 L 277.8,238.3 L 274.8,240.1 L 272.8,239.8 L 273.4,237.9 L 269.0,237.7 L 268.6,239.3 L 265.6,239.5 L 258.1,243.0 L 255.7,242.0 L 255.4,239.7 L 242.9,240.1 L 243.1,247.6 L 237.9,247.5 L 235.3,262.5 L 238.0,275.5 L 231.8,276.8 L 229.8,282.2 L 232.5,284.7 L 224.1,285.2 L 223.4,288.8 L 225.7,288.8 L 225.4,290.2 L 229.3,291.9 L 229.7,293.1 L 227.5,294.7 L 231.0,297.9 L 229.7,307.5 L 234.9,307.2 L 245.8,314.8 L 245.3,320.3 L 251.7,323.3 L 252.0,325.0 L 243.2,333.1 L 241.5,337.0 L 241.9,341.2 L 230.4,338.5 L 220.9,338.0 L 220.6,340.4 L 216.8,340.5 L 216.8,341.8 L 209.5,341.9 L 206.7,347.2 Z " fill="#f27c78" fill-rule="evenodd" stroke="#fff" stroke-width="3" data-name="Krostitz" data-value="179"></path></a><a xlink:href="/immobilienmarkt/sachsen/landkreis-nordsachsen/delitzsch/grundstueckspreise" target="_blank"><path d="M 117.7,231.3 L 117.8,233.9 L 131.3,234.2 L 131.4,230.0 L 135.5,230.3 L 132.0,245.4 L 134.4,245.5 L 134.1,248.1 L 137.9,248.0 L 138.8,256.0 L 140.6,262.0 L 141.7,262.3 L 141.5,269.1 L 138.0,269.4 L 132.1,273.1 L 137.2,276.2 L 146.6,279.2 L 137.5,291.7 L 139.6,301.1 L 150.5,305.7 L 163.5,306.3 L 176.1,304.0 L 176.3,307.1 L 180.2,307.1 L 183.5,305.3 L 179.8,297.9 L 182.2,296.8 L 181.5,295.1 L 183.4,294.3 L 183.1,292.4 L 192.3,291.5 L 192.7,298.1 L 198.4,298.0 L 197.8,291.7 L 209.0,290.6 L 212.3,288.6 L 224.5,290.5 L 225.7,288.8 L 223.4,288.8 L 224.1,285.2 L 232.5,284.7 L 229.8,282.2 L 231.8,276.8 L 238.0,275.5 L 235.3,262.5 L 237.9,247.5 L 243.1,247.6 L 242.9,240.1 L 255.4,239.7 L 255.7,242.0 L 258.1,243.0 L 265.6,239.5 L 268.6,239.3 L 269.0,237.7 L 273.4,237.9 L 272.8,239.8 L 274.8,240.1 L 277.8,238.3 L 277.0,236.1 L 278.3,235.2 L 282.4,236.9 L 282.0,234.0 L 275.5,231.7 L 273.9,226.9 L 275.2,226.8 L 274.1,223.3 L 280.8,222.7 L 280.0,211.1 L 284.1,202.1 L 281.4,200.2 L 283.2,196.9 L 278.8,192.4 L 270.8,189.4 L 264.2,185.0 L 238.1,187.6 L 237.4,183.9 L 231.8,182.1 L 226.0,174.0 L 223.1,176.3 L 208.3,167.6 L 207.1,165.2 L 207.1,154.6 L 186.9,147.9 L 186.5,152.0 L 180.0,150.7 L 176.4,147.9 L 176.0,151.0 L 182.5,154.4 L 182.2,156.2 L 179.0,159.0 L 177.1,157.5 L 172.0,159.5 L 161.9,160.4 L 159.9,161.9 L 160.0,163.9 L 161.5,164.1 L 161.1,166.4 L 157.7,168.7 L 153.6,176.2 L 143.1,180.2 L 139.1,178.2 L 138.8,180.8 L 135.5,181.0 L 136.3,185.1 L 135.0,187.7 L 137.6,190.7 L 135.6,191.8 L 137.2,196.7 L 132.5,198.6 L 134.1,212.3 L 117.8,216.3 L 117.7,231.3 Z " fill="#e6956c" fill-rule="evenodd" stroke="#fff" stroke-width="3" data-name="Delitzsch" data-value="150"></path></a><a xlink:href="/immobilienmarkt/sachsen/landkreis-nordsachsen/schkeuditz/grundstueckspreise" target="_blank"><path d="M 22.4,452.4 L 23.5,454.5 L 25.3,452.9 L 26.3,455.9 L 28.2,457.0 L 24.6,459.5 L 26.5,462.8 L 27.4,462.4 L 25.0,464.5 L 25.6,465.5 L 30.0,465.4 L 32.0,460.6 L 35.5,462.1 L 37.5,459.8 L 39.3,462.2 L 38.3,466.2 L 37.6,464.7 L 36.1,466.2 L 35.5,465.3 L 36.3,467.6 L 34.8,468.7 L 33.8,466.7 L 32.9,467.4 L 33.4,467.7 L 34.1,469.6 L 35.2,468.7 L 36.7,469.1 L 37.2,470.0 L 38.1,469.5 L 39.5,469.2 L 40.8,469.5 L 40.9,470.1 L 41.3,470.0 L 41.4,470.3 L 40.7,471.3 L 41.3,470.1 L 40.9,470.1 L 40.7,469.6 L 39.5,469.3 L 37.2,470.2 L 35.1,468.8 L 34.0,469.7 L 32.9,467.6 L 32.3,470.9 L 33.6,471.4 L 31.4,475.7 L 33.9,477.9 L 35.5,476.1 L 38.5,473.7 L 41.7,473.0 L 38.6,474.0 L 34.6,477.5 L 36.7,481.7 L 40.5,481.8 L 39.2,487.1 L 44.5,487.8 L 44.0,496.8 L 39.3,497.1 L 39.1,505.2 L 37.8,507.6 L 40.1,507.7 L 41.0,513.8 L 41.9,513.8 L 42.1,529.5 L 47.9,527.9 L 57.0,521.4 L 59.7,521.1 L 59.6,525.1 L 68.8,521.2 L 70.4,518.0 L 69.9,514.7 L 82.5,510.8 L 87.4,511.2 L 90.9,507.9 L 87.3,504.0 L 88.1,500.9 L 86.6,488.3 L 88.8,471.7 L 83.7,470.5 L 83.4,469.5 L 90.6,466.1 L 97.2,458.8 L 103.1,457.6 L 103.7,455.8 L 101.6,452.6 L 100.2,452.8 L 101.7,451.1 L 101.1,446.9 L 111.5,434.0 L 111.6,432.5 L 109.0,431.0 L 107.4,428.1 L 100.3,428.8 L 97.1,423.1 L 106.2,426.8 L 105.3,425.0 L 108.6,425.3 L 107.5,411.3 L 116.0,408.4 L 115.2,404.4 L 117.6,404.9 L 117.3,403.1 L 114.6,401.8 L 129.4,404.6 L 153.5,405.9 L 152.9,401.9 L 158.1,400.3 L 172.6,399.1 L 173.0,401.4 L 180.5,401.4 L 179.4,392.3 L 181.6,391.5 L 182.2,387.7 L 177.0,387.7 L 177.0,383.9 L 172.0,377.6 L 180.3,362.3 L 192.6,362.8 L 189.0,343.0 L 171.8,339.9 L 171.0,336.2 L 154.6,336.6 L 156.6,351.8 L 143.4,344.5 L 141.1,350.7 L 135.7,349.2 L 132.7,356.0 L 119.9,357.5 L 120.2,359.1 L 112.0,358.4 L 110.9,364.3 L 108.4,363.7 L 107.5,365.9 L 99.4,364.2 L 100.5,361.4 L 94.7,356.6 L 86.4,353.0 L 83.3,348.3 L 81.5,348.0 L 81.3,344.9 L 79.3,345.1 L 79.4,342.8 L 67.7,341.3 L 68.0,342.6 L 65.4,343.2 L 65.6,348.0 L 56.0,348.1 L 55.3,343.0 L 52.4,343.3 L 51.6,337.0 L 45.3,339.1 L 44.1,340.8 L 44.8,345.0 L 46.0,344.4 L 45.2,350.2 L 42.9,350.0 L 43.3,355.5 L 42.1,355.3 L 41.8,356.7 L 38.3,356.1 L 38.3,359.9 L 40.3,366.5 L 53.7,367.8 L 51.7,373.4 L 56.0,374.8 L 55.7,380.8 L 53.8,388.8 L 49.6,388.1 L 45.6,391.4 L 44.4,390.9 L 38.5,408.2 L 32.2,407.3 L 32.5,412.6 L 23.6,413.3 L 27.6,423.4 L 27.5,427.5 L 24.3,426.7 L 27.1,442.8 L 31.6,442.9 L 31.9,444.9 L 30.2,449.0 L 26.3,449.1 L 22.4,452.4 Z " fill="#ff6384" fill-rule="evenodd" stroke="#fff" stroke-width="3" data-name="Schkeuditz" data-value="249"></path></a><a xlink:href="/immobilienmarkt/sachsen/landkreis-nordsachsen/trossin/grundstueckspreise" target="_blank"><path d="M 522.1,116.8 L 526.2,130.8 L 524.3,130.7 L 526.6,131.7 L 528.7,137.6 L 533.8,137.0 L 539.7,138.7 L 560.2,122.4 L 576.7,120.7 L 571.4,139.5 L 589.2,167.1 L 586.8,169.2 L 588.7,180.4 L 624.1,178.2 L 618.5,172.9 L 615.3,163.6 L 612.3,159.1 L 622.9,158.2 L 627.3,162.7 L 631.4,162.6 L 642.9,158.1 L 646.3,154.7 L 653.3,154.7 L 666.0,161.2 L 669.1,165.9 L 666.6,167.5 L 666.6,174.8 L 669.5,177.6 L 679.2,178.0 L 687.9,176.7 L 684.5,159.2 L 688.5,155.3 L 693.8,157.9 L 691.9,151.9 L 693.3,149.5 L 696.8,151.0 L 701.0,145.5 L 703.5,145.6 L 717.5,124.9 L 707.2,117.2 L 698.1,115.3 L 682.4,120.7 L 656.9,87.8 L 657.7,82.7 L 652.4,82.3 L 652.7,80.4 L 644.3,80.6 L 643.3,77.9 L 635.4,75.1 L 622.8,74.8 L 619.1,76.1 L 616.7,62.2 L 611.6,59.0 L 614.8,50.5 L 612.7,49.6 L 623.4,37.3 L 616.0,32.5 L 615.5,27.1 L 603.0,29.5 L 599.7,32.2 L 592.8,47.4 L 584.0,56.9 L 576.2,58.1 L 576.7,55.7 L 575.0,54.6 L 562.1,52.5 L 559.0,48.5 L 551.4,43.9 L 548.8,54.8 L 551.4,56.1 L 550.3,64.1 L 544.2,64.8 L 539.6,85.4 L 527.0,81.9 L 523.7,85.2 L 526.7,85.4 L 522.1,116.8 Z " fill="#d4bb5a" fill-rule="evenodd" stroke="#fff" stroke-width="3" data-name="Troßin" data-value="92"></path></a><a xlink:href="/immobilienmarkt/sachsen/landkreis-nordsachsen/doberschuetz/grundstueckspreise" target="_blank"><path d="M 434.6,294.3 L 435.9,297.0 L 445.8,298.8 L 450.3,293.5 L 461.6,297.6 L 463.4,295.7 L 466.5,296.6 L 486.6,291.1 L 492.6,315.5 L 495.9,312.9 L 498.1,324.0 L 494.5,325.0 L 501.2,347.8 L 500.2,350.1 L 509.9,354.1 L 509.9,359.1 L 522.6,359.0 L 522.8,358.0 L 529.4,360.1 L 530.9,350.0 L 534.8,346.7 L 565.3,348.4 L 581.7,340.1 L 588.3,331.9 L 583.0,332.4 L 581.2,327.5 L 578.9,327.8 L 577.5,326.5 L 577.5,322.9 L 575.0,321.7 L 569.9,309.5 L 570.6,305.2 L 574.9,302.9 L 575.4,299.2 L 580.7,299.3 L 580.9,296.3 L 586.4,295.4 L 586.4,288.1 L 583.9,284.9 L 583.1,280.5 L 584.4,276.3 L 576.8,271.9 L 567.7,270.3 L 564.5,263.0 L 565.0,246.9 L 563.3,244.6 L 565.5,242.5 L 565.4,240.6 L 562.9,236.4 L 556.7,202.2 L 548.0,198.2 L 547.3,196.6 L 552.2,190.9 L 552.3,189.8 L 549.5,188.3 L 551.6,186.0 L 548.8,183.5 L 541.5,190.3 L 532.6,190.0 L 534.5,196.8 L 532.6,197.6 L 527.2,195.7 L 516.0,198.6 L 513.9,197.4 L 508.6,188.8 L 503.7,187.6 L 500.3,190.1 L 500.5,192.5 L 497.2,194.8 L 495.9,192.8 L 496.1,187.8 L 492.0,184.3 L 490.2,185.8 L 485.4,185.3 L 486.8,188.5 L 479.8,190.3 L 477.4,187.1 L 477.1,183.8 L 475.0,184.0 L 474.6,187.1 L 476.1,188.2 L 472.3,199.2 L 473.3,200.6 L 498.4,214.4 L 496.9,222.7 L 501.3,225.1 L 508.6,226.2 L 511.5,228.2 L 506.1,233.1 L 496.8,249.8 L 484.5,258.4 L 476.4,249.5 L 474.6,250.6 L 473.1,249.2 L 468.8,252.0 L 468.3,254.7 L 465.4,256.9 L 460.6,256.5 L 460.8,257.9 L 456.0,260.8 L 451.6,254.8 L 446.4,261.1 L 449.5,263.7 L 443.9,266.4 L 440.5,271.6 L 436.9,274.3 L 435.0,278.4 L 439.2,280.9 L 440.4,280.1 L 440.3,276.9 L 444.2,277.0 L 446.9,280.4 L 446.5,283.5 L 442.1,285.4 L 439.1,290.5 L 434.6,294.3 Z " fill="#f27c78" fill-rule="evenodd" stroke="#fff" stroke-width="3" data-name="Doberschütz" data-value="185"></path></a><a xlink:href="/immobilienmarkt/sachsen/landkreis-nordsachsen/dahlen/grundstueckspreise" target="_blank"><path d="M 705.3,449.5 L 709.5,451.3 L 710.8,459.9 L 714.1,461.4 L 713.0,461.9 L 711.4,460.4 L 711.6,465.3 L 713.6,465.3 L 715.6,471.7 L 720.9,471.7 L 723.0,467.4 L 729.4,468.1 L 730.6,477.5 L 735.8,477.1 L 739.1,478.4 L 740.2,487.1 L 735.9,487.5 L 733.6,497.8 L 729.7,501.1 L 730.3,507.1 L 737.7,506.8 L 737.3,505.1 L 743.3,502.1 L 753.6,502.1 L 757.6,500.0 L 756.8,497.8 L 773.4,497.5 L 774.1,508.3 L 779.9,507.8 L 779.7,504.7 L 785.4,505.0 L 785.3,503.4 L 787.0,503.8 L 799.7,510.6 L 800.0,509.2 L 802.5,510.5 L 822.6,523.7 L 826.6,537.6 L 827.7,538.8 L 830.5,538.8 L 830.7,551.0 L 832.1,556.6 L 833.3,556.4 L 832.8,552.1 L 846.9,551.0 L 847.2,545.7 L 849.0,544.7 L 855.8,546.2 L 857.4,531.4 L 844.1,530.7 L 842.9,527.4 L 844.2,522.7 L 849.6,521.0 L 854.8,517.9 L 854.3,516.8 L 862.7,517.2 L 864.9,516.2 L 861.2,506.9 L 853.2,505.2 L 853.1,501.7 L 846.5,505.2 L 845.5,508.1 L 842.0,510.1 L 839.8,510.0 L 838.3,507.8 L 834.8,507.6 L 830.5,488.3 L 826.2,487.3 L 827.5,482.5 L 820.3,479.3 L 822.3,464.2 L 830.5,466.9 L 832.4,466.5 L 835.9,462.1 L 836.6,463.2 L 844.7,464.5 L 844.7,462.4 L 835.2,461.7 L 833.2,459.8 L 825.4,460.5 L 815.4,446.5 L 819.0,433.6 L 824.1,433.7 L 822.8,429.7 L 822.9,427.5 L 824.4,426.6 L 823.4,424.6 L 821.0,424.2 L 822.7,421.1 L 822.1,416.7 L 825.4,414.9 L 824.1,414.1 L 825.2,409.0 L 828.0,405.3 L 831.1,403.5 L 832.3,397.1 L 829.9,395.8 L 829.6,390.0 L 831.4,385.5 L 833.0,385.3 L 833.4,383.4 L 838.3,379.0 L 819.7,381.1 L 816.9,382.4 L 814.4,385.7 L 805.7,387.6 L 791.4,387.2 L 792.1,392.1 L 787.9,392.8 L 777.4,392.1 L 771.7,389.0 L 751.0,392.2 L 748.8,390.3 L 748.7,388.1 L 733.7,387.9 L 727.6,384.6 L 724.1,388.8 L 731.6,390.2 L 733.3,391.8 L 732.5,395.3 L 723.3,393.4 L 725.6,404.7 L 728.5,408.0 L 730.4,407.1 L 731.3,404.1 L 736.2,404.2 L 736.1,406.8 L 739.4,408.6 L 740.6,407.5 L 742.8,409.5 L 739.4,412.9 L 743.5,414.6 L 741.1,417.3 L 732.2,419.9 L 732.9,423.4 L 736.9,422.6 L 738.9,429.3 L 738.8,436.6 L 727.0,434.4 L 725.5,437.7 L 722.3,438.8 L 719.0,428.6 L 706.9,429.6 L 706.0,436.7 L 708.4,437.2 L 709.9,443.6 L 706.9,444.3 L 705.3,449.5 Z " fill="#d4bb5a" fill-rule="evenodd" stroke="#fff" stroke-width="3" data-name="Dahlen" data-value="101"></path></a><a xlink:href="/immobilienmarkt/sachsen/landkreis-nordsachsen/cavertitz/grundstueckspreise" target="_blank"><path d="M 815.3,446.1 L 825.4,460.5 L 833.2,459.8 L 835.2,461.7 L 844.7,462.4 L 844.7,464.5 L 836.6,463.2 L 835.9,462.1 L 832.4,466.5 L 830.5,466.9 L 822.3,464.2 L 821.4,466.1 L 821.6,475.5 L 820.3,479.3 L 827.5,482.5 L 826.2,487.3 L 830.5,488.3 L 834.8,507.6 L 838.3,507.8 L 839.8,510.0 L 845.5,508.1 L 846.5,505.2 L 853.1,501.7 L 879.0,491.3 L 907.5,468.9 L 943.5,460.9 L 957.6,465.6 L 958.9,463.4 L 963.1,465.5 L 967.7,465.2 L 966.8,463.4 L 968.5,457.3 L 972.7,454.5 L 971.4,449.2 L 973.2,448.9 L 972.5,447.0 L 973.6,446.2 L 975.0,448.3 L 976.6,447.1 L 974.9,436.7 L 981.4,433.7 L 985.1,435.6 L 985.2,432.5 L 982.8,429.4 L 986.5,427.7 L 986.9,423.1 L 988.6,421.6 L 985.4,418.7 L 983.9,411.7 L 985.4,411.7 L 987.9,414.5 L 991.1,422.1 L 993.5,422.0 L 985.1,401.2 L 987.4,389.4 L 986.7,383.0 L 982.9,378.1 L 976.5,374.3 L 971.7,380.6 L 971.3,383.5 L 973.8,388.0 L 971.3,398.5 L 969.2,398.3 L 967.0,402.0 L 966.1,407.5 L 967.1,411.1 L 956.2,415.9 L 957.2,417.8 L 947.5,419.6 L 948.1,417.2 L 946.0,416.8 L 946.4,413.7 L 944.5,412.6 L 946.0,406.5 L 941.2,404.3 L 925.9,404.2 L 923.8,403.2 L 923.9,401.7 L 917.8,401.5 L 897.5,406.1 L 884.1,406.5 L 875.4,410.6 L 873.9,405.7 L 867.3,398.0 L 864.6,397.8 L 863.7,394.7 L 861.1,395.5 L 860.1,391.7 L 862.5,390.5 L 863.2,384.7 L 859.7,385.3 L 851.6,389.9 L 846.7,383.6 L 845.6,378.2 L 843.1,379.5 L 838.3,379.0 L 833.4,383.4 L 833.0,385.3 L 831.4,385.5 L 829.6,390.0 L 829.9,395.8 L 832.3,397.1 L 831.1,403.5 L 828.0,405.3 L 825.2,409.0 L 824.1,414.1 L 825.4,414.9 L 822.1,416.7 L 822.7,421.1 L 821.0,424.2 L 823.4,424.6 L 824.4,426.6 L 822.9,427.5 L 822.8,429.7 L 824.1,433.7 L 819.0,433.6 L 815.3,446.1 Z " fill="#d4bb5a" fill-rule="evenodd" stroke="#fff" stroke-width="3" data-name="Cavertitz" data-value="95"></path></a><a xlink:href="/immobilienmarkt/sachsen/landkreis-nordsachsen/zschepplin/grundstueckspreise" target="_blank"><path d="M 314.0,230.2 L 314.7,233.5 L 316.8,235.3 L 323.8,235.8 L 324.1,241.4 L 329.2,239.9 L 329.0,246.1 L 331.1,246.1 L 331.3,248.0 L 335.5,248.5 L 345.6,253.2 L 354.6,252.5 L 355.3,259.2 L 344.6,257.2 L 341.5,267.9 L 341.9,269.6 L 345.4,271.2 L 344.3,274.5 L 334.9,278.2 L 338.1,282.4 L 336.4,289.9 L 339.4,291.7 L 347.6,291.6 L 345.0,300.2 L 341.1,301.6 L 340.2,306.0 L 343.3,306.4 L 342.8,308.3 L 339.0,308.3 L 339.0,313.9 L 337.3,313.9 L 340.8,318.5 L 361.6,318.3 L 372.0,314.7 L 385.3,316.8 L 385.8,314.6 L 389.9,319.9 L 391.3,319.5 L 393.3,333.2 L 397.5,331.4 L 398.5,323.4 L 405.2,319.4 L 417.8,323.0 L 419.0,316.1 L 422.8,315.0 L 421.0,305.0 L 426.5,304.4 L 428.6,298.6 L 435.3,296.4 L 434.8,293.1 L 439.1,290.5 L 442.1,285.4 L 446.5,283.5 L 446.7,279.7 L 443.0,276.6 L 440.3,276.9 L 439.8,280.7 L 435.2,279.4 L 436.4,275.1 L 443.3,268.4 L 443.9,266.4 L 442.5,261.3 L 437.1,253.7 L 439.3,247.9 L 431.6,241.3 L 426.8,233.5 L 427.5,229.2 L 432.1,226.0 L 435.7,228.2 L 439.4,233.3 L 444.2,232.3 L 447.3,225.8 L 443.7,222.8 L 442.7,217.4 L 443.3,215.2 L 444.4,215.8 L 445.4,214.5 L 445.8,211.8 L 439.5,204.9 L 436.4,197.3 L 434.5,200.8 L 426.4,206.9 L 421.3,205.0 L 417.7,197.2 L 414.2,193.1 L 414.8,189.4 L 418.3,187.0 L 417.9,183.1 L 409.7,179.4 L 404.3,179.4 L 401.2,171.3 L 404.1,168.9 L 404.5,164.6 L 399.9,162.9 L 396.7,163.6 L 394.6,167.6 L 391.4,166.7 L 388.0,170.1 L 386.3,183.1 L 385.2,183.0 L 382.9,187.3 L 378.5,184.7 L 374.0,186.1 L 369.5,198.4 L 366.2,199.2 L 363.3,216.5 L 359.3,215.9 L 358.5,213.9 L 344.5,213.3 L 342.5,214.3 L 339.9,230.2 L 331.6,228.0 L 322.9,229.5 L 318.8,228.8 L 315.5,223.9 L 314.0,230.2 Z " fill="#e6956c" fill-rule="evenodd" stroke="#fff" stroke-width="3" data-name="Zschepplin" data-value="150"></path></a><a xlink:href="/immobilienmarkt/sachsen/landkreis-nordsachsen/liebschuetzberg/grundstueckspreise" target="_blank"><path d="M 842.9,527.4 L 844.1,530.7 L 849.4,530.2 L 853.8,531.8 L 867.7,528.9 L 874.9,529.5 L 883.0,527.2 L 885.1,528.7 L 895.7,530.1 L 895.9,534.5 L 889.4,536.3 L 891.3,541.1 L 889.9,541.4 L 890.0,542.8 L 891.1,544.5 L 895.9,542.7 L 897.5,546.8 L 899.9,545.9 L 900.6,548.4 L 903.5,544.6 L 904.3,547.8 L 908.3,546.2 L 906.3,538.6 L 919.9,543.5 L 927.9,544.3 L 928.4,545.6 L 944.3,546.7 L 947.0,542.1 L 946.5,559.5 L 947.5,558.8 L 947.9,560.0 L 945.6,561.8 L 946.0,562.6 L 941.7,564.5 L 941.7,567.4 L 939.4,568.5 L 941.5,574.1 L 931.3,581.2 L 931.1,584.5 L 942.2,587.6 L 943.2,595.0 L 949.6,601.1 L 950.0,604.1 L 946.7,605.9 L 947.8,622.3 L 960.2,619.0 L 960.2,617.9 L 978.0,614.9 L 983.2,611.6 L 991.8,609.5 L 991.1,594.8 L 996.5,595.5 L 997.6,587.4 L 989.2,560.8 L 991.9,560.2 L 991.6,558.5 L 989.4,557.9 L 986.7,536.6 L 996.4,513.5 L 993.7,513.2 L 989.1,507.0 L 984.9,506.1 L 983.5,504.4 L 982.8,502.1 L 985.8,501.9 L 986.0,496.8 L 988.1,496.8 L 988.1,494.8 L 985.4,494.7 L 983.7,492.4 L 975.3,490.6 L 982.2,485.4 L 987.0,483.9 L 988.2,479.7 L 991.7,478.2 L 989.9,474.7 L 986.0,475.8 L 981.1,468.9 L 971.0,465.4 L 963.1,465.5 L 958.9,463.4 L 957.6,465.6 L 943.5,460.9 L 907.5,468.9 L 879.0,491.3 L 853.1,501.7 L 853.2,505.2 L 861.2,506.9 L 864.9,516.2 L 862.7,517.2 L 854.3,516.8 L 854.8,517.9 L 849.6,521.0 L 844.2,522.7 L 842.9,527.4 Z " fill="#d4bb5a" fill-rule="evenodd" stroke="#fff" stroke-width="3" data-name="Liebschützberg" data-value="95"></path></a><a xlink:href="/immobilienmarkt/sachsen/landkreis-nordsachsen/arzberg/grundstueckspreise" target="_blank"><path d="M 853.4,259.9 L 857.7,265.9 L 863.9,266.5 L 870.6,262.2 L 877.6,254.5 L 884.4,243.4 L 891.6,244.2 L 899.5,248.8 L 900.1,251.8 L 892.1,257.7 L 884.8,268.3 L 886.9,277.8 L 889.9,280.8 L 904.9,283.8 L 912.2,289.7 L 919.3,290.2 L 922.3,295.2 L 921.0,299.0 L 919.4,299.0 L 922.5,309.6 L 926.3,312.0 L 929.7,312.0 L 933.3,309.6 L 935.1,299.9 L 938.0,294.9 L 949.7,289.1 L 960.4,287.3 L 967.7,290.6 L 972.9,291.1 L 976.4,296.5 L 980.7,296.1 L 985.3,290.8 L 980.7,287.6 L 986.3,284.0 L 985.3,281.5 L 987.6,280.5 L 985.7,272.5 L 990.4,271.3 L 991.6,262.7 L 989.8,251.7 L 991.3,242.1 L 984.6,239.9 L 981.0,230.3 L 975.2,220.3 L 970.4,191.3 L 961.6,192.4 L 945.8,189.8 L 930.4,190.4 L 925.1,194.8 L 918.3,205.5 L 907.1,199.7 L 908.2,198.1 L 903.8,192.9 L 897.7,191.3 L 899.3,187.3 L 896.6,187.5 L 895.7,185.5 L 892.2,190.7 L 884.7,194.3 L 884.0,203.9 L 886.7,210.0 L 883.0,211.0 L 876.2,209.2 L 874.6,212.6 L 862.9,218.5 L 855.1,228.8 L 855.6,231.6 L 854.1,232.9 L 856.8,235.7 L 858.2,240.8 L 854.3,251.8 L 853.4,259.9 Z " fill="#cec854" fill-rule="evenodd" stroke="#fff" stroke-width="3" data-name="Arzberg" data-value="74"></path></a><a xlink:href="/immobilienmarkt/sachsen/landkreis-nordsachsen/oschatz/grundstueckspreise" target="_blank"><path d="M 823.4,582.3 L 823.5,584.2 L 831.0,587.9 L 834.5,589.2 L 834.7,587.0 L 835.8,587.1 L 836.7,590.6 L 842.1,593.9 L 843.5,596.2 L 845.7,596.0 L 843.1,598.3 L 841.5,603.0 L 842.9,606.9 L 841.3,616.7 L 836.3,618.7 L 838.4,628.2 L 835.1,628.3 L 835.6,643.4 L 844.9,643.6 L 857.6,639.4 L 862.1,633.5 L 864.1,633.9 L 863.4,635.4 L 867.1,637.2 L 867.1,641.8 L 869.8,641.6 L 875.3,647.0 L 877.7,652.1 L 876.7,653.7 L 889.1,654.6 L 888.6,649.3 L 881.7,645.8 L 883.7,640.4 L 880.4,640.2 L 879.5,637.6 L 880.8,636.6 L 881.1,631.9 L 886.6,629.8 L 887.1,624.3 L 902.4,628.6 L 913.6,622.0 L 917.8,617.8 L 924.4,629.1 L 928.7,627.0 L 929.1,624.2 L 931.4,624.1 L 932.6,625.6 L 934.3,624.7 L 932.1,621.7 L 934.3,621.3 L 938.2,624.5 L 947.5,624.3 L 946.7,605.9 L 950.0,604.1 L 949.6,601.1 L 943.2,595.0 L 942.2,587.6 L 931.1,584.5 L 931.3,581.2 L 941.5,574.1 L 939.4,568.5 L 941.7,567.4 L 941.7,564.5 L 946.0,562.6 L 945.6,561.8 L 947.9,560.0 L 947.5,558.8 L 946.5,559.5 L 947.0,542.1 L 944.3,546.7 L 928.4,545.6 L 927.9,544.3 L 919.9,543.5 L 906.3,538.6 L 908.3,546.2 L 904.3,547.8 L 903.5,544.6 L 900.6,548.4 L 899.9,545.9 L 897.5,546.8 L 895.9,542.7 L 891.1,544.5 L 890.0,542.8 L 889.9,541.4 L 891.3,541.1 L 889.4,536.3 L 895.9,534.5 L 895.7,530.1 L 885.1,528.7 L 883.0,527.2 L 874.9,529.5 L 867.7,528.9 L 857.4,531.4 L 855.8,546.2 L 849.0,544.7 L 847.2,545.7 L 846.9,551.0 L 832.8,552.1 L 832.6,562.2 L 835.8,562.6 L 837.5,573.2 L 830.4,576.1 L 829.4,579.4 L 823.9,581.0 L 823.4,582.3 Z " fill="#cec854" fill-rule="evenodd" stroke="#fff" stroke-width="3" data-name="Oschatz" data-value="61"></path></a><a xlink:href="/immobilienmarkt/sachsen/landkreis-nordsachsen/muegeln/grundstueckspreise" target="_blank"><path d="M 708.2,684.6 L 708.7,687.0 L 712.4,689.1 L 715.4,696.4 L 719.9,696.1 L 725.5,698.4 L 739.9,698.4 L 741.4,694.6 L 759.9,690.0 L 770.5,692.6 L 788.8,694.6 L 791.3,698.6 L 792.5,697.4 L 794.6,700.3 L 792.1,706.9 L 800.4,705.9 L 801.0,714.7 L 809.1,714.4 L 809.0,715.8 L 813.7,718.7 L 811.5,722.9 L 813.8,727.4 L 816.5,727.8 L 826.5,727.9 L 839.6,724.2 L 842.0,718.1 L 840.2,712.6 L 841.8,712.0 L 840.4,706.6 L 844.1,703.2 L 856.8,708.0 L 861.7,706.0 L 865.8,700.6 L 866.6,703.2 L 870.0,700.4 L 879.9,710.8 L 891.8,707.6 L 899.0,708.7 L 900.0,706.5 L 897.0,704.8 L 894.6,701.0 L 893.3,694.0 L 894.4,690.8 L 893.5,687.5 L 891.8,687.2 L 890.1,671.9 L 890.7,662.6 L 889.1,654.6 L 876.7,653.7 L 877.7,652.1 L 875.3,647.0 L 869.8,641.6 L 867.1,641.8 L 867.1,637.2 L 863.4,635.4 L 864.1,633.9 L 862.1,633.5 L 858.7,638.9 L 844.9,643.6 L 838.5,643.9 L 835.6,643.4 L 834.4,632.8 L 831.9,635.8 L 820.3,636.4 L 815.4,634.2 L 806.8,627.2 L 804.6,632.6 L 804.6,636.6 L 806.2,636.5 L 805.7,645.2 L 795.8,645.9 L 790.3,649.8 L 790.7,652.5 L 790.1,651.7 L 789.4,654.0 L 780.7,653.6 L 779.4,658.6 L 773.7,659.5 L 773.5,663.5 L 762.8,661.2 L 760.3,666.4 L 758.4,666.6 L 760.0,661.9 L 757.1,661.8 L 756.6,658.6 L 753.9,658.6 L 748.9,654.7 L 744.2,654.9 L 743.6,653.8 L 742.7,654.9 L 744.0,655.7 L 743.0,656.2 L 742.7,655.3 L 737.9,655.6 L 733.5,656.8 L 732.8,655.5 L 731.4,657.2 L 726.8,657.1 L 725.4,659.8 L 720.8,661.7 L 720.6,663.4 L 717.8,663.5 L 713.3,672.0 L 716.2,677.9 L 722.7,677.6 L 723.0,679.9 L 724.3,679.6 L 725.2,681.5 L 716.6,681.7 L 714.6,683.1 L 708.3,683.3 L 708.2,684.6 Z " fill="#daaf60" fill-rule="evenodd" stroke="#fff" stroke-width="3" data-name="Mügeln" data-value="108"></path></a><a xlink:href="/immobilienmarkt/sachsen/landkreis-nordsachsen/jesewitz/grundstueckspreise" target="_blank"><path d="M 321.4,386.6 L 324.0,396.1 L 323.4,400.3 L 324.9,395.4 L 324.9,396.9 L 329.5,398.8 L 324.8,398.1 L 330.2,400.0 L 332.0,399.7 L 331.4,395.8 L 339.1,397.5 L 339.1,405.7 L 342.5,405.3 L 348.6,419.6 L 352.9,420.8 L 357.6,424.6 L 366.2,426.9 L 384.5,438.9 L 394.4,449.7 L 399.2,451.4 L 399.9,458.4 L 401.3,461.0 L 402.6,460.7 L 404.3,468.5 L 408.0,467.4 L 408.0,464.0 L 411.0,463.4 L 413.4,456.4 L 412.7,453.9 L 423.3,451.4 L 433.9,454.1 L 434.1,440.6 L 441.5,439.6 L 441.4,438.6 L 438.3,438.3 L 438.3,434.1 L 442.0,433.9 L 442.3,419.3 L 445.5,418.9 L 445.3,415.7 L 446.3,415.6 L 446.5,418.2 L 452.7,417.5 L 451.2,414.9 L 453.4,416.8 L 457.6,415.3 L 458.6,416.7 L 460.3,415.4 L 458.9,414.1 L 459.6,412.5 L 462.6,414.7 L 463.5,412.8 L 464.6,413.3 L 463.0,417.7 L 467.8,422.0 L 467.3,413.9 L 471.3,410.6 L 468.4,408.0 L 465.2,408.2 L 464.6,406.9 L 467.2,405.3 L 464.6,404.9 L 465.2,402.8 L 468.9,403.0 L 471.4,399.7 L 469.2,398.2 L 470.7,398.3 L 469.4,393.5 L 470.4,391.0 L 476.9,391.3 L 478.4,389.4 L 472.3,386.7 L 469.9,388.3 L 467.6,387.1 L 464.8,381.9 L 458.2,379.3 L 456.7,376.6 L 446.2,377.6 L 439.9,382.1 L 434.5,383.4 L 430.9,392.5 L 425.1,392.6 L 425.2,390.1 L 423.1,388.3 L 421.5,375.3 L 424.8,366.6 L 422.4,358.1 L 415.0,353.2 L 409.4,352.5 L 402.6,353.7 L 402.3,351.5 L 374.2,357.1 L 362.0,356.0 L 360.0,358.1 L 339.6,357.7 L 339.6,361.2 L 336.9,360.5 L 337.4,364.6 L 335.0,366.0 L 334.4,369.6 L 331.6,368.3 L 331.2,369.4 L 332.8,370.0 L 332.2,372.3 L 333.6,372.5 L 333.1,374.2 L 329.1,374.0 L 327.8,380.7 L 322.3,382.0 L 322.7,386.4 L 321.4,386.6 Z " fill="#f27c78" fill-rule="evenodd" stroke="#fff" stroke-width="3" data-name="Jesewitz" data-value="187"></path></a><a xlink:href="/immobilienmarkt/sachsen/landkreis-nordsachsen/schoenwoelkau/grundstueckspreise" target="_blank"><path d="M 223.4,288.8 L 225.7,288.8 L 225.4,290.2 L 229.3,291.9 L 229.7,293.1 L 227.5,294.7 L 231.0,297.9 L 229.7,307.5 L 234.9,307.2 L 246.0,315.9 L 259.6,315.0 L 260.0,313.5 L 263.5,316.1 L 264.8,314.0 L 267.8,315.5 L 271.2,306.2 L 268.3,302.6 L 269.3,300.5 L 264.6,298.0 L 271.7,280.5 L 282.5,280.4 L 283.2,289.8 L 296.8,288.9 L 295.8,282.4 L 300.2,282.6 L 307.6,299.5 L 316.0,307.0 L 322.4,304.8 L 320.5,315.8 L 326.7,319.9 L 337.0,322.2 L 336.4,319.5 L 338.2,315.3 L 337.3,313.9 L 339.0,313.9 L 339.0,308.3 L 342.8,308.3 L 343.3,306.4 L 340.2,306.0 L 341.1,301.6 L 345.0,300.2 L 347.6,291.6 L 339.4,291.7 L 336.4,289.9 L 338.1,282.4 L 334.9,278.2 L 344.3,274.5 L 345.4,271.2 L 341.9,269.6 L 341.5,267.9 L 344.6,257.2 L 355.3,259.2 L 354.6,252.5 L 345.6,253.2 L 335.5,248.5 L 331.3,248.0 L 331.1,246.1 L 329.0,246.1 L 329.2,239.9 L 324.1,241.4 L 323.8,235.8 L 316.8,235.3 L 314.7,233.5 L 314.0,230.2 L 315.5,223.9 L 318.8,228.8 L 322.9,229.5 L 331.6,228.0 L 339.9,230.2 L 342.5,214.3 L 337.2,213.9 L 333.9,209.1 L 328.2,198.0 L 326.7,187.5 L 317.4,186.1 L 319.5,174.6 L 315.1,172.9 L 312.9,200.9 L 310.6,208.2 L 307.0,207.4 L 302.6,203.0 L 300.8,202.8 L 300.1,204.6 L 294.6,201.3 L 294.1,202.5 L 291.4,201.0 L 284.1,202.1 L 280.0,211.1 L 280.8,222.7 L 274.1,223.3 L 275.2,226.8 L 273.9,226.9 L 275.5,231.7 L 282.0,234.0 L 282.4,236.9 L 278.3,235.2 L 277.0,236.1 L 277.8,238.3 L 274.8,240.1 L 272.8,239.8 L 273.4,237.9 L 269.0,237.7 L 268.6,239.3 L 265.6,239.5 L 258.1,243.0 L 255.7,242.0 L 255.4,239.7 L 242.9,240.1 L 243.1,247.6 L 237.9,247.5 L 235.3,262.5 L 238.0,275.5 L 231.8,276.8 L 229.8,282.2 L 232.5,284.7 L 224.1,285.2 L 223.4,288.8 Z " fill="#e0a266" fill-rule="evenodd" stroke="#fff" stroke-width="3" data-name="Schönwölkau" data-value="139"></path></a><a xlink:href="/immobilienmarkt/sachsen/landkreis-nordsachsen/eilenburg/grundstueckspreise" target="_blank"><path d="M 336.4,319.5 L 337.0,322.2 L 340.5,325.9 L 341.1,332.7 L 343.6,333.6 L 345.1,339.2 L 346.8,340.2 L 345.7,340.8 L 346.6,343.5 L 345.6,343.8 L 344.9,357.4 L 360.0,358.1 L 362.0,356.0 L 374.2,357.1 L 402.3,351.5 L 402.6,353.7 L 409.4,352.5 L 415.0,353.2 L 421.5,357.0 L 424.8,365.5 L 421.5,375.3 L 423.1,388.3 L 425.2,390.1 L 425.1,392.6 L 430.9,392.5 L 434.5,383.4 L 439.9,382.1 L 446.2,377.6 L 456.7,376.6 L 458.2,379.3 L 465.3,381.7 L 463.9,380.5 L 465.2,373.6 L 468.5,366.7 L 472.1,367.7 L 473.2,366.4 L 472.0,361.5 L 477.2,360.5 L 483.4,354.8 L 488.1,360.4 L 489.3,357.5 L 498.4,356.7 L 499.5,350.0 L 501.2,347.8 L 494.5,325.0 L 498.1,324.0 L 495.9,312.9 L 492.6,315.5 L 486.6,291.1 L 466.5,296.6 L 463.4,295.7 L 461.6,297.6 L 450.3,293.5 L 445.8,298.8 L 435.3,296.4 L 428.6,298.6 L 426.5,304.4 L 421.0,305.0 L 422.8,315.0 L 419.0,316.1 L 417.8,323.0 L 405.2,319.4 L 398.5,323.4 L 397.5,331.4 L 393.3,333.2 L 391.3,319.5 L 389.9,319.9 L 385.8,314.6 L 385.3,316.8 L 372.0,314.7 L 361.6,318.3 L 356.8,318.4 L 340.8,318.5 L 338.2,315.3 L 336.4,319.5 Z " fill="#ec8972" fill-rule="evenodd" stroke="#fff" stroke-width="3" data-name="Eilenburg" data-value="168"></path></a><a xlink:href="/immobilienmarkt/sachsen/landkreis-nordsachsen/bad-dueben/grundstueckspreise" target="_blank"><path d="M 317.4,186.1 L 326.7,187.5 L 328.2,198.0 L 337.2,213.9 L 342.5,214.3 L 345.7,213.0 L 358.5,213.9 L 359.3,215.9 L 363.3,216.5 L 366.4,198.9 L 369.5,198.4 L 374.0,186.1 L 378.5,184.7 L 382.9,187.3 L 385.2,183.0 L 386.3,183.1 L 386.8,173.6 L 388.0,170.1 L 391.4,166.7 L 394.6,167.6 L 396.7,163.6 L 399.9,162.9 L 402.0,164.5 L 414.9,165.6 L 414.9,160.6 L 419.5,160.4 L 418.9,156.4 L 421.8,152.4 L 425.3,154.5 L 428.5,146.9 L 433.6,151.0 L 433.7,158.0 L 441.2,162.9 L 448.9,159.4 L 450.7,152.5 L 446.9,152.2 L 446.1,156.3 L 445.3,155.8 L 446.4,153.5 L 440.6,149.8 L 446.4,146.5 L 453.5,146.2 L 461.6,143.7 L 461.2,140.8 L 455.5,143.7 L 457.0,140.6 L 463.2,138.5 L 451.8,136.0 L 453.1,125.0 L 446.0,125.8 L 441.2,128.6 L 436.9,123.2 L 439.6,120.8 L 437.2,116.1 L 433.9,118.7 L 429.6,111.3 L 433.8,106.6 L 443.5,103.3 L 444.3,96.7 L 449.8,90.1 L 445.2,86.2 L 439.8,87.7 L 428.8,87.7 L 422.3,92.4 L 418.4,100.9 L 412.4,100.9 L 413.3,98.1 L 412.8,96.3 L 412.2,98.2 L 411.5,92.9 L 410.3,92.1 L 411.6,89.9 L 410.2,89.2 L 408.6,91.3 L 404.2,89.1 L 399.9,98.6 L 398.5,105.4 L 394.6,102.9 L 386.4,108.6 L 384.9,114.6 L 386.5,114.8 L 386.5,116.1 L 378.7,115.7 L 376.2,114.3 L 367.6,117.2 L 371.5,123.0 L 368.3,125.6 L 363.5,124.9 L 361.0,119.2 L 355.1,120.6 L 352.0,118.8 L 353.9,123.7 L 349.0,133.0 L 352.1,137.4 L 351.1,141.4 L 345.0,145.3 L 342.1,145.2 L 338.9,142.1 L 334.2,146.8 L 330.9,147.3 L 333.7,152.0 L 337.2,151.8 L 321.4,170.9 L 318.4,176.8 L 317.4,186.1 Z " fill="#e0a266" fill-rule="evenodd" stroke="#fff" stroke-width="3" data-name="Bad Düben" data-value="140"></path></a><a xlink:href="/immobilienmarkt/sachsen/landkreis-nordsachsen/loebnitz/grundstueckspreise" target="_blank"><path d="M 204.2,148.3 L 211.8,151.4 L 207.4,150.8 L 207.1,165.2 L 208.3,167.6 L 223.1,176.3 L 226.0,174.0 L 231.8,182.1 L 237.4,183.9 L 238.1,187.6 L 264.2,185.0 L 280.9,194.0 L 283.2,196.9 L 281.4,200.2 L 282.6,201.7 L 291.4,201.0 L 294.1,202.5 L 294.6,201.3 L 300.1,204.6 L 300.8,202.8 L 302.6,203.0 L 307.0,207.4 L 310.6,208.2 L 312.9,200.9 L 315.1,172.9 L 319.5,174.6 L 327.4,163.0 L 337.2,151.8 L 333.7,152.0 L 330.9,147.3 L 334.2,146.8 L 338.9,142.1 L 342.1,145.2 L 345.0,145.3 L 351.1,141.4 L 352.1,137.4 L 349.0,133.0 L 353.9,123.7 L 351.3,117.8 L 343.8,119.6 L 335.2,115.5 L 331.5,121.6 L 325.4,120.9 L 326.7,123.8 L 326.5,133.2 L 319.8,130.9 L 314.7,138.1 L 312.0,139.2 L 307.8,134.0 L 310.7,130.8 L 317.1,127.0 L 317.3,124.8 L 315.0,121.4 L 301.4,120.5 L 298.1,122.3 L 291.6,123.2 L 283.1,118.6 L 280.9,113.4 L 277.4,112.6 L 274.9,114.2 L 271.7,120.5 L 265.8,118.5 L 266.4,122.1 L 270.9,124.6 L 269.5,129.0 L 267.2,129.1 L 266.7,132.0 L 260.8,129.5 L 257.7,146.5 L 259.4,146.2 L 259.0,155.2 L 250.9,153.5 L 250.6,155.3 L 247.9,154.4 L 246.2,155.7 L 237.1,151.4 L 232.6,150.8 L 231.7,147.6 L 228.6,147.4 L 227.8,146.2 L 227.2,146.9 L 229.4,148.5 L 226.2,150.3 L 221.2,148.4 L 217.8,149.9 L 210.4,149.8 L 209.8,147.1 L 207.3,146.5 L 204.7,146.9 L 204.2,148.3 Z " fill="#e6956c" fill-rule="evenodd" stroke="#fff" stroke-width="3" data-name="Löbnitz" data-value="149"></path></a><a xlink:href="/immobilienmarkt/sachsen/landkreis-nordsachsen/naundorf/grundstueckspreise" target="_blank"><path d="M 879.5,637.6 L 880.4,640.2 L 883.7,640.4 L 881.7,645.8 L 888.6,649.3 L 890.7,662.6 L 890.1,671.9 L 891.8,687.2 L 893.5,687.5 L 893.9,692.6 L 895.5,695.3 L 897.9,693.9 L 907.2,694.1 L 907.3,695.8 L 913.8,696.8 L 915.3,694.3 L 922.7,696.8 L 925.0,696.3 L 923.0,697.4 L 923.5,698.6 L 929.8,696.0 L 930.3,691.3 L 935.5,694.9 L 935.2,685.4 L 948.8,686.3 L 948.6,685.2 L 957.6,684.9 L 958.3,685.8 L 959.0,684.5 L 957.0,681.3 L 966.8,677.8 L 969.8,674.0 L 969.7,675.5 L 972.6,676.4 L 975.4,679.6 L 978.2,677.8 L 981.1,681.7 L 981.8,681.0 L 984.2,677.4 L 980.7,672.4 L 985.3,669.1 L 987.9,672.7 L 990.7,669.7 L 990.1,665.3 L 984.5,659.9 L 984.9,656.6 L 979.6,655.8 L 980.8,652.1 L 984.4,650.7 L 982.8,649.0 L 983.2,647.5 L 979.0,644.1 L 978.4,637.0 L 979.6,636.6 L 980.4,640.4 L 982.0,640.6 L 985.9,639.4 L 986.7,636.1 L 987.5,639.3 L 991.9,638.5 L 991.8,631.6 L 996.8,628.8 L 995.9,625.5 L 1000.0,624.6 L 994.7,616.2 L 989.5,612.1 L 992.8,610.7 L 991.8,609.5 L 983.2,611.6 L 978.0,614.9 L 960.2,617.9 L 960.2,619.0 L 947.8,622.3 L 947.5,624.3 L 938.2,624.5 L 934.3,621.3 L 932.1,621.7 L 934.3,624.7 L 932.6,625.6 L 931.4,624.1 L 929.1,624.2 L 928.7,627.0 L 924.4,629.1 L 917.8,617.8 L 913.6,622.0 L 902.4,628.6 L 887.1,624.3 L 886.6,629.8 L 881.1,631.9 L 880.8,636.6 L 879.5,637.6 Z " fill="#cec854" fill-rule="evenodd" stroke="#fff" stroke-width="3" data-name="Naundorf" data-value="76"></path></a><a xlink:href="/immobilienmarkt/sachsen/landkreis-nordsachsen/elsnig/grundstueckspreise" target="_blank"><path d="M 670.2,104.3 L 682.4,120.7 L 698.1,115.3 L 707.2,117.2 L 717.5,124.9 L 705.8,142.4 L 711.3,145.9 L 714.0,145.7 L 712.3,154.1 L 719.1,154.9 L 720.1,157.6 L 730.9,158.1 L 736.5,153.7 L 739.7,152.7 L 739.8,151.4 L 754.6,147.6 L 759.1,148.9 L 763.0,147.2 L 764.4,145.1 L 768.5,144.7 L 767.6,132.4 L 773.0,126.7 L 780.7,125.4 L 784.8,129.9 L 782.7,135.2 L 779.0,139.4 L 782.6,145.0 L 785.7,146.7 L 789.6,145.8 L 790.0,142.0 L 795.9,137.9 L 798.7,140.7 L 804.4,134.8 L 812.4,137.0 L 813.0,135.9 L 808.2,134.1 L 808.0,132.7 L 802.5,131.8 L 797.9,128.0 L 796.6,121.7 L 797.3,107.6 L 793.6,102.8 L 777.0,99.9 L 773.6,97.0 L 770.7,87.4 L 766.1,85.0 L 760.2,85.8 L 744.7,101.2 L 735.7,98.6 L 732.8,93.0 L 734.1,86.2 L 745.2,76.3 L 738.0,60.7 L 733.2,55.8 L 728.8,53.4 L 723.6,53.1 L 717.2,54.8 L 717.6,59.3 L 715.8,61.8 L 710.9,58.1 L 705.2,58.7 L 703.8,60.6 L 707.2,72.6 L 692.4,96.7 L 670.2,104.3 Z " fill="#e0a266" fill-rule="evenodd" stroke="#fff" stroke-width="3" data-name="Elsnig" data-value="125"></path></a><a xlink:href="/immobilienmarkt/sachsen/landkreis-nordsachsen/rackwitz/grundstueckspreise" target="_blank"><path d="M 150.5,305.7 L 154.6,336.6 L 171.0,336.2 L 171.8,339.9 L 189.0,343.0 L 192.6,362.8 L 180.3,362.3 L 172.0,377.6 L 177.0,383.9 L 177.0,387.7 L 182.2,387.7 L 181.6,391.5 L 179.4,392.3 L 180.6,401.3 L 177.6,401.5 L 197.8,402.0 L 197.9,405.6 L 198.1,400.2 L 201.8,395.6 L 210.4,393.1 L 210.5,391.3 L 213.6,394.9 L 224.7,398.8 L 230.1,402.2 L 231.8,405.1 L 233.4,404.5 L 235.6,396.2 L 238.7,390.6 L 239.0,386.8 L 231.6,377.6 L 232.4,374.6 L 235.8,373.7 L 232.3,373.8 L 232.0,369.7 L 240.7,365.7 L 240.6,363.8 L 235.3,364.8 L 223.5,364.0 L 227.5,350.6 L 219.1,346.2 L 206.7,347.2 L 209.5,341.9 L 216.8,341.8 L 216.8,340.5 L 220.6,340.4 L 220.9,338.0 L 230.4,338.5 L 241.9,341.2 L 241.5,337.0 L 243.2,333.1 L 252.0,325.0 L 251.7,323.3 L 245.3,320.3 L 245.8,314.8 L 234.9,307.2 L 229.7,307.5 L 231.0,297.9 L 227.5,294.7 L 229.7,293.1 L 229.3,291.9 L 226.6,290.4 L 221.0,290.7 L 212.3,288.6 L 209.0,290.6 L 197.8,291.7 L 198.4,298.0 L 192.7,298.1 L 192.3,291.5 L 187.8,291.5 L 183.1,292.4 L 183.4,294.3 L 181.5,295.1 L 182.2,296.8 L 179.8,297.9 L 183.5,305.3 L 180.2,307.1 L 176.3,307.1 L 176.1,304.0 L 163.5,306.3 L 150.5,305.7 Z " fill="#ff6384" fill-rule="evenodd" stroke="#fff" stroke-width="3" data-name="Rackwitz" data-value="240"></path></a><a xlink:href="/immobilienmarkt/sachsen/landkreis-nordsachsen/dreiheide/grundstueckspreise" target="_blank"><path d="M 612.3,159.1 L 615.3,163.6 L 618.5,172.9 L 624.1,178.2 L 625.7,187.4 L 627.5,188.2 L 633.2,185.2 L 631.6,191.8 L 636.0,203.4 L 635.2,209.6 L 640.7,208.7 L 653.6,211.6 L 662.3,210.4 L 673.9,202.4 L 678.2,202.9 L 681.4,212.5 L 679.2,212.4 L 679.7,215.1 L 685.5,217.8 L 709.2,219.8 L 717.8,223.0 L 720.5,220.1 L 727.9,219.6 L 731.7,215.5 L 734.2,215.2 L 735.0,217.0 L 738.7,214.9 L 739.4,207.8 L 749.6,191.6 L 739.4,186.4 L 738.6,172.0 L 742.7,167.6 L 739.9,151.5 L 739.7,152.7 L 736.5,153.7 L 730.9,158.1 L 720.1,157.6 L 719.1,154.9 L 712.3,154.1 L 714.0,145.7 L 711.3,145.9 L 705.8,142.4 L 703.5,145.6 L 701.0,145.5 L 696.8,151.0 L 693.3,149.5 L 691.9,151.9 L 693.8,157.9 L 688.5,155.3 L 684.5,159.2 L 687.9,176.7 L 679.2,178.0 L 669.5,177.6 L 666.6,174.8 L 666.2,171.2 L 666.6,167.5 L 669.1,165.9 L 668.6,164.3 L 666.0,161.2 L 653.3,154.7 L 646.3,154.7 L 642.9,158.1 L 631.4,162.6 L 627.3,162.7 L 622.9,158.2 L 612.3,159.1 Z " fill="#e0a266" fill-rule="evenodd" stroke="#fff" stroke-width="3" data-name="Dreiheide" data-value="125"></path></a><a xlink:href="/immobilienmarkt/sachsen/landkreis-nordsachsen/taucha/grundstueckspreise" target="_blank"><path d="M 288.3,411.5 L 288.4,413.9 L 293.0,417.1 L 297.3,423.4 L 301.7,423.5 L 301.9,425.4 L 299.0,427.4 L 300.7,437.3 L 297.1,439.0 L 296.5,438.1 L 295.7,439.3 L 296.9,439.3 L 296.5,440.1 L 294.6,441.5 L 296.1,442.2 L 297.7,453.8 L 307.0,454.9 L 301.5,469.6 L 302.4,472.1 L 298.1,474.9 L 301.7,476.5 L 313.6,487.0 L 326.8,487.8 L 335.2,485.7 L 335.2,483.7 L 361.2,468.2 L 362.8,470.7 L 366.6,470.4 L 372.9,473.9 L 375.0,472.1 L 382.4,470.3 L 382.1,469.3 L 384.2,468.3 L 393.4,465.7 L 394.3,464.5 L 393.3,462.2 L 399.7,458.8 L 399.2,451.4 L 394.4,449.7 L 384.5,438.9 L 364.1,425.6 L 357.6,424.6 L 352.9,420.8 L 348.6,419.6 L 342.5,405.3 L 339.1,405.7 L 339.1,397.5 L 331.4,395.8 L 332.0,399.7 L 330.2,400.0 L 324.8,398.1 L 329.5,398.8 L 324.9,396.9 L 324.9,395.4 L 323.8,400.5 L 324.0,396.1 L 323.0,392.3 L 323.4,395.0 L 321.8,395.0 L 322.1,396.9 L 318.7,398.0 L 318.4,402.1 L 316.3,402.0 L 316.2,402.9 L 305.8,402.7 L 305.8,398.9 L 293.0,397.9 L 292.4,400.6 L 290.2,400.4 L 288.3,411.5 Z " fill="#ff6384" fill-rule="evenodd" stroke="#fff" stroke-width="3" data-name="Taucha" data-value="314"></path></a></svg>