<svg width="1000" height="1099" viewBox="0 0 1000 1099" xmlns="http://www.w3.org/2000/svg" xmlns:xlink="http://www.w3.org/1999/xlink" style="width: 100%; height: auto;">
        <style>
          path {
            transition: all 0.2s ease;
            transform-box: fill-box;
            transform-origin: center;
          }
          path:hover {
            stroke: #fff;
            stroke-width: 3;
            opacity: 0.85 !important;
            transform: scale(1.01);
          }
        </style>
        <a xlink:href="/immobilienmarkt/sachsen/leipzig/seehausen/wohnlagencheck" target="_blank"><path d="M 694.6,19.9 L 669.0,0.4 L 666.3,25.4 L 672.0,91.9 L 645.0,97.2 L 612.2,112.1 L 603.0,105.9 L 591.0,106.4 L 586.9,100.0 L 552.8,101.1 L 535.1,139.0 L 529.8,165.2 L 521.6,169.8 L 517.9,194.6 L 497.4,229.6 L 504.3,233.2 L 502.2,237.2 L 508.3,237.9 L 516.6,284.8 L 596.2,288.1 L 599.8,271.5 L 576.7,241.3 L 599.0,224.9 L 601.4,227.2 L 637.0,212.3 L 641.7,221.4 L 655.7,217.3 L 648.8,196.0 L 719.6,201.1 L 719.6,176.9 L 725.7,153.9 L 733.7,154.7 L 735.3,145.3 L 780.5,148.7 L 780.2,162.1 L 807.6,163.8 L 824.4,160.2 L 825.6,145.7 L 837.5,141.7 L 836.3,135.0 L 841.3,134.6 L 835.0,113.2 L 834.9,105.3 L 839.4,104.9 L 837.4,87.0 L 770.7,82.9 L 768.3,55.4 L 761.2,54.7 L 766.4,28.4 L 694.6,19.9 Z " fill="#daaf60" fill-rule="evenodd" stroke="#fff" stroke-width="3" data-name="Seehausen" data-value="6"></path></a><a xlink:href="/immobilienmarkt/sachsen/leipzig/luetzschena-stahmeln/wohnlagencheck" target="_blank"><path d="M 129.8,162.4 L 112.3,158.7 L 122.5,162.8 L 124.0,169.8 L 114.3,168.0 L 117.3,181.9 L 87.5,191.9 L 91.2,241.2 L 79.9,240.3 L 83.3,246.8 L 51.6,233.6 L 62.3,252.9 L 87.2,250.5 L 101.8,265.9 L 101.5,270.8 L 65.3,316.4 L 67.9,331.0 L 62.0,337.5 L 67.7,336.4 L 74.2,347.6 L 72.2,353.7 L 51.5,358.1 L 36.6,377.2 L 51.4,381.3 L 60.3,393.1 L 71.8,389.6 L 77.9,392.7 L 78.1,403.2 L 84.2,397.9 L 87.3,405.2 L 97.8,399.1 L 102.1,401.1 L 103.7,394.3 L 120.7,398.8 L 117.7,402.7 L 121.3,403.0 L 122.4,411.3 L 128.6,409.4 L 127.2,417.3 L 133.3,408.4 L 153.9,415.5 L 155.5,409.0 L 161.1,407.7 L 160.7,399.0 L 169.0,393.8 L 172.2,379.8 L 181.8,392.8 L 191.4,393.7 L 193.3,402.1 L 203.1,397.5 L 213.1,406.7 L 221.7,392.4 L 235.2,388.8 L 229.1,380.2 L 231.2,368.9 L 248.5,373.3 L 255.2,342.0 L 255.3,325.4 L 228.4,315.0 L 216.9,308.7 L 216.8,302.2 L 201.5,300.3 L 199.9,295.9 L 213.2,257.4 L 257.7,261.0 L 248.6,173.0 L 167.8,168.9 L 129.8,162.4 Z " fill="#c8d54f" fill-rule="evenodd" stroke="#fff" stroke-width="3" data-name="Lützschena Stahmeln" data-value="9"></path></a><a xlink:href="/immobilienmarkt/sachsen/leipzig/hartmannsdorf-knautnaundorf/wohnlagencheck" target="_blank"><path d="M 47.0,848.1 L 43.7,848.3 L 43.2,864.6 L 50.8,868.1 L 54.1,881.3 L 36.6,889.8 L 50.1,947.0 L 36.2,953.7 L 44.9,956.2 L 50.8,985.8 L 54.5,983.8 L 61.0,1009.5 L 72.7,1030.3 L 68.7,1032.2 L 70.7,1035.7 L 55.7,1043.0 L 63.6,1064.5 L 48.5,1071.4 L 55.4,1093.3 L 47.9,1095.8 L 49.1,1099.0 L 68.3,1092.6 L 70.0,1098.3 L 74.4,1097.3 L 110.9,1080.9 L 151.5,1073.1 L 149.8,1065.8 L 190.1,1081.3 L 222.7,1070.4 L 232.1,1071.1 L 231.3,1076.6 L 250.0,1074.2 L 258.8,1058.2 L 253.2,1043.0 L 243.8,1039.4 L 256.6,1034.2 L 249.3,1028.6 L 255.6,1023.1 L 252.8,1015.9 L 258.3,1013.1 L 246.0,992.7 L 252.6,987.2 L 250.7,974.8 L 258.1,973.1 L 253.7,970.1 L 257.1,963.3 L 247.2,962.4 L 243.1,945.2 L 236.7,944.4 L 236.7,951.1 L 224.9,956.2 L 210.1,955.7 L 208.7,961.9 L 198.7,960.5 L 195.1,968.5 L 181.8,967.5 L 181.8,955.2 L 175.2,955.7 L 176.3,946.1 L 169.7,946.4 L 167.4,911.5 L 157.8,913.5 L 154.0,897.4 L 162.2,895.8 L 159.3,881.9 L 147.1,876.1 L 87.2,873.0 L 85.0,850.0 L 47.0,848.1 Z " fill="#f86f7e" fill-rule="evenodd" stroke="#fff" stroke-width="3" data-name="Hartmannsdorf Knautnaundorf" data-value="1"></path></a><a xlink:href="/immobilienmarkt/sachsen/leipzig/grosszschocher/wohnlagencheck" target="_blank"><path d="M 267.3,711.4 L 268.1,697.9 L 256.1,709.4 L 143.0,736.9 L 146.3,761.5 L 80.1,783.2 L 83.4,830.5 L 120.6,847.3 L 218.2,838.2 L 259.4,841.8 L 278.4,850.3 L 290.5,848.2 L 289.7,838.4 L 305.2,836.8 L 312.2,829.7 L 324.0,850.0 L 302.3,887.7 L 286.4,935.3 L 290.7,936.5 L 296.5,926.1 L 311.3,927.4 L 312.2,940.8 L 325.2,939.4 L 326.1,947.9 L 340.8,945.5 L 341.4,937.9 L 350.6,941.8 L 355.2,939.0 L 353.6,932.9 L 340.0,927.5 L 352.0,919.9 L 355.7,924.3 L 358.4,920.6 L 351.8,915.9 L 355.0,910.0 L 358.5,914.3 L 364.7,913.1 L 359.7,901.1 L 365.3,896.4 L 370.7,877.8 L 378.9,874.8 L 382.1,863.6 L 376.4,861.9 L 377.5,848.1 L 370.1,828.6 L 379.9,829.2 L 382.0,824.6 L 374.6,825.5 L 375.3,800.5 L 369.1,799.8 L 307.6,740.9 L 272.5,721.1 L 267.3,711.4 Z " fill="#e0a266" fill-rule="evenodd" stroke="#fff" stroke-width="3" data-name="Großzschocher" data-value="5"></path></a><a xlink:href="/immobilienmarkt/sachsen/leipzig/holzhausen/wohnlagencheck" target="_blank"><path d="M 680.4,676.4 L 679.7,671.0 L 668.1,679.4 L 668.1,692.0 L 683.8,720.4 L 693.3,752.1 L 689.4,761.3 L 658.2,777.5 L 662.2,802.4 L 674.5,816.1 L 701.2,797.5 L 726.1,829.6 L 734.0,829.3 L 738.1,837.6 L 749.7,836.4 L 751.0,831.0 L 801.6,821.9 L 808.7,838.0 L 825.2,847.0 L 841.7,872.0 L 861.9,862.5 L 849.7,832.4 L 862.3,832.0 L 878.0,775.4 L 877.0,755.6 L 862.8,751.9 L 856.8,738.6 L 862.8,729.3 L 858.4,724.4 L 878.1,688.3 L 857.4,682.1 L 854.6,686.4 L 775.8,688.6 L 736.5,674.3 L 721.7,675.7 L 716.1,683.8 L 698.4,688.0 L 695.4,679.2 L 691.9,684.6 L 680.4,676.4 Z " fill="#e0a266" fill-rule="evenodd" stroke="#fff" stroke-width="3" data-name="Holzhausen" data-value="5"></path></a><a xlink:href="/immobilienmarkt/sachsen/leipzig/lindenthal/wohnlagencheck" target="_blank"><path d="M 311.4,149.9 L 246.2,159.0 L 257.7,261.0 L 213.2,257.4 L 199.9,295.9 L 201.5,300.3 L 216.8,302.2 L 216.9,308.7 L 255.3,325.4 L 255.0,330.3 L 271.0,333.1 L 281.4,342.4 L 308.6,348.7 L 345.4,348.7 L 344.8,339.3 L 355.4,338.0 L 357.6,328.8 L 380.4,315.1 L 374.0,253.9 L 426.1,233.2 L 402.8,176.0 L 403.2,159.5 L 316.2,157.2 L 315.4,149.7 L 311.4,149.9 Z " fill="#daaf60" fill-rule="evenodd" stroke="#fff" stroke-width="3" data-name="Lindenthal" data-value="6"></path></a><a xlink:href="/immobilienmarkt/sachsen/leipzig/wiederitzsch/wohnlagencheck" target="_blank"><path d="M 462.0,135.2 L 446.8,119.6 L 446.8,128.5 L 416.7,137.4 L 403.9,153.2 L 402.8,176.0 L 426.1,233.2 L 374.0,253.9 L 380.4,315.1 L 368.9,325.3 L 388.0,330.0 L 393.6,339.4 L 404.3,342.3 L 425.4,333.2 L 440.5,337.1 L 452.8,327.2 L 456.4,316.8 L 460.5,320.1 L 469.8,312.7 L 505.5,310.8 L 513.1,295.8 L 517.3,281.9 L 511.0,248.3 L 507.3,236.0 L 502.2,237.2 L 504.3,233.2 L 497.4,229.6 L 517.9,194.6 L 521.6,169.8 L 511.1,155.9 L 462.0,135.2 Z " fill="#d4bb5a" fill-rule="evenodd" stroke="#fff" stroke-width="3" data-name="Wiederitzsch" data-value="7"></path></a><a xlink:href="/immobilienmarkt/sachsen/leipzig/althen-kleinpoesna/wohnlagencheck" target="_blank"><path d="M 900.5,529.3 L 890.6,528.1 L 882.1,511.2 L 872.4,515.1 L 881.4,534.2 L 905.5,629.5 L 900.1,632.2 L 888.8,661.2 L 891.7,668.6 L 858.4,724.4 L 862.8,729.3 L 856.8,738.6 L 862.8,751.9 L 891.2,757.2 L 987.8,743.7 L 991.0,735.2 L 961.8,682.3 L 971.4,688.3 L 999.9,649.4 L 948.4,612.2 L 983.7,592.4 L 988.2,581.5 L 982.3,580.9 L 983.6,573.2 L 979.1,569.8 L 987.2,563.4 L 979.6,556.8 L 967.1,561.4 L 953.3,551.1 L 952.1,544.3 L 946.5,542.3 L 949.9,523.9 L 945.2,519.9 L 900.5,529.3 Z " fill="#daaf60" fill-rule="evenodd" stroke="#fff" stroke-width="3" data-name="Althen Kleinpösna" data-value="6"></path></a><a xlink:href="/immobilienmarkt/sachsen/leipzig/liebertwolkwitz/wohnlagencheck" target="_blank"><path d="M 736.7,835.1 L 734.0,829.3 L 726.1,829.6 L 701.2,797.5 L 673.7,816.7 L 683.8,844.7 L 695.2,910.3 L 691.1,941.4 L 756.5,975.1 L 770.6,975.9 L 789.4,968.2 L 785.7,990.7 L 788.6,995.3 L 822.2,997.0 L 839.6,983.6 L 831.6,969.5 L 813.6,975.3 L 809.4,961.1 L 834.0,894.3 L 839.9,893.9 L 841.5,871.9 L 825.2,847.0 L 808.7,838.0 L 801.6,821.9 L 751.0,831.0 L 749.1,836.5 L 736.7,835.1 Z " fill="#e0a266" fill-rule="evenodd" stroke="#fff" stroke-width="3" data-name="Liebertwolkwitz" data-value="5"></path></a><a xlink:href="/immobilienmarkt/sachsen/leipzig/boehlitz-ehrenberg/wohnlagencheck" target="_blank"><path d="M 36.8,377.3 L 3.3,395.2 L 4.2,398.9 L 22.1,403.4 L 14.7,474.5 L 19.7,474.7 L 19.8,479.1 L 46.3,474.3 L 67.3,459.7 L 76.9,465.8 L 91.1,465.1 L 91.3,469.9 L 111.5,484.5 L 115.5,494.9 L 122.7,497.4 L 130.4,514.7 L 141.5,520.1 L 129.9,525.2 L 124.7,540.0 L 154.7,538.6 L 213.4,549.9 L 218.7,527.9 L 215.5,515.7 L 210.7,520.4 L 206.3,502.2 L 233.1,484.3 L 234.7,478.4 L 211.3,466.2 L 214.6,458.2 L 206.7,452.1 L 207.8,447.0 L 182.2,446.5 L 183.2,440.7 L 175.4,437.5 L 170.8,427.3 L 164.0,429.4 L 156.7,412.6 L 141.9,414.4 L 133.3,408.4 L 126.6,417.1 L 128.6,409.4 L 122.4,411.3 L 121.3,403.0 L 117.7,402.7 L 121.8,399.4 L 104.7,394.3 L 102.1,401.1 L 97.8,399.1 L 87.3,405.2 L 84.2,397.9 L 78.1,403.2 L 77.9,392.7 L 71.8,389.6 L 60.3,393.1 L 51.4,381.3 L 36.8,377.3 Z " fill="#daaf60" fill-rule="evenodd" stroke="#fff" stroke-width="3" data-name="Böhlitz Ehrenberg" data-value="6"></path></a><a xlink:href="/immobilienmarkt/sachsen/leipzig/knautkleeberg-knauthain/wohnlagencheck" target="_blank"><path d="M 315.4,837.5 L 309.8,829.4 L 305.2,836.8 L 289.7,838.4 L 290.5,848.2 L 278.4,850.3 L 259.4,841.8 L 218.2,838.2 L 120.6,847.3 L 145.2,874.6 L 159.3,881.9 L 162.2,895.8 L 154.0,897.4 L 157.8,913.5 L 167.4,911.5 L 169.7,946.4 L 176.3,946.1 L 175.2,955.7 L 181.8,955.2 L 181.8,967.5 L 195.1,968.5 L 198.7,960.5 L 208.7,961.9 L 210.1,955.7 L 224.9,956.2 L 236.7,951.1 L 236.7,944.4 L 243.1,945.2 L 247.5,962.9 L 257.5,963.8 L 253.7,970.1 L 258.0,973.8 L 250.7,974.8 L 252.6,987.2 L 245.7,997.0 L 254.4,1002.0 L 255.9,1008.5 L 266.0,999.1 L 282.1,1000.0 L 282.7,937.1 L 291.1,924.9 L 302.3,887.7 L 324.0,850.0 L 315.4,837.5 Z " fill="#e6956c" fill-rule="evenodd" stroke="#fff" stroke-width="3" data-name="Knautkleeberg Knauthain" data-value="4"></path></a><a xlink:href="/immobilienmarkt/sachsen/leipzig/engelsdorf/wohnlagencheck" target="_blank"><path d="M 812.3,456.7 L 807.7,456.4 L 840.7,485.3 L 793.6,503.1 L 800.4,534.7 L 740.5,535.1 L 723.1,551.7 L 731.7,572.1 L 743.2,581.2 L 744.1,598.6 L 753.5,600.6 L 752.6,617.1 L 771.9,628.4 L 776.5,621.8 L 820.6,620.8 L 875.2,624.0 L 900.5,632.0 L 905.5,629.5 L 881.4,534.2 L 872.4,515.1 L 882.1,511.2 L 857.3,458.9 L 812.3,456.7 Z " fill="#d4bb5a" fill-rule="evenodd" stroke="#fff" stroke-width="3" data-name="Engelsdorf" data-value="7"></path></a><a xlink:href="/immobilienmarkt/sachsen/leipzig/connewitz/wohnlagencheck" target="_blank"><path d="M 408.0,699.1 L 402.0,683.3 L 410.7,665.1 L 381.7,672.9 L 362.8,718.0 L 338.8,752.8 L 337.1,766.8 L 369.0,796.5 L 387.4,794.9 L 391.5,807.2 L 406.2,812.9 L 417.0,823.7 L 413.7,835.8 L 425.6,844.9 L 441.7,808.7 L 448.2,808.9 L 450.7,816.9 L 491.7,769.2 L 502.4,739.7 L 502.3,715.8 L 497.6,698.0 L 408.0,699.1 Z " fill="#d4bb5a" fill-rule="evenodd" stroke="#fff" stroke-width="3" data-name="Connewitz" data-value="7"></path></a><a xlink:href="/immobilienmarkt/sachsen/leipzig/plaussig-portitz/wohnlagencheck" target="_blank"><path d="M 656.1,195.7 L 648.8,196.0 L 655.7,217.3 L 641.7,221.4 L 637.0,212.3 L 631.8,214.5 L 664.2,281.6 L 668.9,296.1 L 664.0,298.1 L 719.8,375.5 L 757.9,411.6 L 768.3,404.7 L 765.4,395.7 L 784.5,344.4 L 752.1,340.6 L 746.5,300.1 L 741.1,297.7 L 748.3,292.3 L 745.0,289.9 L 747.8,285.7 L 750.2,288.8 L 762.7,282.9 L 756.4,248.2 L 759.1,242.8 L 766.9,241.1 L 766.3,234.6 L 750.6,234.4 L 735.5,212.2 L 719.6,201.1 L 674.2,200.3 L 656.1,195.7 Z " fill="#daaf60" fill-rule="evenodd" stroke="#fff" stroke-width="3" data-name="Plaußig Portitz" data-value="6"></path></a><a xlink:href="/immobilienmarkt/sachsen/leipzig/thekla/wohnlagencheck" target="_blank"><path d="M 631.8,214.5 L 601.4,227.2 L 599.0,224.9 L 576.7,241.3 L 599.8,271.5 L 594.5,285.4 L 616.4,311.0 L 622.2,335.7 L 612.0,345.6 L 610.5,373.3 L 602.8,393.3 L 660.7,408.8 L 677.4,435.7 L 673.7,459.4 L 686.8,440.4 L 747.1,402.0 L 719.8,375.5 L 664.0,298.1 L 668.9,296.1 L 664.2,281.6 L 631.8,214.5 Z " fill="#d4bb5a" fill-rule="evenodd" stroke="#fff" stroke-width="3" data-name="Thekla" data-value="7"></path></a><a xlink:href="/immobilienmarkt/sachsen/leipzig/burghausen-rueckmarsdorf/wohnlagencheck" target="_blank"><path d="M 67.8,460.0 L 46.3,474.3 L 19.8,479.1 L 19.7,474.7 L 14.7,474.5 L 19.9,503.1 L 17.0,518.2 L 36.2,538.0 L 43.5,558.0 L 43.5,575.8 L 74.6,591.4 L 95.4,594.9 L 108.6,618.5 L 143.9,610.3 L 181.2,575.9 L 188.8,570.8 L 194.3,576.9 L 213.5,552.6 L 219.6,553.7 L 206.2,546.4 L 154.7,538.6 L 124.7,540.0 L 129.9,525.2 L 141.5,520.1 L 130.4,514.7 L 122.7,497.4 L 115.5,494.9 L 111.5,484.5 L 91.3,469.9 L 91.1,465.1 L 76.9,465.8 L 67.8,460.0 Z " fill="#e0a266" fill-rule="evenodd" stroke="#fff" stroke-width="3" data-name="Burghausen Rückmarsdorf" data-value="5"></path></a><a xlink:href="/immobilienmarkt/sachsen/leipzig/moelkau/wohnlagencheck" target="_blank"><path d="M 686.3,567.1 L 671.6,567.6 L 657.1,600.9 L 637.3,598.1 L 635.9,614.5 L 629.7,613.2 L 626.2,626.4 L 625.8,631.8 L 641.2,632.8 L 642.5,652.3 L 654.2,647.6 L 662.8,681.9 L 679.7,671.0 L 684.1,681.6 L 693.6,684.6 L 695.4,679.2 L 698.4,688.0 L 703.8,687.1 L 719.3,681.8 L 721.7,675.7 L 736.5,674.3 L 745.5,656.5 L 766.0,658.9 L 771.9,628.4 L 752.6,617.1 L 753.5,600.6 L 744.1,598.6 L 743.2,581.2 L 731.5,568.9 L 686.3,567.1 Z " fill="#d4bb5a" fill-rule="evenodd" stroke="#fff" stroke-width="3" data-name="Mölkau" data-value="7"></path></a><a xlink:href="/immobilienmarkt/sachsen/leipzig/moeckern/wohnlagencheck" target="_blank"><path d="M 368.9,325.3 L 357.6,328.8 L 355.4,338.0 L 344.8,339.3 L 345.4,348.7 L 308.2,365.8 L 302.1,372.5 L 282.7,438.0 L 290.8,440.5 L 297.6,464.2 L 358.5,450.7 L 409.2,424.8 L 388.5,412.2 L 398.9,340.5 L 392.1,338.5 L 387.9,330.0 L 368.9,325.3 Z " fill="#d4bb5a" fill-rule="evenodd" stroke="#fff" stroke-width="3" data-name="Möckern" data-value="7"></path></a><a xlink:href="/immobilienmarkt/sachsen/leipzig/probstheida/wohnlagencheck" target="_blank"><path d="M 594.9,722.2 L 556.0,676.2 L 535.4,701.0 L 553.6,702.6 L 546.3,708.6 L 564.1,777.4 L 577.2,807.9 L 633.4,800.4 L 662.2,802.4 L 658.2,777.5 L 689.4,761.3 L 693.8,749.8 L 678.3,710.8 L 675.2,708.4 L 637.1,722.8 L 637.2,728.4 L 622.3,727.0 L 616.6,722.0 L 594.9,722.2 Z " fill="#cec854" fill-rule="evenodd" stroke="#fff" stroke-width="3" data-name="Probstheida" data-value="8"></path></a><a xlink:href="/immobilienmarkt/sachsen/leipzig/eutritzsch/wohnlagencheck" target="_blank"><path d="M 507.1,310.5 L 469.8,312.7 L 460.5,320.1 L 456.4,316.8 L 452.8,327.2 L 440.5,337.1 L 444.9,343.8 L 458.9,346.3 L 464.4,357.0 L 472.5,361.4 L 469.7,429.3 L 475.7,430.8 L 463.1,453.9 L 478.1,469.9 L 487.1,500.3 L 493.4,497.2 L 496.6,502.9 L 531.7,454.7 L 539.1,436.2 L 507.1,310.5 Z " fill="#d4bb5a" fill-rule="evenodd" stroke="#fff" stroke-width="3" data-name="Eutritzsch" data-value="7"></path></a><a xlink:href="/immobilienmarkt/sachsen/leipzig/leutzsch/wohnlagencheck" target="_blank"><path d="M 282.7,438.0 L 252.6,439.5 L 243.1,454.8 L 213.1,456.9 L 211.3,466.2 L 234.7,478.4 L 233.1,484.3 L 206.3,502.2 L 210.7,520.4 L 215.5,515.7 L 218.7,527.9 L 213.0,551.8 L 254.1,563.6 L 252.9,559.1 L 285.5,535.9 L 293.6,543.3 L 314.1,539.6 L 309.8,515.8 L 337.2,513.2 L 328.0,489.8 L 300.2,469.3 L 290.8,440.5 L 282.7,438.0 Z " fill="#d4bb5a" fill-rule="evenodd" stroke="#fff" stroke-width="3" data-name="Leutzsch" data-value="7"></path></a><a xlink:href="/immobilienmarkt/sachsen/leipzig/wahren/wohnlagencheck" target="_blank"><path d="M 261.5,332.2 L 255.0,330.3 L 248.5,373.3 L 231.2,368.9 L 229.1,380.2 L 235.2,388.8 L 221.7,392.4 L 213.8,406.3 L 203.1,397.5 L 193.3,402.1 L 191.4,393.7 L 181.8,392.8 L 172.2,379.8 L 169.6,383.0 L 169.0,393.8 L 160.7,399.0 L 161.1,407.7 L 154.0,412.8 L 161.1,416.8 L 164.0,429.4 L 170.8,427.3 L 175.4,437.5 L 183.2,440.7 L 182.2,446.5 L 198.0,444.0 L 207.8,447.0 L 206.7,452.1 L 213.1,456.9 L 234.6,457.0 L 243.3,454.7 L 252.6,439.5 L 282.7,438.0 L 302.7,371.4 L 341.1,348.3 L 307.7,348.6 L 281.4,342.4 L 271.0,333.1 L 261.5,332.2 Z " fill="#daaf60" fill-rule="evenodd" stroke="#fff" stroke-width="3" data-name="Wahren" data-value="6"></path></a><a xlink:href="/immobilienmarkt/sachsen/leipzig/mockau-nord/wohnlagencheck" target="_blank"><path d="M 551.6,286.0 L 516.6,284.8 L 506.7,310.1 L 531.8,402.8 L 538.6,391.7 L 550.5,386.5 L 602.8,393.3 L 610.5,373.3 L 612.0,345.6 L 622.2,335.7 L 618.0,314.1 L 596.2,288.1 L 551.6,286.0 Z " fill="#d4bb5a" fill-rule="evenodd" stroke="#fff" stroke-width="3" data-name="Mockau Nord" data-value="7"></path></a><a xlink:href="/immobilienmarkt/sachsen/leipzig/doelitz-doesen/wohnlagencheck" target="_blank"><path d="M 575.3,800.4 L 570.4,787.1 L 550.2,803.9 L 493.8,809.3 L 467.0,795.4 L 450.7,816.9 L 453.5,822.2 L 457.1,820.4 L 459.2,837.7 L 471.6,861.7 L 482.3,866.6 L 482.6,871.8 L 485.6,869.9 L 484.6,875.9 L 501.0,875.9 L 506.0,871.5 L 505.8,881.7 L 511.5,881.9 L 514.5,867.5 L 538.0,864.9 L 550.5,872.3 L 565.1,868.0 L 566.3,878.1 L 574.2,877.9 L 576.0,885.5 L 582.8,879.5 L 581.0,860.5 L 588.8,862.1 L 588.4,855.0 L 603.1,853.4 L 595.6,805.3 L 577.2,807.9 L 575.3,800.4 Z " fill="#daaf60" fill-rule="evenodd" stroke="#fff" stroke-width="3" data-name="Dölitz Dösen" data-value="6"></path></a><a xlink:href="/immobilienmarkt/sachsen/leipzig/zentrum-nordwest/wohnlagencheck" target="_blank"><path d="M 370.5,480.2 L 344.3,453.9 L 297.6,464.2 L 328.9,491.0 L 356.6,570.0 L 439.5,544.1 L 439.9,524.9 L 447.3,505.3 L 437.1,503.1 L 422.1,485.7 L 416.9,490.0 L 397.6,475.9 L 383.5,482.1 L 370.5,480.2 Z " fill="#d4bb5a" fill-rule="evenodd" stroke="#fff" stroke-width="3" data-name="Zentrum Nordwest" data-value="7"></path></a><a xlink:href="/immobilienmarkt/sachsen/leipzig/paunsdorf/wohnlagencheck" target="_blank"><path d="M 704.7,467.1 L 689.8,451.8 L 671.6,465.4 L 654.9,508.7 L 688.5,512.5 L 681.5,547.8 L 694.1,548.1 L 729.3,568.6 L 723.1,551.7 L 740.5,535.1 L 800.4,534.7 L 793.6,503.1 L 771.7,506.8 L 767.8,482.2 L 757.2,480.6 L 756.1,462.8 L 737.8,471.9 L 709.5,460.8 L 704.7,467.1 Z " fill="#d4bb5a" fill-rule="evenodd" stroke="#fff" stroke-width="3" data-name="Paunsdorf" data-value="7"></path></a><a xlink:href="/immobilienmarkt/sachsen/leipzig/baalsdorf/wohnlagencheck" target="_blank"><path d="M 791.6,621.9 L 773.0,622.9 L 766.1,658.7 L 745.5,656.5 L 736.5,674.3 L 775.8,688.6 L 854.6,686.4 L 857.4,682.1 L 878.1,688.3 L 891.7,668.6 L 888.8,661.2 L 900.5,632.0 L 872.3,623.7 L 791.6,621.9 Z " fill="#d4bb5a" fill-rule="evenodd" stroke="#fff" stroke-width="3" data-name="Baalsdorf" data-value="7"></path></a><a xlink:href="/immobilienmarkt/sachsen/leipzig/lausen-gruenau/wohnlagencheck" target="_blank"><path d="M 66.6,670.9 L 20.9,682.0 L 10.5,691.5 L 24.1,706.0 L 36.4,748.8 L 40.8,746.8 L 49.0,779.8 L 44.7,787.2 L 80.9,783.0 L 146.3,761.5 L 143.0,736.9 L 110.0,749.3 L 118.3,736.9 L 103.9,685.8 L 81.2,691.1 L 73.5,716.5 L 68.3,718.2 L 60.4,697.4 L 61.0,685.5 L 70.4,670.9 L 66.6,670.9 Z " fill="#daaf60" fill-rule="evenodd" stroke="#fff" stroke-width="3" data-name="Lausen Grünau" data-value="6"></path></a><a xlink:href="/immobilienmarkt/sachsen/leipzig/stoetteritz/wohnlagencheck" target="_blank"><path d="M 593.1,627.5 L 586.3,618.3 L 556.0,676.2 L 595.4,722.7 L 616.6,722.0 L 622.3,727.0 L 637.2,728.4 L 637.1,722.8 L 675.4,708.3 L 668.1,681.9 L 662.8,681.9 L 660.2,674.6 L 654.2,647.6 L 641.4,650.9 L 641.2,632.8 L 593.1,627.5 Z " fill="#d4bb5a" fill-rule="evenodd" stroke="#fff" stroke-width="3" data-name="Stötteritz" data-value="7"></path></a><a xlink:href="/immobilienmarkt/sachsen/leipzig/heiterblick/wohnlagencheck" target="_blank"><path d="M 758.0,419.1 L 753.5,414.4 L 757.9,411.6 L 747.1,402.0 L 686.8,440.4 L 673.7,459.4 L 677.1,461.6 L 689.8,451.8 L 704.8,467.2 L 709.5,460.8 L 737.8,471.9 L 756.1,462.8 L 757.2,480.6 L 767.8,482.2 L 771.7,506.8 L 801.9,501.4 L 840.7,485.3 L 767.6,421.1 L 758.0,419.1 Z " fill="#d4bb5a" fill-rule="evenodd" stroke="#fff" stroke-width="3" data-name="Heiterblick" data-value="7"></path></a><a xlink:href="/immobilienmarkt/sachsen/leipzig/schoenefeld-ost/wohnlagencheck" target="_blank"><path d="M 593.3,528.3 L 677.1,461.6 L 673.7,459.4 L 677.0,434.4 L 657.5,406.5 L 626.1,397.7 L 610.1,423.6 L 598.1,456.7 L 582.1,483.8 L 580.1,522.7 L 593.3,528.3 Z " fill="#d4bb5a" fill-rule="evenodd" stroke="#fff" stroke-width="3" data-name="Schönefeld Ost" data-value="7"></path></a><a xlink:href="/immobilienmarkt/sachsen/leipzig/zentrum-suedost/wohnlagencheck" target="_blank"><path d="M 517.2,574.7 L 518.2,571.0 L 494.1,576.1 L 475.0,573.0 L 470.1,584.3 L 463.9,587.2 L 459.7,603.0 L 471.2,614.4 L 469.1,620.0 L 500.0,703.4 L 515.1,712.9 L 530.6,706.4 L 556.0,676.2 L 538.6,650.3 L 526.8,650.8 L 524.3,646.2 L 524.5,618.4 L 509.6,597.7 L 517.2,574.7 Z " fill="#cec854" fill-rule="evenodd" stroke="#fff" stroke-width="3" data-name="Zentrum Südost" data-value="8"></path></a><a xlink:href="/immobilienmarkt/sachsen/leipzig/schoenau/wohnlagencheck" target="_blank"><path d="M 193.6,576.3 L 186.1,572.5 L 143.9,610.3 L 108.6,618.5 L 118.6,633.2 L 134.7,676.2 L 174.8,650.7 L 204.9,643.6 L 243.6,624.5 L 229.0,603.9 L 193.6,576.3 Z " fill="#d4bb5a" fill-rule="evenodd" stroke="#fff" stroke-width="3" data-name="Schönau" data-value="7"></path></a><a xlink:href="/immobilienmarkt/sachsen/leipzig/miltitz/wohnlagencheck" target="_blank"><path d="M 77.3,591.4 L 70.2,606.0 L 35.1,613.6 L 36.7,619.0 L 26.6,621.0 L 24.0,610.8 L 23.7,632.7 L 2.4,637.5 L 9.5,668.9 L 0.1,672.2 L 4.3,686.3 L 70.4,670.9 L 61.0,685.5 L 60.4,697.2 L 68.3,718.2 L 73.5,716.5 L 82.3,690.3 L 86.2,638.3 L 116.3,633.0 L 95.4,594.9 L 77.3,591.4 Z " fill="#daaf60" fill-rule="evenodd" stroke="#fff" stroke-width="3" data-name="Miltitz" data-value="6"></path></a><a xlink:href="/immobilienmarkt/sachsen/leipzig/kleinzschocher/wohnlagencheck" target="_blank"><path d="M 337.0,679.6 L 304.3,669.3 L 234.2,665.9 L 240.9,682.8 L 211.8,695.7 L 233.2,713.8 L 257.2,709.0 L 268.1,697.9 L 271.6,720.3 L 299.2,734.4 L 337.1,766.8 L 338.8,752.8 L 347.6,739.5 L 343.3,729.4 L 348.9,725.2 L 338.4,704.5 L 337.0,679.6 Z " fill="#daaf60" fill-rule="evenodd" stroke="#fff" stroke-width="3" data-name="Kleinzschocher" data-value="6"></path></a><a xlink:href="/immobilienmarkt/sachsen/leipzig/sellerhausen-stuenz/wohnlagencheck" target="_blank"><path d="M 720.4,565.7 L 694.1,548.1 L 681.5,547.8 L 688.5,512.5 L 654.9,508.7 L 671.6,465.4 L 602.0,520.2 L 610.1,534.2 L 604.2,565.2 L 616.2,568.3 L 620.8,575.8 L 647.6,582.1 L 652.2,598.3 L 656.9,600.8 L 671.6,567.6 L 720.4,565.7 Z " fill="#d4bb5a" fill-rule="evenodd" stroke="#fff" stroke-width="3" data-name="Sellerhausen Stünz" data-value="7"></path></a><a xlink:href="/immobilienmarkt/sachsen/leipzig/schoenefeld-abtnaundorf/wohnlagencheck" target="_blank"><path d="M 600.3,451.3 L 609.9,424.0 L 626.1,397.7 L 602.8,393.3 L 579.9,407.2 L 575.5,417.8 L 580.4,435.4 L 575.0,448.7 L 558.5,456.3 L 552.8,446.0 L 538.1,441.5 L 496.6,502.9 L 580.1,522.7 L 582.1,483.8 L 600.3,451.3 Z " fill="#daaf60" fill-rule="evenodd" stroke="#fff" stroke-width="3" data-name="Schönefeld Abtnaundorf" data-value="6"></path></a><a xlink:href="/immobilienmarkt/sachsen/leipzig/neulindenau/wohnlagencheck" target="_blank"><path d="M 217.6,553.3 L 201.1,564.5 L 194.5,576.5 L 229.0,603.9 L 243.6,624.5 L 224.2,634.9 L 234.2,665.9 L 271.7,668.9 L 280.5,619.0 L 276.1,596.2 L 247.3,561.6 L 217.6,553.3 Z " fill="#d4bb5a" fill-rule="evenodd" stroke="#fff" stroke-width="3" data-name="Neulindenau" data-value="7"></path></a><a xlink:href="/immobilienmarkt/sachsen/leipzig/suedvorstadt/wohnlagencheck" target="_blank"><path d="M 416.7,635.6 L 404.9,628.8 L 389.4,639.0 L 392.2,657.3 L 381.7,672.9 L 410.7,665.1 L 402.0,683.3 L 409.5,701.5 L 497.6,698.0 L 479.6,640.4 L 476.2,645.7 L 432.1,643.7 L 416.7,635.6 Z " fill="#d4bb5a" fill-rule="evenodd" stroke="#fff" stroke-width="3" data-name="Südvorstadt" data-value="7"></path></a><a xlink:href="/immobilienmarkt/sachsen/leipzig/altlindenau/wohnlagencheck" target="_blank"><path d="M 345.4,537.0 L 337.2,513.2 L 309.8,515.8 L 314.1,539.6 L 293.6,543.3 L 285.5,535.9 L 252.9,559.1 L 254.1,563.6 L 247.3,561.6 L 271.8,588.8 L 279.2,604.7 L 304.0,589.2 L 338.1,590.7 L 344.6,586.7 L 345.9,573.8 L 356.6,570.0 L 345.4,537.0 Z " fill="#d4bb5a" fill-rule="evenodd" stroke="#fff" stroke-width="3" data-name="Altlindenau" data-value="7"></path></a><a xlink:href="/immobilienmarkt/sachsen/leipzig/schleussig/wohnlagencheck" target="_blank"><path d="M 376.7,606.1 L 374.3,603.1 L 367.8,607.5 L 364.2,617.5 L 340.1,636.5 L 330.0,654.3 L 328.1,672.2 L 338.6,678.9 L 338.4,704.5 L 348.8,724.4 L 343.3,729.4 L 347.7,738.7 L 343.1,747.4 L 362.8,718.0 L 392.2,657.3 L 376.7,606.1 Z " fill="#daaf60" fill-rule="evenodd" stroke="#fff" stroke-width="3" data-name="Schleußig" data-value="6"></path></a><a xlink:href="/immobilienmarkt/sachsen/leipzig/gohlis-nord/wohnlagencheck" target="_blank"><path d="M 434.6,335.2 L 424.1,333.3 L 404.3,342.3 L 398.9,340.5 L 391.2,397.0 L 470.3,401.3 L 472.5,361.4 L 464.4,357.0 L 458.5,346.0 L 444.9,343.8 L 434.6,335.2 Z " fill="#cec854" fill-rule="evenodd" stroke="#fff" stroke-width="3" data-name="Gohlis Nord" data-value="8"></path></a><a xlink:href="/immobilienmarkt/sachsen/leipzig/reudnitz-thonberg/wohnlagencheck" target="_blank"><path d="M 538.2,570.0 L 518.2,571.0 L 509.6,597.7 L 524.5,618.4 L 526.8,650.8 L 538.6,650.3 L 556.0,676.2 L 591.2,608.5 L 555.6,601.8 L 560.7,578.8 L 538.2,570.0 Z " fill="#d4bb5a" fill-rule="evenodd" stroke="#fff" stroke-width="3" data-name="Reudnitz Thonberg" data-value="7"></path></a><a xlink:href="/immobilienmarkt/sachsen/leipzig/gohlis-sued/wohnlagencheck" target="_blank"><path d="M 463.1,453.9 L 409.2,424.8 L 363.6,448.4 L 344.3,453.9 L 367.4,479.1 L 383.1,482.1 L 396.3,475.5 L 416.9,490.0 L 422.1,485.7 L 425.8,491.3 L 454.8,468.7 L 452.0,461.8 L 463.1,453.9 Z " fill="#cec854" fill-rule="evenodd" stroke="#fff" stroke-width="3" data-name="Gohlis Süd" data-value="8"></path></a><a xlink:href="/immobilienmarkt/sachsen/leipzig/meusdorf/wohnlagencheck" target="_blank"><path d="M 639.8,800.1 L 595.6,805.3 L 603.1,853.4 L 632.2,848.5 L 648.5,858.0 L 687.9,865.1 L 674.5,816.1 L 662.2,802.4 L 639.8,800.1 Z " fill="#daaf60" fill-rule="evenodd" stroke="#fff" stroke-width="3" data-name="Meusdorf" data-value="6"></path></a><a xlink:href="/immobilienmarkt/sachsen/leipzig/anger-crottendorf/wohnlagencheck" target="_blank"><path d="M 589.5,562.9 L 576.7,560.8 L 565.1,570.5 L 561.2,566.1 L 556.4,576.2 L 561.5,584.8 L 555.6,601.8 L 591.2,608.5 L 586.3,618.3 L 593.5,628.8 L 625.8,631.8 L 629.7,613.2 L 635.9,614.5 L 637.3,598.1 L 652.2,598.3 L 647.7,582.2 L 620.8,575.8 L 614.0,567.3 L 589.5,562.9 Z " fill="#daaf60" fill-rule="evenodd" stroke="#fff" stroke-width="3" data-name="Anger Crottendorf" data-value="6"></path></a><a xlink:href="/immobilienmarkt/sachsen/leipzig/loessnig/wohnlagencheck" target="_blank"><path d="M 560.0,757.7 L 558.3,750.9 L 541.9,758.4 L 496.4,759.4 L 487.3,775.4 L 467.0,795.4 L 493.8,809.3 L 550.5,803.8 L 570.4,787.1 L 560.0,757.7 Z " fill="#c8d54f" fill-rule="evenodd" stroke="#fff" stroke-width="3" data-name="Lößnig" data-value="9"></path></a><a xlink:href="/immobilienmarkt/sachsen/leipzig/plagwitz/wohnlagencheck" target="_blank"><path d="M 357.1,622.0 L 364.2,617.5 L 367.8,607.5 L 329.8,606.2 L 279.7,624.9 L 271.7,668.9 L 304.3,669.3 L 338.8,679.5 L 328.3,672.9 L 330.0,654.3 L 338.7,638.2 L 357.1,622.0 Z " fill="#d4bb5a" fill-rule="evenodd" stroke="#fff" stroke-width="3" data-name="Plagwitz" data-value="7"></path></a><a xlink:href="/immobilienmarkt/sachsen/leipzig/zentrum-west/wohnlagencheck" target="_blank"><path d="M 435.2,552.3 L 439.5,544.1 L 356.6,570.0 L 363.1,588.1 L 382.9,617.7 L 410.6,605.9 L 415.8,597.2 L 439.0,591.6 L 440.1,564.9 L 433.9,557.4 L 435.2,552.3 Z " fill="#cec854" fill-rule="evenodd" stroke="#fff" stroke-width="3" data-name="Zentrum West" data-value="8"></path></a><a xlink:href="/immobilienmarkt/sachsen/leipzig/zentrum-ost/wohnlagencheck" target="_blank"><path d="M 495.0,576.0 L 518.7,570.2 L 517.5,552.1 L 521.3,549.8 L 509.6,537.8 L 539.0,519.5 L 553.6,517.5 L 553.3,513.6 L 515.0,510.3 L 498.2,504.0 L 493.4,497.2 L 461.4,522.6 L 464.7,543.0 L 478.9,550.5 L 475.0,573.0 L 495.0,576.0 Z " fill="#c8d54f" fill-rule="evenodd" stroke="#fff" stroke-width="3" data-name="Zentrum Ost" data-value="10"></path></a><a xlink:href="/immobilienmarkt/sachsen/leipzig/gruenau-siedlung/wohnlagencheck" target="_blank"><path d="M 146.3,714.7 L 134.7,676.2 L 103.9,685.8 L 118.3,736.9 L 110.0,749.3 L 232.5,713.2 L 217.3,700.3 L 146.3,714.7 Z " fill="#e0a266" fill-rule="evenodd" stroke="#fff" stroke-width="3" data-name="Grünau Siedlung" data-value="5"></path></a><a xlink:href="/immobilienmarkt/sachsen/leipzig/zentrum-sued/wohnlagencheck" target="_blank"><path d="M 459.7,603.0 L 463.9,587.2 L 415.8,597.2 L 410.6,605.9 L 382.9,617.7 L 389.4,639.0 L 406.4,628.8 L 427.3,643.2 L 476.2,645.7 L 469.1,620.0 L 471.2,614.4 L 459.7,603.0 Z " fill="#d4bb5a" fill-rule="evenodd" stroke="#fff" stroke-width="3" data-name="Zentrum Süd" data-value="7"></path></a><a xlink:href="/immobilienmarkt/sachsen/leipzig/zentrum-nord/wohnlagencheck" target="_blank"><path d="M 469.1,458.7 L 463.1,453.9 L 459.8,459.1 L 458.3,455.9 L 452.0,461.8 L 454.8,468.7 L 425.8,491.3 L 438.3,503.8 L 447.3,505.3 L 439.9,524.9 L 439.5,544.1 L 464.7,543.0 L 461.4,522.6 L 487.1,500.3 L 478.7,471.3 L 469.1,458.7 Z " fill="#d4bb5a" fill-rule="evenodd" stroke="#fff" stroke-width="3" data-name="Zentrum Nord" data-value="7"></path></a><a xlink:href="/immobilienmarkt/sachsen/leipzig/gohlis-mitte/wohnlagencheck" target="_blank"><path d="M 440.7,402.4 L 391.2,397.0 L 388.5,412.2 L 463.1,453.9 L 475.7,430.8 L 469.7,429.3 L 470.3,401.3 L 440.7,402.4 Z " fill="#d4bb5a" fill-rule="evenodd" stroke="#fff" stroke-width="3" data-name="Gohlis Mitte" data-value="7"></path></a><a xlink:href="/immobilienmarkt/sachsen/leipzig/mockau-sued/wohnlagencheck" target="_blank"><path d="M 579.6,439.4 L 577.5,410.4 L 602.8,393.3 L 555.8,386.5 L 538.6,391.7 L 531.8,402.8 L 538.1,441.5 L 552.8,446.0 L 558.5,456.3 L 571.5,452.3 L 579.6,439.4 Z " fill="#daaf60" fill-rule="evenodd" stroke="#fff" stroke-width="3" data-name="Mockau Süd" data-value="6"></path></a><a xlink:href="/immobilienmarkt/sachsen/leipzig/gruenau-mitte/wohnlagencheck" target="_blank"><path d="M 213.1,701.7 L 217.3,700.3 L 183.1,669.9 L 177.9,649.4 L 134.7,676.2 L 146.5,715.1 L 213.1,701.7 Z " fill="#d4bb5a" fill-rule="evenodd" stroke="#fff" stroke-width="3" data-name="Grünau Mitte" data-value="7"></path></a><a xlink:href="/immobilienmarkt/sachsen/leipzig/marienbrunn/wohnlagencheck" target="_blank"><path d="M 515.1,712.9 L 503.8,708.1 L 497.6,698.0 L 503.2,732.6 L 496.4,759.4 L 541.9,758.4 L 558.3,750.9 L 546.3,708.6 L 553.6,702.6 L 535.4,701.0 L 515.1,712.9 Z " fill="#c8d54f" fill-rule="evenodd" stroke="#fff" stroke-width="3" data-name="Marienbrunn" data-value="9"></path></a><a xlink:href="/immobilienmarkt/sachsen/leipzig/gruenau-ost/wohnlagencheck" target="_blank"><path d="M 212.8,695.3 L 240.9,682.8 L 224.2,634.9 L 177.9,649.4 L 184.2,671.5 L 212.8,695.3 Z " fill="#cec854" fill-rule="evenodd" stroke="#fff" stroke-width="3" data-name="Grünau Ost" data-value="8"></path></a><a xlink:href="/immobilienmarkt/sachsen/leipzig/volkmarsdorf/wohnlagencheck" target="_blank"><path d="M 588.9,527.0 L 553.4,515.5 L 553.8,556.8 L 565.1,570.5 L 577.3,560.7 L 604.2,565.2 L 608.7,528.2 L 602.0,520.2 L 592.6,529.0 L 588.9,527.0 Z " fill="#d4bb5a" fill-rule="evenodd" stroke="#fff" stroke-width="3" data-name="Volkmarsdorf" data-value="7"></path></a><a xlink:href="/immobilienmarkt/sachsen/leipzig/lindenau/wohnlagencheck" target="_blank"><path d="M 364.0,589.4 L 356.6,570.0 L 345.9,573.8 L 341.1,589.7 L 301.4,590.0 L 279.2,604.7 L 279.7,624.9 L 329.8,606.2 L 369.0,607.5 L 374.3,603.1 L 364.0,589.4 Z " fill="#cec854" fill-rule="evenodd" stroke="#fff" stroke-width="3" data-name="Lindenau" data-value="8"></path></a><a xlink:href="/immobilienmarkt/sachsen/leipzig/gruenau-nord/wohnlagencheck" target="_blank"><path d="M 128.1,660.7 L 117.9,632.5 L 86.2,638.3 L 82.2,655.5 L 87.1,665.4 L 81.2,691.1 L 134.7,676.2 L 128.1,660.7 Z " fill="#d4bb5a" fill-rule="evenodd" stroke="#fff" stroke-width="3" data-name="Grünau Nord" data-value="7"></path></a><a xlink:href="/immobilienmarkt/sachsen/leipzig/neustadt-neuschoenefeld/wohnlagencheck" target="_blank"><path d="M 559.7,568.6 L 553.7,555.4 L 553.6,517.5 L 539.0,519.5 L 509.6,537.8 L 521.3,549.8 L 517.5,552.1 L 518.2,571.0 L 538.2,570.0 L 552.9,576.4 L 559.7,568.6 Z " fill="#cec854" fill-rule="evenodd" stroke="#fff" stroke-width="3" data-name="Neustadt Neuschönefeld" data-value="8"></path></a><a xlink:href="/immobilienmarkt/sachsen/leipzig/zentrum/wohnlagencheck" target="_blank"><path d="M 466.3,543.6 L 439.5,544.1 L 433.5,555.8 L 440.0,564.7 L 439.0,591.6 L 470.8,583.2 L 478.9,550.7 L 466.3,543.6 Z " fill="#d4bb5a" fill-rule="evenodd" stroke="#fff" stroke-width="3" data-name="Zentrum" data-value="7"></path></a></svg>