<?xml version="1.0" encoding="UTF-8"?><svg id="a" xmlns="http://www.w3.org/2000/svg" viewBox="0 0 631.3874 860.1469"><path d="M171.8648,3.2629c-6.0398,13.6068-6.8728,16.4532-7.0811,25.5475-.2083,7.7059-.1388,8.3307,1.1108,8.539,1.2496.2777,1.319-.0694.9025-5.6232-.4165-5.2761-.3471-6.0398.9719-7.7059,1.5967-2.0133,3.4711-2.3604,4.7902-.7636,1.2496,1.4579,3.124,1.319,6.1092-.5554,1.3885-.9025,3.8877-1.8744,5.4844-2.1521l2.9852-.4165,2.2215,4.6513c1.2496,2.6381,2.2909,4.9984,2.3604,5.415.0694.3471.6248,2.2215,1.2496,4.1654,1.5273,4.929,1.3885,7.6365-.486,9.5109-1.6661,1.6661-5.9703,3.8182-8.4696,4.1654-.7636.1388-1.4579.7636-1.5967,1.4579-.2777,1.5273,1.9438,1.5967,6.3175.0694,2.3604-.8331,3.4017-1.5273,3.6794-2.7769.2083-.9025,1.0413-1.805,1.7356-2.0133.9025-.3471,1.319-1.1108,1.319-2.6381v-2.2215l1.2496,1.9438c.6942,1.0413,2.3604,2.6381,3.61,3.61,1.2496.9025,3.5406,3.4711,4.9984,5.6232,1.4579,2.0827,3.6794,4.929,4.929,6.3175,3.0546,3.3323,2.8463,4.0959-.8331,3.8182-4.0265-.3471-6.9423.9719-7.4282,3.2629-.2083.9719-.5554,2.3604-.7636,3.0546-.2777,1.1108.1388,1.2496,3.7488,1.0413,3.9571-.2083,4.0265-.2083,5.415-3.124.7636-1.5967,1.805-3.124,2.3604-3.3323,1.1802-.486,1.2496-.4165,1.805,1.805.3471,1.4579-.1388,2.4992-2.7769,5.6927-1.7356,2.1521-3.8877,4.0959-4.7207,4.2348s-3.4017.6248-5.7621,1.0413c-2.2909.4165-5.7621.7636-7.6365.7636-3.124,0-3.61.2083-4.3042,1.7356-1.1108,2.4298-1.1802,2.4298,1.7356,2.4298,2.4298,0,2.4992.0694,1.1802,1.0413-.6942.5554-1.9438,1.0413-2.7075,1.0413-1.2496,0-1.3885.4165-1.319,3.1934.0694,2.6381.486,3.5406,2.0827,4.8596,2.5686,2.0827,3.61,2.0827,5.2761-.0694,1.0413-1.3885,1.9438-1.7356,4.3736-1.7356,2.2215,0,3.2629.3471,3.7488,1.2496.7636,1.5273,0,8.8861-1.2496,11.1076-.6942,1.3885-.6942,1.9438.3471,3.4711,2.6381,4.0265,3.4711,4.5125,5.9009,3.6794,2.4992-.8331,3.4017-.5554,3.4017,1.2496,0,.6942.486,2.2215,1.1108,3.4711.6942,1.319.9025,2.9158.6248,4.0265-.4165,1.7356-.486,1.7356-5.2067,1.319l-4.7902-.486,2.3604,6.1092c1.319,3.3323,3.3323,7.3588,4.3736,8.8861l1.9438,2.7769,9.9969.4165c5.5538.2777,10.6217.6942,11.3159.9719,2.4298,1.0413,1.0413,1.5967-3.124,1.2496-3.4711-.2777-5.5538,0-10.1357,1.5273-5.1373,1.6661-6.5952,1.805-13.6763,1.5967l-7.9142-.2083-3.0546-3.3323-2.9852-3.3323-2.8463,1.1108c-2.4298.9719-3.0546,1.7356-4.929,5.7621-1.1108,2.5686-2.2909,5.2761-2.5686,6.0398-.7636,2.0827-3.8182,14.4399-3.8182,15.4118,0,.8331,3.124,7.9142,5.2761,12.149,1.5967,3.0546-.1388,2.4992-7.7753-2.5686-3.7488-2.4992-7.22-4.5125-7.7753-4.5125-2.7075,0-4.7207,2.0133-5.5538,5.5538-1.2496,5.415-1.1802,5.5538,1.9438,5.5538h2.7769v4.0265c0,4.0265-.0694,4.1654-3.3323,6.8728l-3.3323,2.7769-2.0133-3.0546c-1.805-2.6381-2.3604-2.9852-3.9571-2.7075s-1.9438,0-2.8463-2.2215c-.5554-1.3885-.9719-2.6381-.9025-2.6381,0-.0694,1.3885-.2777,3.0546-.486,1.5967-.1388,3.0546-.4165,3.124-.5554.1388-.1388.5554-1.1802,1.0413-2.2909.8331-1.805.6248-2.3604-2.2909-7.2894-1.7356-2.9852-3.124-5.6927-3.124-6.1092,0-.3471-.9719-2.4298-2.1521-4.5819l-2.1521-3.9571h-6.3869c-3.5406,0-8.1919.3471-10.2051.6942-2.0827.4165-4.8596.9025-6.1786,1.1108-1.319.1388-3.5406.6248-4.8596,1.1108-1.319.4165-7.9836.9025-14.7176,1.1802l-12.3572.4165-5.2067,5.2067-5.2067,5.1373v4.3042c0,4.0959-.1388,4.3736-2.2215,5.7621-2.2215,1.319-2.2909,1.5967-3.0546,8.1919-.486,4.5125-.486,7.5671-.0694,9.0249l.6942,2.2909,5.6232.0694c9.5109.1388,10.8299,1.1802,8.3307,7.0811-.9719,2.4298-1.2496,5.4844-1.319,18.5359-.1388,17.5639-.2083,17.7028-6.3869,26.7277-2.7769,4.0959-2.8463,4.4431-3.2629,11.4547-.5554,9.858-1.2496,15.9672-1.6661,15.9672-.2083,0-3.0546-.486-6.3175-1.1108-5.6927-1.0413-15.5507-.9025-16.3143.2777-.1388.2777.4165,2.2909,1.319,4.5125l1.6661,3.9571h-2.3604c-1.319,0-2.5686.3471-2.8463.7636-.6942,1.1802,1.2496,9.1638,2.5686,10.344.6248.6248,4.3736,1.805,8.3307,2.7075,5.6927,1.319,7.5671,1.5273,9.1638.9025,1.8744-.6942,2.0133-.6248,2.9852,1.7356.6248,1.3885,1.7356,3.4017,2.5686,4.5125l1.4579,1.9438-1.5967,4.7207c-1.5967,4.5125-1.5967,4.7902-.486,6.9423,1.1802,2.2215,1.1108,2.2215-.6248,2.9158-1.0413.4165-2.1521.6942-2.4992.6942-.4165,0-1.319,1.319-2.0133,2.9158-1.6661,3.7488-7.0117,7.9836-10.8994,8.6084-2.5686.4165-3.2629.9719-5.7621,4.5819-1.5967,2.2215-2.8463,4.1654-2.7075,4.3042.1388.0694,2.0133,1.3885,4.0959,2.8463s4.0959,2.9158,4.4431,3.1934c.7636.6942-2.8463,7.8448-4.5819,8.8861-1.1108.6942-1.5967.6248-2.7075-.3471-1.1802-1.0413-1.6661-1.1108-4.3042-.3471-1.5967.486-4.4431,1.8744-6.3869,2.9852-3.61,2.2215-5.3455,2.5686-9.1638,1.5967-2.1521-.486-2.2909-.4165-2.2909,1.319,0,.9719-.1388,1.805-.3471,1.805s-3.8182-1.5967-8.1225-3.4711c-4.2348-1.9438-7.7753-3.4017-7.9142-3.2629s.1388,1.1802.5554,2.4298c.486,1.1802.6942,2.3604.486,2.5686s-1.8744-.2083-3.6794-.8331c-3.0546-1.1802-3.4017-1.1802-4.1654-.1388-.4165.6248-2.5686,1.5273-4.7902,2.0133-2.1521.486-3.9571,1.0413-3.9571,1.2496s.9719,1.8744,2.1521,3.7488c2.0133,3.124,2.0827,3.4711,1.0413,4.6513-1.5273,1.7356-1.4579,2.0133,1.1802,2.7075,1.9438.486,2.2215.9025,2.4298,3.0546.2083,2.0133.6942,2.8463,2.9158,4.3042,2.4298,1.5967,2.7075,2.0133,2.3604,3.8877-.3471,1.7356,0,2.6381,2.2215,5.3455,1.5273,1.805,3.124,4.0959,3.6794,5.0679q3.124,5.6232,2.4298,10.4828c-.3471,2.5686-.4165,5.5538-.1388,6.6646.6248,2.1521-1.1802,5.2067-6.8728,11.5936-2.9158,3.2629-2.9852,3.4711-2.9852,8.1225,0,5.2067.4165,5.6232,4.3736,4.1654.9719-.4165,1.8744-.486,2.0827-.2777.9025.8331-.6248,2.4298-4.9984,5.1373-3.124,1.8744-5.3455,3.8877-6.5952,5.9009-2.2215,3.4711-2.6381,3.61-3.9571,1.5967-.9025-1.2496-1.1802-1.319-2.9158-.5554-1.9438.9025-1.9438.6248-.7636,7.3588l.4165,2.2909h8.8861v2.7075c0,2.3604.2777,2.7769,2.1521,3.5406,1.8744.8331,2.0827,1.1802,1.7356,2.9852-.2083,1.1108-.4165,2.6381-.4165,3.3323,0,.9719-.486,1.319-1.7356,1.319-1.5273,0-1.7356.2777-1.7356,2.4298,0,1.9438-.2777,2.4298-1.3885,2.4298-.7636,0-1.3885.4165-1.3885.9025,0,.5554.6248,1.5273,1.3885,2.2215s1.3885,2.1521,1.3885,3.1934c0,2.2909,2.2215,4.0959,4.929,4.0959,2.0133,0,4.1654,2.8463,5.7621,7.6365.5554,1.805,1.1802,2.4992,2.4992,2.6381,3.61.4165,3.6794.6942.6942,4.3042l-2.9158,3.5406,1.5967,3.4017c1.5967,3.4017,1.6661,3.4711,4.929,3.4711,2.8463,0,3.4017.2777,4.7902,2.2215,1.2496,1.7356,1.5967,3.0546,1.4579,5.9703-.0694,2.0133-.2777,4.0265-.486,4.3736-.2777.3471.2083,1.5273.9719,2.6381,1.805,2.4992,1.8744,3.5406.2083,3.5406-.6942,0-2.0133.8331-2.9852,1.805-.9025,1.0413-3.1934,2.8463-5.1373,4.0959-5.2761,3.4711-6.3175,4.7902-5.2761,7.0811.7636,1.7356.6942,2.0133-.8331,3.124-1.1802.8331-1.5967,1.7356-1.3885,2.6381.2083.7636-.1388,2.1521-.6942,3.0546-.6942,1.0413-1.1802,3.4017-1.2496,6.1092-.1388,5.0679,1.6661,9.9969,4.9984,13.468,1.1802,1.1802,2.0133,2.4298,1.8744,2.7769-.6248,2.2215,7.4976,10.5522,9.858,10.1357.6248-.0694,1.8744.6248,2.7769,1.5967,1.1108,1.2496,2.3604,1.7356,4.0959,1.7356,3.9571,0,4.3736.6248,3.8877,5.2761-.3471,3.3323-.8331,4.5125-2.6381,6.3869-1.4579,1.4579-2.2215,3.0546-2.2909,4.4431-.0694,1.4579-.7636,2.7769-1.8744,3.7488-1.8744,1.5967-2.0827,2.8463-1.9438,11.177l.0694,4.2348,3.6794.486c3.5406.486,7.4282,2.9852,7.4282,4.8596,0,.4165.7636,1.5273,1.7356,2.4298,1.1108,1.0413,1.7356,2.3604,1.7356,3.6794,0,1.1802.9719,3.4017,2.2909,5.2761,1.2496,1.7356,2.7769,4.3736,3.4711,5.7621.6248,1.4579,1.4579,2.6381,1.8744,2.6381.3471,0,.6942,1.0413.6942,2.2215,0,3.2629.5554,3.7488,4.929,4.2348,4.5819.5554,5.9703-.3471,5.2067-3.4017-.486-1.7356-.3471-1.805,1.319-1.3885,1.0413.2777,2.2909.1388,2.7075-.2083.6248-.5554,1.7356-.3471,3.7488.6248,1.5967.7636,3.1934,1.3885,3.61,1.3885.3471,0,.6248.2083.5554.486-.0694.3471.1388,2.0133.4165,3.8182.486,2.6381.8331,3.3323,1.8744,3.3323.8331,0,1.319-.486,1.319-1.319,0-2.2215,1.319-2.3604,3.7488-.486,1.7356,1.2496,3.5406,1.8744,6.9423,2.2215,3.1934.3471,4.5819.2083,4.5819-.2777s1.1108-1.2496,2.4298-1.805c1.7356-.7636,2.4298-1.4579,2.4298-2.5686,0-1.3885.2083-1.4579,3.3323-.9719,3.8877.5554,4.3042.7636,4.3042,2.2215,0,.6248,1.0413,2.4298,2.2909,4.0959,1.5967,2.1521,2.7075,2.9852,4.0265,3.0546.9719,0,2.7075.7636,3.8182,1.7356,1.5967,1.319,2.7769,1.7356,5.4844,1.7356,1.9438,0,3.8877-.3471,4.3736-.8331.6942-.6942,1.319-.5554,2.9852.4165,1.5967.9719,2.8463,1.1108,5.415.7636,2.9852-.4165,3.6794-.2083,7.0811,1.9438,2.0827,1.319,4.7902,3.124,6.0398,3.8877,1.4579.9025,3.4711,1.4579,5.415,1.4579,1.6661,0,3.0546.2083,3.0546.4165s-.8331,1.3885-1.805,2.5686-2.7075,4.1654-3.8182,6.6646c-1.1802,2.4992-2.4298,5.3455-2.9158,6.3175s-2.6381,2.9158-4.8596,4.3736c-2.9158,2.0133-3.9571,3.124-3.9571,4.3042,0,1.1108-1.319,2.7075-4.1654,5.2067-5.2067,4.5125-7.1505,8.4001-7.0117,14.2316.1388,3.4017-.2083,4.929-1.8744,7.9836-1.6661,3.124-2.0133,4.7902-2.1521,9.0249-.1388,4.1654-.4165,5.415-1.4579,6.248-.6942.5554-1.5273,1.8744-1.805,2.9852-.2083,1.0413-.6942,2.0827-1.0413,2.2909s-.6248.9719-.6248,1.6661c0,.7636-1.5273,4.3042-3.4711,7.8448-2.9852,5.6232-3.4711,7.0811-3.4711,10.4134,0,2.6381.486,4.929,1.5273,7.0811,1.4579,2.9852,1.4579,3.1934.3471,5.5538-.6248,1.3885-1.1802,2.9852-1.1802,3.6794,0,.6248-.486,1.805-1.0413,2.4992-.5554.7636-1.0413,2.6381-1.0413,4.1654-.0694,1.5967-.486,3.61-.9719,4.5125-.6942,1.2496-.7636,2.2215-.2083,3.7488.486,1.5273.4165,2.5686-.486,4.3736-1.5273,3.2629-1.3885,4.8596.5554,7.4282.9719,1.2496,2.0827,3.5406,2.6381,5.2067.9025,2.9852,1.1802,3.124,4.2348,1.8744,1.5273-.6248,1.5967.8331,0,2.5686-1.0413,1.1802-1.0413,1.319.2083,2.2909.9025.7636,2.0827.9025,3.7488.6248,1.319-.2083,3.3323-.486,4.3736-.6248,1.1108-.1388,2.7769-.9025,3.6794-1.805,1.8744-1.7356,4.8596-2.1521,5.9703-.8331.4165.486.486.9025.2083.9025s-.1388.4165.2777.9025c.4165.5554,1.4579.9025,2.2909.7636.9025-.0694,3.7488-.2083,6.3175-.2083,4.1654-.0694,4.8596-.2777,5.1373-1.4579.2083-.7636.9025-1.3885,1.5967-1.3885s1.9438-.7636,2.8463-1.7356c2.3604-2.4298,4.7207-2.2215,7.4976.6248,2.7075,2.7769,5.9009,3.5406,11.177,2.8463,2.2909-.3471,3.4711-.8331,3.4711-1.4579,0-.5554-.2777-.9719-.6942-.9719-1.5273,0-.5554-1.1802,1.805-2.2215q2.4298-1.1108,3.0546.5554c.3471.9025.9025,1.6661,1.2496,1.6661,1.0413,0,2.2215-1.6661,2.2215-3.2629,0-.9719.4165-1.5967,1.0413-1.5967,1.3885,0,1.319-.6942-.2777-2.7075-1.1108-1.3885-1.5967-1.5967-3.8182-1.1802-1.3885.2777-2.7769.9719-2.9852,1.5273-.5554,1.4579-3.4017,1.1802-5.4844-.6248-1.6661-1.4579-1.7356-1.805-.9719-3.3323,1.7356-3.3323,6.4563-7.5671,8.4696-7.5671,1.2496,0,1.9438-.3471,1.9438-1.0413,0-.5554.486-1.0413,1.0413-1.0413s1.0413.6248,1.0413,1.3885.486,1.3885,1.0413,1.3885,1.0413-.486,1.0413-1.0413c0-1.7356,2.2909-1.1108,4.0265,1.1108,1.2496,1.5273,1.4579,2.2909.9025,2.9852-.4165.486-.5554,1.1108-.2777,1.319.2083.2777-.0694.486-.6248.486-.6248,0-1.5967.7636-2.2215,1.7356l-1.1108,1.6661,3.2629-.2083c1.7356-.1388,3.9571.0694,4.8596.486,2.0827.9025,2.7075.2083,1.7356-1.9438-.9025-2.0133.3471-3.3323,1.3885-1.4579.3471.6248,1.1108,1.1108,1.7356,1.1108.7636,0,.9719.486.6942,1.7356-.4165,2.2215,1.6661,3.8182,4.929,3.8182,3.7488,0,7.5671-4.8596,4.6513-5.9703-1.805-.6942-1.1108-1.4579.9719-1.1108,1.5967.2083,2.1521.6942,2.2909,2.1521.1388,1.319.6248,1.8744,1.9438,2.0133,1.5967.2083,3.5406.8331,6.248,2.2215.5554.2777,1.6661.1388,2.4298-.2777s1.4579-.7636,1.5967-.8331c.0694-.0694-.2777-.9719-.9025-2.0827-.5554-1.1108-1.0413-2.3604-1.0413-2.8463s-1.1108-1.6661-2.4298-2.7075c-1.3885-1.0413-2.2909-2.0133-2.0827-2.2215.7636-.8331,5.1373,2.3604,6.1786,4.4431.5554,1.2496,1.9438,2.8463,2.9852,3.5406s2.4992,1.805,3.124,2.4298c.8331.8331,2.3604,1.2496,4.5819,1.2496,4.7207.0694,8.7473,2.0827,10.2051,5.2067.9025,1.805,1.805,2.6381,3.1934,2.9158,1.1108.2083,2.0133.6248,2.0133.9719s.4165.6248.9719.6248c.486,0,1.319.486,1.805,1.0413.5554.6942,2.0827,1.0413,4.2348,1.0413,2.9852,0,3.5406-.2083,4.2348-1.7356,1.1802-2.5686,3.3323-2.2909,3.3323.3471,0,1.6661.4165,2.2909,1.8744,2.8463,1.0413.4165,2.4298.5554,3.124.4165.6942-.2083,1.4579-.0694,1.6661.2777s1.2496.6248,2.3604.6248c1.3885,0,2.1521.4165,2.4298,1.3885.2083.6942,1.6661,2.2909,3.1934,3.5406,2.1521,1.6661,2.7769,2.6381,2.6381,4.0265-.1388.9719.3471,3.2629,1.0413,5.0679,1.4579,3.6794,2.7075,4.1654,6.248,2.2909,2.7075-1.4579,4.1654-1.3885,3.5406.1388-.2777.6942-.6248,2.3604-.8331,3.6794s-.8331,3.0546-1.319,3.8182c-1.4579,2.0827-1.1802,2.4298,1.9438,2.4298,3.4711,0,8.6778-2.3604,9.2332-4.2348.2777-.7636,1.5273-2.7075,2.7769-4.4431,1.319-1.6661,3.0546-4.3736,3.8182-5.9009,1.3885-2.7769,1.3885-3.0546.4165-6.0398-.9719-2.7769-.9719-3.4017-.0694-5.5538.8331-1.9438,1.319-2.3604,2.2215-1.8744.6942.2777,2.4298.6248,3.8877.8331,2.0133.2083,2.8463,0,3.8182-1.2496,1.1108-1.3885,1.3885-1.4579,4.6513-.6248,1.9438.486,4.4431,1.5967,5.6232,2.4992,2.4992,1.8744,3.61,1.9438,7.0117.5554,2.2909-.9719,2.6381-.9719,3.61,0,1.0413,1.0413.9719,1.1802-.0694,2.0133-1.805,1.319-1.5273,2.3604.8331,2.8463,1.1802.2777,2.0827.7636,2.0827,1.1802,0,.3471.6248,1.5967,1.3885,2.6381.9025,1.319,1.2496,2.6381,1.0413,3.8877-.2083,1.1802.0694,2.5686.6248,3.3323.9719,1.1802,1.319,1.2496,5.3455.3471,2.3604-.5554,4.4431-1.3885,4.5819-1.8744.486-1.2496,3.9571-2.9158,6.1092-2.9158,1.5967,0,1.6661.1388,1.0413,1.3885-1.0413,1.9438.0694,1.805,4.0265-.6942,2.4992-1.5273,4.3042-2.0827,6.5952-2.0827,3.5406,0,4.2348-.9025,3.8182-5.0679-.2083-2.4298-.486-2.2909,7.7753-3.7488,2.9158-.486,3.1934-.8331,4.8596-4.2348l1.7356-3.6794,6.1092.486c5.4844.4165,6.3175.2777,7.6365-.9025,2.2909-2.0827,8.8167-3.124,18.1887-2.8463l8.3307.2083-.2083-1.6661c-.1388-.9025-.8331-2.9158-1.5273-4.5125l-1.2496-2.9158,2.7075-1.4579,2.7075-1.4579v4.929l2.9852-.486c1.5967-.2083,4.4431-.6942,6.248-.9719,3.7488-.6942,5.1373.1388,6.734,4.0959.7636,1.805,1.1802,2.0133,3.8877,2.0133,2.7769,0,3.1934-.2083,4.1654-2.3604.9025-1.8744,1.6661-2.4298,3.6794-2.7769,3.7488-.6248,3.8877-.6248,6.5952,2.0133,1.3885,1.319,3.0546,2.6381,3.6794,2.9852.9719.5554.9719.8331-.1388,2.4298-.9025,1.4579-.9719,2.0827-.2777,3.4017,1.319,2.6381,2.7075,3.8877,5.9009,5.4844,1.6661.7636,3.0546,1.8744,3.0546,2.3604,0,1.4579,4.6513,2.0827,6.734.9719,2.3604-1.2496,5.1373-7.4282,5.5538-12.5655.3471-3.61.2083-4.1654-1.8744-7.0811-1.9438-2.7075-2.7769-3.2629-5.9703-3.9571-3.2629-.7636-3.7488-1.0413-3.7488-2.4992,0-1.7356,2.5686-6.1786,4.4431-7.7753.6248-.486,1.1108-1.6661,1.1108-2.5686,0-2.2909-4.7207-10.6911-7.0117-12.6349-1.1108-.9025-2.2909-2.8463-2.7075-4.3042-.486-1.805-1.7356-3.61-3.7488-5.3455l-3.0546-2.6381,3.5406-3.8182c1.9438-2.0827,4.5125-5.415,5.7621-7.4282,4.5819-7.0811,9.6498-9.3721,25.7558-11.7324,1.5967-.2083,3.1934-1.4579,5.8315-4.3042,5.0679-5.4844,6.1786-8.4001,6.1092-15.273-.1388-4.929.0694-5.8315,1.5273-7.7059,1.805-2.2909,4.0959-2.7769,5.4844-1.1108.486.5554,1.9438,1.0413,3.2629,1.0413,1.5273,0,3.4711.7636,5.415,2.0827,3.61,2.4992,4.3042,2.5686,4.8596.486.2777-.8331,1.1802-2.4992,2.0827-3.61,2.1521-2.9158,3.1934-7.7753,3.0546-14.2316-.0694-3.3323.2083-5.9703.6942-6.5257.6248-.7636.486-1.319-.8331-2.6381-.9025-.9025-2.8463-3.7488-4.2348-6.3175-2.3604-4.2348-2.8463-4.6513-4.7902-4.6513s-2.6381-.6248-5.4844-4.5125-3.61-4.5125-5.4844-4.5125c-1.3885,0-2.5686.5554-3.3323,1.5273l-1.2496,1.4579-2.5686-1.5273c-1.6661-1.0413-2.4992-2.0827-2.4992-3.1934,0-2.2909-3.3323-7.9836-6.1786-10.5522-1.6661-1.5273-3.1934-2.2215-4.7207-2.2909-1.2496,0-2.2909-.3471-2.2909-.7636s-1.9438-2.7075-4.3042-5.1373c-2.4298-2.3604-5.9009-6.5952-7.8448-9.3026-1.8744-2.7075-4.0265-5.1373-4.8596-5.3455-.7636-.2777-2.2215-1.0413-3.2629-1.7356-1.319-.9719-3.0546-1.319-6.3175-1.319-4.3736,0-4.5819-.0694-5.9009-2.3604-.7636-1.319-2.6381-3.124-4.0959-3.9571-2.9158-1.6661-4.3736-4.7207-4.3736-9.1638,0-1.7356-.4165-2.5686-1.6661-3.1934-1.1108-.6248-1.9438-2.0827-2.7769-4.9984-.6942-2.6381-1.4579-4.0959-2.1521-4.0959-.7636,0-1.0413-.7636-1.0413-2.9852,0-2.7075-.2777-3.124-4.1654-6.248-2.2909-1.8744-4.1654-3.5406-4.1654-3.8182,0-.2083,1.3885-2.4298,3.0546-4.929,4.9984-7.6365,7.3588-11.3853,7.3588-11.9407,0-.2777-1.0413-1.1802-2.3604-2.0133-2.0827-1.2496-2.3604-1.7356-2.0827-3.6794.2777-2.1521.1388-2.3604-7.2894-7.0811-9.858-6.3175-12.6349-9.7886-13.6068-17.3557-.2083-1.5273-1.319-5.2761-2.4992-8.3307-3.1934-8.4001-3.1934-7.9836-.7636-7.9836,1.7356,0,2.2215.4165,3.1934,2.7769.7636,1.8744,1.5967,2.8463,2.8463,3.1934,1.2496.2777,1.6661.7636,1.4579,1.5967-.2083.6248.486,2.6381,1.5273,4.5819,1.4579,2.7075,2.2215,3.4711,3.61,3.4711,1.6661,0,1.7356-.2777,2.1521-4.5125.4165-5.0679,1.0413-6.9423,2.3604-6.9423.486,0,1.2496-.9025,1.7356-2.0827.486-1.1108,1.805-2.6381,2.9852-3.4017,1.1802-.6942,2.4298-2.3604,2.8463-3.61.486-1.3885,1.319-2.3604,2.1521-2.4992,5.5538-.9025,7.4282-.9719,9.3721-.2777,2.0827.6942,2.3604.5554,4.2348-1.3885,1.6661-1.805,2.4298-2.0827,4.0265-1.805,1.2496.2777,2.1521.1388,2.2909-.3471.2083-.5554,1.4579-.0694,3.4017,1.2496,4.7207,3.1934,5.0679,3.1934,8.2613.486,2.1521-1.805,2.8463-2.9158,2.7769-4.3042-.0694-.9719-.1388-2.1521-.0694-2.5686.0694-.486,2.2215-.9719,4.9984-1.2496,5.6927-.5554,7.0117-1.5967,8.8861-6.734,1.1108-2.8463,1.319-3.0546,3.4017-2.8463,1.2496.1388,2.2215,0,2.2215-.3471.0694-.2777,1.1108-1.805,2.3604-3.2629l2.2909-2.7075,2.4298,1.8744c1.319.9719,2.7075,1.805,3.124,1.805.8331,0,3.7488-5.0679,5.0679-8.9555.9025-2.6381,1.4579-3.124,4.5125-4.3042,3.124-1.1802,3.5406-1.1802,5.0679-.2083,1.3885.9025,2.2215.9719,4.6513.3471,1.6661-.4165,3.8877-.5554,4.9984-.3471,1.0413.2083,2.7769.0694,3.8877-.3471,1.5273-.5554,1.8744-1.1802,1.8744-2.9852.0694-2.0133.4165-2.4992,3.124-3.8877,1.7356-.8331,4.2348-1.5273,5.6232-1.5273,1.6661,0,5.5538-1.5273,11.7324-4.5125,5.4844-2.7075,10.0663-4.5125,11.3853-4.5125,1.8744,0,2.3604-.3471,3.2629-2.4298.486-1.319.9719-2.4992.9719-2.7075,0-.1388-2.3604-1.5967-5.2067-3.124-2.8463-1.5967-5.2067-3.1934-5.2067-3.61,0-.3471.6248-1.9438,1.3885-3.4017l1.3885-2.7769,2.6381,1.1802c1.4579.6942,4.4431,1.2496,7.0811,1.319,2.4992.0694,5.6927.6248,7.22,1.2496,2.5686,1.0413,2.6381,1.2496,2.2909,3.7488-.2083,1.3885-.5554,3.0546-.7636,3.61s-.1388,1.4579.2083,2.0133c.486.7636.9719.6942,2.7769-.5554,2.3604-1.6661,2.4298-1.5273,1.5273,3.1934-.6942,3.4711,0,4.3736,3.1934,4.3736,1.5273,0,2.4992.4165,2.9852,1.3885.5554,1.0413,1.4579,1.3885,3.4017,1.3885,2.6381,0,2.6381-.0694,4.5125-4.7207,1.0413-2.5686,2.5686-5.9703,3.2629-7.5671.7636-1.5967,1.5273-3.4711,1.6661-4.1654s1.2496-3.9571,2.3604-7.2894c1.1802-3.2629,2.3604-7.9836,2.5686-10.4134.2777-2.7075,1.2496-5.9009,2.4298-8.3307,2.7769-5.4844,2.7075-6.5257-.9025-23.1177-1.1108-5.0679-1.8744-6.3869-4.3042-7.2894-1.1802-.486-3.7488-1.5967-5.7621-2.4992-1.9438-.9025-3.9571-1.6661-4.3042-1.6661-.9719,0-.9719-3.7488,0-9.7192l.8331-4.7902-2.9158-4.5819c-1.5273-2.4992-4.0959-6.5257-5.6927-8.9555-3.1934-5.1373-3.2629-4.7207,2.0827-11.4547l3.5406-4.4431v-5.2761c0-3.1934.486-6.5257,1.1802-8.6084l1.1802-3.2629-2.1521-1.9438c-2.1521-1.805-2.2215-2.1521-2.4992-8.1225-.486-9.9969-.8331-10.8299-5.1373-10.8994-2.7075,0-2.8463-.1388-4.6513-4.1654-3.3323-7.6365-3.1934-9.6498,1.3885-15.273,1.7356-2.1521,3.4711-7.4976,4.0959-12.7043l.4165-3.4711-4.7207-3.124c-2.5686-1.7356-7.5671-5.9009-11.0382-9.2332-3.5406-3.3323-9.5803-8.4001-13.3986-11.2465l-7.0117-5.2067v-10.2746l2.9852-2.3604c1.5967-1.2496,3.5406-2.8463,4.2348-3.4711.7636-.6942,1.6661-1.2496,1.9438-1.2496.3471,0,1.805-1.9438,3.3323-4.3042,2.6381-4.0265,2.7769-4.5125,2.7769-9.858,0-5.1373.2083-5.9703,2.7769-10.9688l2.8463-5.415-1.4579-4.6513c-.7636-2.5686-1.8744-5.3455-2.3604-6.1092-.9025-1.319-1.7356-5.1373-2.1521-9.3026-.0694-.9719-.8331-5.5538-1.5967-10.1357-.8331-4.5819-2.1521-13.1903-2.9852-19.0912-.7636-5.9009-1.6661-11.0382-1.9438-11.3159s-2.2215.1388-4.2348.9025c-5.3455,2.0827-8.8861,1.1802-16.3837-4.2348-3.2629-2.3604-6.0398-4.5125-6.1786-4.8596-.2083-.2777,1.1108-.7636,2.9158-.9719,1.8744-.2083,4.1654-.9025,5.2067-1.4579,1.1802-.6248,3.9571-.9719,8.4696-.9719h6.6646v-7.8448l-7.4282-7.9142c-4.5819-4.929-8.4696-8.4696-10.2746-9.3026-4.6513-2.2215-7.9836-5.415-9.7192-9.4415-1.5273-3.4017-1.8744-3.7488-3.61-3.5406-1.5273.1388-2.0133.6248-2.1521,2.1521-.1388,1.1108-.5554,1.805-1.0413,1.6661s-.7636-.9719-.6942-1.7356c.1388-.9025-.3471-1.805-1.1108-2.1521-1.0413-.5554-1.8744-.2777-3.9571,1.1802-1.5273,1.0413-5.1373,2.6381-8.053,3.61-2.9852.9025-5.415,1.8744-5.415,2.2215,0,1.1108-1.0413.486-2.6381-1.5967-1.3885-1.6661-1.5273-2.2215-.7636-3.124.6942-.8331.6248-1.2496-.2777-2.2215-.9025-.8331-1.3885-.9025-1.9438-.3471-.6248.6248-2.3604-.5554-7.0117-4.5125-6.1092-5.2761-6.734-6.5952-2.4298-4.9984,4.4431,1.5967,12.3572,3.4711,13.0515,3.124.3471-.2777.6248-1.9438.6248-3.8182v-3.4017l5.2067-2.4298c7.8448-3.61,7.22-3.6794,10.7605.9719,1.6661,2.2909,3.3323,4.1654,3.5406,4.1654.2777,0,1.3885-1.805,2.5686-3.9571l2.0827-4.0265-3.0546-3.8182c-1.6661-2.0827-4.3042-4.5819-5.8315-5.5538-2.6381-1.5967-2.8463-1.9438-2.6381-4.5125.2083-2.2909.6942-3.0546,3.3323-5.0679,1.7356-1.319,3.1934-2.6381,3.3323-2.9158.0694-.2777-.4165-1.9438-1.1802-3.6794l-1.3885-3.2629h-16.3837l-1.5273-2.2215-1.5273-2.1521,1.7356-1.319c1.1108-.9025,1.6661-2.0827,1.6661-3.4017q0-2.3604-6.1092-.9025c-5.4844,1.3885-8.4696,3.7488-8.4696,6.734,0,1.0413-.7636,2.9852-1.7356,4.2348-1.805,2.3604-2.2215,3.8877-1.1108,3.8877,1.2496,0,4.929-5.415,4.929-7.22,0-1.1108.4165-1.805.9719-1.805.8331,0,.7636.6942-.1388,4.3042-1.319,4.9984-1.6661,5.415-4.7902,5.415-1.2496,0-2.2909.2777-2.2909.6248s1.7356,2.0133,3.8877,3.7488l3.8182,3.1934-3.8182,2.5686c-2.1521,1.3885-3.8877,2.7769-3.8877,2.9852,0,.2777,1.2496,1.2496,2.7769,2.1521,1.8744,1.1802,2.7769,2.2215,2.7769,3.2629,0,1.4579-.3471,1.5967-3.6794,1.5967h-3.6794l-.7636,2.7769c-.6248,2.4992-.5554,2.9158.6248,3.7488,1.5967,1.1108,1.4579,4.0959-.1388,4.4431-1.319.2083-2.7769-3.61-3.4017-9.2332-.486-4.0959-2.2909-8.6778-3.4711-8.6778-.3471,0-2.7075,1.7356-5.3455,3.8877-6.6646,5.4844-10.6911,7.0117-10.6911,4.0959,0-2.6381-9.0249-4.5819-12.6349-2.7075-1.1108.5554-1.9438.6942-1.9438.3471,0-.4165.9025-1.1802,2.0827-1.805,1.5273-.7636,4.3736-1.0413,12.0101-1.0413,8.8167,0,10.1357-.1388,11.1076-1.2496.6942-.6942,1.1802-1.4579,1.1802-1.6661s-4.9984-.6248-11.1076-.9025c-10.9688-.486-11.1076-.5554-14.9953-2.8463-2.1521-1.319-4.3042-2.3604-4.7207-2.3604-.7636,0-1.8744,1.6661-4.7902,7.0117-.486.9025-2.8463,4.3042-5.2761,7.5671-3.0546,4.0959-5.415,6.4563-7.7753,7.7753-3.1934,1.8744-11.0382,9.0944-11.0382,10.2746,0,.7636-3.4711,2.0133-6.5952,2.2909-1.5273.1388-3.6794.6942-4.8596,1.1802-6.4563,2.6381-7.6365,2.8463-13.1903,2.4298l-5.5538-.4165-6.3869,5.0679c-5.2761,4.1654-6.4563,5.415-6.4563,6.9423,0,2.6381.8331,2.4298,3.7488-.9719,2.0827-2.4298,2.4992-2.6381,2.4992-1.4579,0,1.8744-2.1521,5.7621-3.2629,5.7621-.4165,0-1.4579.8331-2.2215,1.8744-1.319,1.8744-1.3885,1.8744-1.4579.4165,0-2.3604-2.4298-2.7075-5.2761-.7636-2.2909,1.4579-2.4298,1.805-2.1521,4.5125q.2777,2.8463-1.3885,2.0827c-1.5273-.6942-1.8744-.5554-2.9852.9025-1.2496,1.6661-1.319,1.6661-2.7769.3471-1.0413-.9719-1.319-1.805-1.0413-3.2629.4165-1.7356.2777-1.9438-1.319-1.9438-1.319,0-1.8744-.4165-2.2215-1.7356-.4165-1.6661-.6942-1.7356-5.0679-1.7356s-4.929.2083-10.1357,3.4711c-5.415,3.4017-5.5538,3.4711-5.9009,1.9438-.3471-1.319-.9025-1.5967-3.61-1.805-3.0546-.2083-3.2629-.3471-4.3042-2.9852-1.1108-2.7075-1.1108-2.9158.3471-5.3455.9025-1.4579,1.6661-2.7075,1.7356-2.8463.1388-.1388,1.1802.1388,2.3604.6248,2.0827.9025,2.2909.7636,5.415-2.2215,1.805-1.6661,4.8596-4.0959,6.8034-5.2761,5.1373-3.1934,5.415-4.1654,4.929-14.0234l-.486-8.4001,2.0827-1.805c2.0133-1.6661,2.0827-1.805.9719-3.0546-1.5273-1.6661-2.8463-1.6661-3.4017,0-.486,1.6661-3.4017,2.2215-4.9984,1.0413-2.7075-2.0827-5.2761-1.1802-11.1076,3.9571-1.8744,1.5967-3.9571,2.7075-5.7621,2.9852-2.5686.4165-3.124.1388-8.4696-3.8182-3.124-2.2909-7.5671-5.2067-9.9274-6.3175-2.2909-1.1802-5.1373-2.8463-6.3175-3.7488-3.4711-2.6381-8.3307-1.8744-12.5655,2.0133-1.3885,1.2496-1.5967,1.2496-2.0133.2083-.2083-.6248-.2083-2.2215.0694-3.61.3471-2.0827.1388-2.8463-1.1108-4.1654s-2.2909-1.6661-5.2067-1.6661c-3.5406,0-8.8861,1.1108-12.982,2.7075-2.0133.7636-3.2629.5554-3.2629-.6942,0-.3471.4165-.6248.9025-.6248,1.805,0,8.7473-5.2067,9.7192-7.2894.6248-1.3885,1.0413-4.5125,1.1108-8.8861.0694-6.3869-.0694-6.8034-1.5273-7.4282l-1.5273-.6248h1.6661c1.0413-.0694,1.4579-.4165,1.2496-.9719-.6942-1.8744-8.2613-12.982-8.7473-12.982-.3471,0-.9719,1.0413-1.5273,2.2215-.486,1.2496-.9719,2.4298-1.1108,2.5686-.0694.1388-2.2909-1.1108-4.8596-2.8463-2.6381-1.6661-6.1092-3.4711-7.8448-3.9571-4.929-1.3885-5.2067-1.6661-4.9984-4.5125.3471-3.3323-.5554-3.1934-4.6513.6248-1.805,1.7356-3.6794,3.124-4.0959,3.124s-1.1802.486-1.805,1.0413c-.9025.9719-1.1108.9025-1.805-.3471-1.0413-1.9438-3.1934-1.7356-4.5819.3471-1.0413,1.5967-1.5967,1.805-4.3736,1.5967s-3.1934-.4165-3.2629-1.805c-.0694-.8331-.2083-1.6661-.3471-1.805s-3.5406-1.4579-7.5671-2.9158c-7.1505-2.6381-7.4282-2.6381-18.397-2.7769-6.1092-.1388-12.2878-.4165-13.6763-.6942-2.1521-.3471-2.6381-.2777-2.6381.6248,0,1.1108-.7636,1.319-7.7753,2.2215-4.5125.5554-8.4696-.5554-9.4415-2.7769-1.6661-3.6794-.486-7.9142,3.0546-10.6911,1.2496-.9719,1.7356-1.8744,1.4579-2.8463-.2777-1.0413,0-1.3885.9719-1.3885.6942,0,1.319-.486,1.319-1.0413,0-.7636-.7636-1.0413-2.7769-1.0413-2.5686,0-2.7769.1388-4.1654,3.2629Z" fill="#fff"/></svg>