<?xml version="1.0" encoding="UTF-8"?><svg id="a" xmlns="http://www.w3.org/2000/svg" viewBox="0 0 573.1707 780.8376"><path d="M156.0181,2.962c-5.4829,12.3522-6.2391,14.9361-6.4282,23.1919-.1891,6.9954-.126,7.5626,1.0083,7.7517,1.1344.2521,1.1974-.063.8193-5.1047-.3781-4.7896-.3151-5.4829.8823-6.9954,1.4495-1.8276,3.1511-2.1427,4.3485-.6932,1.1344,1.3235,2.836,1.1974,5.5459-.5042,1.2604-.8193,3.5292-1.7016,4.9787-1.9537l2.7099-.3781,2.0167,4.2224c1.1344,2.3948,2.0797,4.5376,2.1427,4.9157.063.3151.5672,2.0167,1.1344,3.7813,1.3865,4.4745,1.2604,6.9324-.4412,8.634-1.5125,1.5125-5.4199,3.4662-7.6886,3.7813-.6932.126-1.3235.6932-1.4495,1.3235-.2521,1.3865,1.7646,1.4495,5.735.063,2.1427-.7563,3.0881-1.3865,3.3401-2.5209.1891-.8193.9453-1.6386,1.5755-1.8276.8193-.3151,1.1974-1.0083,1.1974-2.3948v-2.0167l1.1344,1.7646c.6302.9453,2.1427,2.3948,3.2771,3.2771,1.1344.8193,3.2141,3.1511,4.5376,5.1047,1.3235,1.8906,3.3401,4.4745,4.4745,5.735,2.773,3.025,2.5839,3.7183-.7563,3.4662-3.6553-.3151-6.3022.8823-6.7433,2.962-.1891.8823-.5042,2.1427-.6932,2.773-.2521,1.0083.126,1.1344,3.4032.9453,3.5922-.1891,3.6553-.1891,4.9157-2.836.6932-1.4495,1.6386-2.836,2.1427-3.025,1.0714-.4412,1.1344-.3781,1.6386,1.6386.3151,1.3235-.126,2.2688-2.5209,5.1678-1.5755,1.9537-3.5292,3.7183-4.2855,3.8443s-3.0881.5672-5.2308.9453c-2.0797.3781-5.2308.6932-6.9324.6932-2.836,0-3.2771.1891-3.9073,1.5755-1.0083,2.2058-1.0714,2.2058,1.5755,2.2058,2.2058,0,2.2688.063,1.0714.9453-.6302.5042-1.7646.9453-2.4578.9453-1.1344,0-1.2604.3781-1.1974,2.899.063,2.3948.4412,3.2141,1.8906,4.4115,2.3318,1.8906,3.2771,1.8906,4.7896-.063.9453-1.2604,1.7646-1.5755,3.9704-1.5755,2.0167,0,2.962.3151,3.4032,1.1344.6932,1.3865,0,8.0668-1.1344,10.0835-.6302,1.2604-.6302,1.7646.3151,3.1511,2.3948,3.6553,3.1511,4.0964,5.3568,3.3401,2.2688-.7563,3.0881-.5042,3.0881,1.1344,0,.6302.4412,2.0167,1.0083,3.1511.6302,1.1974.8193,2.6469.5672,3.6553-.3781,1.5755-.4412,1.5755-4.7266,1.1974l-4.3485-.4412,2.1427,5.5459c1.1974,3.025,3.025,6.6803,3.9704,8.0668l1.7646,2.5209,9.0751.3781c5.0417.2521,9.6423.6302,10.2725.8823,2.2058.9453.9453,1.4495-2.836,1.1344-3.1511-.2521-5.0417,0-9.2012,1.3865-4.6636,1.5125-5.9871,1.6386-12.4153,1.4495l-7.1845-.1891-2.773-3.025-2.7099-3.025-2.5839,1.0083c-2.2058.8823-2.773,1.5755-4.4745,5.2308-1.0083,2.3318-2.0797,4.7896-2.3318,5.4829-.6932,1.8906-3.4662,13.1085-3.4662,13.9908,0,.7563,2.836,7.1845,4.7896,11.0288,1.4495,2.773-.126,2.2688-7.0584-2.3318-3.4032-2.2688-6.5542-4.0964-7.0584-4.0964-2.4578,0-4.2855,1.8276-5.0417,5.0417-1.1344,4.9157-1.0714,5.0417,1.7646,5.0417h2.5209v3.6553c0,3.6553-.063,3.7813-3.025,6.2391l-3.025,2.5209-1.8276-2.773c-1.6386-2.3948-2.1427-2.7099-3.5922-2.4578s-1.7646,0-2.5839-2.0167c-.5042-1.2604-.8823-2.3948-.8193-2.3948,0-.063,1.2604-.2521,2.773-.4412,1.4495-.126,2.773-.3781,2.836-.5042.126-.126.5042-1.0714.9453-2.0797.7563-1.6386.5672-2.1427-2.0797-6.6173-1.5755-2.7099-2.836-5.1678-2.836-5.5459,0-.3151-.8823-2.2058-1.9537-4.1594l-1.9537-3.5922h-5.798c-3.2141,0-7.4365.3151-9.2642.6302-1.8906.3781-4.4115.8193-5.6089,1.0083-1.1974.126-3.2141.5672-4.4115,1.0083-1.1974.3781-7.2475.8193-13.3606,1.0714l-11.2178.3781-4.7266,4.7266-4.7266,4.6636v3.9073c0,3.7183-.126,3.9704-2.0167,5.2308-2.0167,1.1974-2.0797,1.4495-2.773,7.4365-.4412,4.0964-.4412,6.8694-.063,8.1928l.6302,2.0797,5.1047.063c8.634.126,9.8314,1.0714,7.5626,6.4282-.8823,2.2058-1.1344,4.9787-1.1974,16.8268-.126,15.9445-.1891,16.0705-5.798,24.2633-2.5209,3.7183-2.5839,4.0334-2.962,10.3986-.5042,8.9491-1.1344,14.495-1.5125,14.495-.1891,0-2.773-.4412-5.735-1.0083-5.1678-.9453-14.1168-.8193-14.8101.2521-.126.2521.3781,2.0797,1.1974,4.0964l1.5125,3.5922h-2.1427c-1.1974,0-2.3318.3151-2.5839.6932-.6302,1.0714,1.1344,8.3189,2.3318,9.3902.5672.5672,3.9704,1.6386,7.5626,2.4578,5.1678,1.1974,6.8694,1.3865,8.3189.8193,1.7016-.6302,1.8276-.5672,2.7099,1.5755.5672,1.2604,1.5755,3.0881,2.3318,4.0964l1.3235,1.7646-1.4495,4.2855c-1.4495,4.0964-1.4495,4.3485-.4412,6.3022,1.0714,2.0167,1.0083,2.0167-.5672,2.6469-.9453.3781-1.9537.6302-2.2688.6302-.3781,0-1.1974,1.1974-1.8276,2.6469-1.5125,3.4032-6.3652,7.2475-9.8944,7.8147-2.3318.3781-2.962.8823-5.2308,4.1594-1.4495,2.0167-2.5839,3.7813-2.4578,3.9073.126.063,1.8276,1.2604,3.7183,2.5839s3.7183,2.6469,4.0334,2.899c.6932.6302-2.5839,7.1214-4.1594,8.0668-1.0083.6302-1.4495.5672-2.4578-.3151-1.0714-.9453-1.5125-1.0083-3.9073-.3151-1.4495.4412-4.0334,1.7016-5.798,2.7099-3.2771,2.0167-4.8527,2.3318-8.3189,1.4495-1.9537-.4412-2.0797-.3781-2.0797,1.1974,0,.8823-.126,1.6386-.3151,1.6386s-3.4662-1.4495-7.3735-3.1511c-3.8443-1.7646-7.0584-3.0881-7.1845-2.962s.126,1.0714.5042,2.2058c.4412,1.0714.6302,2.1427.4412,2.3318s-1.7016-.1891-3.3401-.7563c-2.773-1.0714-3.0881-1.0714-3.7813-.126-.3781.5672-2.3318,1.3865-4.3485,1.8276-1.9537.4412-3.5922.9453-3.5922,1.1344s.8823,1.7016,1.9537,3.4032c1.8276,2.836,1.8906,3.1511.9453,4.2224-1.3865,1.5755-1.3235,1.8276,1.0714,2.4578,1.7646.4412,2.0167.8193,2.2058,2.773.1891,1.8276.6302,2.5839,2.6469,3.9073,2.2058,1.4495,2.4578,1.8276,2.1427,3.5292-.3151,1.5755,0,2.3948,2.0167,4.8527,1.3865,1.6386,2.836,3.7183,3.3401,4.6006q2.836,5.1047,2.2058,9.5163c-.3151,2.3318-.3781,5.0417-.126,6.0501.5672,1.9537-1.0714,4.7266-6.2391,10.5246-2.6469,2.962-2.7099,3.1511-2.7099,7.3735,0,4.7266.3781,5.1047,3.9704,3.7813.8823-.3781,1.7016-.4412,1.8906-.2521.8193.7563-.5672,2.2058-4.5376,4.6636-2.836,1.7016-4.8527,3.5292-5.9871,5.3568-2.0167,3.1511-2.3948,3.2771-3.5922,1.4495-.8193-1.1344-1.0714-1.1974-2.6469-.5042-1.7646.8193-1.7646.5672-.6932,6.6803l.3781,2.0797h8.0668v2.4578c0,2.1427.2521,2.5209,1.9537,3.2141,1.7016.7563,1.8906,1.0714,1.5755,2.7099-.1891,1.0083-.3781,2.3948-.3781,3.025,0,.8823-.4412,1.1974-1.5755,1.1974-1.3865,0-1.5755.2521-1.5755,2.2058,0,1.7646-.2521,2.2058-1.2604,2.2058-.6932,0-1.2604.3781-1.2604.8193,0,.5042.5672,1.3865,1.2604,2.0167s1.2604,1.9537,1.2604,2.899c0,2.0797,2.0167,3.7183,4.4745,3.7183,1.8276,0,3.7813,2.5839,5.2308,6.9324.5042,1.6386,1.0714,2.2688,2.2688,2.3948,3.2771.3781,3.3401.6302.6302,3.9073l-2.6469,3.2141,1.4495,3.0881c1.4495,3.0881,1.5125,3.1511,4.4745,3.1511,2.5839,0,3.0881.2521,4.3485,2.0167,1.1344,1.5755,1.4495,2.773,1.3235,5.4199-.063,1.8276-.2521,3.6553-.4412,3.9704-.2521.3151.1891,1.3865.8823,2.3948,1.6386,2.2688,1.7016,3.2141.1891,3.2141-.6302,0-1.8276.7563-2.7099,1.6386-.8193.9453-2.899,2.5839-4.6636,3.7183-4.7896,3.1511-5.735,4.3485-4.7896,6.4282.6932,1.5755.6302,1.8276-.7563,2.836-1.0714.7563-1.4495,1.5755-1.2604,2.3948.1891.6932-.126,1.9537-.6302,2.773-.6302.9453-1.0714,3.0881-1.1344,5.5459-.126,4.6006,1.5125,9.0751,4.5376,12.2262,1.0714,1.0714,1.8276,2.2058,1.7016,2.5209-.5672,2.0167,6.8063,9.5793,8.9491,9.2012.5672-.063,1.7016.5672,2.5209,1.4495,1.0083,1.1344,2.1427,1.5755,3.7183,1.5755,3.5922,0,3.9704.5672,3.5292,4.7896-.3151,3.025-.7563,4.0964-2.3948,5.798-1.3235,1.3235-2.0167,2.773-2.0797,4.0334-.063,1.3235-.6932,2.5209-1.7016,3.4032-1.7016,1.4495-1.8906,2.5839-1.7646,10.1465l.063,3.8443,3.3401.4412c3.2141.4412,6.7433,2.7099,6.7433,4.4115,0,.3781.6932,1.3865,1.5755,2.2058,1.0083.9453,1.5755,2.1427,1.5755,3.3401,0,1.0714.8823,3.0881,2.0797,4.7896,1.1344,1.5755,2.5209,3.9704,3.1511,5.2308.5672,1.3235,1.3235,2.3948,1.7016,2.3948.3151,0,.6302.9453.6302,2.0167,0,2.962.5042,3.4032,4.4745,3.8443,4.1594.5042,5.4199-.3151,4.7266-3.0881-.4412-1.5755-.3151-1.6386,1.1974-1.2604.9453.2521,2.0797.126,2.4578-.1891.5672-.5042,1.5755-.3151,3.4032.5672,1.4495.6932,2.899,1.2604,3.2771,1.2604.3151,0,.5672.1891.5042.4412-.063.3151.126,1.8276.3781,3.4662.4412,2.3948.7563,3.025,1.7016,3.025.7563,0,1.1974-.4412,1.1974-1.1974,0-2.0167,1.1974-2.1427,3.4032-.4412,1.5755,1.1344,3.2141,1.7016,6.3022,2.0167,2.899.3151,4.1594.1891,4.1594-.2521s1.0083-1.1344,2.2058-1.6386c1.5755-.6932,2.2058-1.3235,2.2058-2.3318,0-1.2604.1891-1.3235,3.025-.8823,3.5292.5042,3.9073.6932,3.9073,2.0167,0,.5672.9453,2.2058,2.0797,3.7183,1.4495,1.9537,2.4578,2.7099,3.6553,2.773.8823,0,2.4578.6932,3.4662,1.5755,1.4495,1.1974,2.5209,1.5755,4.9787,1.5755,1.7646,0,3.5292-.3151,3.9704-.7563.6302-.6302,1.1974-.5042,2.7099.3781,1.4495.8823,2.5839,1.0083,4.9157.6932,2.7099-.3781,3.3401-.1891,6.4282,1.7646,1.8906,1.1974,4.3485,2.836,5.4829,3.5292,1.3235.8193,3.1511,1.3235,4.9157,1.3235,1.5125,0,2.773.1891,2.773.3781s-.7563,1.2604-1.6386,2.3318-2.4578,3.7813-3.4662,6.0501c-1.0714,2.2688-2.2058,4.8527-2.6469,5.735s-2.3948,2.6469-4.4115,3.9704c-2.6469,1.8276-3.5922,2.836-3.5922,3.9073,0,1.0083-1.1974,2.4578-3.7813,4.7266-4.7266,4.0964-6.4912,7.6256-6.3652,12.9194.126,3.0881-.1891,4.4745-1.7016,7.2475-1.5125,2.836-1.8276,4.3485-1.9537,8.1928-.126,3.7813-.3781,4.9157-1.3235,5.6719-.6302.5042-1.3865,1.7016-1.6386,2.7099-.1891.9453-.6302,1.8906-.9453,2.0797s-.5672.8823-.5672,1.5125c0,.6932-1.3865,3.9073-3.1511,7.1214-2.7099,5.1047-3.1511,6.4282-3.1511,9.4532,0,2.3948.4412,4.4745,1.3865,6.4282,1.3235,2.7099,1.3235,2.899.3151,5.0417-.5672,1.2604-1.0714,2.7099-1.0714,3.3401,0,.5672-.4412,1.6386-.9453,2.2688-.5042.6932-.9453,2.3948-.9453,3.7813-.063,1.4495-.4412,3.2771-.8823,4.0964-.6302,1.1344-.6932,2.0167-.1891,3.4032.4412,1.3865.3781,2.3318-.4412,3.9704-1.3865,2.962-1.2604,4.4115.5042,6.7433.8823,1.1344,1.8906,3.2141,2.3948,4.7266.8193,2.7099,1.0714,2.836,3.8443,1.7016,1.3865-.5672,1.4495.7563,0,2.3318-.9453,1.0714-.9453,1.1974.1891,2.0797.8193.6932,1.8906.8193,3.4032.5672,1.1974-.1891,3.025-.4412,3.9704-.5672,1.0083-.126,2.5209-.8193,3.3401-1.6386,1.7016-1.5755,4.4115-1.9537,5.4199-.7563.3781.4412.4412.8193.1891.8193s-.126.3781.2521.8193c.3781.5042,1.3235.8193,2.0797.6932.8193-.063,3.4032-.1891,5.735-.1891,3.7813-.063,4.4115-.2521,4.6636-1.3235.1891-.6932.8193-1.2604,1.4495-1.2604s1.7646-.6932,2.5839-1.5755c2.1427-2.2058,4.2855-2.0167,6.8063.5672,2.4578,2.5209,5.3568,3.2141,10.1465,2.5839,2.0797-.3151,3.1511-.7563,3.1511-1.3235,0-.5042-.2521-.8823-.6302-.8823-1.3865,0-.5042-1.0714,1.6386-2.0167q2.2058-1.0083,2.773.5042c.3151.8193.8193,1.5125,1.1344,1.5125.9453,0,2.0167-1.5125,2.0167-2.962,0-.8823.3781-1.4495.9453-1.4495,1.2604,0,1.1974-.6302-.2521-2.4578-1.0083-1.2604-1.4495-1.4495-3.4662-1.0714-1.2604.2521-2.5209.8823-2.7099,1.3865-.5042,1.3235-3.0881,1.0714-4.9787-.5672-1.5125-1.3235-1.5755-1.6386-.8823-3.025,1.5755-3.025,5.861-6.8694,7.6886-6.8694,1.1344,0,1.7646-.3151,1.7646-.9453,0-.5042.4412-.9453.9453-.9453s.9453.5672.9453,1.2604.4412,1.2604.9453,1.2604.9453-.4412.9453-.9453c0-1.5755,2.0797-1.0083,3.6553,1.0083,1.1344,1.3865,1.3235,2.0797.8193,2.7099-.3781.4412-.5042,1.0083-.2521,1.1974.1891.2521-.063.4412-.5672.4412-.5672,0-1.4495.6932-2.0167,1.5755l-1.0083,1.5125,2.962-.1891c1.5755-.126,3.5922.063,4.4115.4412,1.8906.8193,2.4578.1891,1.5755-1.7646-.8193-1.8276.3151-3.025,1.2604-1.3235.3151.5672,1.0083,1.0083,1.5755,1.0083.6932,0,.8823.4412.6302,1.5755-.3781,2.0167,1.5125,3.4662,4.4745,3.4662,3.4032,0,6.8694-4.4115,4.2224-5.4199-1.6386-.6302-1.0083-1.3235.8823-1.0083,1.4495.1891,1.9537.6302,2.0797,1.9537.126,1.1974.5672,1.7016,1.7646,1.8276,1.4495.1891,3.2141.7563,5.6719,2.0167.5042.2521,1.5125.126,2.2058-.2521s1.3235-.6932,1.4495-.7563c.063-.063-.2521-.8823-.8193-1.8906-.5042-1.0083-.9453-2.1427-.9453-2.5839s-1.0083-1.5125-2.2058-2.4578c-1.2604-.9453-2.0797-1.8276-1.8906-2.0167.6932-.7563,4.6636,2.1427,5.6089,4.0334.5042,1.1344,1.7646,2.5839,2.7099,3.2141s2.2688,1.6386,2.836,2.2058c.7563.7563,2.1427,1.1344,4.1594,1.1344,4.2855.063,7.9407,1.8906,9.2642,4.7266.8193,1.6386,1.6386,2.3948,2.899,2.6469,1.0083.1891,1.8276.5672,1.8276.8823s.3781.5672.8823.5672c.4412,0,1.1974.4412,1.6386.9453.5042.6302,1.8906.9453,3.8443.9453,2.7099,0,3.2141-.1891,3.8443-1.5755,1.0714-2.3318,3.025-2.0797,3.025.3151,0,1.5125.3781,2.0797,1.7016,2.5839.9453.3781,2.2058.5042,2.836.3781.6302-.1891,1.3235-.063,1.5125.2521s1.1344.5672,2.1427.5672c1.2604,0,1.9537.3781,2.2058,1.2604.1891.6302,1.5125,2.0797,2.899,3.2141,1.9537,1.5125,2.5209,2.3948,2.3948,3.6553-.126.8823.3151,2.962.9453,4.6006,1.3235,3.3401,2.4578,3.7813,5.6719,2.0797,2.4578-1.3235,3.7813-1.2604,3.2141.126-.2521.6302-.5672,2.1427-.7563,3.3401s-.7563,2.773-1.1974,3.4662c-1.3235,1.8906-1.0714,2.2058,1.7646,2.2058,3.1511,0,7.8777-2.1427,8.3819-3.8443.2521-.6932,1.3865-2.4578,2.5209-4.0334,1.1974-1.5125,2.773-3.9704,3.4662-5.3568,1.2604-2.5209,1.2604-2.773.3781-5.4829-.8823-2.5209-.8823-3.0881-.063-5.0417.7563-1.7646,1.1974-2.1427,2.0167-1.7016.6302.2521,2.2058.5672,3.5292.7563,1.8276.1891,2.5839,0,3.4662-1.1344,1.0083-1.2604,1.2604-1.3235,4.2224-.5672,1.7646.4412,4.0334,1.4495,5.1047,2.2688,2.2688,1.7016,3.2771,1.7646,6.3652.5042,2.0797-.8823,2.3948-.8823,3.2771,0,.9453.9453.8823,1.0714-.063,1.8276-1.6386,1.1974-1.3865,2.1427.7563,2.5839,1.0714.2521,1.8906.6932,1.8906,1.0714,0,.3151.5672,1.4495,1.2604,2.3948.8193,1.1974,1.1344,2.3948.9453,3.5292-.1891,1.0714.063,2.3318.5672,3.025.8823,1.0714,1.1974,1.1344,4.8527.3151,2.1427-.5042,4.0334-1.2604,4.1594-1.7016.4412-1.1344,3.5922-2.6469,5.5459-2.6469,1.4495,0,1.5125.126.9453,1.2604-.9453,1.7646.063,1.6386,3.6553-.6302,2.2688-1.3865,3.9073-1.8906,5.9871-1.8906,3.2141,0,3.8443-.8193,3.4662-4.6006-.1891-2.2058-.4412-2.0797,7.0584-3.4032,2.6469-.4412,2.899-.7563,4.4115-3.8443l1.5755-3.3401,5.5459.4412c4.9787.3781,5.735.2521,6.9324-.8193,2.0797-1.8906,8.0037-2.836,16.5117-2.5839l7.5626.1891-.1891-1.5125c-.126-.8193-.7563-2.6469-1.3865-4.0964l-1.1344-2.6469,2.4578-1.3235,2.4578-1.3235v4.4745l2.7099-.4412c1.4495-.1891,4.0334-.6302,5.6719-.8823,3.4032-.6302,4.6636.126,6.1131,3.7183.6932,1.6386,1.0714,1.8276,3.5292,1.8276,2.5209,0,2.899-.1891,3.7813-2.1427.8193-1.7016,1.5125-2.2058,3.3401-2.5209,3.4032-.5672,3.5292-.5672,5.9871,1.8276,1.2604,1.1974,2.773,2.3948,3.3401,2.7099.8823.5042.8823.7563-.126,2.2058-.8193,1.3235-.8823,1.8906-.2521,3.0881,1.1974,2.3948,2.4578,3.5292,5.3568,4.9787,1.5125.6932,2.773,1.7016,2.773,2.1427,0,1.3235,4.2224,1.8906,6.1131.8823,2.1427-1.1344,4.6636-6.7433,5.0417-11.4069.3151-3.2771.1891-3.7813-1.7016-6.4282-1.7646-2.4578-2.5209-2.962-5.4199-3.5922-2.962-.6932-3.4032-.9453-3.4032-2.2688,0-1.5755,2.3318-5.6089,4.0334-7.0584.5672-.4412,1.0083-1.5125,1.0083-2.3318,0-2.0797-4.2855-9.7053-6.3652-11.4699-1.0083-.8193-2.0797-2.5839-2.4578-3.9073-.4412-1.6386-1.5755-3.2771-3.4032-4.8527l-2.773-2.3948,3.2141-3.4662c1.7646-1.8906,4.0964-4.9157,5.2308-6.7433,4.1594-6.4282,8.76-8.5079,23.381-10.6507,1.4495-.1891,2.899-1.3235,5.2938-3.9073,4.6006-4.9787,5.6089-7.6256,5.5459-13.8648-.126-4.4745.063-5.2938,1.3865-6.9954,1.6386-2.0797,3.7183-2.5209,4.9787-1.0083.4412.5042,1.7646.9453,2.962.9453,1.3865,0,3.1511.6932,4.9157,1.8906,3.2771,2.2688,3.9073,2.3318,4.4115.4412.2521-.7563,1.0714-2.2688,1.8906-3.2771,1.9537-2.6469,2.899-7.0584,2.773-12.9194-.063-3.025.1891-5.4199.6302-5.924.5672-.6932.4412-1.1974-.7563-2.3948-.8193-.8193-2.5839-3.4032-3.8443-5.735-2.1427-3.8443-2.5839-4.2224-4.3485-4.2224s-2.3948-.5672-4.9787-4.0964-3.2771-4.0964-4.9787-4.0964c-1.2604,0-2.3318.5042-3.025,1.3865l-1.1344,1.3235-2.3318-1.3865c-1.5125-.9453-2.2688-1.8906-2.2688-2.899,0-2.0797-3.025-7.2475-5.6089-9.5793-1.5125-1.3865-2.899-2.0167-4.2855-2.0797-1.1344,0-2.0797-.3151-2.0797-.6932s-1.7646-2.4578-3.9073-4.6636c-2.2058-2.1427-5.3568-5.9871-7.1214-8.4449-1.7016-2.4578-3.6553-4.6636-4.4115-4.8527-.6932-.2521-2.0167-.9453-2.962-1.5755-1.1974-.8823-2.773-1.1974-5.735-1.1974-3.9704,0-4.1594-.063-5.3568-2.1427-.6932-1.1974-2.3948-2.836-3.7183-3.5922-2.6469-1.5125-3.9704-4.2855-3.9704-8.3189,0-1.5755-.3781-2.3318-1.5125-2.899-1.0083-.5672-1.7646-1.8906-2.5209-4.5376-.6302-2.3948-1.3235-3.7183-1.9537-3.7183-.6932,0-.9453-.6932-.9453-2.7099,0-2.4578-.2521-2.836-3.7813-5.6719-2.0797-1.7016-3.7813-3.2141-3.7813-3.4662,0-.1891,1.2604-2.2058,2.773-4.4745,4.5376-6.9324,6.6803-10.3355,6.6803-10.8397,0-.2521-.9453-1.0714-2.1427-1.8276-1.8906-1.1344-2.1427-1.5755-1.8906-3.3401.2521-1.9537.126-2.1427-6.6173-6.4282-8.9491-5.735-11.4699-8.886-12.3522-15.7554-.1891-1.3865-1.1974-4.7896-2.2688-7.5626-2.899-7.6256-2.899-7.2475-.6932-7.2475,1.5755,0,2.0167.3781,2.899,2.5209.6932,1.7016,1.4495,2.5839,2.5839,2.899,1.1344.2521,1.5125.6932,1.3235,1.4495-.1891.5672.4412,2.3948,1.3865,4.1594,1.3235,2.4578,2.0167,3.1511,3.2771,3.1511,1.5125,0,1.5755-.2521,1.9537-4.0964.3781-4.6006.9453-6.3022,2.1427-6.3022.4412,0,1.1344-.8193,1.5755-1.8906.4412-1.0083,1.6386-2.3948,2.7099-3.0881,1.0714-.6302,2.2058-2.1427,2.5839-3.2771.4412-1.2604,1.1974-2.1427,1.9537-2.2688,5.0417-.8193,6.7433-.8823,8.5079-.2521,1.8906.6302,2.1427.5042,3.8443-1.2604,1.5125-1.6386,2.2058-1.8906,3.6553-1.6386,1.1344.2521,1.9537.126,2.0797-.3151.1891-.5042,1.3235-.063,3.0881,1.1344,4.2855,2.899,4.6006,2.899,7.4996.4412,1.9537-1.6386,2.5839-2.6469,2.5209-3.9073-.063-.8823-.126-1.9537-.063-2.3318.063-.4412,2.0167-.8823,4.5376-1.1344,5.1678-.5042,6.3652-1.4495,8.0668-6.1131,1.0083-2.5839,1.1974-2.773,3.0881-2.5839,1.1344.126,2.0167,0,2.0167-.3151.063-.2521,1.0083-1.6386,2.1427-2.962l2.0797-2.4578,2.2058,1.7016c1.1974.8823,2.4578,1.6386,2.836,1.6386.7563,0,3.4032-4.6006,4.6006-8.1298.8193-2.3948,1.3235-2.836,4.0964-3.9073,2.836-1.0714,3.2141-1.0714,4.6006-.1891,1.2604.8193,2.0167.8823,4.2224.3151,1.5125-.3781,3.5292-.5042,4.5376-.3151.9453.1891,2.5209.063,3.5292-.3151,1.3865-.5042,1.7016-1.0714,1.7016-2.7099.063-1.8276.3781-2.2688,2.836-3.5292,1.5755-.7563,3.8443-1.3865,5.1047-1.3865,1.5125,0,5.0417-1.3865,10.6507-4.0964,4.9787-2.4578,9.1381-4.0964,10.3355-4.0964,1.7016,0,2.1427-.3151,2.962-2.2058.4412-1.1974.8823-2.2688.8823-2.4578,0-.126-2.1427-1.4495-4.7266-2.836-2.5839-1.4495-4.7266-2.899-4.7266-3.2771,0-.3151.5672-1.7646,1.2604-3.0881l1.2604-2.5209,2.3948,1.0714c1.3235.6302,4.0334,1.1344,6.4282,1.1974,2.2688.063,5.1678.5672,6.5542,1.1344,2.3318.9453,2.3948,1.1344,2.0797,3.4032-.1891,1.2604-.5042,2.773-.6932,3.2771s-.126,1.3235.1891,1.8276c.4412.6932.8823.6302,2.5209-.5042,2.1427-1.5125,2.2058-1.3865,1.3865,2.899-.6302,3.1511,0,3.9704,2.899,3.9704,1.3865,0,2.2688.3781,2.7099,1.2604.5042.9453,1.3235,1.2604,3.0881,1.2604,2.3948,0,2.3948-.063,4.0964-4.2855.9453-2.3318,2.3318-5.4199,2.962-6.8694.6932-1.4495,1.3865-3.1511,1.5125-3.7813s1.1344-3.5922,2.1427-6.6173c1.0714-2.962,2.1427-7.2475,2.3318-9.4532.2521-2.4578,1.1344-5.3568,2.2058-7.5626,2.5209-4.9787,2.4578-5.924-.8193-20.9862-1.0083-4.6006-1.7016-5.798-3.9073-6.6173-1.0714-.4412-3.4032-1.4495-5.2308-2.2688-1.7646-.8193-3.5922-1.5125-3.9073-1.5125-.8823,0-.8823-3.4032,0-8.823l.7563-4.3485-2.6469-4.1594c-1.3865-2.2688-3.7183-5.924-5.1678-8.1298-2.899-4.6636-2.962-4.2855,1.8906-10.3986l3.2141-4.0334v-4.7896c0-2.899.4412-5.924,1.0714-7.8147l1.0714-2.962-1.9537-1.7646c-1.9537-1.6386-2.0167-1.9537-2.2688-7.3735-.4412-9.0751-.7563-9.8314-4.6636-9.8944-2.4578,0-2.5839-.126-4.2224-3.7813-3.025-6.9324-2.899-8.76,1.2604-13.8648,1.5755-1.9537,3.1511-6.8063,3.7183-11.533l.3781-3.1511-4.2855-2.836c-2.3318-1.5755-6.8694-5.3568-10.0204-8.3819-3.2141-3.025-8.697-7.6256-12.1632-10.2095l-6.3652-4.7266v-9.3272l2.7099-2.1427c1.4495-1.1344,3.2141-2.5839,3.8443-3.1511.6932-.6302,1.5125-1.1344,1.7646-1.1344.3151,0,1.6386-1.7646,3.025-3.9073,2.3948-3.6553,2.5209-4.0964,2.5209-8.9491,0-4.6636.1891-5.4199,2.5209-9.9574l2.5839-4.9157-1.3235-4.2224c-.6932-2.3318-1.7016-4.8527-2.1427-5.5459-.8193-1.1974-1.5755-4.6636-1.9537-8.4449-.063-.8823-.7563-5.0417-1.4495-9.2012-.7563-4.1594-1.9537-11.9741-2.7099-17.3309-.6932-5.3568-1.5125-10.0204-1.7646-10.2725s-2.0167.126-3.8443.8193c-4.8527,1.8906-8.0668,1.0714-14.8731-3.8443-2.962-2.1427-5.4829-4.0964-5.6089-4.4115-.1891-.2521,1.0083-.6932,2.6469-.8823,1.7016-.1891,3.7813-.8193,4.7266-1.3235,1.0714-.5672,3.5922-.8823,7.6886-.8823h6.0501v-7.1214l-6.7433-7.1845c-4.1594-4.4745-7.6886-7.6886-9.3272-8.4449-4.2224-2.0167-7.2475-4.9157-8.823-8.5709-1.3865-3.0881-1.7016-3.4032-3.2771-3.2141-1.3865.126-1.8276.5672-1.9537,1.9537-.126,1.0083-.5042,1.6386-.9453,1.5125s-.6932-.8823-.6302-1.5755c.126-.8193-.3151-1.6386-1.0083-1.9537-.9453-.5042-1.7016-.2521-3.5922,1.0714-1.3865.9453-4.6636,2.3948-7.3105,3.2771-2.7099.8193-4.9157,1.7016-4.9157,2.0167,0,1.0083-.9453.4412-2.3948-1.4495-1.2604-1.5125-1.3865-2.0167-.6932-2.836.6302-.7563.5672-1.1344-.2521-2.0167-.8193-.7563-1.2604-.8193-1.7646-.3151-.5672.5672-2.1427-.5042-6.3652-4.0964-5.5459-4.7896-6.1131-5.9871-2.2058-4.5376,4.0334,1.4495,11.2178,3.1511,11.8481,2.836.3151-.2521.5672-1.7646.5672-3.4662v-3.0881l4.7266-2.2058c7.1214-3.2771,6.5542-3.3401,9.7683.8823,1.5125,2.0797,3.025,3.7813,3.2141,3.7813.2521,0,1.2604-1.6386,2.3318-3.5922l1.8906-3.6553-2.773-3.4662c-1.5125-1.8906-3.9073-4.1594-5.2938-5.0417-2.3948-1.4495-2.5839-1.7646-2.3948-4.0964.1891-2.0797.6302-2.773,3.025-4.6006,1.5755-1.1974,2.899-2.3948,3.025-2.6469.063-.2521-.3781-1.7646-1.0714-3.3401l-1.2604-2.962h-14.8731l-1.3865-2.0167-1.3865-1.9537,1.5755-1.1974c1.0083-.8193,1.5125-1.8906,1.5125-3.0881q0-2.1427-5.5459-.8193c-4.9787,1.2604-7.6886,3.4032-7.6886,6.1131,0,.9453-.6932,2.7099-1.5755,3.8443-1.6386,2.1427-2.0167,3.5292-1.0083,3.5292,1.1344,0,4.4745-4.9157,4.4745-6.5542,0-1.0083.3781-1.6386.8823-1.6386.7563,0,.6932.6302-.126,3.9073-1.1974,4.5376-1.5125,4.9157-4.3485,4.9157-1.1344,0-2.0797.2521-2.0797.5672s1.5755,1.8276,3.5292,3.4032l3.4662,2.899-3.4662,2.3318c-1.9537,1.2604-3.5292,2.5209-3.5292,2.7099,0,.2521,1.1344,1.1344,2.5209,1.9537,1.7016,1.0714,2.5209,2.0167,2.5209,2.962,0,1.3235-.3151,1.4495-3.3401,1.4495h-3.3401l-.6932,2.5209c-.5672,2.2688-.5042,2.6469.5672,3.4032,1.4495,1.0083,1.3235,3.7183-.126,4.0334-1.1974.1891-2.5209-3.2771-3.0881-8.3819-.4412-3.7183-2.0797-7.8777-3.1511-7.8777-.3151,0-2.4578,1.5755-4.8527,3.5292-6.0501,4.9787-9.7053,6.3652-9.7053,3.7183,0-2.3948-8.1928-4.1594-11.4699-2.4578-1.0083.5042-1.7646.6302-1.7646.3151,0-.3781.8193-1.0714,1.8906-1.6386,1.3865-.6932,3.9704-.9453,10.9027-.9453,8.0037,0,9.2012-.126,10.0835-1.1344.6302-.6302,1.0714-1.3235,1.0714-1.5125s-4.5376-.5672-10.0835-.8193c-9.9574-.4412-10.0835-.5042-13.6127-2.5839-1.9537-1.1974-3.9073-2.1427-4.2855-2.1427-.6932,0-1.7016,1.5125-4.3485,6.3652-.4412.8193-2.5839,3.9073-4.7896,6.8694-2.773,3.7183-4.9157,5.861-7.0584,7.0584-2.899,1.7016-10.0204,8.2558-10.0204,9.3272,0,.6932-3.1511,1.8276-5.9871,2.0797-1.3865.126-3.3401.6302-4.4115,1.0714-5.861,2.3948-6.9324,2.5839-11.9741,2.2058l-5.0417-.3781-5.798,4.6006c-4.7896,3.7813-5.861,4.9157-5.861,6.3022,0,2.3948.7563,2.2058,3.4032-.8823,1.8906-2.2058,2.2688-2.3948,2.2688-1.3235,0,1.7016-1.9537,5.2308-2.962,5.2308-.3781,0-1.3235.7563-2.0167,1.7016-1.1974,1.7016-1.2604,1.7016-1.3235.3781,0-2.1427-2.2058-2.4578-4.7896-.6932-2.0797,1.3235-2.2058,1.6386-1.9537,4.0964q.2521,2.5839-1.2604,1.8906c-1.3865-.6302-1.7016-.5042-2.7099.8193-1.1344,1.5125-1.1974,1.5125-2.5209.3151-.9453-.8823-1.1974-1.6386-.9453-2.962.3781-1.5755.2521-1.7646-1.1974-1.7646-1.1974,0-1.7016-.3781-2.0167-1.5755-.3781-1.5125-.6302-1.5755-4.6006-1.5755s-4.4745.1891-9.2012,3.1511c-4.9157,3.0881-5.0417,3.1511-5.3568,1.7646-.3151-1.1974-.8193-1.4495-3.2771-1.6386-2.773-.1891-2.962-.3151-3.9073-2.7099-1.0083-2.4578-1.0083-2.6469.3151-4.8527.8193-1.3235,1.5125-2.4578,1.5755-2.5839.126-.126,1.0714.126,2.1427.5672,1.8906.8193,2.0797.6932,4.9157-2.0167,1.6386-1.5125,4.4115-3.7183,6.1761-4.7896,4.6636-2.899,4.9157-3.7813,4.4745-12.7304l-.4412-7.6256,1.8906-1.6386c1.8276-1.5125,1.8906-1.6386.8823-2.773-1.3865-1.5125-2.5839-1.5125-3.0881,0-.4412,1.5125-3.0881,2.0167-4.5376.9453-2.4578-1.8906-4.7896-1.0714-10.0835,3.5922-1.7016,1.4495-3.5922,2.4578-5.2308,2.7099-2.3318.3781-2.836.126-7.6886-3.4662-2.836-2.0797-6.8694-4.7266-9.0121-5.735-2.0797-1.0714-4.6636-2.5839-5.735-3.4032-3.1511-2.3948-7.5626-1.7016-11.4069,1.8276-1.2604,1.1344-1.4495,1.1344-1.8276.1891-.1891-.5672-.1891-2.0167.063-3.2771.3151-1.8906.126-2.5839-1.0083-3.7813s-2.0797-1.5125-4.7266-1.5125c-3.2141,0-8.0668,1.0083-11.785,2.4578-1.8276.6932-2.962.5042-2.962-.6302,0-.3151.3781-.5672.8193-.5672,1.6386,0,7.9407-4.7266,8.823-6.6173.5672-1.2604.9453-4.0964,1.0083-8.0668.063-5.798-.063-6.1761-1.3865-6.7433l-1.3865-.5672h1.5125c.9453-.063,1.3235-.3781,1.1344-.8823-.6302-1.7016-7.4996-11.785-7.9407-11.785-.3151,0-.8823.9453-1.3865,2.0167-.4412,1.1344-.8823,2.2058-1.0083,2.3318-.063.126-2.0797-1.0083-4.4115-2.5839-2.3948-1.5125-5.5459-3.1511-7.1214-3.5922-4.4745-1.2604-4.7266-1.5125-4.5376-4.0964.3151-3.025-.5042-2.899-4.2224.5672-1.6386,1.5755-3.3401,2.836-3.7183,2.836s-1.0714.4412-1.6386.9453c-.8193.8823-1.0083.8193-1.6386-.3151-.9453-1.7646-2.899-1.5755-4.1594.3151-.9453,1.4495-1.4495,1.6386-3.9704,1.4495s-2.899-.3781-2.962-1.6386c-.063-.7563-.1891-1.5125-.3151-1.6386s-3.2141-1.3235-6.8694-2.6469c-6.4912-2.3948-6.7433-2.3948-16.7007-2.5209-5.5459-.126-11.1548-.3781-12.4153-.6302-1.9537-.3151-2.3948-.2521-2.3948.5672,0,1.0083-.6932,1.1974-7.0584,2.0167-4.0964.5042-7.6886-.5042-8.5709-2.5209-1.5125-3.3401-.4412-7.1845,2.773-9.7053,1.1344-.8823,1.5755-1.7016,1.3235-2.5839-.2521-.9453,0-1.2604.8823-1.2604.6302,0,1.1974-.4412,1.1974-.9453,0-.6932-.6932-.9453-2.5209-.9453-2.3318,0-2.5209.126-3.7813,2.962Z" fill="#fff"/></svg>